<svg width="233" height="233" viewBox="0 0 233 233" fill="none" xmlns="http://www.w3.org/2000/svg">
<path d="M15.173 138.402H224.635" stroke="#263238" stroke-width="0.950299" stroke-linecap="round" stroke-linejoin="round"/>
<path d="M15.173 141.502H224.635" stroke="#263238" stroke-width="0.950299" stroke-linecap="round" stroke-linejoin="round"/>
<path d="M174.181 22.8203H16.9717V119.362H174.181V22.8203Z" stroke="#263238" stroke-width="0.950299" stroke-linecap="round" stroke-linejoin="round"/>
<path d="M174.181 114.277H16.9717V119.357H174.181V114.277Z" fill="#969696" stroke="#263238" stroke-width="0.950299" stroke-linecap="round" stroke-linejoin="round"/>
<path d="M174.181 119.305H16.9717V122.557H174.181V119.305Z" fill="#263238" stroke="#263238" stroke-width="0.950299" stroke-miterlimit="10"/>
<path d="M154.978 82.8823C154.978 82.8823 153.221 82.7331 149.204 78.0172C145.187 73.3013 148.593 65.1929 156.282 64.7735C163.971 64.3541 167.932 72.4392 165.467 77.1551C163.002 81.8711 159.083 83.3483 159.083 83.3483" stroke="#263238" stroke-width="0.950299" stroke-linecap="round" stroke-linejoin="round"/>
<path d="M160.514 84.0617C160.514 84.0617 152.592 83.7681 153.267 84.5277C153.943 85.2872 161.94 84.9704 160.136 85.5575C158.333 86.1447 151.748 85.5575 154.036 86.592C156.324 87.6266 162.014 86.2938 160.803 86.8856C159.591 87.4774 153.556 87.3283 155.276 88.2137" stroke="#263238" stroke-width="0.950299" stroke-linecap="round" stroke-linejoin="round"/>
<path d="M156.953 81.8478C156.953 81.8478 154.488 75.7898 153.556 74.0376C152.624 72.2855 151.254 70.3656 151.45 72.416C151.646 74.4664 153.407 74.3312 154.982 72.5651C156.557 70.7989 154.554 69.6153 154.423 71.9733C154.293 74.3312 156.506 74.3312 157.191 72.5651C157.876 70.7989 156.422 70.5007 156.604 72.5651C156.786 74.6295 158.431 74.1868 158.934 72.7095C159.437 71.2323 158.51 69.7644 158.384 71.9733C158.258 74.1821 158.985 74.4803 160.188 74.0376C161.39 73.5949 161.711 70.5007 160.728 72.2668C159.745 74.033 157.55 81.7033 157.55 81.7033" stroke="#263238" stroke-width="0.950299" stroke-linecap="round" stroke-linejoin="round"/>
<path d="M156.422 59.5918L156.24 62.8352" stroke="#263238" stroke-width="0.950299" stroke-linecap="round" stroke-linejoin="round"/>
<path d="M144.842 63.7207L148.831 66.2278" stroke="#263238" stroke-width="0.950299" stroke-linecap="round" stroke-linejoin="round"/>
<path d="M143.514 76.9883L145.905 76.3965" stroke="#263238" stroke-width="0.950299" stroke-linecap="round" stroke-linejoin="round"/>
<path d="M165.845 67.7004L168.501 65.0488" stroke="#263238" stroke-width="0.950299" stroke-linecap="round" stroke-linejoin="round"/>
<path d="M166.814 76.8398L170.472 77.2825" stroke="#263238" stroke-width="0.950299" stroke-linecap="round" stroke-linejoin="round"/>
<path d="M123.467 46.2365L121.892 34.936L127.148 33.8828" stroke="#263238" stroke-width="0.950299" stroke-linecap="round" stroke-linejoin="round"/>
<path d="M122.418 39.6657L126.887 38.0859" stroke="#263238" stroke-width="0.950299" stroke-linecap="round" stroke-linejoin="round"/>
<path d="M130.303 39.927L136.347 39.4004" stroke="#263238" stroke-width="0.950299" stroke-linecap="round" stroke-linejoin="round"/>
<path d="M130.303 42.2942L135.82 41.502" stroke="#263238" stroke-width="0.950299" stroke-linecap="round" stroke-linejoin="round"/>
<path d="M123.993 48.3387L139.763 46.498" stroke="#263238" stroke-width="0.950299" stroke-linecap="round" stroke-linejoin="round"/>
<path d="M145.28 34.1439C145.28 34.1439 144.232 31.5203 143.179 33.8829C142.125 36.2455 142.125 40.1879 143.439 38.6128C144.284 37.5681 144.991 36.4203 145.546 35.197L144.493 46.2319" stroke="#263238" stroke-width="0.950299" stroke-linecap="round" stroke-linejoin="round"/>
<path d="M150.798 33.6221C150.798 33.6221 149.749 30.9938 148.696 33.3564C147.643 35.7191 147.647 39.6661 148.962 38.0863C149.805 37.0423 150.512 35.8944 151.063 34.6706L150.01 45.7101" stroke="#263238" stroke-width="0.950299" stroke-linecap="round" stroke-linejoin="round"/>
<path d="M153.952 35.985C153.952 35.985 152.638 37.0381 152.899 35.985C153.16 34.9318 154.381 33.9905 155.006 35.724C155.597 37.369 155.528 40.9805 153.691 40.9805C151.855 40.9805 153.165 39.1165 157.107 39.9273" stroke="#263238" stroke-width="0.950299" stroke-linecap="round" stroke-linejoin="round"/>
<path d="M161.315 45.095C161.315 45.095 160.421 45.808 160.602 45.095C160.784 44.382 161.604 43.7436 162.028 44.9179C162.452 46.0922 162.387 48.4875 161.138 48.4875C159.889 48.4875 160.779 47.2386 163.468 47.7745" stroke="#263238" stroke-width="0.950299" stroke-linecap="round" stroke-linejoin="round"/>
<path d="M142.391 48.0736L159.47 45.7109" stroke="#263238" stroke-width="0.950299" stroke-linecap="round" stroke-linejoin="round"/>
<path d="M145.541 49.127L144.493 53.3303H147.908" stroke="#263238" stroke-width="0.950299" stroke-linecap="round" stroke-linejoin="round"/>
<path d="M148.962 49.9141L147.382 56.219" stroke="#263238" stroke-width="0.950299" stroke-linecap="round" stroke-linejoin="round"/>
<path d="M149.483 52.8018L153.64 51.9863" stroke="#263238" stroke-width="0.950299" stroke-linecap="round" stroke-linejoin="round"/>
<path d="M150.113 55.957C150.187 55.738 150.774 52.6484 150.774 52.6484" stroke="#263238" stroke-width="0.950299" stroke-linecap="round" stroke-linejoin="round"/>
<path d="M152.466 52.207L151.655 56.1075" stroke="#263238" stroke-width="0.950299" stroke-linecap="round" stroke-linejoin="round"/>
<path d="M158.235 48.3242C158.235 48.3242 155.597 48.7296 155.802 49.7222C156.007 50.7148 157.625 50.7381 157.625 50.7381C157.625 50.7381 153.57 52.1361 154.582 54.797C155.593 57.4578 158.845 53.9815 158.845 53.9815" stroke="#263238" stroke-width="0.950299" stroke-linecap="round" stroke-linejoin="round"/>
<path d="M160.873 51.168C160.873 51.168 160.267 56.8485 160.062 54.8214C159.857 52.7943 161.683 50.9629 162.294 51.3683" stroke="#263238" stroke-width="0.950299" stroke-linecap="round" stroke-linejoin="round"/>
<path d="M118.234 75.3711L110.265 81.5689L110.852 93.0838L119.417 97.809L127.386 91.9048L126.5 80.3899L118.234 75.3711Z" stroke="#263238" stroke-width="0.950299" stroke-linecap="round" stroke-linejoin="round"/>
<path d="M117.94 71.8301V78.3215" stroke="#263238" stroke-width="0.950299" stroke-linecap="round" stroke-linejoin="round"/>
<path d="M126.799 85.1113H130.042" stroke="#263238" stroke-width="0.950299" stroke-linecap="round" stroke-linejoin="round"/>
<path d="M107.31 87.1797L112.036 86.5879" stroke="#263238" stroke-width="0.950299" stroke-linecap="round" stroke-linejoin="round"/>
<path d="M119.417 96.332V101.644" stroke="#263238" stroke-width="0.950299" stroke-linecap="round" stroke-linejoin="round"/>
<path d="M118.234 66.3672C118.234 68.0775 117.507 69.4661 116.612 69.4661C115.717 69.4661 114.986 68.0681 114.986 66.3672C114.986 64.6663 115.712 63.2637 116.612 63.2637C117.511 63.2637 118.234 64.6524 118.234 66.3672Z" stroke="#263238" stroke-width="0.950299" stroke-linecap="round" stroke-linejoin="round"/>
<path d="M96.7603 90.7408C97.6559 90.7408 98.3819 89.3533 98.3819 87.6419C98.3819 85.9304 97.6559 84.543 96.7603 84.543C95.8646 84.543 95.1386 85.9304 95.1386 87.6419C95.1386 89.3533 95.8646 90.7408 96.7603 90.7408Z" stroke="#263238" stroke-width="0.950299" stroke-linecap="round" stroke-linejoin="round"/>
<path d="M139.935 82.8977C139.935 84.6126 139.208 86.0013 138.309 86.0013C137.409 86.0013 136.687 84.6033 136.687 82.8977C136.687 81.1922 137.414 79.7988 138.309 79.7988C139.204 79.7988 139.935 81.1875 139.935 82.8977Z" stroke="#263238" stroke-width="0.950299" stroke-linecap="round" stroke-linejoin="round"/>
<path d="M119.417 69.1685L119.119 62.9707L122.367 68.8749L122.665 63.2643" stroke="#263238" stroke-width="0.950299" stroke-linecap="round" stroke-linejoin="round"/>
<path d="M102.366 90.2974L102.073 84.0996L105.321 90.0038L105.614 84.3932" stroke="#263238" stroke-width="0.950299" stroke-linecap="round" stroke-linejoin="round"/>
<path d="M131.817 85.9966L131.519 79.7988L134.767 85.703L135.061 80.0924" stroke="#263238" stroke-width="0.950299" stroke-linecap="round" stroke-linejoin="round"/>
<path d="M123.695 106.518C123.695 108.228 122.968 109.617 122.073 109.617C121.179 109.617 120.447 108.219 120.447 106.518C120.447 104.817 121.174 103.414 122.073 103.414C122.973 103.414 123.695 104.803 123.695 106.518Z" stroke="#263238" stroke-width="0.950299" stroke-linecap="round" stroke-linejoin="round"/>
<path d="M115.577 109.617L115.284 103.414L118.532 109.318L118.825 103.712" stroke="#263238" stroke-width="0.950299" stroke-linecap="round" stroke-linejoin="round"/>
<path d="M142.368 83.3215C142.368 83.3215 141.478 84.0345 141.655 83.3215C141.832 82.6086 142.657 81.9701 143.081 83.1445C143.505 84.3188 143.439 86.714 142.191 86.714C140.942 86.714 141.832 85.4651 144.521 86.001" stroke="#263238" stroke-width="0.950299" stroke-linecap="round" stroke-linejoin="round"/>
<path d="M99.9291 89.9847C99.9291 89.9847 99.039 90.6977 99.2161 89.9847C99.3932 89.2717 100.223 88.6286 100.647 89.803C101.071 90.9773 101.001 93.3725 99.752 93.3725C98.5031 93.3725 99.3978 92.1236 102.082 92.6595" stroke="#263238" stroke-width="0.950299" stroke-linecap="round" stroke-linejoin="round"/>
<path d="M26.2824 39.7969L26.0308 50.1281" stroke="#263238" stroke-width="0.950299" stroke-linecap="round" stroke-linejoin="round"/>
<path d="M25.7791 41.0551C25.7791 41.0551 33.086 40.5425 31.0729 41.5584C29.3858 42.5069 27.7831 43.5982 26.2824 44.8204C26.2824 44.8204 33.8456 45.8316 30.0617 47.3414C26.2778 48.8513 23.7614 47.5931 23.7614 47.5931" stroke="#263238" stroke-width="0.950299" stroke-linecap="round" stroke-linejoin="round"/>
<path d="M33.2398 45.7189C33.2398 45.7189 32.4802 46.3294 32.6293 45.7189C32.7784 45.1085 33.4868 44.5679 33.8502 45.5698C34.2137 46.5717 34.1531 48.6175 33.086 48.6175C32.0189 48.6175 32.7831 47.5317 35.0665 47.9977" stroke="#263238" stroke-width="0.950299" stroke-linecap="round" stroke-linejoin="round"/>
<path d="M40.9008 41.5586C40.9008 41.5586 35.8587 41.9034 36.8699 43.2735C37.8812 44.6435 43.1703 45.8458 41.9074 46.8524C40.4721 48.0603 38.7269 48.8417 36.8699 49.1078" stroke="#263238" stroke-width="0.950299" stroke-linecap="round" stroke-linejoin="round"/>
<path d="M45.435 45.0862C45.435 46.899 44.8152 48.3482 44.037 48.3482C43.2588 48.3482 42.639 46.8803 42.639 45.0862C42.639 43.2921 43.2634 41.8242 44.037 41.8242C44.8106 41.8242 45.435 43.2781 45.435 45.0862Z" stroke="#263238" stroke-width="0.950299" stroke-linecap="round" stroke-linejoin="round"/>
<path d="M102.226 60.7758C105.696 60.7758 108.508 53.9743 108.508 45.5842C108.508 37.1941 105.696 30.3926 102.226 30.3926C98.7572 30.3926 95.9448 37.1941 95.9448 45.5842C95.9448 53.9743 98.7572 60.7758 102.226 60.7758Z" stroke="#263238" stroke-width="0.950299" stroke-linecap="round" stroke-linejoin="round"/>
<path d="M102.226 51.8661C110.617 51.8661 117.418 49.0537 117.418 45.5844C117.418 42.1151 110.617 39.3027 102.226 39.3027C93.8364 39.3027 87.0349 42.1151 87.0349 45.5844C87.0349 49.0537 93.8364 51.8661 102.226 51.8661Z" stroke="#263238" stroke-width="0.950299" stroke-linecap="round" stroke-linejoin="round"/>
<path d="M106.667 50.0263C112.6 44.0936 115.42 37.2956 112.967 34.8424C110.514 32.3893 103.716 35.21 97.7833 41.1427C91.8506 47.0754 89.0299 53.8734 91.483 56.3266C93.9362 58.7797 100.734 55.959 106.667 50.0263Z" stroke="#263238" stroke-width="0.950299" stroke-linecap="round" stroke-linejoin="round"/>
<path d="M112.967 56.3275C115.42 53.8744 112.6 47.0763 106.667 41.1436C100.734 35.2109 93.9362 32.3902 91.483 34.8433C89.0299 37.2965 91.8506 44.0946 97.7833 50.0272C103.716 55.9599 110.514 58.7807 112.967 56.3275Z" stroke="#263238" stroke-width="0.950299" stroke-linecap="round" stroke-linejoin="round"/>
<path d="M104.118 45.8456C104.118 46.3065 103.982 46.7569 103.726 47.1401C103.47 47.5233 103.106 47.8219 102.68 47.9983C102.254 48.1746 101.786 48.2208 101.334 48.1309C100.882 48.041 100.467 47.819 100.141 47.4932C99.815 47.1673 99.5931 46.7522 99.5032 46.3002C99.4133 45.8482 99.4594 45.3797 99.6358 44.954C99.8121 44.5282 100.111 44.1643 100.494 43.9083C100.877 43.6523 101.328 43.5156 101.788 43.5156C102.406 43.5156 102.999 43.7611 103.436 44.1981C103.873 44.635 104.118 45.2277 104.118 45.8456Z" fill="#263238"/>
<path d="M96.462 34.4841C96.4629 34.7166 96.3948 34.9441 96.2664 35.1378C96.1379 35.3315 95.9548 35.4828 95.7403 35.5724C95.5258 35.662 95.2896 35.6859 95.0615 35.6411C94.8334 35.5963 94.6237 35.4848 94.459 35.3208C94.2943 35.1567 94.182 34.9475 94.1363 34.7196C94.0906 34.4917 94.1136 34.2553 94.2023 34.0405C94.2911 33.8256 94.4416 33.6419 94.6348 33.5127C94.828 33.3834 95.0552 33.3145 95.2877 33.3145C95.5983 33.3145 95.8963 33.4375 96.1164 33.6568C96.3365 33.876 96.4608 34.1735 96.462 34.4841Z" fill="#263238"/>
<path d="M118.592 45.5846C118.592 45.8174 118.523 46.045 118.393 46.2384C118.264 46.4318 118.08 46.5823 117.864 46.6708C117.649 46.7592 117.412 46.7816 117.184 46.7352C116.956 46.6887 116.746 46.5755 116.583 46.4099C116.419 46.2442 116.308 46.0337 116.265 45.805C116.221 45.5763 116.246 45.3397 116.337 45.1254C116.428 44.9111 116.581 44.7287 116.776 44.6013C116.971 44.474 117.199 44.4075 117.432 44.4102C117.741 44.4139 118.036 44.5393 118.253 44.7591C118.471 44.9789 118.592 45.2755 118.592 45.5846Z" fill="#263238"/>
<path d="M192.388 170.109L192.239 218.364H190.58L186.81 170.109H192.388Z" fill="#263238" stroke="#263238" stroke-width="0.950299" stroke-linecap="round" stroke-linejoin="round"/>
<path d="M210.786 170.109L210.637 218.364H208.978L205.208 170.109H210.786Z" fill="#651FFF" stroke="#263238" stroke-width="0.950299" stroke-linecap="round" stroke-linejoin="round"/>
<path d="M210.776 172.607H205.403L205.208 170.109H210.786L210.776 172.607Z" fill="#263238" stroke="#263238" stroke-width="0.950299" stroke-linecap="round" stroke-linejoin="round"/>
<path d="M185.151 170.109L185.3 218.364H186.959L190.729 170.109H185.151Z" fill="#651FFF" stroke="#263238" stroke-width="0.950299" stroke-linecap="round" stroke-linejoin="round"/>
<path d="M190.533 172.607H185.156L185.151 170.109H190.729L190.533 172.607Z" fill="#263238" stroke="#263238" stroke-width="0.950299" stroke-linecap="round" stroke-linejoin="round"/>
<path d="M160.393 170.109L160.546 218.364H162.205L165.975 170.109H160.393Z" fill="#651FFF" stroke="#263238" stroke-width="0.950299" stroke-linecap="round" stroke-linejoin="round"/>
<path d="M165.78 172.607H160.402L160.393 170.109H165.975L165.78 172.607Z" fill="#263238" stroke="#263238" stroke-width="0.950299" stroke-linecap="round" stroke-linejoin="round"/>
<path d="M215.162 128.524L211.657 167.985H179.876L178.571 128.104C178.555 127.543 178.651 126.985 178.855 126.462C179.058 125.939 179.365 125.462 179.756 125.06C180.147 124.658 180.615 124.338 181.132 124.119C181.649 123.901 182.204 123.789 182.765 123.789L211.019 123.975C211.596 123.98 212.167 124.105 212.694 124.34C213.221 124.576 213.694 124.918 214.083 125.345C214.472 125.772 214.769 126.275 214.954 126.822C215.14 127.369 215.21 127.948 215.162 128.524Z" fill="#651FFF" stroke="#263238" stroke-width="0.950299" stroke-linecap="round" stroke-linejoin="round"/>
<path d="M213.209 128.524L209.7 167.985H177.937L176.614 128.104C176.598 127.543 176.694 126.985 176.898 126.462C177.101 125.939 177.408 125.462 177.799 125.06C178.19 124.658 178.658 124.338 179.175 124.119C179.691 123.901 180.247 123.789 180.808 123.789L209.066 123.975C209.644 123.98 210.214 124.105 210.741 124.34C211.269 124.576 211.742 124.918 212.131 125.345C212.519 125.772 212.816 126.275 213.002 126.822C213.187 127.369 213.258 127.948 213.209 128.524Z" fill="#263238" stroke="#263238" stroke-width="0.950299" stroke-linecap="round" stroke-linejoin="round"/>
<path d="M158.351 170.672H212.142V167.088H158.351V170.672Z" fill="#651FFF" stroke="#263238" stroke-width="0.950299" stroke-linecap="round" stroke-linejoin="round"/>
<path d="M212.142 167.084L211.676 166.399C211.031 165.442 210.161 164.658 209.142 164.116C208.123 163.574 206.986 163.291 205.832 163.291H164.796C163.759 163.293 162.734 163.524 161.797 163.968C160.859 164.411 160.031 165.057 159.372 165.859L158.365 167.084H212.142Z" fill="#263238" stroke="#263238" stroke-width="0.950299" stroke-linecap="round" stroke-linejoin="round"/>
<path d="M158.351 170.672H188.851V167.088H158.351V170.672Z" fill="#651FFF" stroke="#263238" stroke-width="0.950299" stroke-linecap="round" stroke-linejoin="round"/>
<path d="M184.685 133.65C185.012 134.062 185.191 134.572 185.191 135.099C185.191 135.625 185.012 136.136 184.685 136.548H200.995L201.61 134.968L200.823 133.57L184.685 133.65Z" fill="white" stroke="#263238" stroke-width="0.950299" stroke-linecap="round" stroke-linejoin="round"/>
<path d="M201.014 136.473V133.826H185.934V133.164H207.44C207.966 133.164 208.471 133.373 208.844 133.745C209.216 134.118 209.425 134.623 209.425 135.149C209.425 135.676 209.216 136.181 208.844 136.553C208.471 136.925 207.966 137.134 207.44 137.134H185.934V136.473H201.014Z" fill="#651FFF" stroke="#263238" stroke-width="0.950299" stroke-linecap="round" stroke-linejoin="round"/>
<path d="M201.014 135.139C201.014 134.788 200.874 134.452 200.626 134.204C200.378 133.955 200.041 133.816 199.69 133.816H183.898V133.154H200.063C200.569 133.154 201.053 133.355 201.411 133.713C201.768 134.07 201.969 134.555 201.969 135.06C201.969 135.608 201.752 136.133 201.364 136.52C200.977 136.907 200.452 137.125 199.905 137.125H183.898V136.463H199.69C200.041 136.463 200.378 136.323 200.626 136.075C200.874 135.827 201.014 135.49 201.014 135.139Z" fill="#651FFF" stroke="#263238" stroke-width="0.950299" stroke-linecap="round" stroke-linejoin="round"/>
<path d="M184.298 129.632C184.626 130.044 184.804 130.555 184.804 131.081C184.804 131.608 184.626 132.118 184.298 132.53H200.608L201.223 130.951L200.436 129.553L184.298 129.632Z" fill="white" stroke="#263238" stroke-width="0.950299" stroke-linecap="round" stroke-linejoin="round"/>
<path d="M200.627 132.455V129.808H185.566V129.146H207.072C207.598 129.146 208.103 129.356 208.475 129.728C208.848 130.1 209.057 130.605 209.057 131.132C209.057 131.658 208.848 132.163 208.475 132.535C208.103 132.908 207.598 133.117 207.072 133.117H185.566V132.455H200.627Z" fill="#651FFF" stroke="#263238" stroke-width="0.950299" stroke-linecap="round" stroke-linejoin="round"/>
<path d="M200.627 131.132C200.627 130.781 200.488 130.444 200.239 130.196C199.991 129.948 199.655 129.808 199.304 129.808H183.511V129.146H199.676C200.182 129.146 200.667 129.347 201.024 129.705C201.381 130.062 201.582 130.547 201.582 131.052C201.582 131.324 201.529 131.593 201.425 131.844C201.321 132.094 201.168 132.322 200.976 132.514C200.784 132.706 200.556 132.858 200.305 132.961C200.054 133.064 199.785 133.117 199.513 133.117H183.511V132.455H199.304C199.655 132.455 199.991 132.316 200.239 132.067C200.488 131.819 200.627 131.483 200.627 131.132Z" fill="#651FFF" stroke="#263238" stroke-width="0.950299" stroke-linecap="round" stroke-linejoin="round"/>
<path d="M209.29 131.356L208.488 123.807" stroke="#263238" stroke-width="0.950299" stroke-linecap="round" stroke-linejoin="round"/>
<path d="M208.484 124.021C208.484 124.021 207.039 122.898 207.039 120.326C207.039 117.754 208.964 115.666 208.964 115.666C208.964 115.666 211.051 118.234 210.571 120.792C210.091 123.35 208.484 124.021 208.484 124.021Z" fill="#651FFF" stroke="#263238" stroke-width="0.950299" stroke-linecap="round" stroke-linejoin="round"/>
<path d="M210.031 130.797C210.73 128.991 211.587 127.249 212.589 125.592" stroke="#263238" stroke-width="0.950299" stroke-linecap="round" stroke-linejoin="round"/>
<path d="M211.834 126.957C211.834 126.957 211.033 125.307 212.165 123.005C213.298 120.703 215.949 119.678 215.949 119.678C215.949 119.678 216.69 122.902 215.124 124.995C213.558 127.087 211.834 126.957 211.834 126.957Z" fill="#651FFF" stroke="#263238" stroke-width="0.950299" stroke-linecap="round" stroke-linejoin="round"/>
<path d="M207.985 131.472C207.552 130.014 206.96 128.607 206.219 127.278L205.096 125.354" stroke="#263238" stroke-width="0.950299" stroke-linecap="round" stroke-linejoin="round"/>
<path d="M206 126.859C205.112 127.132 204.17 127.177 203.26 126.988C202.351 126.799 201.504 126.382 200.799 125.778C198.306 123.681 198.469 119.407 198.469 119.407C198.469 119.407 203.302 118.718 205.254 121.458C205.816 122.226 206.178 123.122 206.309 124.064C206.439 125.007 206.333 125.967 206 126.859Z" fill="#651FFF" stroke="#263238" stroke-width="0.950299" stroke-linecap="round" stroke-linejoin="round"/>
<path d="M212.985 128.947H204.635V137.135H212.985V128.947Z" fill="white" stroke="#263238" stroke-width="0.950299" stroke-linecap="round" stroke-linejoin="round"/>
<path d="M140.807 132.702L148.3 104.113" stroke="#263238" stroke-width="0.950299" stroke-miterlimit="10"/>
<path d="M146.869 103.573C146.833 103.724 146.857 103.883 146.937 104.016C147.018 104.149 147.147 104.244 147.298 104.282C150.958 105.253 154.088 107.63 156.006 110.896C157.924 114.162 158.475 118.053 157.541 121.723C156.607 125.393 154.262 128.547 151.016 130.498C147.77 132.449 143.885 133.041 140.205 132.144C140.133 132.125 140.057 132.121 139.983 132.131C139.909 132.141 139.838 132.166 139.773 132.204C139.708 132.243 139.652 132.293 139.607 132.353C139.562 132.413 139.53 132.481 139.511 132.554V132.582C139.492 132.653 139.488 132.728 139.498 132.801C139.508 132.875 139.533 132.945 139.571 133.009C139.608 133.073 139.658 133.128 139.718 133.173C139.777 133.217 139.845 133.249 139.917 133.267C143.899 134.251 148.109 133.621 151.628 131.513C155.148 129.405 157.69 125.991 158.702 122.015C159.713 118.039 159.111 113.825 157.027 110.292C154.943 106.758 151.546 104.192 147.578 103.154C147.503 103.134 147.426 103.13 147.35 103.14C147.275 103.151 147.202 103.176 147.136 103.215C147.07 103.254 147.012 103.306 146.966 103.368C146.921 103.429 146.888 103.499 146.869 103.573Z" fill="#263238" stroke="#263238" stroke-width="0.950299" stroke-miterlimit="10"/>
<path d="M143.603 131.31C150.858 131.31 156.739 125.429 156.739 118.174C156.739 110.919 150.858 105.037 143.603 105.037C136.347 105.037 130.466 110.919 130.466 118.174C130.466 125.429 136.347 131.31 143.603 131.31Z" fill="#651FFF" stroke="#263238" stroke-width="0.950299" stroke-miterlimit="10"/>
<path d="M143.463 136.189H140.583L140.914 133.234H143.127L143.463 136.189Z" fill="#263238" stroke="#263238" stroke-width="0.950299" stroke-miterlimit="10"/>
<path d="M148.826 137.134H135.312C135.312 136.968 135.345 136.803 135.409 136.65C135.473 136.496 135.566 136.357 135.684 136.239C135.802 136.122 135.942 136.029 136.095 135.966C136.249 135.903 136.414 135.87 136.58 135.871H147.55C147.716 135.87 147.881 135.903 148.034 135.966C148.188 136.029 148.328 136.122 148.446 136.239C148.563 136.357 148.657 136.496 148.721 136.65C148.784 136.803 148.817 136.968 148.817 137.134H148.826Z" fill="#263238" stroke="#263238" stroke-width="0.950299" stroke-miterlimit="10"/>
<path d="M151.72 114.962C152.652 115.274 152.815 114.962 153.281 115.428C153.747 115.894 154.679 117.147 154.535 118.084C154.39 119.021 153.906 119.948 154.535 119.948C155.164 119.948 155.784 119.016 155.784 118.55C155.784 118.084 156.096 115.889 156.096 115.889L156.371 115.074C155.636 112.045 153.849 109.376 151.329 107.543L150.937 107.604L149.684 108.382C148.752 108.382 148.435 108.07 147.82 108.07C147.208 108 146.593 108.167 146.1 108.536C145.476 109.002 144.851 109.934 145.476 110.101C145.932 110.22 146.403 110.271 146.874 110.255C147.34 110.255 147.498 109.789 147.34 110.255C147.225 110.49 147.047 110.687 146.825 110.826C146.603 110.964 146.348 111.038 146.086 111.038C145.61 110.986 145.141 110.881 144.688 110.726C143.29 110.26 142.657 109.943 142.032 110.26C141.408 110.577 140.779 110.572 140.634 111.043C140.502 111.502 140.396 111.969 140.317 112.441C140.355 112.545 140.418 112.639 140.499 112.714C140.58 112.79 140.678 112.845 140.785 112.876C140.892 112.906 141.005 112.911 141.114 112.89C141.223 112.868 141.325 112.821 141.412 112.753C141.849 112.485 142.319 112.275 142.81 112.128H143.439L144.064 113.224L144.688 113.848C144.874 113.407 144.928 112.922 144.847 112.45C145.313 112.138 146.245 113.233 146.245 113.233L147.028 113.387L148.426 113.703L148.892 114.799L146.86 114.016C146.86 114.016 146.077 114.799 146.394 115.265C146.587 115.555 146.743 115.868 146.86 116.197C146.111 115.859 145.331 115.597 144.53 115.414C143.598 115.255 143.132 115.567 142.806 115.101C142.48 114.635 142.181 113.703 141.711 113.536C141.303 113.43 140.883 113.377 140.462 113.377C139.833 113.383 139.226 113.605 138.742 114.006C138.118 114.631 137.81 114.472 137.489 115.255C137.264 115.916 137.108 116.599 137.023 117.292C137.023 117.292 136.557 117.292 136.557 118.224C136.588 118.962 136.692 119.696 136.869 120.414L138.122 121.509C138.463 121.68 138.833 121.786 139.213 121.821H140.779L141.874 122.133C142.054 122.413 142.161 122.734 142.186 123.065C142.17 123.55 142.278 124.031 142.498 124.463C142.702 124.95 143.022 125.379 143.43 125.712V126.966C143.339 127.427 143.286 127.894 143.272 128.364C143.272 128.988 144.362 129.846 144.362 129.846L145.62 129.613C145.62 129.613 146.715 129.613 146.869 128.83C146.956 128.22 147.169 127.634 147.494 127.11C147.813 126.68 148.077 126.21 148.277 125.712C148.556 124.957 148.765 124.177 148.901 123.382C149.059 122.287 149.218 121.658 149.218 121.658L150.937 119.626C150.937 119.626 151.562 119.002 151.403 118.377C151.245 117.753 150.005 117.748 150.005 117.748L151.73 116.35L150.937 115.101C150.937 115.101 150.779 114.635 151.72 114.962Z" fill="white" stroke="#263238" stroke-width="0.950299" stroke-linecap="round" stroke-linejoin="round"/>
<path d="M150.756 126.076C150.756 126.076 147.596 128.569 149.26 128.071C149.706 127.971 150.101 127.715 150.376 127.349C150.65 126.984 150.785 126.532 150.756 126.076Z" fill="white" stroke="#263238" stroke-width="0.950299" stroke-linecap="round" stroke-linejoin="round"/>
<path d="M120.643 218.362H118.741L117.586 137.936H120.75L120.643 218.362Z" fill="white" stroke="#263238" stroke-width="0.950299" stroke-linecap="round" stroke-linejoin="round"/>
<path d="M122.213 218.362H120.317L120.205 137.936H123.374L122.213 218.362Z" fill="#263238" stroke="#263238" stroke-width="0.950299" stroke-linecap="round" stroke-linejoin="round"/>
<path d="M132.554 218.362H130.652L129.497 137.936H132.661L132.554 218.362Z" fill="white" stroke="#263238" stroke-width="0.950299" stroke-linecap="round" stroke-linejoin="round"/>
<path d="M134.124 218.362H132.227L132.116 137.936H135.284L134.124 218.362Z" fill="#263238" stroke="#263238" stroke-width="0.950299" stroke-linecap="round" stroke-linejoin="round"/>
<path d="M141.259 149.287H121.123V180.929H141.259V149.287Z" fill="white" stroke="#263238" stroke-width="0.950299" stroke-linecap="round" stroke-linejoin="round"/>
<path d="M155.402 149.287H141.021V180.929H155.402V149.287Z" fill="#263238" stroke="#263238" stroke-width="0.950299" stroke-linecap="round" stroke-linejoin="round"/>
<path d="M206.363 218.362H204.467L203.306 137.936H206.471L206.363 218.362Z" fill="white" stroke="#263238" stroke-width="0.950299" stroke-linecap="round" stroke-linejoin="round"/>
<path d="M207.939 218.362H206.037L205.93 137.936H209.094L207.939 218.362Z" fill="#263238" stroke="#263238" stroke-width="0.950299" stroke-linecap="round" stroke-linejoin="round"/>
<path d="M215.418 218.362H213.517L212.361 137.936H215.525L215.418 218.362Z" fill="white" stroke="#263238" stroke-width="0.950299" stroke-linecap="round" stroke-linejoin="round"/>
<path d="M216.988 218.362H215.092L214.98 137.936H218.149L216.988 218.362Z" fill="#263238" stroke="#263238" stroke-width="0.950299" stroke-linecap="round" stroke-linejoin="round"/>
<path d="M220.413 137.936H116.258V149.516H220.413V137.936Z" fill="white" stroke="#263238" stroke-width="0.950299" stroke-linecap="round" stroke-linejoin="round"/>
<path d="M220.413 137.936H207.426V149.516H220.413V137.936Z" fill="#263238" stroke="#263238" stroke-width="0.950299" stroke-linecap="round" stroke-linejoin="round"/>
<path d="M220.413 137.936H116.258V142.847H220.413V137.936Z" fill="#263238" stroke="#263238" stroke-width="0.950299" stroke-linecap="round" stroke-linejoin="round"/>
<path d="M221.723 137.004H114.953V139.986H221.723V137.004Z" fill="white" stroke="#263238" stroke-width="0.950299" stroke-linecap="round" stroke-linejoin="round"/>
<path d="M221.723 137.004H208.912V139.986H221.723V137.004Z" fill="#263238" stroke="#263238" stroke-width="0.950299" stroke-linecap="round" stroke-linejoin="round"/>
<path d="M75.1099 215.693H64.8252C64.5319 215.693 64.294 215.931 64.294 216.225V218.023C64.294 218.317 64.5319 218.555 64.8252 218.555H75.1099C75.4033 218.555 75.6411 218.317 75.6411 218.023V216.225C75.6411 215.931 75.4033 215.693 75.1099 215.693Z" fill="#263238"/>
<path d="M79.9749 160.822C79.9749 160.822 76.2888 172.472 76.2888 175.268C76.2888 178.064 76.2888 185.157 74.5134 191.508C72.7379 197.86 70.38 204.645 70.2355 205.381C70.1429 205.868 70.093 206.363 70.0864 206.858C70.0864 206.858 75.1052 214.091 75.1052 215.125C75.1052 216.16 74.0707 216.453 73.4835 216.453H64.9184C64.9184 216.453 64.3313 216.16 64.033 213.499C63.7348 210.838 64.499 205.973 64.499 205.381C64.499 204.789 63.6136 196.821 62.2855 192.245C60.9574 187.669 60.9574 179.994 61.1066 178.074C61.2557 176.154 61.992 173.055 61.992 172.016V164.047L79.9749 160.822Z" fill="white" stroke="#263238" stroke-width="0.950299" stroke-linecap="round" stroke-linejoin="round"/>
<path d="M70.1516 213.182C70.1516 213.182 71.5496 214.58 71.3679 215.307C71.2616 215.705 71.0899 216.083 70.8599 216.425" stroke="#263238" stroke-width="0.950299" stroke-linecap="round" stroke-linejoin="round"/>
<path d="M72.0762 213.182C72.0762 213.182 73.395 213.89 73.1899 215.004C73.1159 215.483 73.0147 215.957 72.887 216.425" stroke="#263238" stroke-width="0.950299" stroke-linecap="round" stroke-linejoin="round"/>
<path d="M73.4928 213.08C73.4928 213.08 75.0166 214.702 74.4248 215.513C74.1838 215.894 73.8665 216.22 73.4928 216.473" stroke="#263238" stroke-width="0.950299" stroke-linecap="round" stroke-linejoin="round"/>
<path d="M64.2381 167.011C64.2381 167.011 75.8881 167.943 78.5676 165.203L79.1687 162.789L63.3247 164.448L64.2381 167.011Z" fill="#263238" stroke="#263238" stroke-width="0.950299" stroke-linecap="round" stroke-linejoin="round"/>
<path d="M67.9008 213.573C67.9008 213.573 68.3249 213.466 69.173 214.1C70.0211 214.734 70.3427 215.796 69.3874 216.22" stroke="#263238" stroke-width="0.950299" stroke-linecap="round" stroke-linejoin="round"/>
<path d="M73.7957 212.524C73.3297 211.783 72.8265 210.972 72.3232 210.194C69.6083 209.51 66.7714 209.469 64.0377 210.073C63.9958 210.697 63.9678 211.326 63.9678 211.937C67.2274 211.13 70.6555 211.335 73.7957 212.524Z" fill="#263238"/>
<path d="M59.6293 215.693H48.6038C48.3104 215.693 48.0725 215.931 48.0725 216.225V218.023C48.0725 218.317 48.3104 218.555 48.6038 218.555H59.6293C59.9227 218.555 60.1606 218.317 60.1606 218.023V216.225C60.1606 215.931 59.9227 215.693 59.6293 215.693Z" fill="#263238"/>
<path d="M46.3577 160.402C46.3577 160.402 50.9478 170.594 50.4352 174.331C49.9226 178.068 47.5506 186.223 49.4193 192.17C51.2879 198.116 53.4968 205.082 53.837 206.103C54.1771 207.124 49.7595 213.428 48.93 214.766C48.1005 216.103 50.2907 216.63 51.6514 216.63H58.7626C58.7626 216.63 59.7831 216.29 59.7831 214.766C59.7831 213.242 58.2546 206.951 59.1028 203.046C59.9509 199.141 61.8195 190.464 63.6882 182.318C65.5569 174.173 65.0489 164.307 65.0489 164.307L46.3577 160.402Z" fill="white" stroke="#263238" stroke-width="0.950299" stroke-linecap="round" stroke-linejoin="round"/>
<path d="M50.8918 214.23C50.8918 214.23 49.396 215.852 49.862 216.36" stroke="#263238" stroke-width="0.950299" stroke-linecap="round" stroke-linejoin="round"/>
<path d="M52.3131 214.332C52.3131 214.332 50.9943 215.651 51.5023 216.462" stroke="#263238" stroke-width="0.950299" stroke-linecap="round" stroke-linejoin="round"/>
<path d="M54.056 214.23C54.056 214.23 52.658 215.75 53.4502 216.463" stroke="#263238" stroke-width="0.950299" stroke-linecap="round" stroke-linejoin="round"/>
<path d="M48.5479 165.956C48.5479 165.956 59.5594 168.668 64.9883 166.422L65.0489 164.321L47.8069 163.389L48.5479 165.956Z" fill="#263238" stroke="#263238" stroke-width="0.950299" stroke-linecap="round" stroke-linejoin="round"/>
<path d="M56.1297 213.572C55.7522 213.925 55.4618 214.36 55.2816 214.844C54.8575 215.776 55.1744 216.219 55.92 216.434" stroke="#263238" stroke-width="0.950299" stroke-linecap="round" stroke-linejoin="round"/>
<path d="M59.5082 212.519C59.4196 211.932 59.3171 211.275 59.2239 210.571C55.8547 209.579 53.4595 209.747 51.8891 210.194C51.2879 211.159 50.6449 212.137 50.095 212.962C50.3265 212.962 50.549 212.872 50.7148 212.71C50.7427 212.687 53.2078 210.39 59.5082 212.519Z" fill="#263238"/>
<path d="M38.0535 125.023C38.0535 125.023 35.3973 131.002 36.7254 140.522C38.0535 150.043 42.4852 162.667 42.4852 162.667C49.3526 164.45 56.4207 165.342 63.5158 165.323C75.4734 165.323 81.2238 162.443 81.2238 162.443C81.2238 162.443 85.6508 145.616 85.6508 136.315C85.6508 127.013 83.2136 121.705 83.2136 121.705C83.2136 121.705 61.9593 126.365 42.2522 119.711L38.0535 125.023Z" fill="#263238" stroke="#263238" stroke-width="0.950299" stroke-linecap="round" stroke-linejoin="round"/>
<path d="M65.8411 152.955L66.5961 154.041" stroke="#787878" stroke-width="0.950299" stroke-linecap="round" stroke-linejoin="round"/>
<path d="M56.2974 139.273L64.9557 151.692" stroke="#787878" stroke-width="0.950299" stroke-linecap="round" stroke-linejoin="round"/>
<path d="M63.7488 146.045L68.7629 152.685" stroke="#787878" stroke-width="0.950299" stroke-linecap="round" stroke-linejoin="round"/>
<path d="M49.396 164.201C49.396 164.201 62.5325 166.908 78.6561 163.66" stroke="#787878" stroke-width="0.950299" stroke-linecap="round" stroke-linejoin="round"/>
<path d="M59.5315 77.1976L49.5684 76.5312C49.5684 76.5312 52.0056 92.6968 48.4593 102.66C44.9131 112.623 42.2615 119.711 42.2615 119.711L39.8243 124.371C44.9866 126.197 50.3319 127.458 55.7662 128.131C63.9631 129.017 71.489 129.464 75.4733 128.574C78.1817 127.939 80.8452 127.127 83.4466 126.142C83.4466 126.142 75.916 106.868 75.916 96.4621C75.9344 90.2914 75.1336 84.1455 73.5348 78.1856L69.6996 77.7196L59.5315 77.1976Z" fill="white" stroke="#263238" stroke-width="0.950299" stroke-linecap="round" stroke-linejoin="round"/>
<path d="M69.4573 89.082L66.391 129.004L69.0751 129.386L69.4573 89.082Z" fill="#263238" stroke="#263238" stroke-width="0.950299" stroke-linecap="round" stroke-linejoin="round"/>
<path d="M58.8698 66.0137C59.3358 66.7639 58.8418 73.4697 58.7719 74.8164C58.702 76.1632 58.1009 77.1464 56.6563 76.755C53.548 75.8789 54.2191 77.9712 54.2191 77.9712C54.2191 77.9712 53.7764 82.8456 56.2089 86.8252C58.6414 90.8049 65.1794 91.5831 68.1665 89.7051C71.1535 87.8271 71.6009 78.6795 71.6009 78.6795L69.6996 77.7475C69.2088 77.5022 68.7982 77.122 68.5159 76.6515C68.2337 76.1811 68.0914 75.6398 68.1059 75.0913L68.3901 69.7929C68.3901 69.7929 61.8568 70.6644 58.8698 66.0137Z" fill="white" stroke="#263238" stroke-width="0.950299" stroke-linecap="round" stroke-linejoin="round"/>
<path d="M68.3901 69.779C68.3901 69.779 61.8661 70.6644 58.8698 66.0137C59.3078 66.7034 58.921 72.3606 58.7952 74.3597C59.672 75.0775 60.718 75.5588 61.8335 75.7577C64.0377 76.0094 66.3491 75.0867 68.1711 73.9264L68.3901 69.779Z" fill="#263238" stroke="#263238" stroke-width="0.950299" stroke-linecap="round" stroke-linejoin="round"/>
<path d="M57.8772 76.4238C57.8772 76.4238 52.3364 76.2048 47.3549 76.093C42.3734 75.9811 39.9362 76.4285 38.0349 77.4257C36.1336 78.423 23.8638 89.8213 23.0903 91.704C22.3167 93.5866 21.5199 95.8281 26.2824 95.9399C31.0449 96.0517 40.9148 93.0321 40.9148 93.0321C40.9148 93.0321 44.5869 102.66 44.27 106.979C43.9531 111.299 41.0592 117.828 38.6221 121.705C36.1849 125.582 36.1849 127.348 36.1849 127.348C36.1849 127.348 38.8457 131.668 45.8171 133.327C49.9214 134.317 54.1114 134.91 58.3292 135.098L57.2201 110.19L57.8772 76.4238Z" fill="#651FFF" stroke="#263238" stroke-width="0.950299" stroke-linecap="round" stroke-linejoin="round"/>
<path d="M39.1673 88.0195L40.9334 93.029L38.3005 89.7484" stroke="#263238" stroke-width="0.950299" stroke-linecap="round" stroke-linejoin="round"/>
<path d="M36.7254 87.8281L22.9318 94.9766C23.4304 95.5264 24.4417 95.9086 26.301 95.9365C27.8327 95.9199 29.3597 95.7639 30.8631 95.4705L36.7254 87.8281Z" fill="#263238" stroke="#263238" stroke-width="0.950299" stroke-linecap="round" stroke-linejoin="round"/>
<path d="M53.4502 76.3965C53.4502 79.6585 53.4502 91.3364 53.9954 97.1242C54.4614 101.989 56.2741 107.996 57.2574 110.983L57.2201 110.191L57.8772 76.4244C57.8772 76.4244 56.0038 76.4244 53.4502 76.3965Z" fill="#651FFF" stroke="#263238" stroke-width="0.950299" stroke-linecap="round" stroke-linejoin="round"/>
<path d="M69.6996 77.7344C69.6996 77.7344 68.9447 103.215 68.721 106.869C68.4973 110.522 67.2811 135.43 67.2811 135.43C70.8083 135.426 74.2895 134.629 77.4678 133.1C82.7802 130.551 85.6601 128.668 86.3218 127.564C86.9835 126.459 85.7673 124.353 84.77 121.142C83.7728 117.932 82.3329 113.057 82.002 111.398C81.6711 109.739 81.8902 105.643 81.8902 105.643C81.8902 105.643 87.2072 110.844 88.7543 110.401C90.3015 109.958 100.712 112.95 100.936 112.172C101.159 111.394 92.2959 95.4564 89.197 88.4803C86.0981 81.5043 81.6711 79.6729 78.6794 79.0066C75.6877 78.3402 69.6996 77.7344 69.6996 77.7344Z" fill="#651FFF" stroke="#263238" stroke-width="0.950299" stroke-linecap="round" stroke-linejoin="round"/>
<path d="M73.5348 78.1867C71.4518 77.9164 69.6996 77.7207 69.6996 77.7207C69.6996 77.7207 68.9447 103.202 68.721 106.855C68.6651 107.759 68.5486 109.968 68.4088 112.783C69.3967 109.763 71.6708 102.461 72.3744 97.5537C73.0734 92.5814 73.3857 81.9706 73.5348 78.1867Z" fill="#651FFF" stroke="#263238" stroke-width="0.950299" stroke-linecap="round" stroke-linejoin="round"/>
<path d="M77.0251 84.7246L69.0518 109.861L70.38 110.853L78.6841 85.5028L77.0251 84.7246Z" fill="#263238" stroke="#263238" stroke-width="0.950299" stroke-linecap="round" stroke-linejoin="round"/>
<path d="M78.6841 85.502L93.8524 91.038L85.1055 113.513L70.3799 110.852L78.6841 85.502Z" fill="white" stroke="#263238" stroke-width="0.950299" stroke-linecap="round" stroke-linejoin="round"/>
<path d="M77.6868 88.4902L69.7182 113.622L71.0463 114.619L79.3505 89.2685L77.6868 88.4902Z" fill="#263238" stroke="#263238" stroke-width="0.950299" stroke-linecap="round" stroke-linejoin="round"/>
<path d="M79.3504 89.2676L94.5187 94.799L85.7719 117.274L71.0463 114.618L79.3504 89.2676Z" fill="white" stroke="#263238" stroke-width="0.950299" stroke-linecap="round" stroke-linejoin="round"/>
<path d="M77.356 96.2385C77.356 96.2385 74.3689 94.4677 73.3717 94.3745C73.1535 94.336 72.9297 94.3441 72.7148 94.3982C72.5 94.4524 72.2991 94.5513 72.1253 94.6887C71.9514 94.826 71.8086 94.9985 71.7062 95.195C71.6037 95.3914 71.544 95.6073 71.531 95.8284C71.5126 96.3038 71.5853 96.7784 71.7453 97.2264C71.7453 97.2264 70.6642 97.5153 70.1609 100.377C69.9838 101.383 69.4945 102.147 70.1609 102.926C71.2232 104.104 72.6805 104.852 74.2571 105.027C75.9055 105.276 77.5332 105.647 79.1268 106.136C81.4891 108.575 84.0111 110.854 86.676 112.959C90.6603 116.057 94.2019 119.599 97.1936 119.045C100.185 118.49 102.063 115.06 100.959 112.18C99.8545 109.3 84.0198 102.884 83.4652 102.66C82.9459 102.388 82.4623 102.053 82.0253 101.663C82.0253 101.663 82.0253 99.2302 81.4708 98.1211C80.9162 97.0121 79.1408 95.3531 79.1408 93.806C79.1408 92.2589 79.2526 91.5878 78.3672 91.8115C77.4818 92.0352 76.9133 94.7986 77.356 96.2385Z" fill="white" stroke="#263238" stroke-width="0.950299" stroke-linecap="round" stroke-linejoin="round"/>
<path d="M56.2648 56.6711C56.2648 56.6711 54.8668 53.1482 53.8369 55.4968C52.5787 58.4046 55.0113 61.2892 55.6404 61.6806C56.2695 62.0721 56.2648 56.6711 56.2648 56.6711Z" fill="white" stroke="#263238" stroke-width="0.950299" stroke-linecap="round" stroke-linejoin="round"/>
<path d="M76.4799 59.1818C76.4799 59.1818 78.274 56.973 78.8099 58.9069C79.3458 60.8408 77.7055 62.7747 76.4799 63.6042C75.2543 64.4336 74.8209 65.5381 74.8209 64.0189C74.8209 62.4997 76.4799 59.1818 76.4799 59.1818Z" fill="white" stroke="#263238" stroke-width="0.950299" stroke-linecap="round" stroke-linejoin="round"/>
<path d="M66.13 29.5078C66.13 29.5078 63.2315 27.3969 61.2743 29.8201C59.3171 32.2433 61.3535 34.0513 59.9416 34.5966C58.5296 35.1418 57.6116 32.6394 54.6991 35.0626C51.7866 37.4858 53.6832 39.4476 53.837 40.3051C53.9907 41.1625 53.4455 41.1672 51.2553 42.1085C49.0651 43.0498 47.8908 45.3146 50.7893 47.6632C53.6878 50.0118 55.0952 46.6473 55.4866 48.2131C55.878 49.7788 55.4866 51.1116 57.4438 51.0091C59.401 50.9066 63.3154 47.7191 65.7433 49.2057C68.1711 50.6922 70.8273 54.4528 72.6307 53.2785C74.4342 52.1042 75.0586 50.0678 76.6244 51.0883C78.1901 52.1088 80.3803 52.5748 81.6339 49.3641C82.8874 46.1534 80.3803 45.0583 80.7718 43.3387C81.1632 41.6192 83.3534 39.3451 81.4754 36.6842C79.5974 34.0234 77.7195 36.838 75.7623 34.3542C73.8051 31.8705 75.8415 29.2655 73.3344 27.8535C72.7326 27.5072 72.0682 27.2834 71.3795 27.1951C70.6908 27.1068 69.9915 27.1556 69.3217 27.3389C68.652 27.5221 68.0252 27.8361 67.4774 28.2627C66.9296 28.6894 66.4717 29.2202 66.13 29.8247" fill="#263238"/>
<path d="M59.3497 47.4163C59.3497 47.4163 56.4465 49.9048 56.1716 53.0829C55.8967 56.261 54.6524 63.8568 56.0318 66.76C57.4112 69.6632 60.8596 73.75 63.9072 74.0808C68.1897 74.5748 72.887 70.6278 73.5767 69.1086C74.2664 67.5895 78.013 56.8109 77.1696 51.9738C76.0651 45.6222 65.4264 41.4748 59.3497 47.4163Z" fill="white" stroke="#263238" stroke-width="0.950299" stroke-linecap="round" stroke-linejoin="round"/>
<path d="M77.1696 51.9738C76.0651 45.6222 65.4264 41.4748 59.3497 47.4163C59.3497 47.4163 56.4465 49.9048 56.1716 53.0829C56.0924 53.9823 55.9386 55.2358 55.7848 56.6385C56.6416 55.9196 57.1793 54.8911 57.2807 53.7772C57.4391 51.82 59.0841 49.7836 65.3471 48.9215C71.6102 48.0594 75.1331 52.6821 75.6784 54.3224C76.2236 55.9628 75.4454 58.1576 75.8368 59.2574C75.8715 59.4137 75.9383 59.5611 76.0329 59.6903C76.1276 59.8194 76.248 59.9275 76.3867 60.0077C77.0764 57.0299 77.5191 53.9869 77.1696 51.9738Z" fill="#263238"/>
<path d="M64.6481 39.68C64.5826 39.7471 64.5219 39.8188 64.4664 39.8944C63.9491 40.6307 63.5344 40.6773 62.6816 40.3883C60.8176 39.7639 59.2379 40.626 59.3171 42.1918C59.3963 43.7575 60.1 43.5199 58.6927 44.5218C57.2853 45.5237 56.1064 46.246 56.8893 48.1239C57.6721 50.0019 59.648 49 59.648 50.3281C59.648 51.6562 59.5687 53.3804 61.512 53.3804C63.4552 53.3804 64.8019 51.0504 65.3518 52.2853C65.9017 53.5202 66.5261 55.3376 68.2457 55.0207C69.9652 54.7039 70.9065 51.9684 72.6307 53.3012C74.3549 54.634 75.2916 55.8036 76.2329 54.6992C77.1742 53.5948 76.1537 51.9591 77.4072 51.2555C78.6608 50.5518 79.8304 50.2396 79.1268 47.8909C78.4231 45.5423 77.4072 46.7166 76.6243 44.9132C75.8415 43.1098 75.9952 41.1572 74.5087 40.845C73.0222 40.5328 72.3185 41.5487 70.9065 41.3949C69.7043 41.2598 69.2289 39.7965 68.2131 39.3072C67.1972 38.8179 65.4963 38.8412 64.6481 39.68Z" fill="#263238" stroke="#787878" stroke-width="0.950299" stroke-linecap="round" stroke-linejoin="round"/>
<path d="M66.843 58.6191C66.843 58.6191 66.1533 60.553 66.4283 61.7973C66.7032 63.0415 67.3976 64.1273 66.2885 64.2857C65.1794 64.4441 64.3546 63.7312 64.3546 63.0415" stroke="#263238" stroke-width="0.950299" stroke-linecap="round" stroke-linejoin="round"/>
<path d="M61.8475 64.7754C62.2891 65.3514 62.8519 65.8232 63.4962 66.1574C64.1404 66.4916 64.8503 66.68 65.5755 66.7093C67.0042 66.6989 68.3981 66.2677 69.5831 65.4697" stroke="#263238" stroke-width="0.950299" stroke-linecap="round" stroke-linejoin="round"/>
<path d="M63.6043 58.5899C63.5391 59.2377 63.1989 59.7363 62.8447 59.699C62.4906 59.6617 62.2529 59.1119 62.3182 58.4641C62.3834 57.8164 62.7236 57.3224 63.0777 57.355C63.4319 57.3877 63.6696 57.9422 63.6043 58.5899Z" fill="#263238"/>
<path d="M69.9419 59.7274C69.8767 60.3752 69.5365 60.8691 69.1823 60.8365C68.8282 60.8039 68.5905 60.2447 68.6557 59.5969C68.721 58.9492 69.0612 58.4552 69.4153 58.4879C69.7695 58.5205 70.0071 59.0797 69.9419 59.7274Z" fill="#263238"/>
<path d="M65.9856 57.1687C66.0021 58.0411 65.7593 58.8989 65.2879 59.6333C64.8166 60.3676 64.1379 60.9456 63.3378 61.2939C62.5377 61.6423 61.6522 61.7453 60.7935 61.59C59.9348 61.4347 59.1415 61.0281 58.5141 60.4216C57.8867 59.8151 57.4534 59.036 57.2691 58.1831C57.0848 57.3302 57.1578 56.4417 57.4788 55.6303C57.7998 54.8188 58.3545 54.1209 59.0724 53.625C59.7904 53.129 60.6394 52.8572 61.512 52.8442C62.6777 52.8279 63.8024 53.2736 64.6406 54.0839C65.4788 54.8941 65.9623 56.0031 65.9856 57.1687V57.1687Z" stroke="#263238" stroke-width="0.950299" stroke-linecap="round" stroke-linejoin="round"/>
<path d="M75.7809 59.0381C75.7973 59.9098 75.5549 60.7667 75.0843 61.5006C74.6138 62.2346 73.9361 62.8125 73.1371 63.1613C72.3381 63.5101 71.4537 63.6142 70.5955 63.4604C69.7374 63.3065 68.9441 62.9017 68.316 62.2971C67.6879 61.6924 67.2532 60.9152 67.0669 60.0635C66.8805 59.2118 66.9509 58.324 67.269 57.5123C67.5872 56.7006 68.1389 56.0015 68.8544 55.5033C69.5699 55.0052 70.417 54.7304 71.2887 54.7136C72.4575 54.6924 73.5871 55.1359 74.4293 55.9466C75.2715 56.7574 75.7576 57.8693 75.7809 59.0381Z" stroke="#263238" stroke-width="0.950299" stroke-linecap="round" stroke-linejoin="round"/>
<path d="M65.9949 57.6406L67.0248 57.8783" stroke="#263238" stroke-width="0.950299" stroke-linecap="round" stroke-linejoin="round"/>
<path d="M57.2294 56.0083L55.8547 55.6914" stroke="#263238" stroke-width="0.950299" stroke-linecap="round" stroke-linejoin="round"/>
<path d="M75.7809 59.0391L76.8107 59.2301" stroke="#263238" stroke-width="0.950299" stroke-linecap="round" stroke-linejoin="round"/>
<path d="M60.524 55.4541C61.0242 55.0212 61.6256 54.7216 62.2724 54.5832C62.9192 54.4447 63.5905 54.4718 64.2241 54.6619" stroke="#263238" stroke-width="0.950299" stroke-linecap="round" stroke-linejoin="round"/>
<path d="M73.0128 58.1945C72.6996 57.6112 72.244 57.1165 71.6884 56.7564C71.1327 56.3963 70.4951 56.1824 69.8347 56.1348" stroke="#263238" stroke-width="0.950299" stroke-linecap="round" stroke-linejoin="round"/>
<path d="M51.4277 58.7163C52.3866 57.3621 53.4475 56.0831 54.6012 54.8904C56.2788 53.2082 58.5203 52.4626 58.5203 53.4924C58.5203 54.5223 57.0291 54.704 55.9992 56.0088C54.9693 57.3136 52.5461 60.7713 52.4529 61.7033C52.3597 62.6353 52.4529 64.2244 54.1352 63.9448C55.8175 63.6652 57.6815 62.0808 58.5203 61.5169C59.3591 60.9531 61.6937 61.5169 60.8503 62.2672C60.0068 63.0175 58.5203 63.3856 57.304 64.4108C56.0877 65.436 54.1305 67.4911 53.11 68.0549C52.0895 68.6188 51.3392 68.9869 51.3392 68.9869C51.3392 68.9869 50.9664 69.3597 49.6569 71.6012C48.3475 73.8426 44.242 80.2828 41.7349 83.0834C39.2279 85.8841 29.7867 95.1994 27.4567 96.0569C25.1267 96.9143 19.4275 96.1501 18.6027 93.163C17.7779 90.1759 19.7211 86.7229 23.9198 83.7358C28.1184 80.7488 40.0713 73.838 42.6856 72.44C45.2998 71.042 46.325 70.2917 46.4136 69.5461C46.5021 68.8005 47.7184 63.9541 48.8414 61.9829C49.5372 60.7721 50.4088 59.6712 51.4277 58.7163Z" fill="white" stroke="#263238" stroke-width="0.950299" stroke-linecap="round" stroke-linejoin="round"/>
<path d="M48.4127 63.483C48.4127 63.483 48.8787 60.1604 49.3727 59.7177C49.8666 59.275 52.8397 59.3495 53.4315 59.6431C54.0234 59.9367 54.0187 62.5976 53.7997 63.1894C53.5807 63.7812 53.2079 64.1447 52.9888 63.9257C52.7698 63.7066 52.3225 61.4885 52.3225 61.4885L50.7753 61.2695L50.2581 63.483" fill="white"/>
<path d="M48.4127 63.483C48.4127 63.483 48.8787 60.1604 49.3727 59.7177C49.8666 59.275 52.8397 59.3495 53.4315 59.6431C54.0234 59.9367 54.0187 62.5976 53.7997 63.1894C53.5807 63.7812 53.2079 64.1447 52.9888 63.9257C52.7698 63.7066 52.3225 61.4885 52.3225 61.4885L50.7753 61.2695L50.2581 63.483" stroke="#263238" stroke-width="0.950299" stroke-linecap="round" stroke-linejoin="round"/>
<path d="M48.1145 64.5181C48.1145 64.5181 48.5805 61.1955 49.0744 60.7528C49.5684 60.3101 52.5461 60.3847 53.1333 60.6783C53.7204 60.9719 53.7251 63.6327 53.5061 64.2199C53.2871 64.807 52.9143 65.1798 52.6906 64.9608C52.4669 64.7418 52.0289 62.5236 52.0289 62.5236L50.4771 62.3L49.9598 64.5181" fill="white"/>
<path d="M48.1145 64.5181C48.1145 64.5181 48.5805 61.1955 49.0744 60.7528C49.5684 60.3101 52.5461 60.3847 53.1333 60.6783C53.7204 60.9719 53.7251 63.6327 53.5061 64.2199C53.2871 64.807 52.9143 65.1798 52.6906 64.9608C52.4669 64.7418 52.0289 62.5236 52.0289 62.5236L50.4771 62.3L49.9598 64.5181" stroke="#263238" stroke-width="0.950299" stroke-linecap="round" stroke-linejoin="round"/>
<path d="M47.97 65.8698C47.97 65.8698 48.3894 62.7243 48.902 62.3049C49.4146 61.8855 52.164 61.9554 52.7465 62.235C53.329 62.5146 53.3057 65.031 53.096 65.5902C52.8863 66.1494 52.5368 66.4989 52.3271 66.2892C52.1174 66.0795 51.698 63.9825 51.698 63.9825L50.2301 63.7728L49.7641 65.8698" fill="white"/>
<path d="M47.97 65.8698C47.97 65.8698 48.3894 62.7243 48.902 62.3049C49.4146 61.8855 52.164 61.9554 52.7465 62.235C53.329 62.5146 53.3057 65.031 53.096 65.5902C52.8863 66.1494 52.5368 66.4989 52.3271 66.2892C52.1174 66.0795 51.698 63.9825 51.698 63.9825L50.2301 63.7728L49.7641 65.8698" stroke="#263238" stroke-width="0.950299" stroke-linecap="round" stroke-linejoin="round"/>
<path d="M50.9291 64.6172C50.9291 64.6172 51.3299 67.3666 50.5889 68.8112C49.848 70.2558 48.9859 70.2418 48.9859 70.2418" fill="white"/>
<path d="M50.9291 64.6172C50.9291 64.6172 51.3299 67.3666 50.5889 68.8112C49.848 70.2558 48.9859 70.2418 48.9859 70.2418" stroke="#263238" stroke-width="0.950299" stroke-linecap="round" stroke-linejoin="round"/>
<path d="M11.6313 218.555H225.078" stroke="#263238" stroke-width="0.950299" stroke-linecap="round" stroke-linejoin="round"/>
</svg>
