<svg width="239" height="239" viewBox="0 0 239 239" fill="none" xmlns="http://www.w3.org/2000/svg">
<path d="M96.8428 31.1551C93.7932 29.4917 92.4022 30.8779 91.2932 29.4917C90.1843 28.1055 94.3476 24.4966 86.0352 20.8877C86.0352 20.8877 85.4807 13.1202 74.0852 12.8429C62.6897 12.5657 65.7632 20.6104 62.7088 22.5511C59.6544 24.4918 58.8275 21.4422 55.773 23.3876C52.7186 25.3331 54.1144 29.2144 51.624 29.7689C49.1336 30.3234 45.7972 27.269 42.7475 29.2144C39.6979 31.1599 39.674 32.8186 38.2974 32.8186C36.9207 32.8186 34.134 31.7096 32.4705 32.8186C30.8071 33.9275 28.8664 35.3185 28.8664 35.3185H99.0655C99.0655 35.3185 99.902 32.8186 96.8428 31.1551Z" stroke="#263238" stroke-linecap="round" stroke-linejoin="round"/>
<path d="M55.3189 30.0117C54.9197 30.2379 54.5043 30.4345 54.0761 30.5997" stroke="#263238" stroke-linecap="round" stroke-linejoin="round"/>
<path d="M70.3329 17.0547C69.6446 17.3626 69.0397 17.8303 68.5683 18.4189C68.097 19.0075 67.7728 19.7 67.6227 20.4389C67.116 22.9819 65.9305 24.674 64.5778 24.8413C63.2251 25.0086 58.1439 24.5067 57.2931 26.3661C57.0676 26.9127 56.9072 27.4838 56.8151 28.0678" stroke="#263238" stroke-linecap="round" stroke-linejoin="round"/>
<path d="M76.676 57.3062C75.4858 56.6562 74.9456 57.1963 74.5106 56.6562C74.0757 56.116 75.7009 54.7011 72.4505 53.3102C72.4505 53.3102 72.2354 50.2749 67.79 50.1649C63.3446 50.055 64.5348 53.2002 63.3446 53.9602C62.1543 54.7203 61.8245 53.5253 60.6343 54.2853C59.4441 55.0453 59.9842 56.5606 59.0091 56.7757C58.034 56.9908 56.729 55.8197 55.5388 56.5606C54.3486 57.3015 54.3438 57.9946 53.8037 57.9946C53.2635 57.9946 52.1785 57.5596 51.5284 57.9946C50.8783 58.4295 50.0944 58.9506 50.0944 58.9506H77.522C77.522 58.9506 77.871 57.9563 76.676 57.3062Z" stroke="#263238" stroke-linecap="round" stroke-linejoin="round"/>
<path d="M60.4527 56.8809C60.2985 56.9664 60.1388 57.0414 59.9747 57.1055" stroke="#263238" stroke-linecap="round" stroke-linejoin="round"/>
<path d="M66.3225 51.7949C66.053 51.9153 65.8162 52.0982 65.6316 52.3285C65.4471 52.5588 65.3201 52.8298 65.2613 53.119C65.0654 54.1132 64.6017 54.7729 64.0711 54.8398C63.5405 54.9067 61.5568 54.7059 61.227 55.4325C61.1384 55.6457 61.0758 55.8688 61.0406 56.0969" stroke="#263238" stroke-linecap="round" stroke-linejoin="round"/>
<path d="M210.831 50.9672C209.636 50.3172 209.096 50.8621 208.661 50.3172C208.226 49.7722 209.856 48.3669 206.601 46.9712C206.601 46.9712 206.386 43.9359 201.941 43.8307C197.495 43.7255 198.69 46.866 197.495 47.6212C196.3 48.3765 195.98 47.191 194.785 47.9463C193.59 48.7015 194.135 50.2263 193.16 50.4414C192.185 50.6565 190.885 49.4854 189.69 50.2263C188.495 50.9672 188.499 51.6317 187.954 51.6317C187.409 51.6317 186.329 51.2015 185.679 51.6317C185.029 52.0619 184.269 52.5781 184.269 52.5781H211.697C211.697 52.5781 212.022 51.6221 210.831 50.9672Z" stroke="#263238" stroke-linecap="round" stroke-linejoin="round"/>
<path d="M194.608 50.5234C194.455 50.6123 194.295 50.689 194.13 50.7529" stroke="#263238" stroke-linecap="round" stroke-linejoin="round"/>
<path d="M200.473 45.4609C200.204 45.5809 199.967 45.7638 199.784 45.9942C199.6 46.2246 199.474 46.4958 199.417 46.785C199.216 47.7745 198.752 48.4389 198.222 48.501C197.691 48.5632 195.708 48.372 195.378 49.0985C195.29 49.3115 195.228 49.5347 195.196 49.7629" stroke="#263238" stroke-linecap="round" stroke-linejoin="round"/>
<path d="M183.045 108.73C173.103 102.597 147.587 85.3076 139.868 86.0485C132.803 86.732 113.143 101.493 105.518 108.73H183.045Z" fill="#B2B2B2"/>
<path d="M124.653 108.731C110.275 99.8637 73.3682 74.8404 62.2021 75.9206C51.9825 76.9101 23.5463 98.2624 12.5188 108.731H124.653Z" fill="#707070"/>
<path d="M154.394 90.7631C152.616 90.7631 150.498 90.2421 149.404 88.0576C147.281 83.813 151.22 79.3389 155.078 75.4814C158.935 71.624 159.738 67.7952 159.748 67.7617L160.312 67.8717C160.283 68.0294 159.499 71.8773 155.489 75.8877C151.77 79.6066 147.97 83.8942 149.92 87.7947C151.784 91.5231 157.138 89.7927 157.19 89.7736L157.372 90.3233C156.405 90.6099 155.402 90.758 154.394 90.7631Z" fill="#263238"/>
<path d="M165.775 79.7832H152.769V94.6681H165.775V79.7832Z" fill="#651FFF" stroke="#263238" stroke-miterlimit="10"/>
<path d="M159.908 51.4751L158.467 51.6934L164.061 88.6422L165.503 88.424L159.908 51.4751Z" fill="#263238" stroke="#263238" stroke-miterlimit="10"/>
<path d="M163.101 66.54L159.882 67.0273L163.176 88.777L166.394 88.2897L163.101 66.54Z" fill="#651FFF" stroke="#263238" stroke-miterlimit="10"/>
<path d="M131.313 28.8265L130.606 30.1016L163.29 48.2189L163.997 46.9438L131.313 28.8265Z" fill="#263238" stroke="#263238" stroke-miterlimit="10"/>
<path d="M145.191 35.4928L143.613 38.3398L162.852 49.0045L164.43 46.1574L145.191 35.4928Z" fill="#651FFF" stroke="#263238" stroke-miterlimit="10"/>
<path d="M174.604 84.0144L173.696 80.8357C173.69 80.7235 173.677 80.6117 173.657 80.5011L167.157 49.9951C167.007 49.2918 166.68 48.6384 166.208 48.0964C165.735 47.5545 165.132 47.1419 164.456 46.8977L127.497 33.5137L126.484 39.5843L157.554 53.2646C158.104 53.5073 158.597 53.8648 158.999 54.3132C159.4 54.7617 159.701 55.2907 159.881 55.865L168.089 81.9494C168.294 82.6016 168.723 83.1601 169.3 83.5259C169.878 83.8917 170.566 84.041 171.244 83.9475L171.22 83.9953L174.604 84.0144Z" fill="#651FFF" stroke="#263238" stroke-miterlimit="10"/>
<path d="M163.318 55.8826L171.526 81.967C171.642 82.3389 171.833 82.6833 172.086 82.9795C172.34 83.2758 172.65 83.5178 172.999 83.6911C173.348 83.8643 173.729 83.9652 174.118 83.9876C174.507 84.0101 174.897 83.9536 175.263 83.8217C175.928 83.5872 176.482 83.1166 176.821 82.4995C177.161 81.8824 177.261 81.1621 177.104 80.4757L170.603 49.9697C170.454 49.2668 170.128 48.6135 169.657 48.0715C169.185 47.5295 168.583 47.1168 167.907 46.8723L130.943 33.4883L129.935 39.5589L161.005 53.2392C161.557 53.4881 162.05 53.853 162.449 54.3091C162.848 54.7652 163.145 55.3018 163.318 55.8826Z" fill="#651FFF" stroke="#263238" stroke-miterlimit="10"/>
<path d="M184.862 87.7324H158.988V101.609H184.862V87.7324Z" fill="#651FFF" stroke="#263238" stroke-miterlimit="10"/>
<path d="M218.814 101.781L198.016 95.5675C197.079 95.2498 196.099 95.0741 195.11 95.0464L193.781 94.9604H187.854V95.0608C187.439 95.0345 187.022 95.0345 186.606 95.0608V89.7598H184.293V95.4958L163.29 102.293C162.683 102.488 162.154 102.872 161.78 103.387C161.405 103.903 161.204 104.524 161.205 105.161V105.739C161.205 106.537 161.522 107.302 162.086 107.867C162.65 108.432 163.414 108.749 164.212 108.751H217.796C218.646 108.748 219.468 108.439 220.11 107.882C220.753 107.325 221.174 106.556 221.297 105.714C221.42 104.872 221.238 104.015 220.782 103.296C220.326 102.578 219.628 102.047 218.814 101.801V101.781Z" fill="#263238" stroke="#263238" stroke-miterlimit="10"/>
<path d="M196.883 90.9782V63.4262C196.884 63.3041 196.861 63.183 196.814 63.0699C196.768 62.9568 196.7 62.854 196.614 62.7674C196.527 62.6808 196.425 62.6121 196.312 62.5652C196.199 62.5183 196.078 62.4941 195.956 62.4941H178.093C176.961 62.4933 175.847 62.7845 174.86 63.3397C173.873 63.8948 173.045 64.6951 172.458 65.6633C171.83 66.696 171.499 67.8819 171.502 69.0905V90.9782H196.883Z" fill="#263238" stroke="#263238" stroke-miterlimit="10"/>
<path d="M171.497 80.4518H183.672V90.9774H184.704V80.4518H195.024V79.4193H184.704V63.3203H183.672V79.4193H171.497V80.4518Z" fill="#651FFF" stroke="#263238" stroke-miterlimit="10"/>
<path d="M195.98 62.4941H178.093C176.49 62.4974 174.944 63.0855 173.743 64.148H194.407V90.9782H196.883V63.4262C196.885 63.1836 196.791 62.95 196.622 62.7758C196.453 62.6015 196.223 62.5004 195.98 62.4941Z" fill="#651FFF" stroke="#263238" stroke-miterlimit="10"/>
<path d="M211.333 90.9789V77.1504H196.883L183.456 90.9789H211.333Z" fill="#651FFF" stroke="#263238" stroke-miterlimit="10"/>
<path d="M211.333 80.041H198.743L192.964 86.4367H211.333V80.041Z" fill="#263238" stroke="#263238" stroke-miterlimit="10"/>
<path d="M198.145 101.78L177.348 95.566C176.41 95.2483 175.431 95.0727 174.441 95.045L173.113 94.959H167.176L167.061 96.8327L150.13 102.292C149.524 102.487 148.995 102.87 148.621 103.386C148.246 103.901 148.045 104.522 148.046 105.16V105.738C148.046 106.537 148.363 107.303 148.928 107.867C149.493 108.432 150.259 108.749 151.058 108.749H197.127C197.978 108.746 198.799 108.438 199.441 107.881C200.084 107.323 200.505 106.554 200.628 105.713C200.752 104.871 200.569 104.013 200.113 103.295C199.658 102.577 198.959 102.046 198.145 101.799V101.78Z" fill="#545454" stroke="#263238" stroke-miterlimit="10"/>
<path d="M163.643 95.4899L142.611 102.277C142.005 102.473 141.476 102.856 141.102 103.372C140.727 103.887 140.526 104.508 140.527 105.145V105.724C140.527 106.522 140.844 107.287 141.408 107.852C141.971 108.416 142.736 108.734 143.534 108.735H189.608C190.075 108.735 190.536 108.643 190.967 108.465C191.398 108.286 191.79 108.025 192.12 107.695C192.449 107.365 192.711 106.974 192.889 106.543C193.068 106.112 193.16 105.65 193.16 105.184C193.16 104.42 192.913 103.677 192.457 103.064C192 102.452 191.358 102.003 190.626 101.785L169.829 95.5711C167.83 94.8776 165.66 94.8491 163.643 95.4899Z" fill="#8A8A8A" stroke="#263238" stroke-miterlimit="10"/>
<path d="M143.543 106.996C143.205 106.995 142.881 106.86 142.642 106.621C142.403 106.382 142.268 106.058 142.267 105.72V105.16C142.267 104.891 142.353 104.628 142.512 104.409C142.671 104.191 142.895 104.029 143.151 103.946L164.183 97.1635C164.983 96.9024 165.819 96.7701 166.659 96.7715C167.553 96.7714 168.439 96.92 169.284 97.2113L190.148 103.459C190.566 103.584 190.925 103.855 191.159 104.223C191.393 104.591 191.487 105.031 191.424 105.462C191.361 105.893 191.145 106.288 190.815 106.573C190.485 106.858 190.063 107.015 189.627 107.015L143.543 106.996Z" fill="#263238" stroke="#263238" stroke-miterlimit="10"/>
<path d="M131.115 36.6055L130.829 30.5923C130.809 30.1927 130.698 29.803 130.504 29.4535C130.309 29.1039 130.037 28.8039 129.708 28.5768C129.378 28.3498 129.001 28.2017 128.605 28.1442C128.209 28.0867 127.806 28.1213 127.425 28.2453L119.548 30.8026C118.725 31.071 117.966 31.5068 117.319 32.0826C116.673 32.6585 116.152 33.3619 115.791 34.1486L104.649 58.5266L108.554 62.7186L129.356 41.2517C129.951 40.6379 130.413 39.9091 130.716 39.1102C131.018 38.3112 131.154 37.4589 131.115 36.6055Z" fill="#651FFF" stroke="#263238" stroke-miterlimit="10"/>
<path d="M133.271 36.6055L132.984 30.5923C132.965 30.1927 132.854 29.803 132.659 29.4535C132.465 29.1039 132.193 28.8039 131.863 28.5768C131.534 28.3498 131.157 28.2017 130.761 28.1442C130.365 28.0867 129.961 28.1213 129.581 28.2453L121.708 30.8169C120.884 31.0837 120.125 31.519 119.478 32.095C118.831 32.671 118.311 33.3752 117.951 34.1629L106.809 58.5409L110.71 62.733L131.512 41.266C132.109 40.6512 132.573 39.9202 132.876 39.1185C133.178 38.3168 133.313 37.4614 133.271 36.6055Z" fill="#651FFF" stroke="#263238" stroke-miterlimit="10"/>
<path d="M97.99 51.7442H86.996C84.9931 51.5366 82.9776 51.9935 81.26 53.0444C71.2841 58.8282 81.26 74.0047 81.26 74.0047H94.7014L99.0368 61.7201L97.99 51.7442Z" fill="#545454" stroke="#263238" stroke-miterlimit="10"/>
<path d="M112.445 61.7191L94.6679 74.0037C94.6679 74.0037 84.692 58.8272 94.6679 53.0434C104.644 47.2596 112.445 61.7191 112.445 61.7191Z" fill="#263238" stroke="#263238" stroke-miterlimit="10"/>
<path d="M81.2265 74.0039V79.2045H82.3451V76.7189H83.2055V79.2045H84.6968V76.7189H85.562V79.2045H87.0486V76.7189H87.9138V79.2045H89.4003V76.7189H90.2655V79.2045H91.7521V76.7189H92.6173V79.2045H94.6679V74.0039H81.2265Z" fill="#8A8A8A" stroke="#263238" stroke-miterlimit="10"/>
<path d="M7.648 108.73H232.05" stroke="#263238" stroke-miterlimit="10"/>
<path d="M193.614 144.453H135.241V147.178H193.614V144.453Z" fill="white" stroke="#263238" stroke-linejoin="round"/>
<path d="M140.972 147.307L145.828 156.207C147.434 159.5 153.672 161.092 163.342 161.092C173.012 161.092 179.594 159.108 180.861 156.207L185.717 147.307H140.972Z" fill="white" stroke="#263238" stroke-linejoin="round"/>
<path d="M142.984 150.992C147.468 153.458 154.934 155.074 163.342 155.074C171.75 155.074 179.221 153.458 183.705 150.992L185.717 147.307H140.972L142.984 150.992Z" fill="#263238" stroke="#263238" stroke-linejoin="round"/>
<path d="M163.342 153.922C177.054 153.922 188.169 149.652 188.169 144.386C188.169 139.119 177.054 134.85 163.342 134.85C149.63 134.85 138.515 139.119 138.515 144.386C138.515 149.652 149.63 153.922 163.342 153.922Z" fill="#651FFF" stroke="#263238" stroke-linejoin="round"/>
<path d="M183.729 137.187L177.716 123.803H148.969L142.96 137.187C142.262 138.75 141.402 140.232 140.613 141.752C140.35 142.243 140.211 142.791 140.207 143.348C140.207 148.047 150.565 151.861 163.342 151.861C176.119 151.861 186.482 148.037 186.482 143.348C186.479 142.791 186.339 142.243 186.076 141.752C185.287 140.251 184.427 138.769 183.729 137.187Z" fill="white" stroke="#263238" stroke-linejoin="round"/>
<path d="M183.557 141.055L184.47 142.952" stroke="#263238" stroke-linecap="round" stroke-linejoin="round"/>
<path d="M176.803 127.029L182.065 137.961" stroke="#263238" stroke-linecap="round" stroke-linejoin="round"/>
<path d="M163.342 128.659C171.28 128.659 177.716 126.474 177.716 123.779C177.716 121.083 171.28 118.898 163.342 118.898C155.404 118.898 148.969 121.083 148.969 123.779C148.969 126.474 155.404 128.659 163.342 128.659Z" fill="#263238" stroke="#263238" stroke-linejoin="round"/>
<path d="M125.561 149.219H119.533V150.839H125.561V149.219Z" fill="white" stroke="#263238" stroke-linejoin="round"/>
<path d="M127.812 169.031L126.794 167.425L134.466 159.032L125.437 150.772L126.345 149.061L136.23 158.1C136.337 158.206 136.423 158.333 136.481 158.472C136.539 158.611 136.569 158.761 136.569 158.912C136.589 159.22 136.487 159.523 136.287 159.758L127.812 169.031Z" fill="white" stroke="#263238" stroke-linejoin="round"/>
<path d="M129.863 144.117C126.206 144.117 123.243 150.331 123.243 158.027C123.243 165.723 126.206 171.937 129.863 171.937C133.52 171.937 136.483 165.723 136.483 158.027C136.483 150.331 133.52 144.117 129.863 144.117ZM130.217 169.341C127.435 169.341 125.183 164.274 125.183 158.027C125.183 151.78 127.435 146.718 130.217 146.718C132.999 146.718 135.274 151.78 135.274 158.027C135.274 164.274 132.994 169.341 130.217 169.341Z" fill="white" stroke="#263238" stroke-linejoin="round"/>
<path d="M180.268 180.747H148.046L135.991 168.926L136.918 193.031L147.884 183.065H180.268V180.747Z" fill="white" stroke="#263238" stroke-linejoin="round"/>
<path d="M203.465 187.879H176.224L183.643 168.229H210.884L203.465 187.879Z" fill="white" stroke="#263238" stroke-linejoin="round"/>
<path d="M219.694 136.279H192.452V176.752H219.694V136.279Z" fill="white" stroke="#263238" stroke-linejoin="round"/>
<path d="M133.942 196.183L93.6118 217.115L94.4662 218.761L134.796 197.829L133.942 196.183Z" fill="white" stroke="#263238" stroke-linejoin="round"/>
<path d="M137.611 134.844H133.673V218.761H137.611V134.844Z" fill="white" stroke="#263238" stroke-linejoin="round"/>
<path d="M192.443 218.767C203.134 218.767 211.802 210.1 211.802 199.408C211.802 188.716 203.134 180.049 192.443 180.049C181.751 180.049 173.084 188.716 173.084 199.408C173.084 210.1 181.751 218.767 192.443 218.767Z" fill="#263238" stroke="#263238" stroke-linejoin="round"/>
<path d="M192.443 213.666C200.318 213.666 206.702 207.282 206.702 199.407C206.702 191.532 200.318 185.148 192.443 185.148C184.568 185.148 178.184 191.532 178.184 199.407C178.184 207.282 184.568 213.666 192.443 213.666Z" fill="#651FFF" stroke="#263238" stroke-miterlimit="10"/>
<path d="M30.2909 210.454L28.7326 213.059C28.7326 213.059 25.7212 213.537 24.9086 214.565C24.096 215.592 24.2394 218.58 24.2394 218.58H44.7982C44.9879 217.867 44.9879 217.117 44.7982 216.405L44.3202 214.899C44.3202 214.899 45.1567 211.553 44.9894 209.713H30.9075L30.2909 210.454Z" fill="#651FFF" stroke="#263238" stroke-miterlimit="10"/>
<path d="M24.2155 218.58H44.7982C44.9665 217.923 44.9812 217.236 44.8412 216.572H24.2872C24.2174 217.239 24.1935 217.91 24.2155 218.58Z" fill="white" stroke="#263238" stroke-miterlimit="10"/>
<path d="M36.2659 211.553H31.744C31.6109 211.553 31.4832 211.5 31.3891 211.406C31.295 211.311 31.2421 211.184 31.2421 211.051C31.2421 210.918 31.295 210.79 31.3891 210.696C31.4832 210.602 31.6109 210.549 31.744 210.549H36.2659C36.399 210.549 36.5266 210.602 36.6208 210.696C36.7149 210.79 36.7678 210.918 36.7678 211.051C36.7678 211.184 36.7149 211.311 36.6208 211.406C36.5266 211.5 36.399 211.553 36.2659 211.553Z" fill="#263238"/>
<path d="M35.5967 212.709H31.07C30.9369 212.709 30.8092 212.656 30.7151 212.562C30.621 212.468 30.5681 212.34 30.5681 212.207C30.5681 212.074 30.621 211.946 30.7151 211.852C30.8092 211.758 30.9369 211.705 31.07 211.705H35.5919C35.725 211.705 35.8527 211.758 35.9468 211.852C36.0409 211.946 36.0938 212.074 36.0938 212.207C36.0938 212.34 36.0409 212.468 35.9468 212.562C35.8527 212.656 35.725 212.709 35.5919 212.709H35.5967Z" fill="#263238"/>
<path d="M34.9227 213.894H30.4056C30.2725 213.894 30.1448 213.842 30.0507 213.747C29.9566 213.653 29.9037 213.526 29.9037 213.393C29.9037 213.259 29.9566 213.132 30.0507 213.038C30.1448 212.943 30.2725 212.891 30.4056 212.891H34.9227C35.0558 212.891 35.1835 212.943 35.2776 213.038C35.3717 213.132 35.4246 213.259 35.4246 213.393C35.4246 213.526 35.3717 213.653 35.2776 213.747C35.1835 213.842 35.0558 213.894 34.9227 213.894Z" fill="#263238"/>
<path d="M39.7792 218.58L41.2849 214.564" stroke="#263238" stroke-miterlimit="10"/>
<path d="M98.1477 210.454L99.706 213.059C99.706 213.059 102.717 213.537 103.53 214.565C104.343 215.592 104.199 218.58 104.199 218.58H83.65C83.4602 217.867 83.4602 217.117 83.65 216.405L84.1519 214.899C84.1519 214.899 83.3154 211.553 83.4827 209.713H97.512L98.1477 210.454Z" fill="#651FFF" stroke="#263238" stroke-miterlimit="10"/>
<path d="M104.204 218.58H83.65C83.4817 217.923 83.467 217.236 83.607 216.572H104.161C104.221 217.24 104.236 217.91 104.204 218.58Z" fill="white" stroke="#263238" stroke-miterlimit="10"/>
<path d="M92.1727 211.553H96.6946C96.8277 211.553 96.9554 211.5 97.0495 211.406C97.1436 211.311 97.1965 211.184 97.1965 211.051C97.1965 210.918 97.1436 210.79 97.0495 210.696C96.9554 210.602 96.8277 210.549 96.6946 210.549H92.1727C92.0396 210.549 91.912 210.602 91.8178 210.696C91.7237 210.79 91.6708 210.918 91.6708 211.051C91.6708 211.184 91.7237 211.311 91.8178 211.406C91.912 211.5 92.0396 211.553 92.1727 211.553Z" fill="#263238"/>
<path d="M92.8419 212.709H97.3638C97.4969 212.709 97.6246 212.656 97.7187 212.562C97.8128 212.468 97.8657 212.34 97.8657 212.207C97.8657 212.074 97.8128 211.946 97.7187 211.852C97.6246 211.758 97.4969 211.705 97.3638 211.705H92.8419C92.7088 211.705 92.5812 211.758 92.487 211.852C92.3929 211.946 92.34 212.074 92.34 212.207C92.34 212.34 92.3929 212.468 92.487 212.562C92.5812 212.656 92.7088 212.709 92.8419 212.709Z" fill="#263238"/>
<path d="M93.5111 213.894H98.033C98.1661 213.894 98.2938 213.842 98.3879 213.747C98.482 213.653 98.5349 213.526 98.5349 213.393C98.5349 213.259 98.482 213.132 98.3879 213.038C98.2938 212.943 98.1661 212.891 98.033 212.891H93.5111C93.378 212.891 93.2504 212.943 93.1563 213.038C93.0621 213.132 93.0092 213.259 93.0092 213.393C93.0092 213.526 93.0621 213.653 93.1563 213.747C93.2504 213.842 93.378 213.894 93.5111 213.894Z" fill="#263238"/>
<path d="M88.6594 218.58L87.1537 214.564" stroke="#263238" stroke-miterlimit="10"/>
<path d="M97.3877 204.665C97.3877 204.211 95.1029 203.451 95.1029 203.451C95.1029 203.451 94.1899 192.18 94.0369 188.834C93.884 185.488 89.3191 178.021 88.4061 174.824C87.4931 171.626 84.9024 151.072 83.6835 144.064C82.4646 137.057 79.4197 126.856 79.4197 126.856L79.5727 125.943H48.8659L49.0189 126.856C49.0189 126.856 45.974 137.057 44.7551 144.064C43.5362 151.072 40.9311 171.626 40.0325 174.824C39.1339 178.021 34.5546 185.464 34.416 188.834C34.2774 192.204 33.3501 203.451 33.3501 203.451C33.3501 203.451 31.07 204.211 31.07 204.665C31.07 205.119 30.31 210.454 30.31 210.454H44.932C44.932 210.454 46.2991 206.797 46.1461 205.124C45.9932 203.451 45.085 202.992 45.5391 201.166C45.9932 199.34 50.5628 184.111 51.9347 178.934C52.6995 175.996 53.6137 173.099 54.6736 170.254L64.2336 138.414L73.7936 170.254C74.8536 173.099 75.7678 175.996 76.5326 178.934C77.9044 184.111 82.4693 199.34 82.9282 201.166C83.3871 202.992 82.4502 203.451 82.3164 205.124C82.1825 206.797 83.5353 210.454 83.5353 210.454H98.1525C98.1525 210.454 97.3877 205.124 97.3877 204.665Z" fill="#263238" stroke="#263238" stroke-miterlimit="10"/>
<path d="M48.8659 85.4414C48.8659 85.4414 43.6892 85.7473 42.3173 87.2674C40.9455 88.7874 26.9544 107.367 27.4133 109.346C27.4276 109.406 27.4485 109.463 27.4754 109.518C27.3922 109.969 27.4217 110.434 27.5615 110.871C28.3263 113.156 39.8795 121.683 39.8795 121.683L46.887 118.94L39.0335 108.825C43.216 105.56 48.713 100.972 48.713 100.972L48.8659 85.4414Z" fill="white"/>
<path d="M46.887 118.941L46.4377 118.367V119.118L46.887 118.941Z" fill="#651FFF"/>
<path d="M47.8 88.5623H47.4176V85.5891C47.126 85.6226 46.801 85.6704 46.4616 85.7277V88.5623H43.8039V86.3874C43.6366 86.4495 43.4741 86.5164 43.3259 86.5834V88.5623H42.5038V87.09C42.4368 87.1474 42.3747 87.2095 42.3173 87.2669C42.107 87.5011 41.6051 88.1321 40.8833 89.0403H41.0459V92.5823H40.6635V89.3223L39.7075 90.5747V92.5823H38.24L37.8863 93.0603H39.7505V96.607H37.0928V94.1071L36.6148 94.7619V96.607H35.7974V95.8852C35.3194 96.5449 34.8414 97.2109 34.3634 97.8833V100.632H33.981V98.4186C33.656 98.8727 33.3405 99.3268 33.025 99.7762V100.632H32.4275L32.0977 101.11H33.025V104.68H30.3865V103.686L29.9085 104.422V104.68H29.7459C29.6408 104.843 29.5404 105.001 29.4448 105.158H29.9228V108.705H29.0911V105.737C28.553 106.582 28.0739 107.464 27.6571 108.375V108.705H27.528C27.4707 108.86 27.4306 109.02 27.4085 109.183H27.6571V111.095C28.1542 111.879 28.7592 112.588 29.4544 113.203H29.9324V113.633L30.4104 114.073V113.203H33.0489V116.344L34.1244 117.228H34.3873V117.438C34.8653 117.83 35.3433 118.213 35.8213 118.576V117.228H36.6148V119.216L37.0928 119.589V117.228H39.7314V120.846H40.6874V117.228H41.0698V120.846H42.064L42.499 120.674V117.228H43.3211V120.354L43.7991 120.168V117.228H45.5343L45.1662 116.75H43.8039V114.986L43.3259 114.374V116.764H42.5038V113.284L41.0698 111.435V112.692H40.6874V110.942L39.7314 109.714V112.692H37.0928V109.145H39.2916L39.0335 108.81L39.2151 108.667H37.0928V105.158H39.7314V108.299C40.0468 108.055 40.3671 107.821 40.6874 107.544V105.154H41.0698V107.233L42.5038 106.086V105.13H43.3259V105.397L44.2389 104.68H43.8039V101.134H46.4377V102.878C46.7914 102.592 47.1117 102.324 47.3937 102.09V101.134H47.7761V101.774L48.7321 100.995L48.8851 85.4648C48.8851 85.4648 48.4453 85.4935 47.7952 85.5652L47.8 88.5623ZM29.9085 112.706H29.0911V109.159H29.9085V112.706ZM33.025 112.706H30.3865V109.159H33.025V112.706ZM33.025 108.681H30.3865V105.158H33.025V108.681ZM34.3634 116.731H33.981V113.184H34.3634V116.731ZM34.3634 112.706H33.981V109.159H34.3634V112.706ZM34.3634 108.681H33.981V105.158H34.3634V108.681ZM34.3634 104.657H33.981V101.11H34.3634V104.657ZM36.6148 116.731H35.7974V113.184H36.6148V116.731ZM36.6148 112.706H35.7974V109.159H36.6148V112.706ZM36.6148 108.681H35.7974V105.158H36.6148V108.681ZM36.6148 104.657H35.7974V101.11H36.6148V104.657ZM36.6148 100.632H35.7974V97.085H36.6148V100.632ZM40.6874 113.184H41.0698V116.731H40.6874V113.184ZM39.7314 113.184V116.731H37.0928V113.184H39.7314ZM39.7314 104.657H37.0928V101.11H39.7314V104.657ZM39.7314 100.632H37.0928V97.085H39.7314V100.632ZM41.0698 104.657H40.6874V101.11H41.0698V104.657ZM41.0698 100.632H40.6874V97.085H41.0698V100.632ZM41.0698 96.607H40.6874V93.0603H41.0698V96.607ZM43.3259 104.68H42.5038V101.134H43.3259V104.68ZM43.3259 100.656H42.5038V97.1089H43.3259V100.656ZM43.3259 96.6309H42.5038V93.0842H43.3259V96.6309ZM43.3259 92.6062H42.5038V89.0642H43.3259V92.6062ZM46.4377 100.656H43.8039V97.1089H46.4377V100.656ZM46.4377 96.6309H43.8039V93.0842H46.4377V96.6309ZM46.4377 92.6062H43.8039V89.0642H46.4377V92.6062ZM47.7761 100.656H47.3937V97.1089H47.7761V100.656ZM47.7761 96.6309H47.3937V93.0842H47.7761V96.6309ZM47.7761 92.6062H47.3937V89.0642H47.7761V92.6062Z" fill="#651FFF"/>
<path d="M27.4754 109.519C27.767 107.746 29.4783 106.24 29.4783 106.24" stroke="#263238" stroke-miterlimit="10"/>
<path d="M39.0335 108.825L37.3079 106.607" stroke="#263238" stroke-miterlimit="10"/>
<path d="M27.4754 109.519C27.3922 109.97 27.4217 110.435 27.5615 110.872C28.3263 113.157 39.8795 121.684 39.8795 121.684L46.887 118.941L39.0335 108.826" stroke="#263238" stroke-miterlimit="10"/>
<path d="M39.0335 108.825C43.216 105.56 48.713 100.972 48.713 100.972L48.8659 85.4414C48.8659 85.4414 43.6892 85.7473 42.3173 87.2674C40.9455 88.7874 26.9544 107.367 27.4133 109.346C27.4276 109.406 27.4485 109.463 27.4754 109.518" stroke="#263238" stroke-miterlimit="10"/>
<path d="M80.2514 85.4414C80.2514 85.4414 85.4282 85.7473 86.8 87.2674C88.1719 88.7874 102.163 107.367 101.704 109.346C101.69 109.406 101.669 109.463 101.642 109.518C101.725 109.969 101.696 110.434 101.556 110.871C100.791 113.156 89.233 121.683 89.233 121.683L82.216 118.94L90.0695 108.825C85.887 105.56 80.39 100.972 80.39 100.972L80.2514 85.4414Z" fill="white"/>
<path d="M82.2303 118.941L82.6797 118.367V119.118L82.2303 118.941Z" fill="#651FFF"/>
<path d="M81.3413 88.5623H81.7237V85.5891C82.0152 85.6226 82.3403 85.6704 82.6797 85.7277V88.5623H85.3134V86.3874C85.4807 86.4495 85.6433 86.5164 85.7914 86.5834V88.5623H86.6136V87.09C86.6805 87.1474 86.7427 87.2095 86.8 87.2669C87.0056 87.5011 87.5122 88.1321 88.2101 89.0403H88.0476V92.5823H88.43V89.3223L89.386 90.5747V92.5823H90.8965L91.2502 93.0603H89.386V96.607H92.0246V94.1071L92.5026 94.7619V96.607H93.3199V95.8852C93.7979 96.5449 94.2759 97.2109 94.7539 97.8833V100.632H95.1363V98.4186L96.0923 99.7762V100.632H96.6851C96.7998 100.794 96.9097 100.952 97.0149 101.11H96.078V104.68H98.7166V103.686L99.1946 104.422V104.68H99.3571C99.4622 104.843 99.5626 105.001 99.6582 105.158H99.1802V108.705H99.9976V105.737C100.536 106.582 101.015 107.464 101.432 108.375V108.705H101.561C101.618 108.86 101.658 109.02 101.68 109.183H101.432V111.095C100.935 111.879 100.329 112.588 99.6343 113.203H99.1802V113.633L98.7022 114.073V113.203H96.078V116.344L95.0025 117.228H94.7396V117.438C94.2616 117.83 93.7836 118.213 93.3056 118.576V117.228H92.4882V119.216L92.0102 119.589V117.228H89.386V120.846H88.43V117.228H88.0476V120.846H87.0486L86.6136 120.674V117.228H85.7914V120.354L85.3134 120.168V117.228H83.5783L83.9464 116.75H85.3134V114.986L85.7914 114.374V116.764H86.6136V113.284L88.0476 111.435V112.692H88.43V110.942L89.386 109.714V112.692H92.0246V109.145H89.8258L90.0839 108.81L89.9022 108.667H92.0246V105.158H89.386V108.299C89.0705 108.055 88.7503 107.821 88.43 107.544V105.154H88.0476V107.233L86.6136 106.086V105.13H85.7914V105.397L84.8785 104.68H85.3134V101.134H82.694V102.878C82.3403 102.592 82.02 102.324 81.738 102.09V101.134H81.3556V101.774L80.3996 100.995L80.2466 85.4648C80.2466 85.4648 80.6816 85.4935 81.3365 85.5652L81.3413 88.5623ZM99.2089 112.706H100.026V109.159H99.2089V112.706ZM96.0923 112.706H98.7309V109.159H96.078L96.0923 112.706ZM96.0923 108.681H98.7309V105.158H96.078L96.0923 108.681ZM94.7539 116.731H95.1363V113.184H94.7539V116.731ZM94.7539 112.706H95.1363V109.159H94.7539V112.706ZM94.7539 108.681H95.1363V105.158H94.7539V108.681ZM94.7539 104.657H95.1363V101.11H94.7539V104.657ZM92.5026 116.731H93.3199V113.184H92.5026V116.731ZM92.5026 112.706H93.3199V109.159H92.5026V112.706ZM92.5026 108.681H93.3199V105.158H92.5026V108.681ZM92.5026 104.657H93.3199V101.11H92.5026V104.657ZM92.5026 100.632H93.3199V97.085H92.5026V100.632ZM88.43 113.184H88.0476V116.731H88.43V113.184ZM89.386 113.184V116.731H92.0246V113.184H89.386ZM89.386 104.68H92.0246V101.134H89.386V104.68ZM89.386 100.656H92.0246V97.1089H89.386V100.656ZM88.0476 104.68H88.43V101.134H88.0476V104.68ZM88.0476 100.656H88.43V97.1089H88.0476V100.656ZM88.0476 96.6309H88.43V93.0842H88.0476V96.6309ZM85.7914 104.68H86.6136V101.134H85.7914V104.68ZM85.7914 100.656H86.6136V97.1089H85.7914V100.656ZM85.7914 96.6309H86.6136V93.0842H85.7914V96.6309ZM85.7914 92.6062H86.6136V89.0642H85.7914V92.6062ZM82.694 100.632H85.3278V97.085H82.694V100.632ZM82.694 96.607H85.3278V93.0603H82.694V96.607ZM82.694 92.5823H85.3278V89.0403H82.694V92.5823ZM81.3556 100.632H81.738V97.085H81.3556V100.632ZM81.3556 96.607H81.738V93.0603H81.3556V96.607ZM81.3556 92.5823H81.738V89.0403H81.3556V92.5823Z" fill="#651FFF"/>
<path d="M101.642 109.519C101.35 107.746 99.6391 106.24 99.6391 106.24" stroke="#263238" stroke-miterlimit="10"/>
<path d="M90.0839 108.825L91.8095 106.607" stroke="#263238" stroke-miterlimit="10"/>
<path d="M101.642 109.519C101.725 109.97 101.696 110.435 101.556 110.872C100.791 113.157 89.233 121.684 89.233 121.684L82.216 118.941L90.0695 108.826" stroke="#263238" stroke-miterlimit="10"/>
<path d="M90.0839 108.825C85.9014 105.56 80.4044 100.972 80.4044 100.972L80.2514 85.4414C80.2514 85.4414 85.4282 85.7473 86.8 87.2674C88.1719 88.7874 102.163 107.367 101.704 109.346C101.69 109.406 101.669 109.463 101.642 109.518" stroke="#263238" stroke-miterlimit="10"/>
<path d="M58.3064 81.6362L47.953 85.14L49.0189 126.86H79.9264L81.2982 84.0741L68.507 80.752L58.3064 81.6362Z" fill="#651FFF" stroke="#263238" stroke-miterlimit="10"/>
<path d="M48.5457 108.434L48.6891 114.069H80.3375L80.5191 108.434H48.5457Z" fill="white" stroke="#263238" stroke-miterlimit="10"/>
<path d="M80.022 123.968L80.1988 118.332H48.799L48.9424 123.968H80.022Z" fill="white" stroke="#263238" stroke-miterlimit="10"/>
<path d="M59.0665 86.9661L65.1562 103.562L70.4859 86.6602L59.0665 86.9661Z" fill="white"/>
<path d="M68.9945 89.0753V91.3984L69.9505 88.3679V86.6758H68.9945V88.5878H66.356V86.7618H65.878V88.5734H65.0558V86.8048L63.6218 86.8431V88.5973H63.2394V86.8526L62.2834 86.8813V88.5973H60.7777C60.6582 88.7551 60.5387 88.9128 60.424 89.0753H62.2834V92.6221H61.141L61.3178 93.1001H62.2738V95.7387L63.2298 98.3438V97.1249H63.6122V99.3858L64.7021 102.354L65.0462 102.077V101.15H65.8684V101.279L66.3464 99.7634V97.1249H67.1781L67.3311 96.6469H66.3464V93.1001H68.4496L68.5978 92.6221H66.3464V89.0753H68.9945ZM63.6218 96.6469H63.2394V93.1001H63.6218V96.6469ZM63.6218 92.6221H63.2394V89.0753H63.6218V92.6221ZM65.878 100.672H65.0558V97.1249H65.878V100.672ZM65.878 96.6469H65.0558V93.1001H65.878V96.6469ZM65.878 92.6221H65.0558V89.0753H65.878V92.6221Z" fill="#651FFF"/>
<path d="M70.3329 87.1573L70.4859 86.6602L70.3329 86.6649V87.1573Z" fill="#651FFF"/>
<path d="M59.0665 86.9661L65.1562 103.562L70.4859 86.6602L59.0665 86.9661Z" stroke="#263238" stroke-miterlimit="10"/>
<path d="M83.0286 130.971H44.3919C43.7504 130.971 43.2303 131.491 43.2303 132.132V132.247C43.2303 132.888 43.7504 133.409 44.3919 133.409H83.0286C83.6701 133.409 84.1901 132.888 84.1901 132.247V132.132C84.1901 131.491 83.6701 130.971 83.0286 130.971Z" fill="#B0B0B0" stroke="#263238" stroke-miterlimit="10"/>
<path d="M64.769 200.172H63.2633V218.761H64.769V200.172Z" fill="#263238" stroke="#263238" stroke-miterlimit="10"/>
<path d="M72.7707 133.257C72.7707 129.136 68.8511 128.08 64.0138 128.08C59.1764 128.08 55.2616 129.136 55.2616 133.257C55.2811 134.327 55.5465 135.377 56.0372 136.328C56.5279 137.279 57.2307 138.104 58.0913 138.739C58.7853 139.265 59.3504 139.943 59.7438 140.719C60.1372 141.496 60.3485 142.352 60.3618 143.223V201.51H67.723V143.194C67.7357 142.328 67.9444 141.476 68.3335 140.702C68.7226 139.928 69.282 139.252 69.9696 138.725C70.8226 138.088 71.5184 137.263 72.0038 136.316C72.4893 135.368 72.7516 134.322 72.7707 133.257Z" fill="#B0B0B0" stroke="#263238" stroke-miterlimit="10"/>
<path d="M68.7555 127.621H58.8179C57.7778 127.621 56.9346 128.464 56.9346 129.504V139.552C56.9346 140.592 57.7778 141.435 58.8179 141.435H68.7555C69.7957 141.435 70.6388 140.592 70.6388 139.552V129.504C70.6388 128.464 69.7957 127.621 68.7555 127.621Z" fill="#651FFF" stroke="#263238" stroke-miterlimit="10"/>
<path d="M57.9862 168.881H70.0987L67.8903 189.296H60.1945L57.9862 168.881Z" fill="#651FFF" stroke="#263238" stroke-miterlimit="10"/>
<path d="M90.1269 122.444C90.1269 122.444 87.388 119.399 84.4961 118.181C81.6042 116.962 77.8041 117.573 77.8041 117.573L75.2181 127.315C75.2181 127.315 73.0862 128.08 72.7803 128.993C72.5652 129.643 72.8854 132.382 73.091 133.902C73.1303 134.187 73.2715 134.448 73.4886 134.637C73.7057 134.826 73.9839 134.93 74.2716 134.93H80.5478C80.5478 134.93 82.2208 135.236 82.2208 133.711V131.125C82.2208 131.125 83.2867 130.212 83.4397 129.6C83.5346 129.2 83.5859 128.792 83.5926 128.381L90.1269 122.444Z" fill="#651FFF" stroke="#263238" stroke-miterlimit="10"/>
<path d="M74.7496 134.776L74.2955 129.6" stroke="#263238" stroke-miterlimit="10"/>
<path d="M76.8815 134.93V129.906" stroke="#263238" stroke-miterlimit="10"/>
<path d="M79.3193 134.624V130.059" stroke="#263238" stroke-miterlimit="10"/>
<path d="M37.676 122.444C37.676 122.444 40.4197 119.399 43.3116 118.181C46.2035 116.962 50.0036 117.573 50.0036 117.573L52.58 127.315C52.58 127.315 54.7119 128.08 55.0178 128.993C55.2329 129.643 54.9079 132.382 54.7071 133.902C54.6678 134.187 54.5266 134.448 54.3095 134.637C54.0924 134.826 53.8142 134.93 53.5264 134.93H47.2694C47.2694 134.93 45.5964 135.236 45.5964 133.711V131.125C45.5964 131.125 44.5305 130.212 44.3775 129.6C44.2826 129.2 44.2313 128.792 44.2246 128.381L37.676 122.444Z" fill="#651FFF" stroke="#263238" stroke-miterlimit="10"/>
<path d="M53.058 134.776L53.5121 129.6" stroke="#263238" stroke-miterlimit="10"/>
<path d="M50.9261 134.93V129.906" stroke="#263238" stroke-miterlimit="10"/>
<path d="M48.4883 134.624V130.059" stroke="#263238" stroke-miterlimit="10"/>
<path d="M60.4527 88.688C60.4527 88.688 61.9584 90.012 62.7232 90.012H63.4832C63.4832 90.012 64.0902 91.2309 65.0032 91.2309C65.9162 91.2309 66.3751 90.012 66.3751 90.012C67.1002 90.0924 67.8338 89.9872 68.507 89.7061C69.4199 89.252 70.0318 87.5742 70.0318 87.5742L59.9938 87.7272L60.4527 88.688Z" fill="white" stroke="#263238" stroke-miterlimit="10"/>
<path d="M73.8988 75.4707C73.8988 81.7325 70.1656 86.8136 64.3388 86.8136C58.512 86.8136 54.7788 81.7325 54.7788 75.4707C54.7788 69.2089 58.512 62.7559 64.3388 62.7559C70.1656 62.7559 73.8988 69.2041 73.8988 75.4707Z" fill="#651FFF" stroke="#263238" stroke-miterlimit="10"/>
<path d="M56.6287 82.3965C56.6287 82.3965 64.2432 85.1402 72.0107 82.3965L71.5088 86.0723C71.3938 86.801 71.0225 87.4648 70.4617 87.9441C69.9008 88.4235 69.1874 88.6869 68.4496 88.687H60.4527C59.7541 88.6871 59.0759 88.4511 58.5284 88.0172C57.9808 87.5833 57.596 86.9771 57.4365 86.297L56.6287 82.3965Z" fill="#651FFF" stroke="#263238" stroke-miterlimit="10"/>
<path d="M59.5253 83.0096V80.8299C59.5218 80.3383 59.6538 79.8551 59.9067 79.4335C60.1597 79.012 60.5239 78.6682 60.9593 78.4399L64.5348 76.5996L67.3406 78.5403C67.6956 78.7868 67.9858 79.1155 68.1864 79.4984C68.3869 79.8812 68.492 80.3069 68.4926 80.7391V82.9953" stroke="#263238" stroke-miterlimit="10"/>
<path d="M64.3675 66.1074H64.2719C63.7518 66.1074 63.3302 66.529 63.3302 67.0491V79.023C63.3302 79.543 63.7518 79.9646 64.2719 79.9646H64.3675C64.8875 79.9646 65.3091 79.543 65.3091 79.023V67.0491C65.3091 66.529 64.8875 66.1074 64.3675 66.1074Z" fill="#651FFF" stroke="#263238" stroke-miterlimit="10"/>
<path d="M7.648 218.766H232.05" stroke="#263238" stroke-miterlimit="10"/>
</svg>
