<svg width="247" height="247" viewBox="0 0 247 247" fill="none" xmlns="http://www.w3.org/2000/svg">
<path d="M94.0477 41.3535H33.2758V88.6886H94.0477V41.3535Z" stroke="#263238" stroke-width="0.977169" stroke-linecap="round" stroke-linejoin="round"/>
<path d="M157.067 41.3535H96.2954V88.6886H157.067V41.3535Z" stroke="#263238" stroke-width="0.977169" stroke-linecap="round" stroke-linejoin="round"/>
<path d="M220.092 41.3535H159.32V88.6886H220.092V41.3535Z" stroke="#263238" stroke-width="0.977169" stroke-linecap="round" stroke-linejoin="round"/>
<path d="M38.1862 48.1758H57.3337" stroke="#263238" stroke-width="0.977169" stroke-linecap="round" stroke-linejoin="round"/>
<path d="M38.1862 52.2812H57.3337" stroke="#263238" stroke-width="0.977169" stroke-linecap="round" stroke-linejoin="round"/>
<path d="M38.1862 56.3867H57.3337" stroke="#263238" stroke-width="0.977169" stroke-linecap="round" stroke-linejoin="round"/>
<path d="M38.1862 60.4863H57.3337" stroke="#263238" stroke-width="0.977169" stroke-linecap="round" stroke-linejoin="round"/>
<path d="M38.1862 64.5918H57.3337" stroke="#263238" stroke-width="0.977169" stroke-linecap="round" stroke-linejoin="round"/>
<path d="M38.1862 68.6973H57.3337" stroke="#263238" stroke-width="0.977169" stroke-linecap="round" stroke-linejoin="round"/>
<path d="M38.1862 72.7969H57.3337" stroke="#263238" stroke-width="0.977169" stroke-linecap="round" stroke-linejoin="round"/>
<path d="M38.1862 76.9023H57.3337" stroke="#263238" stroke-width="0.977169" stroke-linecap="round" stroke-linejoin="round"/>
<path d="M38.1862 81.0078H57.3337" stroke="#263238" stroke-width="0.977169" stroke-linecap="round" stroke-linejoin="round"/>
<path d="M68.2758 48.1758H87.4281" stroke="#263238" stroke-width="0.977169" stroke-linecap="round" stroke-linejoin="round"/>
<path d="M68.2758 52.2812H87.4281" stroke="#263238" stroke-width="0.977169" stroke-linecap="round" stroke-linejoin="round"/>
<path d="M68.2758 56.3867H87.4281" stroke="#263238" stroke-width="0.977169" stroke-linecap="round" stroke-linejoin="round"/>
<path d="M68.2758 60.4863H87.4281" stroke="#263238" stroke-width="0.977169" stroke-linecap="round" stroke-linejoin="round"/>
<path d="M68.2758 64.5918H87.4281" stroke="#263238" stroke-width="0.977169" stroke-linecap="round" stroke-linejoin="round"/>
<path d="M68.2758 68.6973H87.4281" stroke="#263238" stroke-width="0.977169" stroke-linecap="round" stroke-linejoin="round"/>
<path d="M68.2758 72.7969H87.4281" stroke="#263238" stroke-width="0.977169" stroke-linecap="round" stroke-linejoin="round"/>
<path d="M68.2758 76.9023H87.4281" stroke="#263238" stroke-width="0.977169" stroke-linecap="round" stroke-linejoin="round"/>
<path d="M68.2758 81.0078H87.4281" stroke="#263238" stroke-width="0.977169" stroke-linecap="round" stroke-linejoin="round"/>
<path d="M101.655 48.1758H120.803" stroke="#263238" stroke-width="0.977169" stroke-linecap="round" stroke-linejoin="round"/>
<path d="M101.655 52.2812H120.803" stroke="#263238" stroke-width="0.977169" stroke-linecap="round" stroke-linejoin="round"/>
<path d="M101.655 56.3867H120.803" stroke="#263238" stroke-width="0.977169" stroke-linecap="round" stroke-linejoin="round"/>
<path d="M101.655 60.4863H120.803" stroke="#263238" stroke-width="0.977169" stroke-linecap="round" stroke-linejoin="round"/>
<path d="M101.655 64.5918H120.803" stroke="#263238" stroke-width="0.977169" stroke-linecap="round" stroke-linejoin="round"/>
<path d="M101.655 68.6973H120.803" stroke="#263238" stroke-width="0.977169" stroke-linecap="round" stroke-linejoin="round"/>
<path d="M101.655 72.7969H120.803" stroke="#263238" stroke-width="0.977169" stroke-linecap="round" stroke-linejoin="round"/>
<path d="M101.655 76.9023H120.803" stroke="#263238" stroke-width="0.977169" stroke-linecap="round" stroke-linejoin="round"/>
<path d="M101.655 81.0078H120.803" stroke="#263238" stroke-width="0.977169" stroke-linecap="round" stroke-linejoin="round"/>
<path d="M131.745 48.1758H150.897" stroke="#263238" stroke-width="0.977169" stroke-linecap="round" stroke-linejoin="round"/>
<path d="M131.745 52.2812H150.897" stroke="#263238" stroke-width="0.977169" stroke-linecap="round" stroke-linejoin="round"/>
<path d="M131.745 56.3867H150.897" stroke="#263238" stroke-width="0.977169" stroke-linecap="round" stroke-linejoin="round"/>
<path d="M131.745 60.4863H150.897" stroke="#263238" stroke-width="0.977169" stroke-linecap="round" stroke-linejoin="round"/>
<path d="M131.745 64.5918H150.897" stroke="#263238" stroke-width="0.977169" stroke-linecap="round" stroke-linejoin="round"/>
<path d="M131.745 68.6973H150.897" stroke="#263238" stroke-width="0.977169" stroke-linecap="round" stroke-linejoin="round"/>
<path d="M131.745 72.7969H150.897" stroke="#263238" stroke-width="0.977169" stroke-linecap="round" stroke-linejoin="round"/>
<path d="M131.745 76.9023H150.897" stroke="#263238" stroke-width="0.977169" stroke-linecap="round" stroke-linejoin="round"/>
<path d="M131.745 81.0078H150.897" stroke="#263238" stroke-width="0.977169" stroke-linecap="round" stroke-linejoin="round"/>
<path d="M165.124 48.1758H184.272" stroke="#263238" stroke-width="0.977169" stroke-linecap="round" stroke-linejoin="round"/>
<path d="M165.124 52.2812H184.272" stroke="#263238" stroke-width="0.977169" stroke-linecap="round" stroke-linejoin="round"/>
<path d="M165.124 56.3867H184.272" stroke="#263238" stroke-width="0.977169" stroke-linecap="round" stroke-linejoin="round"/>
<path d="M165.124 60.4863H184.272" stroke="#263238" stroke-width="0.977169" stroke-linecap="round" stroke-linejoin="round"/>
<path d="M165.124 64.5918H184.272" stroke="#263238" stroke-width="0.977169" stroke-linecap="round" stroke-linejoin="round"/>
<path d="M165.124 68.6973H184.272" stroke="#263238" stroke-width="0.977169" stroke-linecap="round" stroke-linejoin="round"/>
<path d="M165.124 72.7969H184.272" stroke="#263238" stroke-width="0.977169" stroke-linecap="round" stroke-linejoin="round"/>
<path d="M165.124 76.9023H184.272" stroke="#263238" stroke-width="0.977169" stroke-linecap="round" stroke-linejoin="round"/>
<path d="M165.124 81.0078H184.272" stroke="#263238" stroke-width="0.977169" stroke-linecap="round" stroke-linejoin="round"/>
<path d="M195.214 48.1758H214.366" stroke="#263238" stroke-width="0.977169" stroke-linecap="round" stroke-linejoin="round"/>
<path d="M195.214 52.2812H214.366" stroke="#263238" stroke-width="0.977169" stroke-linecap="round" stroke-linejoin="round"/>
<path d="M195.214 56.3867H214.366" stroke="#263238" stroke-width="0.977169" stroke-linecap="round" stroke-linejoin="round"/>
<path d="M195.214 60.4863H214.366" stroke="#263238" stroke-width="0.977169" stroke-linecap="round" stroke-linejoin="round"/>
<path d="M195.214 64.5918H214.366" stroke="#263238" stroke-width="0.977169" stroke-linecap="round" stroke-linejoin="round"/>
<path d="M195.214 68.6973H214.366" stroke="#263238" stroke-width="0.977169" stroke-linecap="round" stroke-linejoin="round"/>
<path d="M195.214 72.7969H214.366" stroke="#263238" stroke-width="0.977169" stroke-linecap="round" stroke-linejoin="round"/>
<path d="M195.214 76.9023H214.366" stroke="#263238" stroke-width="0.977169" stroke-linecap="round" stroke-linejoin="round"/>
<path d="M195.214 81.0078H214.366" stroke="#263238" stroke-width="0.977169" stroke-linecap="round" stroke-linejoin="round"/>
<path d="M130.125 23.2024H121.494L123.218 14.2363H128.396L130.125 23.2024Z" fill="#651FFF" stroke="#263238" stroke-width="0.977169" stroke-linecap="round" stroke-linejoin="round"/>
<path d="M121.494 23.2021H130.125L129.606 20.5098H122.013L121.494 23.2021Z" fill="#263238" stroke="#263238" stroke-width="0.977169" stroke-linecap="round" stroke-linejoin="round"/>
<path d="M127.136 41.5352H124.992V120.116H127.136V41.5352Z" fill="white" stroke="#263238" stroke-width="0.977169" stroke-linecap="round" stroke-linejoin="round"/>
<path d="M132.259 22.8066H119.36V47.5412H132.259V22.8066Z" fill="white" stroke="#263238" stroke-width="0.977169" stroke-linecap="round" stroke-linejoin="round"/>
<path d="M132.259 44.1816H119.36V47.5359H132.259V44.1816Z" fill="#263238" stroke="#263238" stroke-width="0.977169" stroke-linecap="round" stroke-linejoin="round"/>
<path d="M121.82 40.3594C121.813 39.6859 121.926 39.0165 122.156 38.3834C122.362 37.8102 122.638 37.2644 122.976 36.7581C123.306 36.2806 123.732 35.7158 124.256 35.0637C124.799 34.3919 125.244 33.8188 125.545 33.3544C125.879 32.8507 126.152 32.3083 126.355 31.7391C126.583 31.1054 126.697 30.4364 126.691 29.7631C126.708 29.424 126.645 29.0857 126.508 28.7751C126.448 28.6582 126.354 28.562 126.239 28.4986C126.124 28.4353 125.992 28.4077 125.861 28.4194C125.343 28.4194 125.086 28.8837 125.086 29.8075V31.6995H121.82L121.786 30.7461C121.759 29.7669 121.881 28.7892 122.146 27.8463C122.351 27.1377 122.799 26.5237 123.411 26.1124C124.16 25.6804 125.018 25.4745 125.881 25.5196C126.431 25.4851 126.981 25.5642 127.499 25.752C128.017 25.9399 128.49 26.2324 128.89 26.6113C129.263 27.0294 129.55 27.5177 129.734 28.0478C129.917 28.5779 129.993 29.1391 129.957 29.6988C129.967 30.4851 129.848 31.2677 129.606 32.0157C129.395 32.6549 129.103 33.2643 128.736 33.8287C128.407 34.3457 127.954 34.9534 127.378 35.6515C126.968 36.1455 126.632 36.5803 126.36 36.9656C126.092 37.3465 125.847 37.7442 125.629 38.1561H129.848V41.1004H121.82V40.3594Z" fill="#263238"/>
<path d="M185.961 145.412H144.974V225.267H185.961V145.412Z" fill="#263238" stroke="#263238" stroke-width="0.977169" stroke-linecap="round" stroke-linejoin="round"/>
<path d="M179.86 177.598L176.64 156.104H173.038L171.586 153.634C171.272 153.097 170.824 152.653 170.284 152.344C169.745 152.036 169.134 151.874 168.513 151.875H163.573C163.008 151.874 162.45 152.007 161.946 152.265C161.443 152.523 161.008 152.897 160.678 153.357L158.702 156.109H154.563L151.87 177.044C151.72 178.218 151.854 179.41 152.26 180.521C152.667 181.631 153.335 182.628 154.207 183.427L155.625 184.726H177.178L178.285 183.372C178.937 182.574 179.414 181.647 179.685 180.652C179.957 179.657 180.016 178.617 179.86 177.598ZM162.956 153.984H168.79L169.936 156.104H161.844L162.956 153.984Z" fill="#651FFF" stroke="#263238" stroke-width="0.977169" stroke-linecap="round" stroke-linejoin="round"/>
<path d="M185.961 145.412H144.974V148.169H185.961V145.412Z" fill="#787878" stroke="#263238" stroke-width="0.977169" stroke-linecap="round" stroke-linejoin="round"/>
<path d="M185.961 184.527H144.974V225.268H185.961V184.527Z" fill="white" stroke="#263238" stroke-width="0.977169" stroke-linecap="round" stroke-linejoin="round"/>
<path d="M185.961 184.527H144.974V189.042H185.961V184.527Z" fill="#787878" stroke="#263238" stroke-width="0.977169" stroke-linecap="round" stroke-linejoin="round"/>
<path d="M63.1776 169.791L88.0901 179.335V169.791H63.1776Z" fill="#787878" stroke="#263238" stroke-width="0.977169" stroke-linecap="round" stroke-linejoin="round"/>
<path d="M89.6758 168.557H48.3379V170.676H89.6758V168.557Z" fill="white" stroke="#263238" stroke-width="0.977169" stroke-linecap="round" stroke-linejoin="round"/>
<path d="M147.449 105.666H145.152V111.851H147.449V105.666Z" fill="#263238" stroke="#263238" stroke-width="0.977169" stroke-linecap="round" stroke-linejoin="round"/>
<path d="M145.508 115.877H86.6772V146.831H145.508V115.877Z" fill="#263238" stroke="#263238" stroke-width="0.977169" stroke-linecap="round" stroke-linejoin="round"/>
<path d="M145.508 115.877H124.108V146.831H145.508V115.877Z" fill="white" stroke="#263238" stroke-width="0.977169" stroke-linecap="round" stroke-linejoin="round"/>
<path d="M140.909 141.545H128.707V146.826H140.909V141.545Z" fill="#787878" stroke="#263238" stroke-width="0.977169" stroke-linecap="round" stroke-linejoin="round"/>
<path d="M145.508 145.201H86.6772V225.269H145.508V145.201Z" fill="white" stroke="#263238" stroke-width="0.977169" stroke-linecap="round" stroke-linejoin="round"/>
<path d="M145.508 145.201H86.6772V176.155H145.508V145.201Z" fill="#787878" stroke="#263238" stroke-width="0.977169" stroke-linecap="round" stroke-linejoin="round"/>
<path d="M124.972 86.0547H86.8106V115.877H124.972V86.0547Z" fill="#263238" stroke="#263238" stroke-width="0.977169" stroke-linecap="round" stroke-linejoin="round"/>
<path d="M123.184 88.6035H88.594V113.995H123.184V88.6035Z" fill="#651FFF" stroke="#263238" stroke-width="0.977169" stroke-linecap="round" stroke-linejoin="round"/>
<path d="M91.4098 91.7852H100.662" stroke="#263238" stroke-width="0.977169" stroke-linecap="round" stroke-linejoin="round"/>
<path d="M91.4098 93.8047H100.662" stroke="#263238" stroke-width="0.977169" stroke-linecap="round" stroke-linejoin="round"/>
<path d="M91.4098 95.8203H100.662" stroke="#263238" stroke-width="0.977169" stroke-linecap="round" stroke-linejoin="round"/>
<path d="M91.4098 97.8418H100.662" stroke="#263238" stroke-width="0.977169" stroke-linecap="round" stroke-linejoin="round"/>
<path d="M91.4098 102.213H100.662" stroke="#263238" stroke-width="0.977169" stroke-linecap="round" stroke-linejoin="round"/>
<path d="M91.4098 104.229H100.662" stroke="#263238" stroke-width="0.977169" stroke-linecap="round" stroke-linejoin="round"/>
<path d="M91.4098 106.248H100.662" stroke="#263238" stroke-width="0.977169" stroke-linecap="round" stroke-linejoin="round"/>
<path d="M91.4098 108.264H100.662" stroke="#263238" stroke-width="0.977169" stroke-linecap="round" stroke-linejoin="round"/>
<path d="M108.062 91.7852H117.31" stroke="#263238" stroke-width="0.977169" stroke-linecap="round" stroke-linejoin="round"/>
<path d="M108.062 93.8047H117.31" stroke="#263238" stroke-width="0.977169" stroke-linecap="round" stroke-linejoin="round"/>
<path d="M108.062 95.8203H117.31" stroke="#263238" stroke-width="0.977169" stroke-linecap="round" stroke-linejoin="round"/>
<path d="M108.062 97.8418H117.31" stroke="#263238" stroke-width="0.977169" stroke-linecap="round" stroke-linejoin="round"/>
<path d="M124.794 113.965H86.9835C86.3506 113.965 85.8374 114.478 85.8374 115.111V116.173C85.8374 116.806 86.3506 117.319 86.9835 117.319H124.794C125.427 117.319 125.94 116.806 125.94 116.173V115.111C125.94 114.478 125.427 113.965 124.794 113.965Z" fill="#787878" stroke="#263238" stroke-width="0.977169" stroke-linecap="round" stroke-linejoin="round"/>
<path d="M142.81 116.262H128.119C127.644 116.262 127.185 116.094 126.823 115.787C126.461 115.48 126.22 115.055 126.143 114.587C125.767 112.572 125.51 110.536 125.372 108.491C125.517 106.105 125.783 103.727 126.168 101.367C126.239 100.894 126.478 100.461 126.84 100.148C127.202 99.8348 127.665 99.661 128.144 99.6582H142.766C143.239 99.6573 143.697 99.8241 144.059 100.129C144.421 100.434 144.663 100.857 144.742 101.323C145.108 103.477 145.686 107.127 145.686 108.669C145.686 109.919 145.152 112.813 144.786 114.646C144.696 115.103 144.449 115.514 144.089 115.809C143.728 116.103 143.276 116.264 142.81 116.262Z" fill="#263238" stroke="#263238" stroke-width="0.977169" stroke-linecap="round" stroke-linejoin="round"/>
<path d="M142.855 102.568H128.193V113.352H142.855V102.568Z" fill="#651FFF" stroke="#263238" stroke-width="0.977169" stroke-linecap="round" stroke-linejoin="round"/>
<path d="M142.835 97.7129H127.684C127.185 97.7129 126.78 98.1176 126.78 98.6169V98.7503C126.78 99.2496 127.185 99.6543 127.684 99.6543H142.835C143.334 99.6543 143.739 99.2496 143.739 98.7503V98.6169C143.739 98.1176 143.334 97.7129 142.835 97.7129Z" fill="#263238" stroke="#263238" stroke-width="0.977169" stroke-linecap="round" stroke-linejoin="round"/>
<path d="M142.86 148.771H126.958V164.495H142.86V148.771Z" fill="#263238" stroke="#263238" stroke-width="0.977169" stroke-linecap="round" stroke-linejoin="round"/>
<path d="M141.091 150.535H129.077V152.832H141.091V150.535Z" fill="white" stroke="#263238" stroke-width="0.977169" stroke-linecap="round" stroke-linejoin="round"/>
<path d="M86.6772 176.154C86.6772 176.154 109.643 181.983 145.508 176.154H86.6772Z" fill="#263238" stroke="#263238" stroke-width="0.977169" stroke-linecap="round" stroke-linejoin="round"/>
<path d="M141.62 120.15H128.899V122.27H141.62V120.15Z" fill="#263238" stroke="#263238" stroke-width="0.977169" stroke-linecap="round" stroke-linejoin="round"/>
<path d="M181.55 202.574H149.924V221.559H181.55V202.574Z" fill="white" stroke="#263238" stroke-width="0.977169" stroke-linecap="round" stroke-linejoin="round"/>
<path d="M180.132 210.957H176.951V213.605H180.132V210.957Z" fill="#263238" stroke="#263238" stroke-width="0.977169" stroke-linecap="round" stroke-linejoin="round"/>
<path d="M110.656 176.156C110.218 174.248 109.145 172.546 107.614 171.326C106.083 170.107 104.183 169.443 102.226 169.443C100.269 169.443 98.3691 170.107 96.8379 171.326C95.3067 172.546 94.2342 174.248 93.7958 176.156H110.656Z" fill="#263238" stroke="#263238" stroke-width="0.977169" stroke-linecap="round" stroke-linejoin="round"/>
<path d="M93.7908 145.234C94.2273 147.144 95.2992 148.85 96.8311 150.071C98.363 151.292 100.264 151.957 102.223 151.957C104.183 151.957 106.084 151.292 107.616 150.071C109.148 148.85 110.22 147.144 110.656 145.234H93.7908Z" fill="#263238" stroke="#263238" stroke-width="0.977169" stroke-linecap="round" stroke-linejoin="round"/>
<path d="M57.0718 216.866V224.948H58.786V219.929C58.786 219.929 59.7098 219.4 60.6385 220.591C61.5672 221.781 63.2913 224.543 64.3484 224.963C65.4056 225.382 74.1346 225.298 75.251 225.175C76.1698 225.076 75.8784 224.187 74.5495 223.639C73.2207 223.09 68.8537 220.462 68.1917 219.267C67.5298 218.071 66.7344 216.219 66.7344 216.219L57.0718 216.866Z" fill="#636363" stroke="#263238" stroke-width="0.977169" stroke-linecap="round" stroke-linejoin="round"/>
<path d="M49.2073 216.866V224.948H50.9314V219.929C50.9314 219.929 51.8601 219.4 52.7888 220.591C53.7176 221.781 55.4367 224.543 56.4988 224.963C57.5609 225.382 66.28 225.298 67.3964 225.175C68.3202 225.076 68.0238 224.187 66.6999 223.639C65.376 223.09 61.0041 220.462 60.3372 219.267C59.6703 218.071 58.8552 216.219 58.8552 216.219L49.2073 216.866Z" fill="#636363" stroke="#263238" stroke-width="0.977169" stroke-linecap="round" stroke-linejoin="round"/>
<path d="M76.8368 86.7668C76.5707 88.0195 76.241 89.2577 75.8488 90.4768C75.5286 91.562 75.551 92.7195 75.913 93.7915C76.0207 94.1971 76.0094 94.6251 75.8807 95.0245C75.7519 95.4239 75.5111 95.7778 75.1868 96.0441C74.6922 96.3017 74.1517 96.4595 73.5961 96.5085C73.5961 96.5085 70.8791 100.085 69.7528 100.88C68.6265 101.676 67.5002 100.549 66.6406 99.6849C65.781 98.8204 62.7973 95.2389 63.6766 93.2629C64.5559 91.2869 69.7034 82.8642 70.8989 79.6186C72.0944 76.3731 76.2637 77.5636 77.4592 79.3519C78.6547 81.1402 76.8368 86.7668 76.8368 86.7668Z" fill="white" stroke="#263238" stroke-width="0.977169" stroke-linecap="round" stroke-linejoin="round"/>
<path d="M74.841 90.8972C74.5989 91.3467 74.2482 91.6333 74.0555 91.5295C73.8629 91.4258 73.8975 90.9762 74.1346 90.5415C74.3717 90.1068 74.7274 89.8055 74.925 89.9092C75.1226 90.0129 75.088 90.4526 74.841 90.8972Z" fill="#263238"/>
<path d="M73.9864 88.6888C73.9864 88.6888 75.3795 87.8292 75.5771 88.9555" stroke="#263238" stroke-width="0.977169" stroke-linecap="round" stroke-linejoin="round"/>
<path d="M70.474 95.8359C70.5473 96.1669 70.7004 96.475 70.92 96.7333C71.1395 96.9916 71.4189 97.1923 71.7337 97.3179" stroke="#263238" stroke-width="0.977169" stroke-linecap="round" stroke-linejoin="round"/>
<path d="M76.1649 125.872C76.1649 125.872 86.7711 123.605 88.8953 123.535C91.0195 123.466 99.625 125.017 99.625 125.017L94.9221 128.332C94.9221 128.332 91.7407 128.594 90.2834 128.263C88.8261 127.932 86.8254 127.275 86.8254 127.275L78.3385 131.069L76.1649 125.872Z" fill="white" stroke="#263238" stroke-width="0.977169" stroke-linecap="round" stroke-linejoin="round"/>
<path d="M108.305 141.161L87.2354 137.451L87.5022 132.215L108.107 135.658L108.305 141.161Z" fill="white" stroke="#263238" stroke-width="0.977169" stroke-linecap="round" stroke-linejoin="round"/>
<path d="M121.623 126.584L121.489 132.018L108.305 141.162L108.107 135.659L121.623 126.584Z" fill="white" stroke="#263238" stroke-width="0.977169" stroke-linecap="round" stroke-linejoin="round"/>
<path d="M99.956 123.535L87.5022 132.215L108.107 135.658L121.623 126.583L99.956 123.535Z" fill="white" stroke="#263238" stroke-width="0.977169" stroke-linecap="round" stroke-linejoin="round"/>
<path d="M73.3244 185.877C73.3244 185.877 71.4719 206.679 71.4719 211.071V217.167H64.0619C64.0619 217.167 63.6667 214.914 65.5439 205.77C67.4211 196.626 73.3244 185.877 73.3244 185.877Z" fill="#263238" stroke="#263238" stroke-width="0.977169" stroke-linecap="round" stroke-linejoin="round"/>
<path d="M44.5736 145.997C44.5736 145.997 43.6449 153.546 45.7642 158.575C47.8834 163.604 51.5934 173.014 51.5934 176.329C51.5934 179.644 48.9455 192.493 48.2836 201.898C47.8652 207.287 47.9976 212.705 48.6788 218.067L64.714 218.2C64.714 218.2 67.4952 201.503 72.2623 191.302C77.0294 181.101 78.0965 170.895 78.0965 160.674C78.0965 150.453 77.9631 145.172 77.9631 145.172C77.9631 145.172 67.4952 139.472 60.8707 140.134C54.2461 140.796 44.5736 145.997 44.5736 145.997Z" fill="#263238" stroke="#263238" stroke-width="0.977169" stroke-linecap="round" stroke-linejoin="round"/>
<path d="M50.136 214.629C52.6536 207.587 56.5252 201.106 61.5326 195.551C69.7478 186.54 72.4006 180.978 72.9292 176.734" stroke="#707070" stroke-width="0.977169" stroke-linecap="round" stroke-linejoin="round"/>
<path d="M64.0471 186.807C60.934 190.289 58.0996 194.01 55.57 197.936C51.0648 204.828 51.0648 207.322 51.0648 207.322" stroke="#707070" stroke-width="0.977169" stroke-linecap="round" stroke-linejoin="round"/>
<path d="M51.6724 174.516C52.0501 169.924 51.7556 165.301 50.798 160.793" stroke="#707070" stroke-width="0.977169" stroke-linecap="round" stroke-linejoin="round"/>
<path d="M72.8601 107.639C72.8601 107.639 67.4952 101.543 61.9921 99.4239C56.4889 97.3046 49.8693 99.4239 47.8785 103.134C45.8877 106.844 44.1093 114.115 44.954 118.235C45.7987 122.355 49.9879 128.57 49.1925 132.616C48.3972 136.662 43.0323 145.07 43.1015 145.796C43.1707 146.522 44.5835 152.218 53.0358 149.772C61.4882 147.327 63.4395 142.619 69.5997 144.605C75.7598 146.591 78.4126 149.837 80.4677 150.434L82.5227 151.032C82.5227 151.032 78.8128 139.966 77.9532 134.335C77.0936 128.703 77.6222 128.308 78.5509 125.937C79.7608 122.64 79.7362 119.016 78.4818 115.736C76.9701 112.011 72.8601 107.639 72.8601 107.639Z" fill="#651FFF" stroke="#263238" stroke-width="0.977169" stroke-linecap="round" stroke-linejoin="round"/>
<path d="M55.0316 122.324C57.8156 125.542 61.5992 127.732 65.7761 128.544" stroke="#263238" stroke-width="0.977169" stroke-linecap="round" stroke-linejoin="round"/>
<path d="M53.846 129.182C53.9547 129.35 54.0633 129.513 54.177 129.676" stroke="#263238" stroke-width="0.977169" stroke-linecap="round" stroke-linejoin="round"/>
<path d="M49.4 110.73C48.853 116.549 50.0572 122.398 52.858 127.526" stroke="#263238" stroke-width="0.977169" stroke-linecap="round" stroke-linejoin="round"/>
<path d="M75.4437 80.4089C75.4437 80.4089 75.2461 83.1259 72.3957 86.9643C69.5453 90.8027 66.5023 94.7151 66.5023 94.7151C66.5023 94.7151 67.6286 101.078 68.9723 102.535C69.4673 103.141 70.0217 103.695 70.6272 104.19H64.6004C63.0739 104.19 61.419 100.88 61.419 100.88L61.75 107.105L58.1092 106.774L58.04 102.204L57.1113 107.04L52.0775 106.245L52.1466 103.859L50.6646 106.329C50.6646 106.329 46.9547 105.005 45.8975 104.353L44.8354 103.691C44.8354 103.691 49.3407 97.8619 49.3407 92.0327C49.3407 86.2035 50.6004 76.857 55.57 73.2163C60.5397 69.5755 64.956 69.7039 66.5023 70.1041C68.0485 70.5042 77.3703 75.3997 79.0202 76.3285C80.6702 77.2572 81.1444 82.8888 79.5537 84.6128C77.9631 86.3369 76.8367 86.7963 76.8367 86.7963C76.8367 86.7963 76.7676 81.6637 75.4437 80.4089Z" fill="#263238"/>
<path d="M75.4437 80.4089C75.4437 80.4089 79.5686 79.9149 78.546 78.0624C77.5234 76.2099 69.1896 72.1245 65.2771 72.2776" stroke="#707070" stroke-width="0.977169" stroke-linecap="round" stroke-linejoin="round"/>
<path d="M71.9116 74.4922C71.9116 74.4922 66.6406 76.8733 64.6004 82.658C64.0028 84.3494 63.7696 86.148 63.916 87.9359C64.0625 89.7237 64.5852 91.4604 65.4501 93.032" stroke="#707070" stroke-width="0.977169" stroke-linecap="round" stroke-linejoin="round"/>
<path d="M67.1494 72.791C67.1494 72.791 60.6879 74.9992 56.4345 82.671C52.1812 90.3428 52.3492 104.614 53.2038 109.036" stroke="#707070" stroke-width="0.977169" stroke-linecap="round" stroke-linejoin="round"/>
<path d="M61.1967 72.125C61.1967 72.125 51.8403 76.7192 47.9279 91.0057" stroke="#707070" stroke-width="0.977169" stroke-linecap="round" stroke-linejoin="round"/>
<path d="M75.4437 80.4089C75.4437 80.4089 75.2461 83.1259 72.3957 86.9643C69.5453 90.8027 66.5023 94.7151 66.5023 94.7151C66.5023 94.7151 67.6286 101.078 68.9723 102.535C69.4673 103.141 70.0217 103.695 70.6272 104.19H64.6004C63.0739 104.19 61.419 100.88 61.419 100.88L61.75 107.105L58.1092 106.774L58.04 102.204L57.1113 107.04L52.0775 106.245L52.1466 103.859L50.6646 106.329C50.6646 106.329 46.9547 105.005 45.8975 104.353L44.8354 103.691C44.8354 103.691 49.3407 97.8619 49.3407 92.0327C49.3407 86.2035 50.6004 76.857 55.57 73.2163C60.5397 69.5755 64.956 69.7039 66.5023 70.1041C68.0485 70.5042 77.3703 75.3997 79.0202 76.3285C80.6702 77.2572 81.1444 82.8888 79.5537 84.6128C77.9631 86.3369 76.8367 86.7963 76.8367 86.7963C76.8367 86.7963 76.7676 81.6637 75.4437 80.4089Z" stroke="#263238" stroke-width="0.977169" stroke-linecap="round" stroke-linejoin="round"/>
<path d="M82.992 132.324C82.992 132.324 93.2524 134.893 96.5671 135.698C99.8818 136.503 99.9411 136.568 100.213 136.533C100.485 136.499 102.372 134.285 103.206 133.905C104.041 133.525 105.765 133.628 106.709 133.525C107.652 133.421 108.087 133.732 107.48 134.468C106.872 135.204 105.805 135.229 105.434 135.595C105.064 135.96 104.748 136.454 105.247 136.775C105.746 137.096 110.024 140.92 110.122 141.261C110.221 141.602 109.856 141.898 109.243 142.036C108.631 142.175 107.559 141.602 106.931 141.873C105.882 142.175 104.812 142.399 103.73 142.545C102.579 142.762 98.9235 140.727 98.9235 140.727C98.9235 140.727 88.6977 141.093 84.4246 141.196C80.1515 141.3 77.7753 140.455 76.9701 139.176C76.1649 137.897 82.992 132.324 82.992 132.324Z" fill="white" stroke="#263238" stroke-width="0.977169" stroke-linecap="round" stroke-linejoin="round"/>
<path d="M80.601 130.822C80.601 130.822 76.0908 122.108 72.3315 115.799C68.5721 109.491 65.1685 108.953 61.4635 110.039C57.7585 111.126 57.9067 117.607 59.5418 122.498C61.177 127.389 72.4204 137.985 73.112 138.583C73.8036 139.18 78.4225 139.388 80.8085 136.898C83.1945 134.408 80.601 130.822 80.601 130.822Z" fill="#651FFF" stroke="#263238" stroke-width="0.977169" stroke-linecap="round" stroke-linejoin="round"/>
<path d="M79.9292 129.553C79.9292 129.553 78.5559 133.277 76.1155 135.026C73.6751 136.775 71.5262 136.296 71.3682 137.21C71.2101 138.124 73.1169 140.317 75.3202 140.742C77.5234 141.167 81.7866 139.334 83.071 135.866C84.3554 132.398 82.8092 131.178 81.9299 130.689C81.0506 130.2 80.848 129.049 79.9292 129.553Z" fill="#651FFF" stroke="#263238" stroke-width="0.977169" stroke-linecap="round" stroke-linejoin="round"/>
<path d="M91.39 125.393C92.8717 125.94 94.404 126.338 95.9644 126.583C98.0837 126.85 98.8099 126.652 98.548 127.314C98.2862 127.976 98.1479 128.505 96.2954 128.302C94.4429 128.1 92.8374 127.64 92.1211 127.774C90.9453 128.019 89.7454 128.13 88.5445 128.105C88.144 128.114 87.7485 128.014 87.4004 127.815C87.0523 127.617 86.7647 127.328 86.5685 126.978" fill="white"/>
<path d="M91.39 125.393C92.8717 125.94 94.404 126.338 95.9644 126.583C98.0837 126.85 98.8099 126.652 98.548 127.314C98.2862 127.976 98.1479 128.505 96.2954 128.302C94.4429 128.1 92.8374 127.64 92.1211 127.774C90.9453 128.019 89.7454 128.13 88.5445 128.105C88.144 128.114 87.7485 128.014 87.4004 127.815C87.0523 127.617 86.7647 127.328 86.5685 126.978" stroke="#263238" stroke-width="0.977169" stroke-linecap="round" stroke-linejoin="round"/>
<path d="M199.971 208.304C199.971 208.304 187.182 185.847 190.136 180.146C193.09 174.445 200.628 184.716 200.628 184.716C200.628 184.716 194.068 163.78 197.664 154.641C201.261 145.502 207.5 154.641 207.831 161.112C208.162 167.584 206.517 178.625 206.517 178.625C206.517 178.625 209.14 155.787 215.369 162.639C221.599 169.491 207.5 192.328 207.5 192.328C207.5 192.328 217.009 186.998 216.683 193.85C216.357 200.701 205.208 206.792 205.208 206.792" fill="#651FFF"/>
<path d="M200.07 204.12C200.07 204.12 188.214 193.079 193.999 188.129C199.783 183.179 202.802 193.459 202.802 193.459C202.802 193.459 196.429 161.843 206.754 160.722C217.078 159.6 209.486 188.129 209.486 188.129C209.486 188.129 218.284 175.952 217.681 185.846C217.078 195.741 204.022 204.125 204.022 204.125" stroke="#263238" stroke-width="0.977169" stroke-miterlimit="10"/>
<path d="M205.894 202.11L197.891 193.445" stroke="#263238" stroke-width="0.977169" stroke-miterlimit="10"/>
<path d="M204.225 202.777L206.393 177.449" stroke="#263238" stroke-width="0.977169" stroke-miterlimit="10"/>
<path d="M203.894 200.943L211.057 191.443" stroke="#263238" stroke-width="0.977169" stroke-miterlimit="10"/>
<path d="M214.258 199.176H192.136L194.345 225.269H212.045L214.258 199.176Z" fill="#263238"/>
<path d="M231.192 225.27H19.76" stroke="#263238" stroke-width="0.977169" stroke-linecap="round" stroke-linejoin="round"/>
</svg>
