<svg width="247" height="247" viewBox="0 0 247 247" fill="none" xmlns="http://www.w3.org/2000/svg">
<g opacity="0.3">
<path d="M230.324 94.3587C238.143 86.5397 238.143 73.8626 230.324 66.0436C222.505 58.2246 209.828 58.2246 202.009 66.0436C194.19 73.8626 194.19 86.5397 202.009 94.3587C209.828 102.178 222.505 102.178 230.324 94.3587Z" stroke="black" stroke-miterlimit="10"/>
<path d="M228.843 92.8777C235.844 85.8766 235.844 74.5257 228.843 67.5247C221.842 60.5237 210.491 60.5237 203.49 67.5247C196.489 74.5257 196.489 85.8766 203.49 92.8777C210.491 99.8787 221.842 99.8787 228.843 92.8777Z" stroke="black" stroke-miterlimit="10"/>
<path d="M219.39 84.6126L216.165 80.2012L205.351 90.1306" stroke="black" stroke-miterlimit="10"/>
</g>
<g opacity="0.3">
<path d="M86.1338 143.27H77.1233V170.741H86.1338V143.27Z" fill="white" stroke="black" stroke-miterlimit="10"/>
<path d="M102.614 129.867H60.6385V164.59H102.614V129.867Z" fill="white" stroke="black" stroke-miterlimit="10"/>
<path d="M99.6941 132.283H63.563V162.17H99.6941V132.283Z" fill="white" stroke="black" stroke-miterlimit="10"/>
<path d="M172.895 169.639H34.5355V224.497H172.895V169.639Z" fill="white" stroke="black" stroke-miterlimit="10"/>
<path d="M34.4911 198.207H172.278" stroke="black" stroke-miterlimit="10"/>
<path d="M172.89 169.639H129.863V224.497H172.89V169.639Z" fill="white" stroke="black" stroke-miterlimit="10"/>
<path d="M175.573 169.639H31.8531V174.915H175.573V169.639Z" fill="white" stroke="black" stroke-miterlimit="10"/>
<path d="M102.174 174.965L104.348 178.971H116.693L118.876 174.965H102.174Z" fill="white" stroke="black" stroke-miterlimit="10"/>
<path d="M102.174 198.039L104.348 202.045H116.693L118.876 198.039H102.174Z" fill="white" stroke="black" stroke-miterlimit="10"/>
<path d="M55.8072 174.965L57.9808 178.971H70.3258L72.5093 174.965H55.8072Z" fill="white" stroke="black" stroke-miterlimit="10"/>
<path d="M55.8072 198.039L57.9808 202.045H70.3258L72.5093 198.039H55.8072Z" fill="white" stroke="black" stroke-miterlimit="10"/>
</g>
<g opacity="0.3">
<path d="M220.833 167.209H224.908V162.6H220.833V167.209Z" fill="#263238" stroke="black" stroke-miterlimit="10"/>
<path d="M219.232 163.662H227.033V160.827H219.232V163.662Z" fill="#263238" stroke="black" stroke-miterlimit="10"/>
<path d="M214.268 212.598H231.819V165.791H214.268V212.598Z" fill="white" stroke="black" stroke-miterlimit="10"/>
<path d="M224.992 184.228C227.489 184.228 229.512 182.204 229.512 179.708C229.512 177.211 227.489 175.188 224.992 175.188C222.496 175.188 220.472 177.211 220.472 179.708C220.472 182.204 222.496 184.228 224.992 184.228Z" fill="#263238" stroke="black" stroke-miterlimit="10"/>
<path d="M188.135 224.512L196.182 214.41H219.41L227.398 224.512H188.135Z" fill="white" stroke="black" stroke-miterlimit="10"/>
<path d="M220.161 214.545H188.347C187.605 214.545 186.892 214.25 186.367 213.725C185.842 213.199 185.546 212.487 185.546 211.744V211.532H222.957V211.744C222.957 212.486 222.663 213.198 222.138 213.723C221.614 214.248 220.903 214.544 220.161 214.545Z" fill="white" stroke="black" stroke-miterlimit="10"/>
<path d="M199.729 151.268L206.777 155.861L207.697 154.45L200.649 149.857L199.729 151.268Z" fill="white" stroke="black" stroke-miterlimit="10"/>
<path d="M194.06 148.116L200.653 152.434L203.43 148.193L196.837 143.875L194.06 148.116Z" fill="#263238" stroke="black" stroke-width="1.00404" stroke-miterlimit="10"/>
<path d="M222.246 143.809H223.841V138.666H222.246V143.809Z" fill="#263238" stroke="black" stroke-miterlimit="10"/>
<path d="M221.534 153.555H224.726V143.447H221.534V153.555Z" fill="white" stroke="black" stroke-miterlimit="10"/>
<path d="M219.41 158.342H226.855V152.493H219.41V158.342Z" fill="white" stroke="black" stroke-miterlimit="10"/>
<path d="M207.376 149.691L215.858 156.859L234.69 158.519L234.26 163.36L211.541 161.355L203.864 155.629L207.376 149.691Z" fill="white" stroke="black" stroke-miterlimit="10"/>
</g>
<path d="M92.2298 52.9863C94.3715 52.9863 96.1077 51.2501 96.1077 49.1084C96.1077 46.9667 94.3715 45.2305 92.2298 45.2305C90.0881 45.2305 88.3519 46.9667 88.3519 49.1084C88.3519 51.2501 90.0881 52.9863 92.2298 52.9863Z" fill="white" stroke="#263238" stroke-linecap="round" stroke-linejoin="round"/>
<path d="M125.175 29.0026C125.176 28.4746 125.02 27.9582 124.727 27.5187C124.434 27.0793 124.018 26.7366 123.53 26.5341C123.043 26.3316 122.506 26.2783 121.988 26.3811C121.47 26.4839 120.994 26.738 120.621 27.1114C120.247 27.4848 119.993 27.9605 119.89 28.4785C119.788 28.9964 119.841 29.5332 120.043 30.0208C120.246 30.5084 120.589 30.925 121.028 31.2178C121.468 31.5105 121.984 31.6663 122.512 31.6653C123.218 31.664 123.894 31.383 124.393 30.884C124.892 30.3849 125.173 29.7084 125.175 29.0026Z" fill="white" stroke="#263238" stroke-linecap="round" stroke-linejoin="round"/>
<path d="M93.6822 23.1871C93.6822 23.0435 93.6396 22.9031 93.5598 22.7837C93.48 22.6643 93.3666 22.5712 93.2339 22.5162C93.1012 22.4613 92.9552 22.4469 92.8143 22.4749C92.6734 22.5029 92.5441 22.5721 92.4425 22.6736C92.3409 22.7752 92.2718 22.9046 92.2438 23.0454C92.2157 23.1863 92.2301 23.3323 92.2851 23.465C92.34 23.5977 92.4331 23.7111 92.5525 23.7909C92.672 23.8707 92.8124 23.9133 92.956 23.9133C93.1486 23.9133 93.3333 23.8368 93.4695 23.7006C93.6057 23.5644 93.6822 23.3797 93.6822 23.1871Z" fill="white" stroke="#263238" stroke-linecap="round" stroke-linejoin="round"/>
<path d="M18.5843 18.8254C18.5853 18.4889 18.4863 18.1596 18.2999 17.8794C18.1136 17.5992 17.8482 17.3806 17.5375 17.2514C17.2268 17.1222 16.8847 17.0881 16.5546 17.1535C16.2245 17.2189 15.9213 17.3809 15.6833 17.6188C15.4453 17.8568 15.2834 18.16 15.218 18.4901C15.1526 18.8202 15.1866 19.1623 15.3159 19.4731C15.4451 19.7838 15.6637 20.0491 15.9439 20.2355C16.2241 20.4218 16.5533 20.5208 16.8899 20.5198C17.3392 20.5198 17.7702 20.3413 18.088 20.0235C18.4058 19.7058 18.5843 19.2748 18.5843 18.8254Z" fill="white" stroke="#263238" stroke-linecap="round" stroke-linejoin="round"/>
<path d="M17.374 71.8752C18.3098 71.8752 19.0684 71.1166 19.0684 70.1808C19.0684 69.2449 18.3098 68.4863 17.374 68.4863C16.4382 68.4863 15.6796 69.2449 15.6796 70.1808C15.6796 71.1166 16.4382 71.8752 17.374 71.8752Z" fill="white" stroke="#263238" stroke-linecap="round" stroke-linejoin="round"/>
<path d="M93.198 105.795C95.3397 105.795 97.0759 104.059 97.0759 101.917C97.0759 99.7753 95.3397 98.0391 93.198 98.0391C91.0563 98.0391 89.3201 99.7753 89.3201 101.917C89.3201 104.059 91.0563 105.795 93.198 105.795Z" fill="white" stroke="#263238" stroke-linecap="round" stroke-linejoin="round"/>
<path d="M18.1002 187.917C18.1011 187.581 18.0022 187.251 17.8158 186.971C17.6295 186.691 17.3641 186.472 17.0534 186.343C16.7427 186.214 16.4006 186.18 16.0705 186.245C15.7404 186.311 15.4371 186.473 15.1992 186.711C14.9612 186.949 14.7993 187.252 14.7339 187.582C14.6684 187.912 14.7025 188.254 14.8317 188.565C14.961 188.876 15.1796 189.141 15.4598 189.327C15.74 189.514 16.0692 189.613 16.4057 189.612C16.8551 189.612 17.2861 189.433 17.6039 189.115C17.9216 188.798 18.1002 188.367 18.1002 187.917Z" fill="white" stroke="#263238" stroke-linecap="round" stroke-linejoin="round"/>
<path d="M51.4518 198.692C54.1917 198.067 55.9065 195.34 55.2821 192.6C54.6576 189.86 51.9302 188.145 49.1903 188.77C46.4505 189.394 44.7356 192.121 45.3601 194.861C45.9846 197.601 48.712 199.316 51.4518 198.692Z" fill="white" stroke="#263238" stroke-linecap="round" stroke-linejoin="round"/>
<path d="M92.2298 177.982C93.2993 177.982 94.1663 177.115 94.1663 176.046C94.1663 174.976 93.2993 174.109 92.2298 174.109C91.1603 174.109 90.2933 174.976 90.2933 176.046C90.2933 177.115 91.1603 177.982 92.2298 177.982Z" fill="white" stroke="#263238" stroke-linecap="round" stroke-linejoin="round"/>
<path d="M14.2223 127.352C14.2213 127.113 14.1495 126.879 14.0159 126.681C13.8823 126.482 13.6929 126.328 13.4717 126.237C13.2505 126.146 13.0073 126.123 12.7728 126.17C12.5384 126.218 12.3232 126.333 12.1544 126.503C11.9856 126.672 11.8709 126.888 11.8246 127.122C11.7783 127.357 11.8025 127.6 11.8943 127.821C11.986 128.042 12.1411 128.231 12.3401 128.363C12.539 128.496 12.7728 128.567 13.012 128.567C13.1713 128.567 13.3291 128.536 13.4763 128.474C13.6234 128.413 13.7571 128.324 13.8695 128.211C13.982 128.098 14.071 127.964 14.1315 127.817C14.1921 127.669 14.2229 127.511 14.2223 127.352Z" fill="white" stroke="#263238" stroke-linecap="round" stroke-linejoin="round"/>
<path d="M177.499 43.2936C177.499 42.8149 177.357 42.3469 177.091 41.9488C176.825 41.5508 176.447 41.2405 176.005 41.0573C175.563 40.8741 175.076 40.8262 174.606 40.9196C174.137 41.013 173.705 41.2435 173.367 41.582C173.028 41.9206 172.798 42.3519 172.704 42.8214C172.611 43.291 172.659 43.7777 172.842 44.22C173.025 44.6623 173.336 45.0403 173.734 45.3063C174.132 45.5723 174.6 45.7142 175.079 45.7142C175.396 45.7142 175.711 45.6516 176.005 45.53C176.299 45.4083 176.565 45.23 176.79 45.0053C177.015 44.7805 177.193 44.5137 177.315 44.22C177.437 43.9263 177.499 43.6115 177.499 43.2936Z" fill="white" stroke="#263238" stroke-linecap="round" stroke-linejoin="round"/>
<path d="M154.973 49.5915C156.176 49.5915 157.151 48.6161 157.151 47.4129C157.151 46.2097 156.176 45.2344 154.973 45.2344C153.77 45.2344 152.794 46.2097 152.794 47.4129C152.794 48.6161 153.77 49.5915 154.973 49.5915Z" fill="white" stroke="#263238" stroke-linecap="round" stroke-linejoin="round"/>
<path d="M203.666 143.586C204.736 143.586 205.603 142.719 205.603 141.649C205.603 140.58 204.736 139.713 203.666 139.713C202.597 139.713 201.73 140.58 201.73 141.649C201.73 142.719 202.597 143.586 203.666 143.586Z" fill="white" stroke="#263238" stroke-linecap="round" stroke-linejoin="round"/>
<path d="M105.538 106.654L112.168 88.0101C112.168 88.0101 115.892 74.1336 119.622 69.7815C123.352 65.4293 130.416 66.8817 130.416 66.8817C130.416 66.8817 137.663 58.5973 139.308 61.0821C140.953 63.567 135.163 68.3341 133.918 70.8189C132.674 73.3037 130.806 79.533 128.934 83.0404C127.062 86.5478 122.512 90.0849 122.512 90.0849L121.687 111.208L106.773 117.013L105.538 106.654Z" fill="white" stroke="#263238" stroke-linecap="round" stroke-linejoin="round"/>
<path d="M130.416 66.8817C130.416 66.8817 123.372 65.4343 119.642 69.7815C115.912 74.1287 112.187 88.0101 112.187 88.0101L108.235 99.0609C109.749 100.574 111.707 101.566 113.823 101.891C116.925 102.301 119.918 101.066 122.146 99.7228L122.522 90.0849C122.522 90.0849 127.081 86.5627 128.944 83.0404C130.806 79.5182 132.674 73.3037 133.914 70.8189C135.153 68.3341 140.958 63.567 139.303 61.0821C137.648 58.5973 130.416 66.8817 130.416 66.8817Z" fill="#651FFF" stroke="#263238" stroke-linecap="round" stroke-linejoin="round"/>
<path d="M131.844 68.748H138.266V88.1672C138.266 88.4461 138.211 88.7224 138.104 88.9801C137.997 89.2378 137.841 89.472 137.643 89.6692C137.446 89.8665 137.212 90.0229 136.954 90.1297C136.697 90.2364 136.42 90.2914 136.141 90.2914H133.963C133.684 90.2914 133.408 90.2364 133.15 90.1297C132.892 90.0229 132.658 89.8665 132.461 89.6692C132.264 89.472 132.107 89.2378 132 88.9801C131.894 88.7224 131.839 88.4461 131.839 88.1672V68.748H131.844Z" stroke="#263238" stroke-linecap="round" stroke-linejoin="round"/>
<path d="M135.055 88.6276C134.776 88.6276 134.499 88.5727 134.242 88.4659C133.984 88.3592 133.75 88.2027 133.553 88.0055C133.355 87.8082 133.199 87.5741 133.092 87.3163C132.985 87.0586 132.93 86.7824 132.93 86.5034V70.8535H137.179V86.5034C137.179 86.7824 137.124 87.0586 137.017 87.3163C136.91 87.5741 136.754 87.8082 136.557 88.0055C136.359 88.2027 136.125 88.3592 135.868 88.4659C135.61 88.5727 135.334 88.6276 135.055 88.6276Z" fill="#651FFF"/>
<path d="M113.823 85.9554C113.823 85.9554 114.237 75.1862 115.067 71.8715C115.897 68.5568 124.804 62.1348 126.044 62.1348C127.284 62.1348 140.543 65.4495 141.165 67.3119C141.788 69.1743 139.713 71.8715 136.611 72.904C133.508 73.9364 122.314 75.5814 122.314 75.5814C122.314 75.5814 123.767 82.8334 121.899 85.5257" fill="#651FFF"/>
<path d="M113.823 85.9554C113.823 85.9554 114.237 75.1862 115.067 71.8715C115.897 68.5568 124.804 62.1348 126.044 62.1348C127.284 62.1348 140.543 65.4495 141.165 67.3119C141.788 69.1743 139.713 71.8715 136.611 72.904C133.508 73.9364 122.314 75.5814 122.314 75.5814C122.314 75.5814 123.767 82.8334 121.899 85.5257" stroke="#263238" stroke-linecap="round" stroke-linejoin="round"/>
<path d="M138.058 72.4746C138.058 72.4746 138.888 70.6122 137.851 70.4047C136.813 70.1973 128.114 70.1973 126.252 70.1973C124.389 70.1973 119.415 71.8571 119.415 71.8571" stroke="#263238" stroke-linecap="round" stroke-linejoin="round"/>
<path d="M140.336 69.7821C139.815 68.9164 139.01 68.2581 138.058 67.9198C136.611 67.5048 128.114 67.0898 125.214 67.0898C122.314 67.0898 119 68.3347 119 68.3347" stroke="#263238" stroke-linecap="round" stroke-linejoin="round"/>
<path d="M177 114.938C178.598 119.962 180.529 124.875 182.78 129.644C186.51 137.518 186.095 145.18 184.85 146.84C183.605 148.5 179.258 148.91 179.258 148.91C179.258 148.91 168.281 143.525 166.004 137.928C163.726 132.331 166.829 117.422 170.143 116.192C172.348 115.413 174.663 114.99 177 114.938Z" fill="#263238" stroke="#263238" stroke-linecap="round" stroke-linejoin="round"/>
<path d="M143.65 131.304L134.951 132.751C134.951 132.751 132.051 129.021 129.151 128.799C126.252 128.577 120.867 128.384 120.867 128.384L121.899 109.533C121.899 109.533 110.508 112.66 109.668 113.075C108.828 113.49 105.716 105.408 105.716 105.408C105.716 105.408 89.9722 147.457 89.1423 150.98C88.3124 154.502 90.1797 158.849 93.0943 162.164C96.0089 165.479 106.986 165.488 107.816 165.488C108.645 165.488 113.615 167.356 116.1 167.563C118.585 167.771 124.992 165.488 124.992 165.488C124.992 165.488 116.708 214.394 115.675 218.104C114.643 221.814 114.015 224.526 114.015 224.526H206.393C206.393 224.526 202.663 203.813 200.386 194.699C198.109 185.584 193.964 163.009 193.757 160.316C193.549 157.624 193.342 150.58 190.857 147.887C188.372 145.195 177.415 140.003 176.793 139.8C176.17 139.598 154.622 130.266 154.622 130.266L143.65 131.304Z" fill="white" stroke="#263238" stroke-linecap="round" stroke-linejoin="round"/>
<path d="M120.324 155.539L120.245 159.471" stroke="#263238" stroke-linecap="round" stroke-linejoin="round"/>
<path d="M120.867 129.021L120.363 153.672" stroke="#263238" stroke-linecap="round" stroke-linejoin="round"/>
<path d="M120.867 134.619L123.974 157.195" stroke="#263238" stroke-linecap="round" stroke-linejoin="round"/>
<path d="M104.674 140.334L104.328 144.083" stroke="#263238" stroke-linecap="round" stroke-linejoin="round"/>
<path d="M106.635 118.984L104.97 137.139" stroke="#263238" stroke-linecap="round" stroke-linejoin="round"/>
<path d="M138.167 138.486L139.511 140.625" stroke="#263238" stroke-linecap="round" stroke-linejoin="round"/>
<path d="M134.951 133.375L137.554 137.52" stroke="#263238" stroke-linecap="round" stroke-linejoin="round"/>
<path d="M170.623 202.953C169.956 208.881 169.956 221.612 169.956 221.612" stroke="#263238" stroke-linecap="round" stroke-linejoin="round"/>
<path d="M170.964 170.43C171.052 171.452 171.136 172.495 171.201 173.557C171.729 182.044 171.655 192.823 171.107 198.988" stroke="#263238" stroke-linecap="round" stroke-linejoin="round"/>
<path d="M168.716 155.115C168.716 155.115 169.946 160.727 170.741 168.167" stroke="#263238" stroke-linecap="round" stroke-linejoin="round"/>
<path d="M190.249 199.27C189.647 209.456 190.052 224.513 190.052 224.513" stroke="#263238" stroke-linecap="round" stroke-linejoin="round"/>
<path d="M187.152 166.102C187.152 166.102 192.329 184.745 190.877 193.03C190.689 194.116 190.531 195.46 190.407 196.982" stroke="#263238" stroke-linecap="round" stroke-linejoin="round"/>
<path d="M126.696 190.519C127.055 189.537 127.355 188.534 127.595 187.516" stroke="#263238" stroke-linecap="round" stroke-linejoin="round"/>
<path d="M117.226 210.335C117.226 210.335 122.843 200.277 125.911 192.605" stroke="#263238" stroke-linecap="round" stroke-linejoin="round"/>
<path d="M152.972 122.398C152.972 122.398 150.695 119.498 149.865 121.153C149.035 122.808 141.58 129.022 141.58 129.022C141.58 129.022 140.75 135.652 141.788 139.396C142.825 143.141 143.443 145.818 143.858 146.441C144.273 147.063 149.242 140.019 151.727 139.811C154.212 139.604 155.872 140.226 157.734 141.466C159.597 142.706 166.814 154.048 166.814 154.048C166.814 154.048 171.616 147.058 171.823 145.818C172.031 144.578 173.271 143.541 173.893 143.126C174.515 142.711 181.555 145.403 182.785 146.026C184.015 146.648 185.062 151.203 185.477 149.548C185.892 147.893 179.678 141.674 177.608 138.566C175.538 135.459 172.431 129.037 169.323 127.382C166.216 125.727 152.972 122.398 152.972 122.398Z" fill="white" stroke="#263238" stroke-linecap="round" stroke-linejoin="round"/>
<path d="M152.557 110.799L151.11 125.713C151.11 125.713 160.634 141.866 161.879 143.111C163.124 144.356 166.024 154.296 167.678 152.003C169.333 149.711 170.578 141.229 170.578 137.914C170.578 134.6 171.201 119.068 171.201 119.068C171.201 119.068 162.309 118.238 159.187 116.376C156.064 114.514 152.557 110.799 152.557 110.799Z" fill="white" stroke="#263238" stroke-linecap="round" stroke-linejoin="round"/>
<path d="M152.557 110.799L152.384 112.597L170.662 133.577C170.835 127.812 171.186 119.083 171.186 119.083C171.186 119.083 162.294 118.253 159.172 116.391C156.05 114.529 152.557 110.799 152.557 110.799Z" fill="#263238" stroke="#263238" stroke-linecap="round" stroke-linejoin="round"/>
<path d="M171.616 160.717L173.893 175.008L190.254 176.871L187.354 163.617L171.616 160.717Z" fill="white" stroke="#263238" stroke-linecap="round" stroke-linejoin="round"/>
<path d="M169.338 74.5495C169.338 74.5495 167.263 69.3724 159.394 73.3046C151.525 77.2368 148.827 89.6708 148.827 92.5706C148.827 95.4704 147.795 98.7999 149.682 98.7999C151.569 98.7999 153.827 93.4104 155.274 91.3405C156.721 89.2707 168.326 83.8861 170.81 84.0936C173.295 84.301 181.995 95.2777 181.995 95.2777L182.202 101.907C182.202 101.907 189.454 98.7999 190.901 93.2079C192.349 87.6158 184.894 77.0491 178.472 73.7344C172.05 70.4196 169.338 74.5495 169.338 74.5495Z" fill="#263238" stroke="#263238" stroke-linecap="round" stroke-linejoin="round"/>
<path d="M151.935 95.0551C151.935 95.0551 151.11 90.4955 148.827 92.5851C146.545 94.6748 147.587 102.959 149.035 103.769C150.482 104.579 151.505 100.87 151.505 100.87L151.935 95.0551Z" fill="white" stroke="#263238" stroke-linecap="round" stroke-linejoin="round"/>
<path d="M151.525 90.4944C151.525 90.4944 151.11 104.168 151.11 107.691C151.11 111.213 151.727 113.49 157.324 117.63C162.921 121.77 166.641 122.812 170.371 121.36C174.1 119.907 179.263 116.39 180.107 113.698C180.952 111.005 183.422 95.6765 184.059 93.8092C184.697 91.9418 172.238 82.0026 171.418 81.1776C170.918 80.682 170.254 80.3868 169.551 80.3477C169.551 80.3477 166.241 82.4175 160.441 85.3173C154.642 88.2171 153.189 89.2693 153.189 89.2693C153.189 89.2693 151.935 95.054 151.525 90.4944Z" fill="white" stroke="#263238" stroke-linecap="round" stroke-linejoin="round"/>
<path d="M163.514 91.9378C163.415 92.9258 162.921 93.647 162.407 93.5976C161.894 93.5482 161.558 92.7183 161.657 91.7501C161.755 90.7818 162.249 90.0408 162.763 90.0902C163.277 90.1396 163.628 90.9695 163.514 91.9378Z" fill="#263238"/>
<path d="M177 94.4314C176.901 95.4194 176.407 96.1406 175.899 96.0912C175.39 96.0418 175.049 95.2119 175.148 94.2436C175.246 93.2754 175.736 92.5344 176.249 92.5887C176.763 92.6431 177.099 93.4631 177 94.4314Z" fill="#263238"/>
<path d="M158.979 88.2184C159.946 87.4184 161.115 86.8991 162.357 86.7171C163.599 86.535 164.867 86.6972 166.024 87.186" stroke="#263238" stroke-linecap="round" stroke-linejoin="round"/>
<path d="M181.762 93.3946C179.485 89.8773 174.93 90.4948 174.93 90.4948C174.93 90.4948 173.478 92.9648 173.271 94.6395" stroke="#263238" stroke-linecap="round" stroke-linejoin="round"/>
<path d="M170.786 94.6401C166.685 93.1581 153.866 96.1863 151.342 96.8088C151.228 100.889 151.11 105.78 151.11 107.677C151.11 111.194 151.727 113.476 157.324 117.616C162.921 121.756 166.641 122.798 170.371 121.346C174.1 119.893 179.263 116.376 180.107 113.684C180.562 112.202 181.52 106.906 182.39 102.124C179.91 100.183 174.263 95.9048 170.786 94.6401Z" fill="white" stroke="#263238" stroke-linecap="round" stroke-linejoin="round"/>
<path d="M152.972 100.232C152.972 100.232 160.224 98.37 166.438 98.7849" stroke="#263238" stroke-linecap="round" stroke-linejoin="round"/>
<path d="M159.606 105.472L162.709 105.408" stroke="#263238" stroke-linecap="round" stroke-linejoin="round"/>
<path d="M152.35 105.615L157.744 105.512" stroke="#263238" stroke-linecap="round" stroke-linejoin="round"/>
<path d="M179.9 109.761L175.548 108.516" stroke="#263238" stroke-linecap="round" stroke-linejoin="round"/>
<path d="M177.623 101.062L181.145 102.717" stroke="#263238" stroke-linecap="round" stroke-linejoin="round"/>
<path d="M152.557 109.969C152.557 109.969 156.702 111.416 158.979 111.416" stroke="#263238" stroke-linecap="round" stroke-linejoin="round"/>
<path d="M182.39 102.139C182.39 102.139 184.662 99.6093 184.662 102.717C184.662 105.824 180.937 109.139 180.937 109.139L182.39 102.139Z" fill="white" stroke="#263238" stroke-linecap="round" stroke-linejoin="round"/>
<path d="M63.232 131.374C63.0747 131.373 62.9189 131.343 62.7726 131.285L36.9067 120.98C36.6021 120.859 36.3581 120.622 36.2284 120.321C36.0987 120.02 36.0939 119.679 36.2151 119.375C36.3363 119.07 36.5736 118.826 36.8747 118.697C37.1757 118.567 37.516 118.562 37.8206 118.683L63.6815 128.993C63.9473 129.1 64.1678 129.296 64.3051 129.547C64.4425 129.798 64.4882 130.089 64.4345 130.371C64.3808 130.652 64.231 130.906 64.0108 131.089C63.7905 131.272 63.5135 131.373 63.2271 131.374H63.232Z" fill="white" stroke="#263238" stroke-linecap="round" stroke-linejoin="round"/>
<path d="M37.8206 118.683C37.516 118.562 37.1757 118.567 36.8747 118.697C36.5736 118.826 36.3363 119.07 36.2151 119.375C36.0939 119.679 36.0987 120.02 36.2284 120.321C36.3581 120.622 36.6021 120.859 36.9067 120.98L47.424 125.169C47.5903 124.742 47.8408 124.351 48.1607 124.022C48.4806 123.693 48.8634 123.431 49.2864 123.253L37.8206 118.683Z" fill="white" stroke="#263238" stroke-linecap="round" stroke-linejoin="round"/>
<path d="M74.6681 39.3968C76.1783 37.1537 76.8129 34.4344 76.4514 31.7546C75.1729 29.8934 73.5739 28.2743 71.7288 26.9727C72.1092 27.2493 71.6794 31.3248 71.6794 31.9127C71.6794 32.5944 71.1854 36.4377 71.7288 36.8527C72.7807 37.6135 73.7642 38.4648 74.6681 39.3968Z" fill="#263238" stroke="#263238" stroke-linecap="round" stroke-linejoin="round"/>
<path d="M75.2362 111.353C72.8255 106.438 66.8382 103.034 62.4515 100.169C56.2172 96.1035 49.731 92.4281 43.5856 88.2291C40.4043 86.0555 35.894 83.2891 33.6216 79.6582C33.6216 79.6582 32.2434 84.4549 32.7522 86.9941C32.8362 87.414 32.93 87.8438 33.0239 88.2587C33.4053 89.0491 33.8832 89.7891 34.4466 90.462C38.5666 95.481 44.7218 98.9736 50.1509 102.367C56.4247 106.285 62.9257 109.955 68.7895 114.48C70.5107 115.743 72.0996 117.176 73.5319 118.758C74.272 117.971 74.8807 117.071 75.335 116.091C75.519 115.62 75.6692 115.136 75.7845 114.643C75.8241 114.515 75.8586 114.411 75.8932 114.327C75.9278 114.243 75.8932 114.07 75.8932 113.947C75.8553 113.046 75.6316 112.163 75.2362 111.353Z" fill="#263238" stroke="#263238" stroke-linecap="round" stroke-linejoin="round"/>
<path d="M73.5368 117.32H73.4282L43.2546 114.697C43.0925 114.683 42.9346 114.638 42.7901 114.563C42.6456 114.488 42.5173 114.385 42.4125 114.26C42.3077 114.136 42.2284 113.992 42.1792 113.837C42.13 113.682 42.1119 113.518 42.1259 113.356C42.1398 113.194 42.1856 113.036 42.2605 112.891C42.3355 112.747 42.4381 112.619 42.5627 112.514C42.6872 112.409 42.8312 112.33 42.9864 112.281C43.1415 112.231 43.3049 112.213 43.4671 112.227L73.6406 114.855C73.9681 114.869 74.2768 115.012 74.4987 115.254C74.7205 115.495 74.8375 115.815 74.8237 116.142C74.81 116.47 74.6666 116.778 74.4253 117C74.184 117.222 73.8644 117.339 73.5368 117.325V117.32Z" fill="white" stroke="#263238" stroke-linecap="round" stroke-linejoin="round"/>
<path d="M43.472 112.227C43.1445 112.199 42.8191 112.302 42.5676 112.514C42.3161 112.726 42.159 113.028 42.1308 113.356C42.1026 113.684 42.2057 114.009 42.4174 114.26C42.6291 114.512 42.932 114.669 43.2596 114.697L56.5087 115.848C56.5448 115.01 56.7358 114.186 57.0718 113.418L43.472 112.227Z" fill="white" stroke="#263238" stroke-linecap="round" stroke-linejoin="round"/>
<path d="M66.2256 109.075C66.1171 109.074 66.0091 109.059 65.9046 109.03L56.1579 106.407C55.8415 106.322 55.5719 106.114 55.4084 105.831C55.2449 105.547 55.2009 105.209 55.286 104.893C55.3712 104.576 55.5785 104.307 55.8625 104.143C56.1464 103.98 56.4837 103.936 56.8001 104.021L66.5468 106.644C66.8386 106.72 67.0927 106.899 67.2612 107.149C67.4297 107.4 67.5009 107.703 67.4614 108.001C67.4219 108.3 67.2744 108.574 67.0468 108.772C66.8192 108.97 66.5271 109.077 66.2256 109.075Z" fill="white" stroke="#263238" stroke-linecap="round" stroke-linejoin="round"/>
<path d="M57.6053 102.703C57.4226 102.703 57.2422 102.663 57.0768 102.585L50.3287 99.3986C50.0326 99.2584 49.8043 99.0063 49.6941 98.6978C49.5839 98.3893 49.6007 98.0496 49.7409 97.7535C49.8811 97.4574 50.1331 97.2292 50.4416 97.1189C50.7501 97.0087 51.0898 97.0255 51.3859 97.1657L58.1339 100.352C58.3876 100.472 58.5928 100.675 58.7158 100.927C58.8389 101.179 58.8724 101.466 58.8109 101.739C58.7493 102.013 58.5964 102.258 58.3773 102.433C58.1582 102.608 57.8859 102.704 57.6053 102.703Z" fill="white" stroke="#263238" stroke-linecap="round" stroke-linejoin="round"/>
<path d="M73.0824 166.779C73.0824 166.779 74.8459 164.28 74.8459 162.15C74.8435 162.124 74.8435 162.098 74.8459 162.071C73.6109 155.724 68.5129 151.268 63.1777 147.637C56.1085 142.825 48.2144 139.323 41.2786 134.299C38.8086 132.52 36.2448 130.436 34.8072 127.699C34.7578 127.615 34.7134 127.526 34.6689 127.437C34.4085 126.871 34.1889 126.286 34.0119 125.688C33.918 125.397 33.9329 125.071 33.8439 124.784C33.7995 124.656 33.7649 125.278 33.7353 126.212C33.7056 127.146 33.6957 128.302 33.6908 129.403C33.6315 131.379 33.5525 133.395 33.9427 135.272C34.5059 137.984 36.472 140.187 38.4925 141.976C44.87 147.622 53.0358 151.095 60.2285 155.57C64.551 158.297 70.148 161.968 73.0824 166.779Z" fill="#263238" stroke="#263238" stroke-linecap="round" stroke-linejoin="round"/>
<path d="M51.045 145.804H50.9512L43.64 145.235C43.4778 145.223 43.3197 145.178 43.1747 145.105C43.0297 145.031 42.9006 144.929 42.7949 144.806C42.5814 144.556 42.4757 144.232 42.5013 143.904C42.5268 143.577 42.6815 143.273 42.9311 143.059C43.1808 142.846 43.5051 142.74 43.8326 142.765L51.1389 143.329C51.3011 143.335 51.4604 143.373 51.6079 143.441C51.7554 143.508 51.8881 143.605 51.9984 143.724C52.1087 143.843 52.1945 143.982 52.2509 144.134C52.3073 144.287 52.3331 144.448 52.327 144.611C52.3208 144.773 52.2827 144.932 52.215 145.08C52.1472 145.227 52.0511 145.36 51.932 145.47C51.813 145.58 51.6734 145.666 51.5212 145.723C51.369 145.779 51.2072 145.805 51.045 145.799V145.804Z" fill="white" stroke="#263238" stroke-linecap="round" stroke-linejoin="round"/>
<path d="M47.1128 137.371H46.9942L36.8771 136.432C36.5496 136.402 36.2474 136.243 36.0371 135.99C35.8268 135.737 35.7256 135.411 35.7557 135.084C35.7859 134.756 35.9449 134.454 36.1978 134.244C36.4507 134.033 36.7768 133.932 37.1043 133.962L47.2215 134.901C47.549 134.915 47.8574 135.059 48.0788 135.301C48.3002 135.543 48.4165 135.863 48.4021 136.19C48.3877 136.518 48.2438 136.826 48.002 137.048C47.7602 137.269 47.4403 137.385 47.1128 137.371Z" fill="white" stroke="#263238" stroke-linecap="round" stroke-linejoin="round"/>
<path d="M76.2489 84.9973C76.184 84.0697 75.9123 83.1683 75.4536 82.3594C74.0308 79.7511 71.6843 77.5923 69.5256 75.6064C66.4529 72.7758 63.1826 70.1724 59.8926 67.5937C53.1593 62.3277 46.1347 57.3778 39.7225 51.7166C38.1813 50.3877 36.4226 48.9057 35.158 47.1816C35.158 47.1816 33.7649 52.6156 35.1185 56.6862C35.1876 56.8887 35.2469 57.0814 35.3012 57.2741C35.9825 58.0593 36.7047 58.8079 37.465 59.5168C39.8382 61.7837 42.3263 63.9272 44.9194 65.9388C51.4699 71.1456 58.2574 76.0411 64.7239 81.3566C67.5298 83.6685 70.8001 86.1533 73.2503 89.1222C73.3294 89.0679 73.4035 89.0086 73.4776 88.9493C74.2854 88.3582 74.9913 87.639 75.5672 86.8202C75.767 86.4733 75.9436 86.1136 76.0958 85.7433C76.148 85.6284 76.2091 85.5177 76.2785 85.4123L76.2489 84.9973Z" fill="#263238" stroke="#263238" stroke-linecap="round" stroke-linejoin="round"/>
<path d="M33.9921 77.0255C33.7107 77.0227 33.4386 76.9238 33.221 76.7452C33.0034 76.5666 32.8534 76.319 32.7958 76.0435C32.7381 75.7679 32.7763 75.481 32.9041 75.2301C33.0318 74.9793 33.2414 74.7796 33.4981 74.6642L52.4282 66.2316C52.5783 66.1534 52.7429 66.1069 52.9117 66.0949C53.0805 66.0829 53.25 66.1058 53.4096 66.162C53.5692 66.2183 53.7156 66.3068 53.8396 66.422C53.9635 66.5372 54.0625 66.6766 54.1304 66.8317C54.1982 66.9867 54.2335 67.154 54.234 67.3233C54.2345 67.4925 54.2002 67.6601 54.1332 67.8155C54.0662 67.9709 53.968 68.1109 53.8447 68.2268C53.7214 68.3427 53.5755 68.432 53.4162 68.4892L34.496 76.9218C34.3365 76.9892 34.1653 77.0245 33.9921 77.0255Z" fill="white" stroke="#263238" stroke-linecap="round" stroke-linejoin="round"/>
<path d="M43.7684 70.084L33.4883 74.6634C33.2315 74.7788 33.0219 74.9785 32.8942 75.2293C32.7664 75.4802 32.7282 75.7671 32.7859 76.0426C32.8435 76.3182 32.9936 76.5657 33.2111 76.7443C33.4287 76.9229 33.7008 77.0218 33.9823 77.0247C34.1521 77.0224 34.3198 76.9871 34.4763 76.9209L45.448 72.0353L43.7684 70.084Z" fill="white" stroke="#263238" stroke-linecap="round" stroke-linejoin="round"/>
<path d="M72.2228 94.6417H72.1635L43.6795 93.3326C43.3519 93.3176 43.0438 93.173 42.8228 92.9307C42.6019 92.6885 42.4862 92.3684 42.5013 92.0408C42.5164 91.7133 42.6609 91.4051 42.9032 91.1842C43.1454 90.9632 43.4656 90.8476 43.7931 90.8626L72.2771 92.1767C72.6047 92.1839 72.916 92.3209 73.1425 92.5576C73.369 92.7943 73.4922 93.1113 73.485 93.4389C73.4778 93.7664 73.3407 94.0777 73.104 94.3042C72.8673 94.5307 72.5503 94.6539 72.2228 94.6467V94.6417Z" fill="white" stroke="#263238" stroke-linecap="round" stroke-linejoin="round"/>
<path d="M42.484 92.0374C42.476 92.1996 42.5001 92.3618 42.5549 92.5147C42.6097 92.6676 42.6942 92.8082 42.8034 92.9284C42.9126 93.0486 43.0444 93.1461 43.1914 93.2153C43.3383 93.2845 43.4975 93.3241 43.6597 93.3317L57.5461 93.9689C57.7399 93.1609 57.8017 92.3267 57.7288 91.4989L43.7733 90.8567C43.6111 90.8494 43.4491 90.8742 43.2964 90.9296C43.1438 90.985 43.0036 91.07 42.8838 91.1797C42.7641 91.2893 42.6671 91.4215 42.5985 91.5687C42.5299 91.7159 42.491 91.8751 42.484 92.0374Z" fill="white" stroke="#263238" stroke-linecap="round" stroke-linejoin="round"/>
<path d="M76.2785 85.3926C76.2091 85.498 76.148 85.6086 76.0958 85.7236C75.9436 86.0938 75.767 86.4536 75.5672 86.8005C74.9913 87.6193 74.2854 88.3385 73.4776 88.9296C73.4035 88.9889 73.3294 89.0482 73.2503 89.1025C71.0718 90.792 68.5524 92.0665 66.112 93.3262C59.5171 96.7299 52.7246 99.8174 46.6188 104.081C40.7402 108.186 35.1086 113.728 33.9921 121.133C33.8785 121.899 33.844 121.133 33.8094 121.919L33.676 123.5C33.676 123.5 33.2759 130.559 33.5426 133.622C33.7143 135.483 34.357 137.27 35.4099 138.814C35.4099 138.814 35.1432 137.88 34.6096 135.084C34.0761 132.288 34.8122 127.704 34.8122 127.704C35.044 127.041 35.3111 126.391 35.6125 125.757C39.0705 118.52 46.3174 113.738 53.0803 109.949C59.4035 106.388 66.4183 103.75 72.3858 99.6148C74.0259 98.4836 75.8883 97.0707 76.2242 94.9762C76.2588 94.7588 76.2884 94.5365 76.3181 94.3142C76.6688 91.4787 76.491 88.2133 76.2785 85.3926Z" fill="#651FFF" stroke="#263238" stroke-linecap="round" stroke-linejoin="round"/>
<path d="M33.8044 154.988C33.4769 154.994 33.1602 154.871 32.9239 154.644C32.6877 154.417 32.5513 154.105 32.5447 153.778C32.5382 153.45 32.662 153.133 32.889 152.897C33.116 152.661 33.4275 152.524 33.755 152.518L62.407 151.392C62.5692 151.385 62.7311 151.411 62.8834 151.467C63.0357 151.523 63.1755 151.608 63.2948 151.718C63.414 151.829 63.5105 151.961 63.5785 152.108C63.6466 152.256 63.6849 152.415 63.6914 152.577C63.6979 152.739 63.6724 152.901 63.6163 153.054C63.5603 153.206 63.4747 153.346 63.3646 153.465C63.2545 153.584 63.122 153.681 62.9747 153.749C62.8273 153.817 62.668 153.855 62.5058 153.862L33.8538 154.988H33.8044Z" fill="white" stroke="#263238" stroke-linecap="round" stroke-linejoin="round"/>
<path d="M48.0366 151.959L33.755 152.517C33.4275 152.524 33.116 152.66 32.889 152.896C32.662 153.133 32.5382 153.449 32.5447 153.777C32.5513 154.104 32.6877 154.416 32.9239 154.643C33.1602 154.87 33.4769 154.994 33.8044 154.987H33.8538L49.0542 154.389C48.9749 153.493 48.6193 152.644 48.0366 151.959Z" fill="white" stroke="#263238" stroke-linecap="round" stroke-linejoin="round"/>
<path d="M75.8932 114.303C75.8586 114.387 75.8241 114.49 75.7845 114.619C75.6692 115.111 75.519 115.595 75.335 116.066C74.883 117.055 74.2742 117.964 73.5319 118.759C70.8544 121.693 66.5616 123.664 63.3604 125.324C57.141 128.555 50.6992 131.395 44.786 135.204C39.1791 138.8 33.2215 143.745 32.3817 150.799C32.026 153.763 32.2236 156.895 32.2434 159.889C32.2162 160.722 32.2443 161.555 32.3274 162.384C32.6028 160.257 33.0556 158.157 33.6809 156.105C35.4149 152.524 38.5567 149.53 41.664 147.213C47.1671 143.108 53.4557 140.164 59.5764 137.116C64.4077 134.71 70.069 132.324 73.7641 128.248C75.0211 126.951 75.7697 125.245 75.8735 123.442C75.8735 123.264 75.8735 123.091 75.8735 122.913C76.033 120.045 76.0396 117.171 75.8932 114.303Z" fill="#651FFF" stroke="#263238" stroke-linecap="round" stroke-linejoin="round"/>
<path d="M32.5398 163.321C33.9032 167.673 37.8404 170.731 41.6788 172.83C41.3873 172.672 41.7282 168.384 41.7282 167.89C41.7282 167.396 42.1481 163.207 41.6788 162.95C38.8679 161.424 35.568 159.097 33.6809 156.104C33.0567 158.149 32.6039 160.242 32.3274 162.363C32.3698 162.688 32.4409 163.008 32.5398 163.321Z" fill="#263238" stroke="#263238" stroke-linecap="round" stroke-linejoin="round"/>
<path d="M40.9526 59.9127L46.268 60.4067C46.2767 59.5713 46.3963 58.7407 46.6237 57.9367L41.1897 57.4427C41.0275 57.4278 40.864 57.445 40.7085 57.4932C40.5529 57.5415 40.4084 57.62 40.2832 57.7241C40.1579 57.8282 40.0544 57.956 39.9786 58.1001C39.9027 58.2443 39.856 58.4019 39.8411 58.5641C39.8262 58.7263 39.8434 58.8898 39.8916 59.0454C39.9399 59.2009 40.0184 59.3454 40.1225 59.4707C40.2266 59.5959 40.3544 59.6994 40.4985 59.7752C40.6426 59.8511 40.8003 59.8978 40.9625 59.9127H40.9526Z" fill="white" stroke="#263238" stroke-linecap="round" stroke-linejoin="round"/>
<path d="M72.786 48.9064H72.618L34.7776 44.2233C34.6154 44.2035 34.4587 44.152 34.3165 44.0716C34.1742 43.9913 34.0491 43.8837 33.9485 43.755C33.8478 43.6264 33.7734 43.4791 33.7296 43.3217C33.6858 43.1643 33.6735 42.9998 33.6933 42.8376C33.7131 42.6754 33.7646 42.5187 33.8449 42.3765C33.9253 42.2342 34.0329 42.1092 34.1615 42.0085C34.2902 41.9078 34.4374 41.8334 34.5949 41.7896C34.7523 41.7459 34.9168 41.7335 35.0789 41.7533L72.9342 46.4364C73.0963 46.4461 73.255 46.4877 73.4011 46.5588C73.5473 46.6298 73.6779 46.729 73.7857 46.8505C73.8935 46.9721 73.9763 47.1137 74.0294 47.2673C74.0825 47.4208 74.1048 47.5833 74.0951 47.7455C74.0853 47.9077 74.0438 48.0664 73.9727 48.2125C73.9016 48.3586 73.8025 48.4893 73.6809 48.5971C73.5594 48.7049 73.4178 48.7877 73.2642 48.8408C73.1107 48.8938 72.9481 48.9162 72.786 48.9064Z" fill="white" stroke="#263238" stroke-linecap="round" stroke-linejoin="round"/>
<path d="M72.9342 46.437L55.5552 44.2832C55.4046 45.1176 55.1228 45.9229 54.7204 46.6692L72.618 48.907H72.7711C72.9333 48.9168 73.0958 48.8945 73.2494 48.8414C73.403 48.7883 73.5446 48.7055 73.6661 48.5977C73.7877 48.4899 73.8868 48.3592 73.9579 48.2131C74.0289 48.067 74.0705 47.9083 74.0802 47.7461C74.09 47.584 74.0677 47.4215 74.0146 47.2679C73.9615 47.1143 73.8787 46.9727 73.7709 46.8512C73.6631 46.7296 73.5324 46.6305 73.3863 46.5594C73.2402 46.4884 73.0815 46.4468 72.9193 46.437H72.9342Z" fill="white" stroke="#263238" stroke-linecap="round" stroke-linejoin="round"/>
<path d="M37.3612 37.4844C37.0337 37.4975 36.7144 37.38 36.4735 37.1577C36.2326 36.9353 36.0899 36.6264 36.0768 36.2989C36.0637 35.9713 36.1813 35.652 36.4036 35.4111C36.626 35.1702 36.9349 35.0275 37.2624 35.0144L73.8184 32.0159C74.146 31.989 74.4708 32.0934 74.7214 32.306C74.972 32.5186 75.1278 32.8221 75.1547 33.1496C75.1815 33.4771 75.0772 33.8019 74.8646 34.0525C74.652 34.3031 74.3485 34.459 74.021 34.4859L37.465 37.4844H37.3612Z" fill="white" stroke="#263238" stroke-linecap="round" stroke-linejoin="round"/>
<path d="M73.8085 32.0218L57.0521 33.3952C57.3071 33.7402 57.4883 34.1341 57.5844 34.5522C57.6804 34.9704 57.6892 35.4039 57.6103 35.8256L74.0111 34.482C74.1733 34.4687 74.3312 34.4235 74.476 34.3492C74.6207 34.2748 74.7494 34.1727 74.8547 34.0486C74.96 33.9245 75.0398 33.7809 75.0896 33.626C75.1393 33.4711 75.1581 33.3079 75.1448 33.1457C75.1315 32.9835 75.0864 32.8255 75.0121 32.6808C74.9377 32.536 74.8356 32.4073 74.7115 32.3021C74.5874 32.1968 74.4438 32.117 74.2889 32.0672C74.1339 32.0174 73.9707 31.9987 73.8085 32.012V32.0218Z" fill="white" stroke="#263238" stroke-linecap="round" stroke-linejoin="round"/>
<path d="M58.5439 55.8512C58.4766 55.8585 58.4087 55.8585 58.3414 55.8512L35.2914 52.1067C34.9678 52.0542 34.6782 51.8754 34.4864 51.6095C34.2947 51.3437 34.2164 51.0125 34.2688 50.6889C34.3212 50.3653 34.5 50.0757 34.7659 49.884C35.0318 49.6922 35.363 49.6139 35.6866 49.6663L58.7415 53.4158C59.0691 53.442 59.3728 53.5972 59.5859 53.8473C59.799 54.0975 59.9039 54.422 59.8777 54.7496C59.8515 55.0771 59.6963 55.3808 59.4462 55.5939C59.196 55.807 58.8715 55.912 58.5439 55.8858V55.8512Z" fill="white" stroke="#263238" stroke-linecap="round" stroke-linejoin="round"/>
<path d="M58.7415 53.3963L46.3915 51.3906C46.0895 51.702 45.8537 52.0713 45.6983 52.4763C45.5429 52.8813 45.4712 53.3135 45.4875 53.747L58.3315 55.8317C58.3988 55.839 58.4667 55.839 58.5341 55.8317C58.8616 55.8579 59.1861 55.7529 59.4363 55.5398C59.6864 55.3267 59.8417 55.023 59.8679 54.6955C59.8941 54.3679 59.7891 54.0434 59.576 53.7933C59.3629 53.5431 59.0592 53.3879 58.7317 53.3617L58.7415 53.3963Z" fill="white" stroke="#263238" stroke-linecap="round" stroke-linejoin="round"/>
<path d="M37.9837 42.0751C38.6358 41.1467 39.3698 40.2788 40.177 39.4816C40.7056 38.9876 40.2264 35.3023 40.2264 34.5416C40.2264 33.3757 40.2264 32.2148 40.2264 31.049C40.2264 30.8267 40.0733 29.7152 40.1918 29.6016C37.8484 31.9171 36.0584 34.7322 34.9554 37.8365C34.2252 39.9522 33.8301 42.169 33.7847 44.4067C33.6414 43.7102 33.6315 44.3228 33.7451 46.2494C33.6612 48.9367 33.2511 52.0045 33.839 54.5831C34.1162 55.5839 34.6237 56.5059 35.321 57.2754C35.2667 57.0828 35.2074 56.8901 35.1382 56.6876C33.7847 52.622 35.1777 47.183 35.1777 47.183C35.8948 45.3693 36.8375 43.6531 37.9837 42.0751Z" fill="#651FFF" stroke="#263238" stroke-linecap="round" stroke-linejoin="round"/>
<path d="M34.743 87.1471C34.4527 87.1468 34.1718 87.0442 33.9496 86.8573C33.7274 86.6705 33.5781 86.4113 33.528 86.1253C33.4779 85.8394 33.5301 85.5449 33.6755 85.2936C33.8209 85.0423 34.0502 84.8503 34.3231 84.7512L63.3703 74.2537C63.6737 74.157 64.0027 74.1811 64.2887 74.3211C64.5747 74.4611 64.7955 74.7061 64.9052 75.0051C65.0148 75.304 65.0047 75.6338 64.8771 75.9255C64.7494 76.2172 64.514 76.4483 64.22 76.5706L35.1728 87.0632C35.0355 87.1157 34.89 87.1442 34.743 87.1471Z" fill="white" stroke="#263238" stroke-linecap="round" stroke-linejoin="round"/>
<path d="M48.7133 79.5352L34.3231 84.7518C34.0502 84.8508 33.8209 85.0429 33.6755 85.2942C33.5301 85.5454 33.4779 85.8399 33.528 86.1259C33.5781 86.4119 33.7274 86.671 33.9496 86.8579C34.1718 87.0447 34.4527 87.1474 34.743 87.1477C34.8862 87.1468 35.0281 87.1217 35.1629 87.0736L49.6421 81.8421C49.3267 81.5499 49.0799 81.1915 48.9193 80.7927C48.7587 80.3938 48.6884 79.9644 48.7133 79.5352Z" fill="white" stroke="#263238" stroke-linecap="round" stroke-linejoin="round"/>
<path d="M69.0365 176.541C68.9144 176.54 68.793 176.522 68.6759 176.487L39.6287 167.679C39.3149 167.584 39.0517 167.368 38.897 167.079C38.7423 166.79 38.7087 166.452 38.8037 166.138C38.8987 165.824 39.1144 165.561 39.4035 165.406C39.6925 165.251 40.0312 165.218 40.345 165.313L69.3922 174.121C69.6784 174.204 69.9248 174.388 70.0859 174.639C70.2469 174.89 70.3118 175.191 70.2684 175.486C70.2251 175.781 70.0765 176.05 69.85 176.244C69.6236 176.438 69.3347 176.544 69.0365 176.541Z" fill="white" stroke="#263238" stroke-linecap="round" stroke-linejoin="round"/>
<path d="M51.7811 168.781L40.345 165.323C40.0312 165.228 39.6925 165.261 39.4035 165.416C39.1144 165.571 38.8987 165.834 38.8037 166.148C38.7087 166.461 38.7423 166.8 38.897 167.089C39.0517 167.378 39.3149 167.594 39.6287 167.689L50.5856 171.009C50.7917 170.178 51.2027 169.412 51.7811 168.781Z" fill="white" stroke="#263238" stroke-linecap="round" stroke-linejoin="round"/>
<path d="M34.9258 163.796C34.5983 163.804 34.2808 163.682 34.0431 163.457C33.8055 163.231 33.6672 162.92 33.6587 162.593C33.6502 162.265 33.7721 161.948 33.9977 161.71C34.2233 161.472 34.534 161.334 34.8616 161.326L71.9659 159.266C72.2935 159.247 72.6149 159.36 72.8595 159.578C73.104 159.797 73.2517 160.104 73.2701 160.431C73.2884 160.759 73.1759 161.08 72.9573 161.325C72.7386 161.57 72.4318 161.717 72.1042 161.736L34.995 163.801L34.9258 163.796Z" fill="white" stroke="#263238" stroke-linecap="round" stroke-linejoin="round"/>
<path d="M54.503 160.234L34.8616 161.326C34.534 161.335 34.2233 161.473 33.9977 161.711C33.7721 161.948 33.6502 162.266 33.6587 162.593C33.6672 162.921 33.8055 163.232 34.0431 163.457C34.2808 163.683 34.5983 163.805 34.9258 163.796H34.995L54.8636 162.69C54.9236 161.855 54.8005 161.017 54.503 160.234Z" fill="white" stroke="#263238" stroke-linecap="round" stroke-linejoin="round"/>
<path d="M36.8771 136.428L42.1876 136.922C42.1996 136.087 42.3192 135.257 42.5433 134.452L37.1093 133.958C36.7817 133.928 36.4556 134.029 36.2027 134.24C35.9498 134.45 35.7908 134.752 35.7607 135.08C35.7305 135.407 35.8317 135.733 36.042 135.986C36.2523 136.239 36.5545 136.398 36.882 136.428H36.8771Z" fill="white" stroke="#263238" stroke-linecap="round" stroke-linejoin="round"/>
<path d="M75.1325 164.754C75.1325 164.551 75.1325 164.349 75.1078 164.146V164.077C75.0652 163.402 74.9811 162.731 74.8558 162.066C74.8534 162.093 74.8534 162.119 74.8558 162.145C74.8558 164.275 73.0922 166.774 73.0922 166.774C69.5453 170.672 64.22 173.394 59.7098 175.37C59.3689 175.518 59.6604 179.816 59.6604 180.31C59.6604 180.804 60.0062 185.121 59.7098 185.25C64.6893 183.111 69.5601 180.31 73.275 176.299C73.8382 175.686 74.757 174.856 75.0633 174.056C75.2807 173.478 75.1423 172.648 75.1473 172.035C75.167 169.595 75.1819 167.169 75.1325 164.754Z" fill="#651FFF" stroke="#263238" stroke-linecap="round" stroke-linejoin="round"/>
<path d="M78.2447 36.4173C78.1115 35.7662 77.9366 35.1243 77.721 34.4956C77.39 33.5521 76.5898 32.1343 76.4514 31.7539C76.8129 34.4337 76.1783 37.153 74.6681 39.3961C69.4093 43.8636 63.7768 47.8715 57.8326 51.3756C53.189 54.1074 48.3824 56.5576 43.8721 59.5019C39.9597 62.0559 35.9681 65.1137 33.8143 69.3819C31.4579 74.0452 32.1149 79.9831 32.2631 85.0071C32.2854 86.1321 32.5446 87.2397 33.0239 88.2576C32.93 87.8427 32.8362 87.4129 32.7522 86.993C32.2582 84.4538 33.6216 79.6571 33.6216 79.6571C34.389 78.0723 35.388 76.6105 36.5856 75.3198C39.8559 71.7086 44.1389 69.1102 48.3132 66.6797C53.1742 63.8441 58.0499 61.0234 62.7973 58.0001C65.1685 56.4885 67.51 54.9324 69.7973 53.3022C71.9462 51.7708 74.3174 50.2542 76.1748 48.3622C79.3957 45.0771 79.1092 40.6459 78.2447 36.4173Z" fill="#651FFF" stroke="#263238" stroke-linecap="round" stroke-linejoin="round"/>
<path d="M87.438 201.047H84.968V222.536H87.438V201.047Z" fill="white" stroke="#263238" stroke-linecap="round" stroke-linejoin="round"/>
<path d="M88.92 194.873H94.601V216.866C94.601 217.459 94.3652 218.029 93.9456 218.448C93.5259 218.868 92.9567 219.104 92.3632 219.104H91.1529C90.5602 219.102 89.9923 218.866 89.5737 218.447C89.1551 218.027 88.92 217.459 88.92 216.866V194.873Z" fill="white" stroke="#263238" stroke-linecap="round" stroke-linejoin="round"/>
<path d="M89.5227 198.152V215.877C89.5227 216.171 89.5806 216.461 89.6931 216.733C89.8056 217.004 89.9706 217.25 90.1784 217.458C90.3863 217.665 90.633 217.829 90.9045 217.941C91.176 218.053 91.4669 218.111 91.7605 218.11C92.0542 218.111 92.345 218.053 92.6165 217.941C92.888 217.829 93.1347 217.665 93.3426 217.458C93.5505 217.25 93.7154 217.004 93.8279 216.733C93.9404 216.461 93.9983 216.171 93.9983 215.877V198.152H89.5227Z" fill="#651FFF"/>
<path d="M94.4627 195.696H89.0287C88.8151 195.696 88.6103 195.612 88.4593 195.461C88.3083 195.31 88.2235 195.105 88.2235 194.891C88.2235 194.678 88.3083 194.473 88.4593 194.322C88.6103 194.171 88.8151 194.086 89.0287 194.086H94.4627C94.6762 194.086 94.8811 194.171 95.0321 194.322C95.1831 194.473 95.2679 194.678 95.2679 194.891C95.2679 195.105 95.1831 195.31 95.0321 195.461C94.8811 195.612 94.6762 195.696 94.4627 195.696Z" fill="white" stroke="#263238" stroke-linecap="round" stroke-linejoin="round"/>
<path d="M97.6391 194.873H103.32V216.866C103.32 217.459 103.084 218.029 102.665 218.448C102.245 218.868 101.676 219.104 101.082 219.104H99.872C99.2785 219.104 98.7093 218.868 98.2896 218.448C97.8699 218.029 97.6342 217.459 97.6342 216.866V194.873H97.6391Z" fill="white" stroke="#263238" stroke-linecap="round" stroke-linejoin="round"/>
<path d="M98.2467 198.152V215.877C98.2467 216.469 98.482 217.037 98.9007 217.456C99.3195 217.875 99.8874 218.11 100.48 218.11C100.773 218.111 101.064 218.053 101.336 217.941C101.607 217.829 101.854 217.665 102.062 217.458C102.27 217.25 102.434 217.004 102.547 216.733C102.66 216.461 102.717 216.171 102.717 215.877V198.152H98.2467Z" fill="#651FFF"/>
<path d="M103.182 195.696H97.7478C97.6423 195.696 97.5378 195.676 97.4404 195.635C97.343 195.594 97.2545 195.535 97.1802 195.46C97.1058 195.385 97.0469 195.297 97.007 195.199C96.9671 195.101 96.9469 194.997 96.9475 194.891C96.9469 194.786 96.9671 194.681 97.007 194.583C97.0469 194.486 97.1058 194.397 97.1802 194.322C97.2545 194.247 97.343 194.188 97.4404 194.147C97.5378 194.107 97.6423 194.086 97.7478 194.086H103.182C103.395 194.086 103.6 194.171 103.751 194.322C103.902 194.473 103.987 194.678 103.987 194.891C103.987 195.105 103.902 195.31 103.751 195.461C103.6 195.612 103.395 195.696 103.182 195.696Z" fill="white" stroke="#263238" stroke-linecap="round" stroke-linejoin="round"/>
<path d="M106.358 194.873H112.039V216.866C112.039 217.459 111.803 218.029 111.384 218.448C110.964 218.868 110.395 219.104 109.801 219.104H108.591C107.998 219.102 107.431 218.866 107.012 218.447C106.593 218.027 106.358 217.459 106.358 216.866V194.873Z" fill="white" stroke="#263238" stroke-linecap="round" stroke-linejoin="round"/>
<path d="M106.966 198.152V215.877C106.966 216.469 107.201 217.037 107.62 217.456C108.039 217.875 108.607 218.11 109.199 218.11C109.492 218.111 109.783 218.053 110.055 217.941C110.326 217.829 110.573 217.665 110.781 217.458C110.989 217.25 111.154 217.004 111.266 216.733C111.379 216.461 111.437 216.171 111.437 215.877V198.152H106.966Z" fill="#651FFF"/>
<path d="M111.901 195.696H106.467C106.253 195.696 106.049 195.612 105.898 195.461C105.747 195.31 105.662 195.105 105.662 194.891C105.662 194.678 105.747 194.473 105.898 194.322C106.049 194.171 106.253 194.086 106.467 194.086H111.901C112.114 194.086 112.319 194.171 112.47 194.322C112.621 194.473 112.706 194.678 112.706 194.891C112.706 195.105 112.621 195.31 112.47 195.461C112.319 195.612 112.114 195.696 111.901 195.696Z" fill="white" stroke="#263238" stroke-linecap="round" stroke-linejoin="round"/>
<path d="M113.867 198.824H82.992V202.529H113.867V198.824Z" fill="white" stroke="#263238" stroke-linecap="round" stroke-linejoin="round"/>
<path d="M113.867 220.807H82.992V224.512H113.867V220.807Z" fill="white" stroke="#263238" stroke-linecap="round" stroke-linejoin="round"/>
<path d="M148.916 197.821L148.882 186.859H137.416V198.053L129.833 221.528C129.726 221.87 129.701 222.231 129.76 222.584C129.818 222.937 129.959 223.271 130.171 223.56C130.382 223.848 130.659 224.083 130.978 224.245C131.296 224.407 131.649 224.492 132.007 224.492H154.237C154.594 224.492 154.947 224.407 155.266 224.245C155.585 224.083 155.861 223.848 156.073 223.56C156.284 223.271 156.425 222.937 156.484 222.584C156.542 222.231 156.517 221.87 156.41 221.528L148.916 197.821Z" fill="white" stroke="#263238" stroke-linecap="round" stroke-linejoin="round"/>
<path d="M148.6 202.252H137.757L132.11 220.248C132.014 220.536 131.987 220.843 132.032 221.143C132.076 221.444 132.19 221.729 132.365 221.978C132.54 222.226 132.771 222.429 133.039 222.572C133.307 222.714 133.605 222.791 133.909 222.797H152.315C152.619 222.791 152.917 222.714 153.185 222.571C153.453 222.429 153.684 222.225 153.859 221.978C154.035 221.73 154.149 221.444 154.194 221.144C154.239 220.843 154.213 220.537 154.118 220.248L148.6 202.252Z" fill="#651FFF"/>
<path d="M149.717 184.824H136.235C135.725 184.824 135.312 185.238 135.312 185.748V186.612C135.312 187.123 135.725 187.536 136.235 187.536H149.717C150.227 187.536 150.64 187.123 150.64 186.612V185.748C150.64 185.238 150.227 184.824 149.717 184.824Z" fill="white" stroke="#263238" stroke-linecap="round" stroke-linejoin="round"/>
<path d="M27.3034 224.514H240.484" stroke="#263238" stroke-linecap="round" stroke-linejoin="round"/>
<path d="M10.3493 224.514H23.4304" stroke="#263238" stroke-linecap="round" stroke-linejoin="round"/>
</svg>
