<svg width="250" height="250" viewBox="0 0 250 250" fill="none" xmlns="http://www.w3.org/2000/svg">
<path d="M160.015 22.5H46.93C43.9118 22.5 41.465 24.9468 41.465 27.965V91.52C41.465 94.5382 43.9118 96.985 46.93 96.985H160.015C163.033 96.985 165.48 94.5382 165.48 91.52V27.965C165.48 24.9468 163.033 22.5 160.015 22.5Z" stroke="#263238" stroke-miterlimit="10"/>
<path d="M69.8467 80.9453C72.189 75.0506 69.3091 68.3733 63.4144 66.0311C57.5197 63.6888 50.8423 66.5687 48.5001 72.4634C46.1579 78.3581 49.0378 85.0355 54.9325 87.3777C60.8272 89.7199 67.5045 86.84 69.8467 80.9453Z" stroke="#263238" stroke-miterlimit="10"/>
<path d="M59.8817 81.0902C62.3048 80.696 63.9495 78.4122 63.5553 75.9891C63.1611 73.5661 60.8773 71.9214 58.4542 72.3156C56.0312 72.7097 54.3865 74.9936 54.7806 77.4166C55.1748 79.8397 57.4587 81.4844 59.8817 81.0902Z" stroke="#263238" stroke-miterlimit="10"/>
<path d="M61.985 73.3344L67.24 68.7344" stroke="#263238" stroke-miterlimit="10"/>
<path d="M59.17 81.1445V88.1845" stroke="#263238" stroke-miterlimit="10"/>
<path d="M56.985 37.6953H53.115V54.5653H56.985V37.6953Z" stroke="#263238" stroke-miterlimit="10"/>
<path d="M62.24 44.3301H58.37V54.5601H62.24V44.3301Z" stroke="#263238" stroke-miterlimit="10"/>
<path d="M67.495 33.2695H63.625V54.5595H67.495V33.2695Z" stroke="#263238" stroke-miterlimit="10"/>
<path d="M72.745 29.4004H68.875V54.5654H72.745V29.4004Z" stroke="#263238" stroke-miterlimit="10"/>
<path d="M78 39.9043H74.13V54.5593H78V39.9043Z" stroke="#263238" stroke-miterlimit="10"/>
<path d="M83.255 43.5H79.385V54.56H83.255V43.5Z" stroke="#263238" stroke-miterlimit="10"/>
<path d="M88.51 47.9258H84.64V54.5608H88.51V47.9258Z" stroke="#263238" stroke-miterlimit="10"/>
<path d="M93.76 37.6953H89.89V54.5653H93.76V37.6953Z" stroke="#263238" stroke-miterlimit="10"/>
<path d="M99.015 42.6699H95.145V54.5599H99.015V42.6699Z" stroke="#263238" stroke-miterlimit="10"/>
<path d="M104.27 37.6953H100.4V54.5653H104.27V37.6953Z" stroke="#263238" stroke-miterlimit="10"/>
<path d="M109.525 48.1992H105.655V54.5592H109.525V48.1992Z" stroke="#263238" stroke-miterlimit="10"/>
<path d="M114.78 37.6953H110.91V54.5653H114.78V37.6953Z" stroke="#263238" stroke-miterlimit="10"/>
<path d="M46.205 54.5605H128.825" stroke="#263238" stroke-miterlimit="10"/>
<path d="M107.015 58.7305H122.885" stroke="#263238" stroke-miterlimit="10"/>
<path d="M107.015 61.3145H122.885" stroke="#263238" stroke-miterlimit="10"/>
<path d="M107.015 63.9004H122.885" stroke="#263238" stroke-miterlimit="10"/>
<path d="M107.015 66.4844H122.885" stroke="#263238" stroke-miterlimit="10"/>
<path d="M73.05 80.1406H88.925" stroke="#263238" stroke-miterlimit="10"/>
<path d="M73.05 82.7246H88.925" stroke="#263238" stroke-miterlimit="10"/>
<path d="M73.05 85.3105H88.925" stroke="#263238" stroke-miterlimit="10"/>
<path d="M73.05 87.8945H88.925" stroke="#263238" stroke-miterlimit="10"/>
<path d="M131.375 28.4609V88.6309" stroke="#263238" stroke-miterlimit="10"/>
<path d="M83.605 103.41H47.72C44.8923 103.41 42.6 105.702 42.6 108.53V131.56C42.6 134.388 44.8923 136.68 47.72 136.68H83.605C86.4327 136.68 88.725 134.388 88.725 131.56V108.53C88.725 105.702 86.4327 103.41 83.605 103.41Z" stroke="#263238" stroke-miterlimit="10"/>
<path d="M83.605 141.975H47.72C44.8923 141.975 42.6 144.267 42.6 147.095V170.125C42.6 172.952 44.8923 175.245 47.72 175.245H83.605C86.4327 175.245 88.725 172.952 88.725 170.125V147.095C88.725 144.267 86.4327 141.975 83.605 141.975Z" stroke="#263238" stroke-miterlimit="10"/>
<path d="M59.64 118.534V113.809C59.6168 113.003 59.7555 112.2 60.048 111.449C60.3404 110.697 60.7807 110.012 61.3427 109.433C61.9047 108.855 62.577 108.395 63.3199 108.081C64.0627 107.767 64.861 107.605 65.6675 107.605C66.474 107.605 67.2723 107.767 68.0151 108.081C68.758 108.395 69.4303 108.855 69.9923 109.433C70.5543 110.012 70.9946 110.697 71.287 111.449C71.5795 112.2 71.7182 113.003 71.695 113.809V118.534H74.095V113.809C74.1224 112.685 73.9246 111.567 73.5134 110.521C73.1022 109.474 72.4858 108.521 71.7005 107.716C70.9153 106.911 69.977 106.272 68.9409 105.835C67.9048 105.399 66.7918 105.174 65.6675 105.174C64.5432 105.174 63.4302 105.399 62.3941 105.835C61.358 106.272 60.4197 106.911 59.6344 107.716C58.8492 108.521 58.2328 109.474 57.8216 110.521C57.4104 111.567 57.2126 112.685 57.24 113.809V118.534H59.64Z" stroke="#263238" stroke-linecap="round" stroke-linejoin="round"/>
<path d="M74.745 118.535H56.345V134.085H74.745V118.535Z" stroke="#263238" stroke-linecap="round" stroke-linejoin="round"/>
<path d="M67.46 125C67.4586 124.647 67.3639 124.301 67.1854 123.996C67.0069 123.692 66.7511 123.44 66.4438 123.266C66.1365 123.093 65.7887 123.004 65.4358 123.008C65.0829 123.012 64.7374 123.11 64.4344 123.291C64.1314 123.472 63.8817 123.73 63.7107 124.038C63.5396 124.347 63.4533 124.696 63.4604 125.048C63.4676 125.401 63.568 125.746 63.7515 126.047C63.9349 126.349 64.1949 126.597 64.505 126.765L64.17 130.295H66.745L66.41 126.765C66.7282 126.593 66.9939 126.338 67.1788 126.028C67.3637 125.717 67.4609 125.362 67.46 125Z" fill="#263238" stroke="#263238" stroke-linecap="round" stroke-linejoin="round"/>
<path d="M65.22 145.109C62.5727 145.108 59.9845 145.892 57.7828 147.362C55.5811 148.832 53.8648 150.922 52.8508 153.368C51.8368 155.813 51.5707 158.504 52.0862 161.101C52.6017 163.697 53.8756 166.083 55.7468 167.955C57.6181 169.828 60.0026 171.104 62.5988 171.621C65.195 172.139 67.8864 171.875 70.3326 170.862C72.7788 169.85 74.8699 168.135 76.3414 165.935C77.813 163.734 78.599 161.147 78.6 158.499C78.5987 154.95 77.1889 151.547 74.6802 149.036C72.1716 146.526 68.7691 145.113 65.22 145.109V145.109ZM65.22 146.769C66.345 146.769 67.535 148.224 68.385 150.669H62.05C62.905 148.224 64.095 146.769 65.22 146.769ZM68.87 152.329C69.2768 154.078 69.5013 155.864 69.54 157.659H60.9C60.9387 155.864 61.1632 154.078 61.57 152.329H68.87ZM69.54 159.329C69.504 161.415 69.2049 163.488 68.65 165.499H61.79C61.2359 163.492 60.9369 161.422 60.9 159.339L69.54 159.329ZM59.23 157.664H53.54C53.673 155.773 54.267 153.943 55.27 152.334H59.85C59.4741 154.086 59.2665 155.869 59.23 157.659V157.664ZM59.23 159.329C59.2683 161.411 59.5434 163.48 60.05 165.499H55.835C54.4945 163.709 53.6978 161.57 53.54 159.339L59.23 159.329ZM60.575 167.149C60.8949 168.059 61.3284 168.924 61.865 169.724C60.1907 169.215 58.6526 168.335 57.365 167.149H60.575ZM62.37 167.149H68.07C67.25 169.089 66.21 170.214 65.22 170.214C64.23 170.214 63.185 169.084 62.37 167.144V167.149ZM69.87 167.149H73.1C71.8116 168.334 70.2738 169.214 68.6 169.724C69.1244 168.919 69.5492 168.052 69.865 167.144L69.87 167.149ZM70.37 165.489C70.8807 163.475 71.1559 161.408 71.19 159.329H76.9C76.7418 161.563 75.9452 163.705 74.605 165.499L70.37 165.489ZM71.19 157.664C71.1563 155.872 70.9486 154.087 70.57 152.334H75.155C76.156 153.944 76.7498 155.774 76.885 157.664H71.19ZM73.905 150.664H70.13C69.7783 149.458 69.2492 148.31 68.56 147.259C70.6263 147.881 72.481 149.061 73.92 150.669L73.905 150.664ZM61.85 147.259C61.1611 148.311 60.6304 149.458 60.275 150.664H56.5C57.9431 149.061 59.799 147.885 61.865 147.264L61.85 147.259Z" stroke="#263238" stroke-miterlimit="10"/>
<path d="M188.55 205.724C188.55 205.724 173 178.449 176.605 171.499C180.21 164.549 189.345 177.049 189.345 177.049C189.345 177.049 181.38 151.624 185.765 140.549C190.15 129.474 197.71 140.549 198.105 148.404C198.5 156.259 196.5 169.664 196.5 169.664C196.5 169.664 199.685 141.929 207.25 150.249C214.815 158.569 197.695 186.309 197.695 186.309C197.695 186.309 209.24 179.834 208.84 188.154C208.44 196.474 194.905 203.874 194.905 203.874" fill="#651FFF"/>
<path d="M188.68 200.639C188.68 200.639 174.31 187.234 181.31 181.224C188.31 175.214 192 187.694 192 187.694C192 187.694 184.26 149.324 196.79 147.939C209.32 146.554 200.105 181.224 200.105 181.224C200.105 181.224 210.79 166.429 210.055 178.449C209.32 190.469 193.5 200.639 193.5 200.639" stroke="#263238" stroke-miterlimit="10"/>
<path d="M195.74 198.199L186.03 187.674" stroke="#263238" stroke-miterlimit="10"/>
<path d="M193.715 199.01L196.35 168.25" stroke="#263238" stroke-miterlimit="10"/>
<path d="M193.315 196.78L202.015 185.25" stroke="#263238" stroke-miterlimit="10"/>
<path d="M205.9 194.635H179.035L181.72 226.32H203.21L205.9 194.635Z" fill="#263238"/>
<path d="M33 226.32H24.5" stroke="#263238" stroke-miterlimit="10"/>
<path d="M231.5 226.32H43" stroke="#263238" stroke-miterlimit="10"/>
<path d="M148.25 240C164.957 240 178.5 237.426 178.5 234.25C178.5 231.074 164.957 228.5 148.25 228.5C131.543 228.5 118 231.074 118 234.25C118 237.426 131.543 240 148.25 240Z" fill="#651FFF"/>
<path opacity="0.5" d="M148.25 240C164.957 240 178.5 237.426 178.5 234.25C178.5 231.074 164.957 228.5 148.25 228.5C131.543 228.5 118 231.074 118 234.25C118 237.426 131.543 240 148.25 240Z" fill="white"/>
<path d="M96.165 83.0858L98.8 76.0508L100.705 80.4458L96.165 83.0858Z" fill="white" stroke="#263238" stroke-linecap="round" stroke-linejoin="round"/>
<path d="M103.9 75.9507C102.167 74.0251 100.608 71.9504 99.24 69.7507C97.485 66.8207 96.165 65.5007 94.55 65.5007C92.935 65.5007 90.45 65.9407 88.55 65.5007C86.65 65.0607 81.66 60.8107 81.66 63.3007C81.66 65.7907 84.005 66.6707 85.325 66.8007C86.6055 67.0359 87.8634 67.3805 89.085 67.8307C88.2765 68.8241 87.3021 69.6699 86.205 70.3307C84.445 71.3557 80.635 70.7707 82.1 72.0907C83.565 73.4107 86.35 75.4607 88.1 75.4607C89.85 75.4607 95.575 73.1157 95.575 73.1157L99.53 80.5907L103.9 75.9507Z" fill="white" stroke="#263238" stroke-linecap="round" stroke-linejoin="round"/>
<path d="M99.24 69.7497C98.6939 68.7966 98.063 67.8946 97.355 67.0547C96.855 72.4097 93.775 73.7547 93.775 73.7547L93.82 73.8047C94.82 73.4197 95.58 73.1197 95.58 73.1197L96.53 74.9197C98.0877 73.8153 99.1743 72.1666 99.575 70.2997L99.24 69.7497Z" fill="#651FFF" stroke="#263238" stroke-linecap="round" stroke-linejoin="round"/>
<path d="M83.125 72.1348C83.125 72.1348 84.35 68.4348 83.985 67.0798C83.62 65.7248 82.485 66.7548 82.115 67.9498C81.745 69.1448 81.075 71.2598 81.185 72.0998C81.295 72.9398 81.94 74.1448 83.125 72.1348Z" fill="white" stroke="#263238" stroke-linecap="round" stroke-linejoin="round"/>
<path d="M81.53 74.6645C82.2472 74.8029 82.9879 74.7529 83.68 74.5195C84.94 74.1395 86.12 74.4045 86.425 73.5195C86.73 72.6345 86.32 71.6845 85.2 71.8895C84.08 72.0945 81.745 72.5445 81.27 72.8295C80.795 73.1145 80.76 73.8695 81.53 74.6645Z" fill="white" stroke="#263238" stroke-linecap="round" stroke-linejoin="round"/>
<path d="M82.56 73.2304C82.56 73.2304 82.805 69.3404 82.11 68.1204C81.415 66.9004 80.585 68.1854 80.52 69.4354C80.455 70.6854 80.35 72.9004 80.675 73.6904C81 74.4804 81.92 75.5004 82.56 73.2304Z" fill="white" stroke="#263238" stroke-linecap="round" stroke-linejoin="round"/>
<path d="M90.595 72.6951C90.595 72.6951 93.095 67.9251 94.53 67.3201C94.8911 67.1725 95.2837 67.1188 95.6712 67.164C96.0586 67.2091 96.4284 67.3517 96.7459 67.5783C97.0634 67.805 97.3183 68.1083 97.4869 68.4601C97.6555 68.8119 97.7322 69.2006 97.71 69.5901C97.7118 70.4145 97.487 71.2236 97.0602 71.929C96.6334 72.6344 96.0211 73.209 95.29 73.5901C94.075 74.1201 91.43 75.0301 91.43 75.0301L90.595 72.6951Z" fill="white" stroke="#263238" stroke-linecap="round" stroke-linejoin="round"/>
<path d="M84.595 75.7359C85.3729 75.6755 86.122 75.4154 86.77 74.9809C87.965 74.2309 89.27 74.1709 89.325 73.1859C89.38 72.2009 88.7 71.3209 87.6 71.8509C86.5 72.3809 84.22 73.5059 83.81 73.9359C83.4 74.3659 83.575 75.1309 84.595 75.7359Z" fill="#651FFF" stroke="#263238" stroke-linecap="round" stroke-linejoin="round"/>
<path d="M85.25 73.9604C85.25 73.9604 84.4 69.8754 83.34 68.8154C82.28 67.7554 81.785 69.3154 82.075 70.6204C82.365 71.9254 82.88 74.2454 83.435 74.9704C83.99 75.6954 85.225 76.4604 85.25 73.9604Z" fill="white" stroke="#263238" stroke-linecap="round" stroke-linejoin="round"/>
<path d="M87.87 76.7801C88.6433 76.6646 89.3736 76.3511 89.99 75.8701C91.125 75.0401 92.41 74.8701 92.41 73.9051C92.41 72.9401 91.655 72.0901 90.595 72.6951C89.535 73.3001 87.34 74.5851 86.965 75.0401C86.59 75.4951 86.81 76.2501 87.87 76.7801Z" fill="#651FFF" stroke="#263238" stroke-linecap="round" stroke-linejoin="round"/>
<path d="M88.4 74.9653C88.4 74.9653 87.265 70.9653 86.13 69.9653C84.995 68.9653 84.63 70.5703 84.995 71.8553C85.36 73.1403 86.055 75.4153 86.66 76.0953C87.265 76.7753 88.55 77.4603 88.4 74.9653Z" fill="white" stroke="#263238" stroke-linecap="round" stroke-linejoin="round"/>
<path d="M86.765 64.6758C86.8954 65.0905 86.911 65.5329 86.81 65.9558C86.7417 66.2464 86.5649 66.4999 86.3158 66.6645C86.0667 66.829 85.7641 66.8921 85.47 66.8408C86.6973 67.0805 87.9043 67.4149 89.08 67.8408C89.795 67.4808 89.615 66.3408 89.425 65.6258C89.1291 65.5998 88.8351 65.5547 88.545 65.4908C87.9198 65.2948 87.3218 65.021 86.765 64.6758Z" fill="#651FFF" stroke="#263238" stroke-linecap="round" stroke-linejoin="round"/>
<path d="M132.215 162.246C132.215 162.246 131.57 168.061 132.38 172.906C133.19 177.751 134.315 191.806 135.125 197.621C135.797 202.871 136.013 208.169 135.77 213.456C135.61 217.956 133.995 222.986 131.73 225.571C129.465 228.156 126.4 231.071 126.73 232.356C127.06 233.641 134.965 233.161 138.36 232.516C141.755 231.871 143.86 230.576 144.36 228.961C144.86 227.346 145.17 222.826 145.17 221.206C145.17 219.586 144.2 216.846 143.555 215.556C142.91 214.266 142.585 211.031 142.91 207.316C143.235 203.601 145.815 194.071 146.14 185.021C146.465 175.971 143.555 169.356 143.39 167.901C143.225 166.446 143.39 162.571 143.39 162.571L132.215 162.246Z" fill="white" stroke="#263238" stroke-linecap="round" stroke-linejoin="round"/>
<path d="M142.88 207.315C143.2 203.6 145.785 194.07 146.11 185.02C146.435 175.97 143.525 169.355 143.36 167.9C143.195 166.445 143.36 162.57 143.36 162.57L141.55 162.5C141.13 164.645 140.305 170.205 141.795 175.3C143.685 181.775 142.715 191.145 141.91 197.605C141.105 204.065 140.78 210.69 141.26 211.175C141.53 211.445 142.135 211.56 142.76 210.89C142.733 209.697 142.774 208.504 142.88 207.315Z" fill="#651FFF" stroke="#263238" stroke-linecap="round" stroke-linejoin="round"/>
<path d="M143.54 168.689L138.355 169.354L139 173.389L144.65 172.544C144.21 170.844 143.78 169.534 143.54 168.689Z" fill="white" stroke="#263238" stroke-linecap="round" stroke-linejoin="round"/>
<path d="M136.768 181.133C138.999 181.08 140.727 177.711 140.628 173.608C140.529 169.506 138.641 166.224 136.41 166.278C134.179 166.331 132.451 169.701 132.55 173.803C132.649 177.905 134.537 181.187 136.768 181.133Z" fill="white" stroke="#263238" stroke-linecap="round" stroke-linejoin="round"/>
<path d="M144.675 229.891C145.105 228.446 145.07 223.746 145.13 221.811C145.077 221.815 145.026 221.83 144.98 221.856C143.685 222.501 140.78 223.146 139.81 225.406C138.84 227.666 138.355 231.226 135.77 232.031C133.77 232.661 128.77 232.311 126.705 232.121C126.692 232.198 126.692 232.278 126.705 232.356C127.025 233.646 135.005 233.436 138.335 232.516C142.97 231.236 144.19 231.501 144.675 229.891Z" fill="#651FFF" stroke="#263238" stroke-linecap="round" stroke-linejoin="round"/>
<path d="M142.97 213.471C142.767 211.98 142.702 210.474 142.775 208.971C140.589 209.903 138.163 210.113 135.85 209.571C135.85 210.921 135.815 212.216 135.77 213.436C135.77 213.581 135.77 213.726 135.745 213.871C137.91 214.501 140.91 214.031 142.97 213.471Z" fill="#263238" stroke="#263238" stroke-linecap="round" stroke-linejoin="round"/>
<path d="M143.525 215.556C143.236 214.893 143.049 214.19 142.97 213.471C142.97 213.471 137.545 216.041 138.84 217.971C139.74 219.326 142.37 217.536 143.875 216.326C143.755 216.041 143.635 215.776 143.525 215.556Z" fill="#651FFF" stroke="#263238" stroke-linecap="round" stroke-linejoin="round"/>
<path d="M134.315 222.825L133.54 222.725C133.067 223.75 132.458 224.707 131.73 225.57L131.31 226.045C131.31 226.105 131.27 226.155 131.245 226.215C130.28 228.96 130.28 229.125 131.895 228.96C133.51 228.795 136.255 227.025 136.255 224.925C136.275 224.657 136.24 224.389 136.151 224.135C136.063 223.882 135.923 223.65 135.741 223.453C135.559 223.256 135.339 223.099 135.094 222.99C134.848 222.882 134.583 222.826 134.315 222.825Z" fill="#651FFF" stroke="#263238" stroke-linecap="round" stroke-linejoin="round"/>
<path d="M139.645 163.86C139.645 163.86 139 167.415 142.555 178.24C146.11 189.065 153.865 211.355 154.83 215.39C155.795 219.425 156.77 231.225 160.33 235.1C163.89 238.975 166.145 238.975 166.63 234.6C167.115 230.225 166.305 226.2 162.915 218.1C161.345 214.365 159.2 208.565 158.715 205.335C158.23 202.105 158.55 185.465 156.935 179.835C155.32 174.205 152.735 171.595 151.285 168.365C150.482 166.649 149.833 164.866 149.345 163.035L139.645 163.86Z" fill="white" stroke="#263238" stroke-linecap="round" stroke-linejoin="round"/>
<path d="M151.28 168.385C150.477 166.669 149.828 164.885 149.34 163.055L147.59 163.2C148.285 166.2 149.985 172.82 152.41 177.43C155.64 183.57 156.445 193.745 157.58 199.56C157.812 200.793 158.132 202.008 158.54 203.195C158.275 197.545 158.315 184.695 156.93 179.855C155.315 174.2 152.73 171.615 151.28 168.385Z" fill="#651FFF" stroke="#263238" stroke-linecap="round" stroke-linejoin="round"/>
<path d="M151.28 168.386C151.266 168.362 151.255 168.336 151.245 168.311L147.08 170.161L150.145 175.331L154.12 173.331C153.065 171.526 152.025 170.041 151.28 168.386Z" fill="#263238" stroke="#263238" stroke-linecap="round" stroke-linejoin="round"/>
<path d="M148.505 181.589C150.889 180.839 151.748 176.817 150.423 172.605C149.098 168.393 146.092 165.586 143.708 166.336C141.324 167.086 140.465 171.108 141.79 175.32C143.115 179.532 146.122 182.339 148.505 181.589Z" fill="white" stroke="#263238" stroke-linecap="round" stroke-linejoin="round"/>
<path d="M153.43 210.725C153.84 212.005 154.185 213.105 154.43 213.965C156.055 214.43 158.56 214.69 160.695 212.965C160.31 211.845 159.955 210.71 159.655 209.625C158.215 210.195 155.655 211.03 153.43 210.725Z" fill="#263238" stroke="#263238" stroke-linecap="round" stroke-linejoin="round"/>
<path d="M164.085 226.65C163.905 226.144 163.561 225.713 163.108 225.425C162.655 225.137 162.119 225.009 161.585 225.06C160.585 225.155 159.36 225.47 158.705 226.375C157.41 228.155 159.205 231.875 162.095 232.515C164.595 233.07 165.185 229.825 164.085 226.65Z" fill="#651FFF" stroke="#263238" stroke-linecap="round" stroke-linejoin="round"/>
<path d="M162.91 218.141C162.27 216.641 161.54 214.766 160.865 212.881L160.7 212.946C160.7 212.946 160.81 217.331 162.1 218.946C162.64 219.621 163.065 219.616 163.38 219.281C163.225 218.906 163.075 218.531 162.91 218.141Z" fill="#651FFF" stroke="#263238" stroke-linecap="round" stroke-linejoin="round"/>
<path d="M156.125 221.53C157.415 221.53 156.93 218.945 155.8 216.53C155.488 215.824 155.088 215.16 154.61 214.555C154.7 214.885 154.78 215.175 154.83 215.395C155.155 216.75 155.485 218.98 155.905 221.49C155.976 221.515 156.05 221.528 156.125 221.53Z" fill="#651FFF" stroke="#263238" stroke-linecap="round" stroke-linejoin="round"/>
<path d="M125.77 114.841C125.77 114.841 123.03 119.341 123.03 131.056C123.03 142.771 127.915 162.711 127.915 162.711C131.889 164.524 136.096 165.774 140.415 166.426C145.232 167.091 150.128 166.892 154.875 165.841C154.875 165.841 162.495 145.341 164.055 134.186C165.615 123.031 163.47 117.186 163.47 117.186L128.3 111.686L125.77 114.841Z" fill="#263238" stroke="#263238" stroke-linecap="round" stroke-linejoin="round"/>
<path d="M141.155 61.5394C141.155 61.5394 127.965 65.7894 127.525 66.6694C127.085 67.5494 116.24 86.4994 116.24 86.4994L103.585 75.4994L96.165 83.1094C96.165 83.1094 113.455 100.254 114.925 100.844C116.395 101.434 116.39 102.159 117.12 101.574C117.85 100.989 129.87 90.5744 129.87 90.5744C129.87 90.5744 132.37 97.0244 132.215 99.2194C132.06 101.414 123.715 115.929 123.715 115.929C123.715 115.929 126.795 121.789 130.165 124.134C133.535 126.479 136.32 128.384 136.32 128.384L139.395 120.884L141.45 128.799C141.45 128.799 145.405 128.504 152.585 126.599C159.765 124.694 165.5 120.164 165.5 120.164L158.755 99.0594L165.94 85.1344L181.18 101.259C181.18 101.259 188.005 100.364 192.07 99.2044C194.27 98.5744 186.6 89.3844 183.82 85.5744C181.04 81.7644 175.45 70.7744 173.4 67.9994C171.35 65.2244 154.055 60.2344 154.055 60.2344C154.055 60.2344 143.94 59.4994 141.155 61.5394Z" fill="#263238" stroke="#263238" stroke-linecap="round" stroke-linejoin="round"/>
<path d="M151.58 85.4406C153.328 85.4406 154.745 84.0683 154.745 82.3755C154.745 80.6828 153.328 79.3105 151.58 79.3105C149.832 79.3105 148.415 80.6828 148.415 82.3755C148.415 84.0683 149.832 85.4406 151.58 85.4406Z" fill="#651FFF"/>
<path d="M129.87 90.5605C129.137 88.3872 128.742 86.1139 128.7 83.8205C128.7 80.3205 130.895 73.5605 130.895 73.5605" stroke="#696969" stroke-linecap="round" stroke-linejoin="round"/>
<path d="M161.26 81.0352L165.925 85.1352L160.875 83.3352" stroke="#696969" stroke-linecap="round" stroke-linejoin="round"/>
<path d="M171.415 68.0003C171.415 68.0003 167.01 67.2353 164.135 73.7503" stroke="#696969" stroke-linecap="round" stroke-linejoin="round"/>
<path d="M116.24 86.4746L117.555 88.3196" stroke="#696969" stroke-linecap="round" stroke-linejoin="round"/>
<path d="M128.5 121.671L136.34 128.371L139.415 120.871L141.47 128.786C141.47 128.786 151.695 128.356 163.005 121.646" stroke="#696969" stroke-linecap="round" stroke-linejoin="round"/>
<path d="M143.23 57.9194C143.23 57.9194 141.59 58.0094 140.23 60.7444C138.87 63.4794 137.315 69.8644 135.305 72.0544C133.295 74.2444 133.94 74.3344 135.035 74.0544C136.13 73.7744 139.32 71.6844 139.32 71.6844C139.32 71.6844 139.5 76.5144 140.14 78.7944C140.78 81.0744 140.23 87.1844 140.775 89.5544C141.045 90.5365 141.229 91.5403 141.325 92.5544C141.325 92.5544 144.425 83.1644 146.065 80.3344C147.705 77.5044 150.8 72.4994 150.8 72.4994L157.18 75.9994C157.18 75.9994 157.09 70.0744 156.905 66.9994C156.72 63.9244 158.905 60.2494 156.45 58.1544C153.995 56.0594 143.23 57.9194 143.23 57.9194Z" fill="white" stroke="#263238" stroke-linecap="round" stroke-linejoin="round"/>
<path d="M142.5 52.541C142.5 52.541 142.32 56.921 142.5 61.841C142.68 66.761 142.41 81.266 142.41 81.266C142.41 81.266 153.715 61.936 154.72 60.476L155.265 51.541C155.265 51.541 147.5 55.551 142.5 52.541Z" fill="white" stroke="#263238" stroke-linecap="round" stroke-linejoin="round"/>
<path d="M142.5 52.5399C142.5 52.5399 142.36 55.9199 142.45 60.0749C143.59 61.4066 145.121 62.3445 146.825 62.7549C149.495 63.4249 151.995 62.6149 154.085 61.4799C154.39 60.9799 154.615 60.6249 154.72 60.4799L155.265 51.5449C155.265 51.5449 147.5 55.5499 142.5 52.5399Z" fill="#651FFF" stroke="#263238" stroke-linecap="round" stroke-linejoin="round"/>
<path d="M155.265 51.541C155.265 51.541 147.515 55.541 142.5 52.541C142.5 52.541 142.435 54.141 142.42 56.486C143.765 57.796 146.59 60.401 147.835 60.401C149.08 60.401 152.835 57.751 154.98 56.191L155.265 51.541Z" fill="#263238" stroke="#263238" stroke-linecap="round" stroke-linejoin="round"/>
<path d="M139.2 38.2897C138.877 38.4353 138.57 38.6147 138.285 38.8247C137.62 38.8597 137.16 40.5347 137.26 42.5697C137.36 44.6047 137.985 46.2297 138.65 46.1947C138.955 46.3775 139.278 46.5267 139.615 46.6397C140.37 46.6047 140.89 44.7047 140.775 42.3997C140.66 40.0947 139.955 38.2497 139.2 38.2897Z" fill="white" stroke="#263238" stroke-linecap="round" stroke-linejoin="round"/>
<path d="M146.5 25.1349C144.87 25.357 143.318 25.9694 141.976 26.92C140.634 27.8706 139.541 29.1313 138.79 30.5949C136.83 34.4299 138.255 36.6949 138.255 39.6949C138.255 42.6949 139.755 50.6149 140.29 51.4699C140.825 52.3249 145.215 57.8949 147.465 58.2149C149.715 58.5349 155.6 53.2899 156.565 51.6849C157.53 50.0799 158.5 43.6549 158.915 39.7999C159.33 35.9449 159.02 29.4149 156.56 27.3799C154.1 25.3449 149.815 24.7049 146.5 25.1349Z" fill="white" stroke="#263238" stroke-linecap="round" stroke-linejoin="round"/>
<path d="M157.27 41.3152H155.3C155.3 41.3152 155.52 39.9252 153.395 38.7552C152.3 38.1502 151.13 38.8452 150.25 39.6652C149.806 40.0809 149.449 40.5803 149.199 41.1347C148.95 41.6891 148.812 42.2874 148.795 42.8952L148.41 47.3252C148.406 47.4391 148.38 47.5511 148.331 47.6543C148.283 47.7575 148.214 47.8498 148.129 47.9256C148.044 48.0014 147.944 48.059 147.836 48.0951C147.728 48.1311 147.614 48.1448 147.5 48.1352V48.1352C147.3 48.1178 147.114 48.0296 146.973 47.8866C146.833 47.7435 146.749 47.5551 146.735 47.3552C146.615 45.4852 146.41 39.8002 144.825 38.9002C142.115 37.3602 140.72 40.8052 140.72 40.8052H139.5" stroke="#263238" stroke-linecap="round" stroke-linejoin="round"/>
<path d="M153.355 43.4405C153.449 43.2563 153.499 43.0525 153.5 42.8455C153.5 42.4716 153.351 42.113 153.087 41.8485C152.823 41.5841 152.464 41.4355 152.09 41.4355C151.716 41.4355 151.357 41.5841 151.093 41.8485C150.829 42.113 150.68 42.4716 150.68 42.8455C150.681 43.0525 150.731 43.2563 150.825 43.4405H153.355Z" fill="#263238" stroke="#263238" stroke-linecap="round" stroke-linejoin="round"/>
<path d="M145.075 43.4405C145.169 43.2563 145.219 43.0525 145.22 42.8455C145.22 42.4716 145.071 42.113 144.807 41.8485C144.543 41.5841 144.184 41.4355 143.81 41.4355C143.436 41.4355 143.077 41.5841 142.813 41.8485C142.549 42.113 142.4 42.4716 142.4 42.8455C142.401 43.0525 142.451 43.2563 142.545 43.4405H145.075Z" fill="#263238" stroke="#263238" stroke-linecap="round" stroke-linejoin="round"/>
<path d="M150.315 51.0657C149.365 51.7957 148.41 51.7257 146.87 51.6507C145.33 51.5757 144.965 50.8457 144.965 50.8457L146.725 50.3457L147.46 51.1507L148.19 50.4907L150.315 51.0657Z" fill="#651FFF" stroke="#263238" stroke-linecap="round" stroke-linejoin="round"/>
<path d="M145.5 51.4297C145.846 52.1542 146.445 52.727 147.185 53.0397C148.355 53.4797 149.455 51.6497 149.455 51.6497C149.455 51.6497 146.8 51.7947 145.5 51.4297Z" fill="#651FFF" stroke="#263238" stroke-linecap="round" stroke-linejoin="round"/>
<path d="M146.5 25.1352C144.895 25.3578 143.365 25.9556 142.035 26.8802C141.918 27.9286 141.918 28.9868 142.035 30.0352C142.33 32.0852 144.16 34.9402 144.16 34.9402H151.56C152.958 33.4001 154.009 31.5772 154.64 29.5952C155.07 28.2702 155.375 27.3452 155.59 26.7052C153.075 25.2102 149.415 24.7552 146.5 25.1352Z" fill="#651FFF" stroke="#263238" stroke-linecap="round" stroke-linejoin="round"/>
<path d="M156.395 34.8702C156.395 35.6002 157.79 39.6302 157.79 41.1002C157.79 42.5702 156.835 45.7852 155.665 46.6652C154.495 47.5452 154.125 48.3502 153.98 49.8202C153.87 50.8902 153.92 53.2552 153.98 54.4452C154.956 53.6334 155.831 52.7067 156.585 51.6852C157.55 50.0802 158.51 43.6552 158.94 39.8002C159.225 37.2352 159.175 33.4802 158.38 30.6602C157.69 31.8802 156.395 34.3252 156.395 34.8702Z" fill="#651FFF" stroke="#263238" stroke-linecap="round" stroke-linejoin="round"/>
<path d="M159.37 45.5456C160.054 43.6039 160.177 41.5089 159.725 39.5006L159.765 38.8456L159.265 38.5556C159.214 38.4847 159.149 38.425 159.075 38.3803C159 38.3356 158.916 38.3067 158.83 38.2956C158.075 38.2556 157.355 40.0856 157.22 42.3906C157.085 44.6956 157.59 46.6056 158.345 46.6456C158.432 46.6449 158.517 46.6263 158.596 46.591C158.676 46.5558 158.747 46.5045 158.805 46.4406L159.305 46.2106L159.37 45.5456Z" fill="white" stroke="#263238" stroke-linecap="round" stroke-linejoin="round"/>
<path d="M160.755 42.5847C160.635 44.6197 160 46.2397 159.33 46.1997C158.66 46.1597 158.225 44.4797 158.33 42.4447C158.435 40.4097 159.085 38.7947 159.755 38.8347C160.425 38.8747 160.87 40.5547 160.755 42.5847Z" fill="white" stroke="#263238" stroke-linecap="round" stroke-linejoin="round"/>
<path d="M141.5 47.5001C140.33 46.0301 139.745 44.0551 139.5 41.9301C139.255 39.8051 139.865 34.8951 139.865 34.6751C139.865 34.4551 138.94 32.1351 138.525 31.0801C136.905 34.6401 138.205 36.8451 138.205 39.7201C138.205 42.7201 139.705 50.6401 140.24 51.4951C140.859 52.3801 141.526 53.2297 142.24 54.0401C142.165 51.2951 142.5 48.6701 141.5 47.5001Z" fill="#651FFF" stroke="#263238" stroke-linecap="round" stroke-linejoin="round"/>
<path d="M150.83 56.8706C149.9 55.8706 148.27 54.1906 147.515 54.0006C146.76 53.8106 145.33 55.5606 144.685 56.5006C145.685 57.4206 146.685 58.1306 147.46 58.2356C148.235 58.3406 149.5 57.7406 150.83 56.8706Z" fill="#651FFF" stroke="#263238" stroke-linecap="round" stroke-linejoin="round"/>
<path d="M166.39 107.411C166.39 107.411 160.275 101.786 159.295 101.541C158.315 101.296 152.795 104.071 152.795 104.801C152.795 105.531 154.015 105.456 155.24 105.131C156.465 104.806 158.825 103.906 158.825 103.906C158.825 103.906 161.435 109.941 162.25 110.906C163.065 111.871 163.635 113.271 165.25 112.781C166.174 112.526 167.035 112.084 167.78 111.481L166.39 107.411Z" fill="white" stroke="#263238" stroke-linecap="round" stroke-linejoin="round"/>
<path d="M159.95 105.781C160.587 106.374 161.267 106.919 161.985 107.411C162.395 107.576 163.21 107.411 162.64 105.701C162.07 103.991 160.765 103.011 160.19 102.926C159.615 102.841 159.215 105.211 159.95 105.781Z" fill="#651FFF" stroke="#263238" stroke-linecap="round" stroke-linejoin="round"/>
<path d="M159.46 102.501C159.46 102.501 154.24 105.601 154.075 106.656C153.91 107.711 155.28 107.306 156.44 106.986C157.91 106.576 160.355 105.986 160.68 104.621C161.005 103.256 160.925 102.276 159.46 102.501Z" fill="white" stroke="#263238" stroke-linecap="round" stroke-linejoin="round"/>
<path d="M160.68 107.656C161.318 108.25 162 108.795 162.72 109.286C163.125 109.451 163.945 109.286 163.37 107.576C162.795 105.866 161.495 104.886 160.925 104.801C160.355 104.716 159.95 107.086 160.68 107.656Z" fill="#651FFF" stroke="#263238" stroke-linecap="round" stroke-linejoin="round"/>
<path d="M160.19 104.394C160.19 104.394 155 107.499 154.81 108.554C154.62 109.609 156.015 109.199 157.175 108.879C158.645 108.469 161.09 107.879 161.415 106.514C161.74 105.149 161.66 104.149 160.19 104.394Z" fill="white" stroke="#263238" stroke-linecap="round" stroke-linejoin="round"/>
<path d="M161.185 109.33C161.746 109.85 162.344 110.328 162.975 110.76C163.335 110.905 164.05 110.76 163.545 109.26C163.04 107.76 161.9 106.9 161.4 106.83C160.9 106.76 160.54 108.83 161.185 109.33Z" fill="#651FFF" stroke="#263238" stroke-linecap="round" stroke-linejoin="round"/>
<path d="M160.755 106.465C160.755 106.465 156.175 109.185 156.03 110.115C155.885 111.045 157.09 110.685 158.11 110.4C159.395 110.045 161.545 109.545 161.83 108.325C162.115 107.105 162.045 106.25 160.755 106.465Z" fill="white" stroke="#263238" stroke-linecap="round" stroke-linejoin="round"/>
<path d="M179.64 94.3349C179.64 94.3349 171.2 103.895 170.025 104.775C168.751 105.629 167.431 106.412 166.07 107.12L168 113.86C168 113.86 180 108 184.855 104.92C189.71 101.84 193.205 100.085 193.06 98.6199C192.915 97.1549 187.785 92.1699 187.785 92.1699" fill="#263238"/>
<path d="M179.64 94.3349C179.64 94.3349 171.2 103.895 170.025 104.775C168.751 105.629 167.431 106.412 166.07 107.12L168 113.86C168 113.86 180 108 184.855 104.92C189.71 101.84 193.205 100.085 193.06 98.6199C192.915 97.1549 187.785 92.1699 187.785 92.1699" stroke="#263238" stroke-linecap="round" stroke-linejoin="round"/>
<path d="M177.17 96.9457L181 92.3457" stroke="#696969" stroke-linecap="round" stroke-linejoin="round"/>
<path d="M150.35 67.745C147.055 68.6 144.825 71.955 144.825 71.955C144.214 70.0801 143.457 68.2562 142.56 66.5C142.56 72.705 142.41 81.28 142.41 81.28C142.41 81.28 146.8 73.76 150.35 67.745Z" fill="#651FFF" stroke="#263238" stroke-linecap="round" stroke-linejoin="round"/>
</svg>
