<svg width="244" height="244" viewBox="0 0 244 244" fill="none" xmlns="http://www.w3.org/2000/svg">
<path d="M226.169 104.182C226.169 104.182 226.169 101.44 222.333 97.6039C218.497 93.7683 216.028 91.5723 216.028 91.5723C216.028 91.5723 214.11 97.8772 217.672 101.718C220.293 104.417 223.135 106.891 226.169 109.116V104.182Z" fill="#651FFF"/>
<path d="M220.6 121.301C220.6 121.301 220.6 118.559 216.765 114.723C212.929 110.887 210.46 108.691 210.46 108.691C210.46 108.691 208.542 114.996 212.104 118.832C214.724 121.533 217.566 124.01 220.6 126.235V121.301Z" fill="#651FFF"/>
<path d="M225.944 108.853C225.944 108.853 226.232 106.125 230.453 102.714C234.674 99.3026 237.358 97.3848 237.358 97.3848C237.358 97.3848 238.603 103.856 234.655 107.296C231.763 109.704 228.675 111.866 225.422 113.757L225.944 108.853Z" fill="#651FFF"/>
<path d="M219.2 129.064C219.2 129.064 219.776 126.39 224.334 123.462C228.892 120.534 231.761 118.885 231.761 118.885C231.761 118.885 232.312 125.453 228.028 128.459C224.898 130.55 221.599 132.375 218.165 133.915L219.2 129.064Z" fill="#651FFF"/>
<path d="M220.464 151.108C220.464 151.108 220.464 148.365 224.304 144.53C228.145 140.694 230.609 138.498 230.609 138.498C230.609 138.498 232.527 144.803 228.965 148.639C226.343 151.339 223.499 153.816 220.464 156.042V151.108Z" fill="#651FFF"/>
<path d="M220.4 156.486C220.4 156.486 220.791 153.773 217.541 149.43C214.291 145.086 212.173 142.568 212.173 142.568C212.173 142.568 209.381 148.532 212.363 152.816C214.573 155.863 217.034 158.718 219.722 161.351L220.4 156.486Z" fill="#651FFF"/>
<path d="M216.618 172.434C216.618 172.434 216.618 169.692 220.454 165.856C224.29 162.02 226.759 159.824 226.759 159.824C226.759 159.824 228.677 166.129 225.114 169.965C222.493 172.664 219.651 175.141 216.618 177.368V172.434Z" fill="#651FFF"/>
<path d="M219.18 186.903C219.18 186.903 218.487 184.248 221.225 179.583C223.963 174.917 225.798 172.15 225.798 172.15C225.798 172.15 229.253 177.762 226.774 182.398C224.922 185.673 222.8 188.788 220.43 191.709L219.18 186.903Z" fill="#651FFF"/>
<path d="M226.52 103.479C226.321 106.333 225.966 109.174 225.456 111.989C223.938 119.827 220.147 124.882 218.624 131.963C217.101 139.044 221.464 148.16 220.298 157.251C219.132 166.343 215.594 171.403 216.604 177.469C217.614 183.535 222.923 199.966 222.923 199.966" stroke="#263238" stroke-linecap="round" stroke-linejoin="round"/>
<path d="M225.89 110.672L230.029 107.5" stroke="#263238" stroke-linecap="round" stroke-linejoin="round"/>
<path d="M226.085 107.017L224.353 103.938" stroke="#263238" stroke-linecap="round" stroke-linejoin="round"/>
<path d="M218.873 131.638C218.873 131.638 222.333 129.041 225.89 126.445" stroke="#263238" stroke-linecap="round" stroke-linejoin="round"/>
<path d="M220.6 126.235C220.6 126.235 217.716 120.579 214.447 116.826" stroke="#263238" stroke-linecap="round" stroke-linejoin="round"/>
<path d="M220.6 155.008C222.577 151.365 225.073 148.028 228.008 145.102" stroke="#263238" stroke-linecap="round" stroke-linejoin="round"/>
<path d="M219.927 158.853C218.879 156.382 217.627 154.002 216.184 151.738C214.164 148.757 213.876 148.371 213.876 148.371" stroke="#263238" stroke-linecap="round" stroke-linejoin="round"/>
<path d="M216.618 177.47C217.494 175.291 218.537 173.183 219.737 171.165C220.935 169.293 222.287 167.524 223.777 165.875" stroke="#263238" stroke-linecap="round" stroke-linejoin="round"/>
<path d="M220.43 191.662C220.43 191.662 220.025 188.378 221.469 185.591C222.914 182.805 224.543 179.145 225.217 177.705" stroke="#263238" stroke-linecap="round" stroke-linejoin="round"/>
<path d="M201.056 140.801C201.056 140.801 200.758 139.079 202.749 136.258C204.74 133.438 206.048 131.793 206.048 131.793C206.048 131.793 207.937 135.536 206.117 138.332C204.767 140.309 203.254 142.168 201.593 143.89L201.056 140.801Z" fill="#651FFF"/>
<path d="M206.395 150.927C206.395 150.927 206.097 149.21 208.083 146.389C210.069 143.568 211.382 141.924 211.382 141.924C211.382 141.924 213.271 145.667 211.455 148.458C210.104 150.436 208.589 152.297 206.927 154.021L206.395 150.927Z" fill="#651FFF"/>
<path d="M201.7 143.701C201.7 143.701 201.212 142.022 198.206 140.343C195.2 138.665 193.297 137.752 193.297 137.752C193.297 137.752 193.219 141.944 196.069 143.671C198.143 144.867 200.314 145.887 202.559 146.721L201.7 143.701Z" fill="#651FFF"/>
<path d="M208.112 155.671C208.112 155.671 207.463 154.056 204.287 152.699C201.11 151.342 199.133 150.635 199.133 150.635C199.133 150.635 199.494 154.812 202.51 156.232C204.698 157.204 206.964 157.991 209.284 158.584L208.112 155.671Z" fill="#651FFF"/>
<path d="M209.713 169.608C209.713 169.608 209.415 167.886 206.595 165.9C203.774 163.913 201.983 162.801 201.983 162.801C201.983 162.801 201.466 166.963 204.116 168.984C206.055 170.39 208.106 171.634 210.25 172.702L209.713 169.608Z" fill="#651FFF"/>
<path d="M210.328 172.971C210.328 172.971 209.791 171.312 211.358 168.237C212.924 165.163 213.988 163.357 213.988 163.357C213.988 163.357 216.389 166.773 214.964 169.819C213.91 171.968 212.678 174.025 211.28 175.967L210.328 172.971Z" fill="#651FFF"/>
<path d="M215.154 186.836C215.154 186.836 215.354 185.103 218.058 182.956C220.761 180.809 222.479 179.584 222.479 179.584C222.479 179.584 223.236 183.708 220.703 185.874C218.851 187.391 216.876 188.751 214.798 189.939L215.154 186.836Z" fill="#651FFF"/>
<path d="M214.442 182.561C214.442 182.561 214.144 180.843 211.319 178.852C208.493 176.861 206.712 175.758 206.712 175.758C206.712 175.758 206.195 179.916 208.844 181.936C210.781 183.345 212.833 184.589 214.979 185.654L214.442 182.561Z" fill="#651FFF"/>
<path d="M214.403 191.905C214.403 191.905 214.549 190.163 212.324 187.513C210.099 184.863 208.649 183.346 208.649 183.346C208.649 183.346 207.097 187.25 209.137 189.865C210.655 191.719 212.325 193.443 214.13 195.019L214.403 191.905Z" fill="#651FFF"/>
<path d="M200.749 140.396C201.18 142.165 201.708 143.908 202.33 145.618C204.135 150.371 207.058 153.128 208.781 157.403C210.504 161.678 208.757 167.866 210.474 173.444C212.192 179.022 214.964 181.803 214.988 185.717C215.013 189.631 213.466 200.513 213.466 200.513" stroke="#263238" stroke-linecap="round" stroke-linejoin="round"/>
<path d="M201.92 144.837L198.982 143.295" stroke="#263238" stroke-linecap="round" stroke-linejoin="round"/>
<path d="M201.402 142.569L202.154 140.451" stroke="#263238" stroke-linecap="round" stroke-linejoin="round"/>
<path d="M208.6 157.222C208.6 157.222 206.16 155.968 203.633 154.729" stroke="#263238" stroke-linecap="round" stroke-linejoin="round"/>
<path d="M206.912 154.023C207.632 151.743 208.584 149.544 209.752 147.459" stroke="#263238" stroke-linecap="round" stroke-linejoin="round"/>
<path d="M210.05 172.068C208.416 169.996 206.489 168.173 204.331 166.656" stroke="#263238" stroke-linecap="round" stroke-linejoin="round"/>
<path d="M210.889 174.406C211.281 172.738 211.809 171.106 212.47 169.526C213.412 167.437 213.554 167.164 213.554 167.164" stroke="#263238" stroke-linecap="round" stroke-linejoin="round"/>
<path d="M214.857 188.688C214.857 188.688 216.809 186.302 218.014 185.409C218.744 184.87 219.43 184.273 220.064 183.623" stroke="#263238" stroke-linecap="round" stroke-linejoin="round"/>
<path d="M214.988 185.717C214.201 184.447 213.318 183.238 212.348 182.101C211.393 181.059 210.353 180.097 209.24 179.227" stroke="#263238" stroke-linecap="round" stroke-linejoin="round"/>
<path d="M214.139 195.033C214.039 193.707 213.586 192.432 212.827 191.339C211.621 189.743 210.201 187.63 209.62 186.801" stroke="#263238" stroke-linecap="round" stroke-linejoin="round"/>
<path d="M225.768 223.201H210.587C210.27 223.201 209.965 223.075 209.741 222.85C209.517 222.626 209.391 222.322 209.391 222.005L205.629 198.615H230.731L226.964 222.005C226.964 222.322 226.838 222.626 226.614 222.85C226.389 223.075 226.085 223.201 225.768 223.201Z" fill="#263238" stroke="#263238" stroke-linecap="round" stroke-linejoin="round"/>
<path d="M230.512 201.89H205.624C205.106 201.89 204.61 201.685 204.243 201.319C203.877 200.953 203.672 200.456 203.672 199.938C203.672 199.421 203.877 198.924 204.243 198.558C204.61 198.192 205.106 197.986 205.624 197.986H230.512C231.029 197.986 231.526 198.192 231.892 198.558C232.258 198.924 232.464 199.421 232.464 199.938C232.464 200.456 232.258 200.953 231.892 201.319C231.526 201.685 231.029 201.89 230.512 201.89Z" fill="#263238" stroke="#263238" stroke-linecap="round" stroke-linejoin="round"/>
<path d="M206.614 201.977H224.685" stroke="white" stroke-linecap="round" stroke-linejoin="round"/>
<path d="M226.383 201.977H229.36" stroke="white" stroke-linecap="round" stroke-linejoin="round"/>
<path d="M124.718 87.8739C124.718 87.8739 123.449 89.1427 123.576 90.4115C123.703 91.6803 134.488 114.397 135.63 116.046C136.772 117.696 140.071 118.203 141.598 117.315C143.126 116.427 149.084 110.083 149.084 110.083L148.786 77.5527C148.786 77.5527 143.501 92.6807 141.979 95.1207C140.456 97.5607 139.69 98.8051 139.69 98.8051C139.69 98.8051 136.274 89.1574 135.376 87.2542C134.748 86.0293 133.778 85.0124 132.585 84.3262L124.718 87.8739Z" fill="#BFBFBF" stroke="#263238" stroke-linecap="round" stroke-linejoin="round"/>
<path d="M151.417 214.721C151.417 214.721 143.799 217.6 140.92 218.625C138.041 219.65 138.211 222.182 138.548 222.69L138.89 223.178H166.149C166.553 221.732 166.493 220.196 165.979 218.786C165.134 216.258 151.417 214.721 151.417 214.721Z" fill="white" stroke="#263238" stroke-linecap="round" stroke-linejoin="round"/>
<path d="M166.408 221.844H138.372C138.356 222.137 138.416 222.43 138.548 222.693L138.89 223.181H166.149C166.29 222.747 166.377 222.298 166.408 221.844Z" fill="white" stroke="#263238" stroke-linecap="round" stroke-linejoin="round"/>
<path d="M145.658 121.776C145.658 121.776 143.799 140.232 143.799 149.714C143.799 159.196 147.186 177.994 148.191 183.752C149.196 189.511 152.583 207.625 152.583 208.977C152.583 210.329 152.583 212.027 151.568 212.705C151.226 212.915 150.95 213.217 150.771 213.576C150.592 213.934 150.516 214.336 150.553 214.735V215.75C150.553 215.75 158.678 219.815 162.236 219.986C163.813 220.111 165.397 220.111 166.974 219.986C166.974 219.986 166.637 212.364 166.637 209.148C166.637 205.932 166.808 182.903 166.974 179.346C167.14 175.788 167.823 150.222 168.502 143.112C169.18 136.001 171.21 123.811 171.21 123.811L146.322 119.746L145.658 121.776Z" fill="#651FFF" stroke="#263238" stroke-linecap="round" stroke-linejoin="round"/>
<path d="M169.536 214.721C169.536 214.721 161.914 217.6 159.039 218.625C156.165 219.65 156.326 222.182 156.668 222.69L157.004 223.178H184.264C184.668 221.732 184.61 220.197 184.098 218.786C183.249 216.258 169.536 214.721 169.536 214.721Z" fill="white" stroke="#263238" stroke-linecap="round" stroke-linejoin="round"/>
<path d="M184.503 221.844H156.487C156.474 222.138 156.536 222.43 156.668 222.693L157.004 223.181H184.264C184.401 222.747 184.481 222.298 184.503 221.844Z" fill="white" stroke="#263238" stroke-linecap="round" stroke-linejoin="round"/>
<path d="M160.22 123.977C160.22 123.977 160.391 149.885 160.22 157.503C160.049 165.12 164.612 184.426 165.979 188.998C167.345 193.571 169.702 211.349 169.883 212.198C170.063 213.047 167.345 213.891 167.345 215.75C167.345 217.61 174.792 217.615 174.792 217.615C174.792 217.615 181.736 219.645 182.414 219.645C183.11 219.73 183.792 219.902 184.444 220.157C185.125 217.785 185.524 215.341 185.63 212.876C185.659 210.067 185.259 207.269 184.444 204.58C184.444 204.58 185.294 189.681 184.615 180.878C183.937 172.074 182.073 161.407 182.073 158.186C182.073 154.965 183.937 149.046 184.786 142.438C185.635 135.831 185.967 126.183 185.967 124.153C185.967 122.123 160.591 121.615 160.591 121.615L160.22 123.977Z" fill="#651FFF" stroke="#263238" stroke-linecap="round" stroke-linejoin="round"/>
<path d="M166.657 71.3203C166.657 71.3203 154.125 73.5212 151.924 73.8579C149.723 74.1946 148.352 77.5911 147.864 80.4606C147.376 83.33 144.477 120.76 145.658 121.775C146.839 122.79 178.676 126.167 182.234 126.347C185.791 126.528 186.977 126.689 187.314 124.146C187.651 121.604 192.823 85.2625 193.799 81.949C195.488 76.1954 180.204 73.165 176.646 72.3354C173.089 71.5058 166.657 71.3203 166.657 71.3203Z" fill="#BFBFBF" stroke="#263238" stroke-linecap="round" stroke-linejoin="round"/>
<path d="M183.488 74.1025C183.488 74.1025 177.315 92.6465 176.3 95.3647C175.285 98.0829 175.28 98.7465 175.28 98.7465L154.457 94.3545C154.457 94.3545 156.658 83.8577 157.502 80.9785C158.346 78.0993 160.367 72.4238 160.367 72.4238L158.859 72.6825C158.859 72.6825 153.949 88.4302 152.764 92.6612C151.578 96.8921 146 110.434 145.658 114.68C145.317 118.925 143.628 134.658 143.121 145.16C142.613 155.662 143.291 166.661 143.291 166.661C143.291 166.661 163.099 170.385 169.029 170.219C174.958 170.053 178.676 170.048 178.676 170.048C178.676 170.048 178.188 149.899 178.847 143.467C179.506 137.035 181.726 125.177 181.726 125.177L187.143 124.84L187.314 124.162L180.711 123.674C180.711 123.674 177.144 100.274 177.144 99.4249V98.0877L184.615 74.571L183.488 74.1025Z" fill="#263238" stroke="#263238" stroke-linecap="round" stroke-linejoin="round"/>
<path d="M191.403 139.24C191.403 139.24 187.499 144.828 187.211 145.76C186.924 146.692 187.831 150.576 187.831 151.816C187.831 153.056 189.383 153.06 189.383 153.06C189.383 153.06 188.607 155.076 189.539 155.857C190.471 156.637 194.507 156.476 195.283 155.076C196.059 153.675 199.187 148.868 199.187 146.536C199.098 144.602 198.839 142.68 198.411 140.792L191.403 139.24Z" fill="#828282" stroke="#263238" stroke-linecap="round" stroke-linejoin="round"/>
<path d="M189.383 153.062C189.383 153.062 190.627 151.974 190.627 150.578C190.627 149.182 191.867 146.85 191.867 146.85" stroke="#263238" stroke-linecap="round" stroke-linejoin="round"/>
<path d="M191.716 135.664C191.56 136.128 190.471 139.392 191.403 140.324C192.335 141.257 198.079 142.184 198.699 141.564C199.319 140.944 200.407 137.372 200.407 137.372L191.716 135.664Z" fill="#BFBFBF" stroke="#263238" stroke-linecap="round" stroke-linejoin="round"/>
<path d="M185.035 99.6437L191.247 113.927C191.247 113.927 189.227 134.272 190.315 135.98C191.403 137.688 200.256 138.464 201.808 137.376C203.359 136.288 204.448 132.408 205.067 125.42C205.687 118.432 202.271 98.8677 201.339 95.603C200.407 92.3383 194.224 79.2989 192.799 78.2156C191.374 77.1322 188.763 77.4348 187.987 77.7276" fill="#BFBFBF"/>
<path d="M185.035 99.6437L191.247 113.927C191.247 113.927 189.227 134.272 190.315 135.98C191.403 137.688 200.256 138.464 201.808 137.376C203.359 136.288 204.448 132.408 205.067 125.42C205.687 118.432 202.271 98.8677 201.339 95.603C200.407 92.3383 194.224 79.2989 192.799 78.2156C191.374 77.1322 188.763 77.4348 187.987 77.7276" stroke="#263238" stroke-linecap="round" stroke-linejoin="round"/>
<path d="M130.223 81.0072C130.223 81.0072 128.822 75.4196 127.583 73.2431C126.343 71.0667 118.111 68.1191 117.179 68.1191C116.247 68.1191 116.559 70.1395 116.559 72.0231C116.559 73.9068 116.866 77.1471 118.887 79.3187C120.907 81.4903 124.474 83.0471 124.474 83.0471L125.562 85.6871L131.155 82.7347L130.223 81.0072Z" fill="#828282" stroke="#263238" stroke-linecap="round" stroke-linejoin="round"/>
<path d="M127.002 66.0452L127.295 64.7471C127.372 64.4051 127.38 64.0509 127.317 63.7059C127.255 63.3608 127.123 63.0319 126.93 62.7389C126.738 62.446 126.488 62.1949 126.196 62.0008C125.904 61.8067 125.575 61.6735 125.231 61.6093V61.6093C124.651 61.5006 124.052 61.5909 123.53 61.8655C123.008 62.1401 122.595 62.5829 122.356 63.1221L110.503 90.0304" stroke="#263238" stroke-linecap="round" stroke-linejoin="round"/>
<path d="M98.2051 88.127C98.2691 89.7473 98.9577 91.2799 100.127 92.4037C101.296 93.5275 102.854 94.1552 104.476 94.1552C106.098 94.1552 107.656 93.5275 108.825 92.4037C109.994 91.2799 110.683 89.7473 110.747 88.127H98.2051Z" fill="white" stroke="#263238" stroke-linecap="round" stroke-linejoin="round"/>
<path d="M100.235 80.0802C100.298 79.5883 100.418 79.1053 100.591 78.6406" stroke="#263238" stroke-linecap="round" stroke-linejoin="round"/>
<path d="M100.04 86.9813C101.109 86.4592 101.621 84.6341 101.177 83.6532C100.867 83.0204 100.598 82.3684 100.372 81.7012" stroke="#263238" stroke-linecap="round" stroke-linejoin="round"/>
<path d="M103.881 86.9818C104.954 86.4596 105.462 84.6345 105.023 83.6536C104.481 82.458 104.105 81.6577 104.047 80.7695" stroke="#263238" stroke-linecap="round" stroke-linejoin="round"/>
<path d="M107.936 79.7826C108.007 79.3937 108.112 79.0116 108.248 78.6406" stroke="#263238" stroke-linecap="round" stroke-linejoin="round"/>
<path d="M107.711 86.9804C108.78 86.4583 109.292 84.6331 108.848 83.6523C108.56 83.0572 108.306 82.4462 108.087 81.8223" stroke="#263238" stroke-linecap="round" stroke-linejoin="round"/>
<path d="M118.418 68.119C118.418 68.119 114.382 67.1869 114.075 67.9629C113.767 68.7388 113.763 70.2955 114.382 70.7591C115.002 71.2227 119.199 71.3788 119.662 71.2471C120.126 71.1153 121.219 68.3972 118.418 68.119Z" fill="#828282" stroke="#263238" stroke-linecap="round" stroke-linejoin="round"/>
<path d="M119.423 71.8185C119.423 71.8185 115.388 70.8864 115.075 71.6672C114.763 72.448 114.763 73.995 115.388 74.4586C116.012 74.9222 120.199 75.0832 120.668 74.9466C121.136 74.8099 122.224 72.0966 119.423 71.8185Z" fill="#828282" stroke="#263238" stroke-linecap="round" stroke-linejoin="round"/>
<path d="M119.804 74.9958C119.804 74.9958 115.666 74.7616 115.49 75.5814C115.314 76.4013 115.578 77.9287 116.271 78.2849C116.964 78.6412 121.122 78.08 121.551 77.8457C121.98 77.6115 122.61 74.7957 119.804 74.9958Z" fill="#828282" stroke="#263238" stroke-linecap="round" stroke-linejoin="round"/>
<path d="M120.321 78.3149C120.321 78.3149 116.905 78.1197 116.764 78.8029C116.622 79.4861 116.837 80.7549 117.408 81.0379C117.979 81.321 121.414 80.8671 121.771 80.6768C122.127 80.4865 122.639 78.1441 120.321 78.3149Z" fill="#828282" stroke="#263238" stroke-linecap="round" stroke-linejoin="round"/>
<path d="M128.978 77.5909C128.978 77.5909 127.89 71.5348 127.27 70.4514C126.651 69.3681 121.058 66.4108 119.95 65.791C118.843 65.1713 117.022 64.3953 116.686 65.4787C116.543 65.977 116.573 66.509 116.77 66.9882C116.968 67.4675 117.321 67.8659 117.774 68.1188C118.706 68.7434 121.034 69.6706 121.034 70.1391C121.034 70.6076 122.278 75.7267 124.938 77.5909" fill="#828282"/>
<path d="M128.978 77.5909C128.978 77.5909 127.89 71.5348 127.27 70.4514C126.651 69.3681 121.058 66.4108 119.95 65.791C118.843 65.1713 117.022 64.3953 116.686 65.4787C116.543 65.977 116.573 66.509 116.77 66.9882C116.968 67.4675 117.321 67.8659 117.774 68.1188C118.706 68.7434 121.034 69.6706 121.034 70.1391C121.034 70.6076 122.278 75.7267 124.938 77.5909" stroke="#263238" stroke-linecap="round" stroke-linejoin="round"/>
<path d="M130.808 81.1484C130.808 81.1484 123.069 85.0817 123.576 86.0968C123.94 86.9499 124.195 87.8449 124.338 88.7612C124.338 88.7612 132.458 85.0817 132.585 84.3204C132.712 83.5592 131.697 81.656 130.808 81.1484Z" fill="#BFBFBF" stroke="#263238" stroke-linecap="round" stroke-linejoin="round"/>
<path d="M163.778 66.7488C163.778 66.7488 162.933 74.3665 162.933 77.5824C162.933 80.7983 163.968 86.3762 170.38 84.1899C176.793 82.0037 178.676 74.0298 178.676 72.4779C178.676 70.9261 179.355 59.6094 179.355 59.6094C179.355 59.6094 174.782 64.5235 171.059 65.7045C168.702 66.4355 166.245 66.788 163.778 66.7488Z" fill="white" stroke="#263238" stroke-linecap="round" stroke-linejoin="round"/>
<path d="M171.059 65.7279C168.701 66.4506 166.243 66.7949 163.778 66.7479C163.778 66.7479 163.636 68.0362 163.465 69.7735C165.12 70.6616 167.369 70.9398 169.092 71.0325C173.64 71.2911 176.705 66.8552 179.13 63.488C179.257 61.3262 179.355 59.6328 179.355 59.6328C179.355 59.6328 174.782 64.547 171.059 65.7279Z" fill="#263238" stroke="#263238" stroke-linecap="round" stroke-linejoin="round"/>
<path d="M162.07 42.6559C162.07 42.6559 164.046 36.59 166.257 34.3599C168.467 32.1297 181.556 31.7832 183.366 33.3839C185.177 34.9845 186.782 38.4054 187.187 41.2212C187.592 44.0369 184.371 50.4932 184.371 50.4932L162.07 42.6559Z" fill="#263238" stroke="#263238" stroke-linecap="round" stroke-linejoin="round"/>
<path d="M161.577 46.2567C161.577 46.2567 160.054 50.8293 160.22 54.0647C160.386 57.3002 161.069 60.5014 161.069 62.5315C161.069 64.5616 160.733 66.2598 162.592 67.7824C164.241 69.1293 167.042 69.4904 169.092 69.6075C173.889 69.8759 177.037 64.9227 179.525 61.5165C179.525 61.5165 184.264 61.0285 184.606 58.3006C184.947 55.5726 184.171 54.3331 184.171 54.3331L184.371 50.5121C184.371 50.5121 168.521 42.7041 161.577 46.2567Z" fill="white" stroke="#263238" stroke-linecap="round" stroke-linejoin="round"/>
<path d="M179.189 50.493C179.189 50.493 178.169 55.2314 178.847 55.573C179.525 55.9146 183.083 54.5531 183.239 53.0306C183.395 51.508 181.536 50.3222 179.189 50.493Z" fill="#263238" stroke="#263238" stroke-linecap="round" stroke-linejoin="round"/>
<path d="M160.85 46.8776C160.85 46.8776 168.692 48.083 174.924 50.0936C181.155 52.1041 184.171 54.3148 184.171 54.3148C184.171 54.3148 186.182 50.8988 185.982 49.0883C185.782 47.2778 177.144 44.0619 170.097 42.6564C163.051 41.251 161.855 41.4462 161.255 42.2514C160.655 43.0566 159.844 46.0724 160.85 46.8776Z" fill="#263238" stroke="#263238" stroke-linecap="round" stroke-linejoin="round"/>
<path d="M166.486 50.6582C166.486 50.6582 162.255 57.6024 163.27 58.6175C164.285 59.6325 166.657 60.3108 167.335 59.9741" stroke="#263238" stroke-linecap="round" stroke-linejoin="round"/>
<path d="M163.27 61.6677C163.27 61.6677 172.054 64.2053 173.938 59.4668" stroke="#263238" stroke-linecap="round" stroke-linejoin="round"/>
<path d="M172.581 58.7891L175.124 59.8041" stroke="#263238" stroke-linecap="round" stroke-linejoin="round"/>
<path d="M171.82 53.3677C172.24 53.3677 172.581 52.7996 172.581 52.0989C172.581 51.3981 172.24 50.8301 171.82 50.8301C171.399 50.8301 171.059 51.3981 171.059 52.0989C171.059 52.7996 171.399 53.3677 171.82 53.3677Z" fill="#263238"/>
<path d="M165.046 50.4055C165.046 51.1082 164.705 51.6792 164.285 51.6792C163.866 51.6792 163.524 51.1082 163.524 50.4055C163.524 49.7028 163.866 49.1367 164.285 49.1367C164.705 49.1367 165.046 49.7077 165.046 50.4055Z" fill="#263238"/>
<path d="M171.059 48.1211C171.059 48.1211 175.29 48.2919 175.124 51.6786" stroke="#263238" stroke-linecap="round" stroke-linejoin="round"/>
<path d="M165.471 47.1074C165.471 47.1074 164.456 46.4291 162.255 48.8008" stroke="#263238" stroke-linecap="round" stroke-linejoin="round"/>
<path d="M104.544 154.271H99.7521V223.206H104.544V154.271Z" fill="white" stroke="#263238" stroke-linecap="round" stroke-linejoin="round"/>
<path d="M107.863 154.271H103.07V223.206H107.863V154.271Z" fill="#263238" stroke="#263238" stroke-linecap="round" stroke-linejoin="round"/>
<path d="M127.397 154.271H122.605V223.206H127.397V154.271Z" fill="white" stroke="#263238" stroke-linecap="round" stroke-linejoin="round"/>
<path d="M130.716 154.271H125.924V223.206H130.716V154.271Z" fill="#263238" stroke="#263238" stroke-linecap="round" stroke-linejoin="round"/>
<path d="M178.266 154.271H173.474V223.206H178.266V154.271Z" fill="white" stroke="#263238" stroke-linecap="round" stroke-linejoin="round"/>
<path d="M181.585 154.271H176.793V223.206H181.585V154.271Z" fill="#263238" stroke="#263238" stroke-linecap="round" stroke-linejoin="round"/>
<path d="M201.124 154.271H196.332V223.206H201.124V154.271Z" fill="white" stroke="#263238" stroke-linecap="round" stroke-linejoin="round"/>
<path d="M204.438 154.271H199.646V223.206H204.438V154.271Z" fill="#263238" stroke="#263238" stroke-linecap="round" stroke-linejoin="round"/>
<path d="M209.23 151.689H96.7997V157.589H209.23V151.689Z" fill="white" stroke="#263238" stroke-linecap="round" stroke-linejoin="round"/>
<path d="M209.235 151.689H178.637V157.589H209.235V151.689Z" fill="#263238" stroke="#263238" stroke-linecap="round" stroke-linejoin="round"/>
<path d="M211.075 150.217H93.1153V153.164H211.075V150.217Z" fill="white" stroke="#263238" stroke-linecap="round" stroke-linejoin="round"/>
<path d="M211.075 150.217H181.585V153.164H211.075V150.217Z" fill="#263238" stroke="#263238" stroke-linecap="round" stroke-linejoin="round"/>
<path d="M144.404 122.912H136.547V120.257H144.404C144.743 120.257 145.068 120.392 145.308 120.632C145.548 120.872 145.683 121.197 145.683 121.536V121.658C145.676 121.993 145.539 122.312 145.3 122.546C145.061 122.781 144.739 122.912 144.404 122.912Z" fill="white" stroke="#263238" stroke-linecap="round" stroke-linejoin="round"/>
<path d="M104.056 114.979H141.144V146.25C141.144 147.285 140.733 148.278 140.001 149.01C139.269 149.742 138.276 150.154 137.24 150.154H107.96C106.925 150.154 105.932 149.742 105.2 149.01C104.468 148.278 104.056 147.285 104.056 146.25V114.979Z" fill="white" stroke="#263238" stroke-linecap="round" stroke-linejoin="round"/>
<path d="M136.708 114.979V146.093C136.708 147.168 136.282 148.198 135.522 148.957C134.762 149.717 133.732 150.144 132.658 150.144H135.664C136.738 150.143 137.767 149.715 138.527 148.956C139.286 148.197 139.713 147.167 139.714 146.093V114.979H136.708Z" fill="#263238" stroke="#263238" stroke-linecap="round" stroke-linejoin="round"/>
<path d="M109.8 114.979V146.093C109.8 148.328 113.045 150.144 115.28 150.144H112.294C111.219 150.144 110.188 149.717 109.428 148.958C108.668 148.198 108.24 147.168 108.238 146.093V114.979H109.8Z" fill="#263238" stroke="#263238" stroke-linecap="round" stroke-linejoin="round"/>
<path d="M140.886 113.686H104.305C103.448 113.686 102.753 114.38 102.753 115.237V115.359C102.753 116.216 103.448 116.911 104.305 116.911H140.886C141.743 116.911 142.437 116.216 142.437 115.359V115.237C142.437 114.38 141.743 113.686 140.886 113.686Z" fill="white" stroke="#263238" stroke-linecap="round" stroke-linejoin="round"/>
<path d="M99.4593 120.258H107.316V122.913H99.4593C99.1202 122.913 98.795 122.778 98.5552 122.538C98.3154 122.298 98.1807 121.973 98.1807 121.634V121.512C98.1871 121.177 98.3246 120.858 98.5637 120.624C98.8028 120.389 99.1244 120.258 99.4593 120.258Z" fill="white" stroke="#263238" stroke-linecap="round" stroke-linejoin="round"/>
<path d="M104.027 120.258H111.884V122.913H104.027C103.859 122.913 103.693 122.879 103.538 122.815C103.383 122.751 103.242 122.657 103.123 122.538C103.004 122.419 102.91 122.278 102.846 122.123C102.781 121.968 102.748 121.802 102.748 121.634V121.512C102.755 121.177 102.892 120.858 103.131 120.624C103.371 120.389 103.692 120.258 104.027 120.258Z" fill="white" stroke="#263238" stroke-linecap="round" stroke-linejoin="round"/>
<path d="M141.027 115.773H104.159V116.271H141.027V115.773Z" fill="#263238" stroke="#263238" stroke-linecap="round" stroke-linejoin="round"/>
<path d="M123.166 102.861C122.459 101.997 121.629 101.275 121.629 99.5865C121.604 98.6992 121.901 97.8327 122.464 97.1465" stroke="#263238" stroke-linecap="round" stroke-linejoin="round"/>
<path d="M121.629 111.361C121.629 108.433 124.147 108.433 124.147 105.476C124.149 105.124 124.106 104.773 124.02 104.432" stroke="#263238" stroke-linecap="round" stroke-linejoin="round"/>
<path d="M130.701 100.401C130.516 99.902 130.427 99.3723 130.438 98.8398" stroke="#263238" stroke-linecap="round" stroke-linejoin="round"/>
<path d="M130.438 111.363C130.438 108.235 132.951 108.235 132.951 105.102C132.951 103.355 132.17 102.583 131.487 101.686" stroke="#263238" stroke-linecap="round" stroke-linejoin="round"/>
<path d="M111.567 100.074C111.513 99.789 111.487 99.4998 111.488 99.2101C111.48 98.7113 111.563 98.2152 111.732 97.7461" stroke="#263238" stroke-linecap="round" stroke-linejoin="round"/>
<path d="M111.488 111.361C111.488 108.326 114.007 108.326 114.007 105.29C114.01 104.732 113.902 104.178 113.69 103.661C113.478 103.145 113.166 102.675 112.772 102.279" stroke="#263238" stroke-linecap="round" stroke-linejoin="round"/>
<path d="M195.166 122.912H187.309V120.257H195.166C195.505 120.257 195.83 120.392 196.07 120.632C196.31 120.872 196.444 121.197 196.444 121.536V121.658C196.438 121.993 196.3 122.312 196.061 122.546C195.822 122.781 195.501 122.912 195.166 122.912Z" fill="white" stroke="#263238" stroke-linecap="round" stroke-linejoin="round"/>
<path d="M154.823 114.979H191.911V146.25C191.911 147.285 191.5 148.278 190.767 149.01C190.035 149.742 189.042 150.154 188.007 150.154H158.727C157.692 150.154 156.699 149.742 155.966 149.01C155.234 148.278 154.823 147.285 154.823 146.25V114.979Z" fill="white" stroke="#263238" stroke-linecap="round" stroke-linejoin="round"/>
<path d="M187.475 114.979V146.093C187.474 147.168 187.046 148.198 186.285 148.958C185.525 149.717 184.494 150.144 183.42 150.144H186.416C187.49 150.144 188.52 149.717 189.28 148.957C190.04 148.198 190.466 147.168 190.466 146.093V114.979H187.475Z" fill="#263238" stroke="#263238" stroke-linecap="round" stroke-linejoin="round"/>
<path d="M160.552 114.979V146.093C160.552 148.328 163.792 150.144 166.032 150.144H163.041C161.967 150.143 160.938 149.715 160.178 148.956C159.419 148.197 158.992 147.167 158.99 146.093V114.979H160.552Z" fill="#263238" stroke="#263238" stroke-linecap="round" stroke-linejoin="round"/>
<path d="M191.647 113.686H155.067C154.21 113.686 153.515 114.38 153.515 115.237V115.359C153.515 116.216 154.21 116.911 155.067 116.911H191.647C192.504 116.911 193.199 116.216 193.199 115.359V115.237C193.199 114.38 192.504 113.686 191.647 113.686Z" fill="white" stroke="#263238" stroke-linecap="round" stroke-linejoin="round"/>
<path d="M150.221 120.258H158.078V122.913H150.221C149.882 122.913 149.557 122.778 149.317 122.538C149.077 122.298 148.943 121.973 148.943 121.634V121.512C148.949 121.177 149.086 120.858 149.326 120.624C149.565 120.389 149.886 120.258 150.221 120.258Z" fill="white" stroke="#263238" stroke-linecap="round" stroke-linejoin="round"/>
<path d="M154.789 120.258H162.646V122.913H154.789C154.45 122.913 154.124 122.778 153.885 122.538C153.645 122.298 153.51 121.973 153.51 121.634V121.512C153.517 121.177 153.654 120.858 153.893 120.624C154.132 120.389 154.454 120.258 154.789 120.258Z" fill="white" stroke="#263238" stroke-linecap="round" stroke-linejoin="round"/>
<path d="M191.794 115.773H154.925V116.271H191.794V115.773Z" fill="#263238" stroke="#263238" stroke-linecap="round" stroke-linejoin="round"/>
<path d="M173.445 107.398H173.386C172.95 107.398 172.596 107.752 172.596 108.189V110.439C172.596 110.875 172.95 111.229 173.386 111.229H173.445C173.882 111.229 174.236 110.875 174.236 110.439V108.189C174.236 107.752 173.882 107.398 173.445 107.398Z" fill="#5C5C5C" stroke="#263238" stroke-linecap="round" stroke-linejoin="round"/>
<path d="M155.125 113.705L156.707 112.602C158.575 111.294 160.799 110.592 163.08 110.592H183.869C186.746 110.592 189.512 111.708 191.584 113.705H155.125Z" fill="#5C5C5C" stroke="#263238" stroke-linecap="round" stroke-linejoin="round"/>
<path d="M60.3461 86.127C60.3461 86.127 62.3713 89.5966 63.2351 91.617C64.0988 93.6373 65.2603 96.2432 64.1037 95.6625C62.9471 95.0817 61.7906 94.3644 60.7804 94.3644C59.7703 94.3644 59.4823 95.521 59.048 94.6523C58.6137 93.7837 60.3461 86.127 60.3461 86.127Z" fill="#651FFF" stroke="#263238" stroke-linecap="round" stroke-linejoin="round"/>
<path d="M57.3156 210.674C57.3156 210.674 64.2501 214.72 66.856 215.588C69.4619 216.457 71.1895 218.028 71.331 219.634L71.4774 221.22L71.331 222.376H39.6842C39.203 221.182 38.9577 219.906 38.9619 218.619C38.9619 216.452 40.1185 216.018 40.6992 214.715C41.2799 213.412 55.144 209.664 55.144 209.664L57.3156 210.674Z" fill="#651FFF" stroke="#263238" stroke-linecap="round" stroke-linejoin="round"/>
<path d="M39.2645 221.064C39.3698 221.507 39.5101 221.941 39.6842 222.362H71.3261L71.4725 221.206L71.3261 219.62C71.1846 218.029 69.4522 216.438 66.8511 215.574V221.064H39.2645Z" fill="white" stroke="#263238" stroke-linecap="round" stroke-linejoin="round"/>
<path d="M65.1139 141.755C65.1139 141.755 66.1289 143.487 65.2603 144.195C64.3916 144.902 63.9573 145.21 63.9573 145.21C64.5584 146.419 64.7123 147.802 64.3916 149.114C63.8158 151.139 61.2147 159.66 61.2147 163.705C61.2147 167.751 61.5027 177.72 59.9118 183.357C58.3209 188.993 55.144 201.271 55.5783 204.019C56.0127 206.766 57.6035 208.064 57.8915 208.787C58.1369 209.68 58.2342 210.609 58.1794 211.534C58.1794 212.398 55.144 216.302 50.0883 218.176C45.0327 220.05 40.8163 220.347 39.8403 220.054C38.8643 219.762 37.82 218.034 37.9615 216.59C38.1031 215.145 38.552 214.867 38.552 213.852C38.552 212.837 36.2389 203.018 36.5268 197.528C36.8147 192.038 41.441 183.655 41.441 179.609C41.441 175.564 39.977 168.488 38.8399 164.296C37.7029 160.104 37.3759 159.24 37.3759 158.806C37.3759 158.371 35.7851 155.048 34.7749 152.301C33.7647 149.553 32.3349 146.957 32.3349 144.068C32.3541 142.135 32.4992 140.205 32.7692 138.29L34.0722 134.967C34.0722 134.967 63.9768 139.154 64.4111 139.154C64.8455 139.154 65.1139 141.755 65.1139 141.755Z" fill="#263238" stroke="#263238" stroke-linecap="round" stroke-linejoin="round"/>
<path d="M67.6661 128.456C67.6661 128.456 75.2935 124.644 76.5331 123.302C77.7726 121.96 76.5331 118.871 76.943 118.871C77.3529 118.871 79.827 117.842 80.0369 116.919C80.2467 115.997 79.827 114.445 80.2418 114.445C80.6566 114.445 85.3951 113.313 87.2495 113.415C89.1039 113.518 94.0523 113.723 95.7017 111.356C97.3511 108.989 98.576 106.92 98.576 106.3C98.576 105.681 98.088 105.505 97.0388 106.213C95.9896 106.92 87.3422 107.125 84.9706 107.125C82.5989 107.125 81.6766 106.813 80.642 107.613C79.6075 108.413 75.6986 112.357 75.1813 112.357C74.664 112.357 73.0195 112.152 72.0923 113.181C71.3582 112.708 70.4885 112.49 69.6181 112.561C68.3786 112.766 62.7129 115.86 62.7129 115.86L67.6661 128.456Z" fill="#9E9E9E" stroke="#263238" stroke-linecap="round" stroke-linejoin="round"/>
<path d="M60.0582 92.3386C60.1847 92.5212 60.302 92.7102 60.4095 92.9047C61.3477 94.6124 61.9631 96.4785 62.2249 98.4093C62.8056 102.313 63.0935 109.536 64.3916 114.591C65.6897 119.647 70.4623 127.304 69.7596 133.662C69.0569 140.021 67.1586 142.041 63.8353 142.188C60.512 142.334 37.249 137.42 33.7842 136.41C30.3194 135.4 29.5923 135.976 29.8802 132.652C30.1682 129.329 33.7842 117.334 33.9258 113C34.0673 108.667 30.8904 99.1315 35.3898 92.1971C39.8891 85.2626 44.7838 80.6363 47.5263 81.2171C50.2689 81.7978 58.1794 87.2829 60.0582 92.3386Z" fill="white" stroke="#263238" stroke-linecap="round" stroke-linejoin="round"/>
<path d="M53.4116 49.864C53.4116 49.864 58.4673 47.6973 62.5128 48.2731C66.5583 48.849 70.6038 52.0307 71.4725 54.1975C72.3411 56.3642 73.0634 57.3743 73.0634 58.8188C73.0634 60.2633 73.0634 60.6976 72.917 61.1319L72.7754 61.5663C72.7754 61.5663 74.2394 65.0359 74.3614 66.1876C74.4834 67.3393 74.3614 67.9249 73.3513 67.9249H72.3411C72.3411 67.9249 71.0382 76.5918 69.9011 77.6019C68.7641 78.6121 65.2798 78.7585 65.2798 78.7585C65.2798 78.7585 61.9565 80.2225 61.2342 84.8292C60.512 89.4359 59.6434 94.7991 59.6434 94.7991C59.6434 94.7991 52.2746 81.3595 51.4108 78.4706C50.547 75.5816 50.1078 73.5564 50.1078 73.5564C50.9335 72.1972 51.4344 70.6658 51.5718 69.0815C51.7182 66.6415 48.5365 61.4199 49.4051 56.5106C50.2738 51.6013 53.4116 49.864 53.4116 49.864Z" fill="#999999" stroke="#263238" stroke-linecap="round" stroke-linejoin="round"/>
<path d="M69.8816 77.5925C70.7795 76.8117 71.7604 71.429 72.1606 69.0476C71.2187 68.3302 66.8316 67.6373 65.1138 68.4913C63.3961 69.3453 61.5026 70.8044 61.2098 70.3701C60.917 69.9358 59.536 63.4405 60.5364 62.2888C61.5368 61.1371 64.0061 61.1274 63.4254 59.2486C62.8446 57.3698 60.3461 58.3897 60.2046 56.8086C60.063 55.2274 61.6686 53.7732 59.7702 53.3438C58.4652 53.1134 57.1234 53.2124 55.8662 53.6317C55.4368 53.6317 54.5682 53.051 54.5682 51.6065C54.5687 51.2253 54.4395 50.8553 54.2018 50.5573C53.9641 50.2592 53.6321 50.051 53.2603 49.9668C52.621 50.3816 50.1225 52.2458 49.3563 56.5206C48.4877 61.4299 51.6694 66.632 51.523 69.0915C51.4055 70.5478 50.9778 71.9621 50.2689 73.2395C50.9368 73.5334 51.683 73.5986 52.3917 73.425C53.8557 72.9906 53.6898 71.6926 54.1241 70.6775C54.5584 69.6625 56.0029 69.3794 55.2806 67.5006C54.5584 65.6218 56.4372 63.5966 57.301 63.743C58.1647 63.8894 59.0382 65.3339 58.6039 66.183C58.1696 67.0322 57.1399 71.2387 57.1399 73.4054C57.1399 75.5722 57.7158 77.451 59.0187 78.1732C60.3217 78.8954 62.1273 79.5445 63.4107 80.1252C63.9252 79.5691 64.535 79.1096 65.2115 78.7686C65.2115 78.7686 68.7299 78.6173 69.8816 77.5925Z" fill="#263238" stroke="#263238" stroke-linecap="round" stroke-linejoin="round"/>
<path d="M70.3159 62.143C70.3159 62.7042 70.1207 63.158 69.8816 63.158C69.6425 63.158 69.4522 62.7042 69.4522 62.143C69.4522 61.5818 69.6425 61.1328 69.8816 61.1328C70.1207 61.1328 70.3159 61.5867 70.3159 62.143Z" fill="#263238"/>
<path d="M67.7149 59.5357C68.4512 59.1232 69.2259 58.7833 70.028 58.5207C70.7503 58.3791 71.9068 58.955 71.7604 57.7984C71.614 56.6419 70.1744 57.0762 68.4371 57.5105C66.6999 57.9448 66.7047 58.9647 67.7149 59.5357Z" fill="white" stroke="#263238" stroke-linecap="round" stroke-linejoin="round"/>
<path d="M65.8361 61.8535C66.2929 62.118 66.7862 62.3137 67.3001 62.4342" stroke="#263238" stroke-linecap="round" stroke-linejoin="round"/>
<path d="M67.2806 63.0098C67.0325 63.186 66.7477 63.3035 66.4475 63.3534C66.1474 63.4033 65.8398 63.3842 65.5482 63.2977" stroke="#263238" stroke-linecap="round" stroke-linejoin="round"/>
<path d="M65.2651 56.5002C65.2651 56.5002 67.5051 54.7092 70.3062 55.1582" stroke="#263238" stroke-linecap="round" stroke-linejoin="round"/>
<path d="M66.4949 53.681C66.4949 53.681 69.296 52.9002 70.5306 53.681" stroke="#263238" stroke-linecap="round" stroke-linejoin="round"/>
<path d="M56.0126 52.4653C55.5783 52.4653 54.7146 51.8846 54.7146 50.4401C54.7146 48.9956 52.9773 48.1318 51.6792 49.2835C50.3811 50.4352 50.669 51.1623 49.3661 51.4502C48.0631 51.7382 45.3206 50.8744 44.8862 53.6218C44.4519 56.3693 45.0326 57.0866 44.4519 57.8089C43.8712 58.5311 40.8407 59.8341 40.9871 62.2887C41.1335 64.7434 42.8659 64.7287 42.2852 66.1927C41.7045 67.6567 40.2649 69.516 42.4316 70.9605C44.5983 72.405 48.2095 69.3745 48.6438 70.531C49.0782 71.6876 51.0838 72.6978 52.5478 72.2634C54.0118 71.8291 53.8508 70.531 54.2851 69.516C54.7194 68.501 56.1639 68.2179 55.4417 66.3391C54.7194 64.4603 56.5934 62.4351 57.462 62.5815C58.3306 62.7279 59.1944 64.1724 58.765 65.0215C58.3355 65.8706 57.301 70.0772 57.301 72.2439C57.301 74.4106 57.8768 76.2894 59.1749 77.0117C60.473 77.7339 62.4982 78.4757 63.8011 79.0369C65.1041 79.5981 69.1447 81.3451 70.4477 80.1886C71.7506 79.032 72.468 76.2846 72.468 73.6884C72.468 71.0922 73.1902 68.6327 72.3265 67.9105C71.4627 67.1882 66.9585 66.4465 65.2456 67.3298C63.5327 68.213 61.6344 69.6429 61.3416 69.2086C61.0488 68.7742 60.0386 64.1529 61.0488 62.9963C62.059 61.8398 64.5185 60.3953 63.9378 58.5165C63.357 56.6377 60.473 57.2184 60.3266 55.6275C60.1802 54.0366 61.7906 52.5922 59.8922 52.1627C58.594 51.9406 57.2608 52.0446 56.0126 52.4653Z" fill="white" stroke="#263238" stroke-linecap="round" stroke-linejoin="round"/>
<path d="M66.4168 69.3691C66.8483 70.0152 67.4673 70.5136 68.1906 70.7971C68.9139 71.0807 69.7067 71.1358 70.4623 70.9551" stroke="#263238" stroke-linecap="round" stroke-linejoin="round"/>
<path d="M58.9894 64.5673C58.9894 64.5673 58.765 62.5519 56.3006 62.2152C53.8362 61.8785 53.6117 65.9093 54.6219 67.8174C55.632 69.7255 56.974 68.7105 56.974 68.7105" fill="#999999"/>
<path d="M58.9894 64.5673C58.9894 64.5673 58.765 62.5519 56.3006 62.2152C53.8362 61.8785 53.6117 65.9093 54.6219 67.8174C55.632 69.7255 56.974 68.7105 56.974 68.7105" stroke="#263238" stroke-linecap="round" stroke-linejoin="round"/>
<path d="M49.8004 72.1113C49.8004 72.1113 55.0025 84.2479 56.447 87.4296C57.8914 90.6114 60.0582 92.9196 60.0582 96.0965C60.0582 99.2734 61.3611 106.213 61.3611 113.147C61.3611 120.082 63.0935 130.052 62.5128 133.951C61.9321 137.85 60.512 140.744 60.512 142.335C60.512 143.925 60.6535 146.239 59.9313 146.239C59.209 146.239 48.8098 145.516 41.1482 143.637C33.4866 141.759 29.0116 140.89 29.0116 139.733C29.0116 138.577 29.4459 136.41 29.4459 135.829C29.4459 135.249 27.7135 134.097 28.5822 130.198C29.4508 126.299 30.3146 114.157 30.6025 105.491C30.8904 96.8236 34.3601 89.162 36.6732 85.6924C38.9863 82.2227 43.0172 79.7729 43.0172 79.7729C43.0172 79.7729 40.709 77.0255 43.4515 75.2931C45.4827 74.0705 47.6053 73.0068 49.8004 72.1113Z" fill="#651FFF" stroke="#263238" stroke-linecap="round" stroke-linejoin="round"/>
<path d="M31.0173 135.777C39.6828 139.491 49.0007 141.444 58.4282 141.521" stroke="#263238" stroke-linecap="round" stroke-linejoin="round"/>
<path d="M34.3113 137.084L33.7208 141.051" stroke="#263238" stroke-linecap="round" stroke-linejoin="round"/>
<path d="M38.674 138.871L38.0786 142.043" stroke="#263238" stroke-linecap="round" stroke-linejoin="round"/>
<path d="M43.432 140.057L43.0367 143.229" stroke="#263238" stroke-linecap="round" stroke-linejoin="round"/>
<path d="M47.7947 140.852L47.5946 143.628" stroke="#263238" stroke-linecap="round" stroke-linejoin="round"/>
<path d="M52.7479 141.447V144.419" stroke="#263238" stroke-linecap="round" stroke-linejoin="round"/>
<path d="M56.447 87.4296C54.983 84.2479 49.8004 72.1113 49.8004 72.1113C47.607 73.007 45.486 74.0707 43.4564 75.2931C40.7139 77.0255 43.0221 79.7729 43.0221 79.7729C43.0221 79.7729 47.9363 86.9953 49.5271 90.3186C51.118 93.6419 50.6837 92.9196 52.1282 95.2328C53.5727 97.5459 54.2949 99.4198 54.7292 98.6976C55.1635 97.9753 58.7747 94.5056 59.6385 94.7936C59.741 94.8277 59.8483 94.857 59.9655 94.8863C59.5019 92.2999 57.7011 90.1917 56.447 87.4296Z" fill="#651FFF" stroke="#263238" stroke-linecap="round" stroke-linejoin="round"/>
<path d="M76.2402 102.309H103.568C103.568 102.309 101.255 105.344 99.0884 106.647C96.9217 107.95 94.0327 108.111 94.0327 108.111H86.7859C86.7859 108.111 81.008 107.945 76.2402 102.309Z" fill="#651FFF" stroke="#263238" stroke-linecap="round" stroke-linejoin="round"/>
<path d="M75.3716 109.825C76.5904 108.755 77.617 107.484 78.407 106.068C78.8079 105.232 79.3936 104.499 80.1199 103.923C80.8462 103.347 81.6939 102.944 82.5989 102.744C84.0629 102.456 88.8111 102.022 89.6798 101.588C90.5484 101.153 91.1438 103.179 90.6899 103.901C90.2361 104.623 88.3768 105.199 87.2203 105.365C86.4714 105.502 85.8011 105.915 85.3415 106.521C85.994 107.025 86.7264 107.416 87.5082 107.678C88.8111 108.112 91.1243 108.254 92.1344 107.678C93.1446 107.102 96.7558 104.496 97.0486 106.214C97.3414 107.932 95.7456 108.654 94.877 109.679C94.0083 110.704 92.437 112.568 91.8465 112.714C91.256 112.861 86.6444 112.861 83.7555 113.148C80.8665 113.436 77.4115 115.462 77.4115 115.462L74.8104 109.825H75.3716Z" fill="#999999" stroke="#263238" stroke-linecap="round" stroke-linejoin="round"/>
<path d="M70.028 111.991C70.028 111.991 74.6494 108.956 75.3716 109.824C76.0939 110.693 79.5635 114.446 78.6949 116.037C77.8263 117.627 72.1947 120.228 72.1947 120.228L70.028 111.991Z" fill="#651FFF" stroke="#263238" stroke-linecap="round" stroke-linejoin="round"/>
<path d="M48.2095 90.4648C48.2095 90.4648 51.5328 94.076 52.8358 97.3993C54.1387 100.723 57.1692 110.087 57.6035 110.834C58.0379 111.581 58.7601 112.859 58.7601 112.859C58.7601 112.859 66.2704 110.834 67.8613 110.692C69.4522 110.551 71.0382 111.991 72.0483 113.869C73.0585 115.748 76.3867 121.38 74.9422 122.829C73.4977 124.278 60.9268 130.783 57.1692 132.218C53.4116 133.653 49.654 132.794 47.8972 129.778C46.1404 126.762 38.796 109.985 37.3515 106.081C35.9071 102.177 36.0486 99 36.6293 97.8434" fill="#651FFF"/>
<path d="M48.2095 90.4648C48.2095 90.4648 51.5328 94.076 52.8358 97.3993C54.1387 100.723 57.1692 110.087 57.6035 110.834C58.0379 111.581 58.7601 112.859 58.7601 112.859C58.7601 112.859 66.2704 110.834 67.8613 110.692C69.4522 110.551 71.0382 111.991 72.0483 113.869C73.0585 115.748 76.3867 121.38 74.9422 122.829C73.4977 124.278 60.9268 130.783 57.1692 132.218C53.4116 133.653 49.654 132.794 47.8972 129.778C46.1404 126.762 38.796 109.985 37.3515 106.081C35.9071 102.177 36.0486 99 36.6293 97.8434" stroke="#263238" stroke-linecap="round" stroke-linejoin="round"/>
<path d="M53.4116 122.395C54.1338 117.769 58.7796 112.859 58.7796 112.859C58.7796 112.859 53.5775 115.46 51.8402 117.627" stroke="#263238" stroke-linecap="round" stroke-linejoin="round"/>
<path d="M14.6351 223.201H237.485" stroke="#263238" stroke-linecap="round" stroke-linejoin="round"/>
</svg>
