<svg width="66" height="25" viewBox="0 0 66 25" fill="none" xmlns="http://www.w3.org/2000/svg">
<g clip-path="url(#clip0_66_2421)">
<rect y="0.447266" width="65.625" height="24.1071" rx="4" fill="#E2E8F0"/>
<path d="M0 4.44727C0 2.23813 1.79086 0.447266 4 0.447266H24.7642V24.5544H4C1.79086 24.5544 0 22.7635 0 20.5544V4.44727Z" fill="#2050E0"/>
<path d="M12.3821 4.0625L12.6629 4.94721H13.5717L12.8365 5.49397L13.1173 6.37868L12.3821 5.83157L11.647 6.37868L11.9278 5.49397L11.1924 4.94721H12.1012L12.3821 4.0625Z" fill="#F8D12E"/>
<path d="M12.3821 18.6211L12.6629 19.5061H13.5717L12.8365 20.0527L13.1173 20.9373L12.3821 20.3906L11.647 20.9373L11.9278 20.0527L11.1924 19.5061H12.1012L12.3821 18.6211Z" fill="#F8D12E"/>
<path d="M16.1209 5.38672L16.4016 6.27142H17.3106L16.5752 6.8184L16.8561 7.7029L16.1209 7.15592L15.3856 7.7029L15.6664 6.8184L14.9313 6.27142H15.8402L16.1209 5.38672Z" fill="#F8D12E"/>
<path d="M19.1438 14.9102L19.4244 15.7952H20.3333L19.598 16.3419L19.879 17.2263L19.1438 16.6798L18.4084 17.2263L18.6893 16.3419L17.954 15.7952H18.8629L19.1438 14.9102Z" fill="#F8D12E"/>
<path d="M19.8599 11.3418L20.1406 12.2264H21.0495L20.3143 12.7731L20.5951 13.658L19.8599 13.1115L19.1247 13.658L19.4057 12.7731L18.6702 12.2264H19.5789L19.8599 11.3418Z" fill="#F8D12E"/>
<path d="M4.90442 11.3418L5.18512 12.2264H6.0939L5.35857 12.7731L5.63961 13.658L4.90442 13.1115L4.16904 13.658L4.44993 12.7731L3.7146 12.2264H4.62353L4.90442 11.3418Z" fill="#F8D12E"/>
<path d="M5.5235 14.9102L5.8042 15.7952H6.71298L5.97784 16.3419L6.25849 17.2263L5.5235 16.6798L4.78817 17.2263L5.06901 16.3419L4.33368 15.7952H5.24266L5.5235 14.9102Z" fill="#F8D12E"/>
<path d="M19.1438 7.67773L19.4244 8.56273H20.3333L19.598 9.10946L19.879 9.99391L19.1438 9.44739L18.4084 9.99391L18.6893 9.10946L17.954 8.56273H18.8629L19.1438 7.67773Z" fill="#F8D12E"/>
<path d="M5.83307 7.67773L6.11377 8.56273H7.02255L6.28741 9.10946L6.56806 9.99391L5.83307 9.44739L5.09774 9.99391L5.37858 9.10946L4.64325 8.56273H5.55223L5.83307 7.67773Z" fill="#F8D12E"/>
<path d="M16.8009 17.959L17.0815 18.8436H17.9904L17.255 19.3906L17.536 20.2752L16.8009 19.7285L16.0654 20.2752L16.3465 19.3906L15.6111 18.8436H16.52L16.8009 17.959Z" fill="#F8D12E"/>
<path d="M8.64317 5.38672L8.92381 6.27142H9.83279L9.09746 6.8184L9.3785 7.7029L8.64317 7.15592L7.90798 7.7029L8.18882 6.8184L7.45349 6.27142H8.36228L8.64317 5.38672Z" fill="#F8D12E"/>
<path d="M7.96326 17.959L8.24408 18.844H9.15298L8.41771 19.3905L8.69853 20.2752L7.96326 19.7288L7.22813 20.2752L7.50895 19.3905L6.77368 18.844H7.68239L7.96326 17.959Z" fill="#F8D12E"/>
<path fill-rule="evenodd" clip-rule="evenodd" d="M29.0979 9.84593C29.0979 11.5479 30.4371 12.6157 32.0823 12.6157C33.1239 12.6157 33.9258 12.2062 34.521 11.572V9.47663H31.8591V10.6247H33.1239V11.0743C32.9007 11.2509 32.5122 11.3954 32.0823 11.3954C31.1812 11.3954 30.5446 10.721 30.5446 9.84593C30.5446 8.97085 31.1812 8.29647 32.0823 8.29647C32.6031 8.29647 33.0247 8.57746 33.2479 8.93071L34.4384 8.32056C34.0333 7.65421 33.2893 7.07617 32.0823 7.07617C30.4371 7.07617 29.0979 8.14393 29.0979 9.84593ZM35.356 12.5193V7.16448H37.6707C39.4068 7.16448 40.6551 8.17605 40.6551 9.8379C40.6551 11.4998 39.4068 12.5193 37.679 12.5193H35.356ZM36.7779 11.3151H37.6707C38.638 11.3151 39.2001 10.6327 39.2001 9.8379C39.2001 9.01099 38.6876 8.36873 37.679 8.36873H36.7779V11.3151ZM41.3661 12.5193V7.16448H44.1272C45.3673 7.16448 46.0452 7.97534 46.0452 8.94676C46.0452 9.91016 45.3673 10.705 44.1272 10.705H42.788V12.5193H41.3661ZM44.5985 8.93873C44.5985 8.56943 44.3174 8.32858 43.9371 8.32858H42.788V9.53283H43.9371C44.3174 9.53283 44.5985 9.30001 44.5985 8.93873ZM49.757 12.5193L48.8311 10.705H48.1036V12.5193H46.6817V7.16448H49.4429C50.6664 7.16448 51.3608 7.95125 51.3608 8.94676C51.3608 9.87804 50.7739 10.3758 50.2613 10.5524L51.3856 12.5193H49.757ZM49.9141 8.93071C49.9141 8.5614 49.6 8.32858 49.228 8.32858H48.1036V9.53283H49.228C49.6 9.53283 49.9141 9.30001 49.9141 8.93071Z" fill="#2B3945"/>
<path fill-rule="evenodd" clip-rule="evenodd" d="M14.0625 11.9812H14.3278C14.6208 11.9812 14.8585 12.2205 14.8585 12.5154V14.6521C14.8585 14.9471 14.6208 15.1863 14.3278 15.1863H10.4363C10.1433 15.1863 9.90564 14.9471 9.90564 14.6521V12.5154C9.90564 12.2205 10.1433 11.9812 10.4363 11.9812H10.7016V11.1799C10.7016 10.2473 11.4556 9.48828 12.3821 9.48828C13.3085 9.48828 14.0625 10.2473 14.0625 11.1799V11.9812ZM11.5861 11.1799V11.9812H13.178V11.1799C13.178 10.7381 12.821 10.3786 12.3821 10.3786C11.9432 10.3786 11.5861 10.7381 11.5861 11.1799Z" fill="white"/>
<path d="M32.2812 16.4259C32.2549 16.343 32.2187 16.2668 32.1727 16.1973C32.1267 16.1277 32.0675 16.0676 31.9952 16.0168C31.9229 15.966 31.8374 15.9272 31.7388 15.9005C31.6434 15.8711 31.5317 15.8564 31.4035 15.8564C31.2161 15.8564 31.0533 15.8871 30.9153 15.9486C30.7805 16.0101 30.6703 16.093 30.5849 16.1973C30.4994 16.2989 30.4353 16.4152 30.3926 16.5462C30.3531 16.6772 30.3334 16.8109 30.3334 16.9473C30.3334 17.0836 30.3531 17.2173 30.3926 17.3483C30.4353 17.4794 30.4994 17.597 30.5849 17.7013C30.6703 17.8029 30.7805 17.8844 30.9153 17.9459C31.0533 18.0074 31.2161 18.0382 31.4035 18.0382C31.5415 18.0382 31.6632 18.0195 31.7684 17.982C31.8736 17.9419 31.964 17.8884 32.0396 17.8216C32.1152 17.7521 32.1744 17.6719 32.2171 17.581C32.2598 17.49 32.2878 17.3925 32.3009 17.2882H32.9025C32.8894 17.4593 32.8434 17.6157 32.7645 17.7574C32.6888 17.8991 32.5853 18.0221 32.4538 18.1264C32.3223 18.228 32.1678 18.3069 31.9903 18.363C31.8127 18.4192 31.6171 18.4473 31.4035 18.4473C31.1405 18.4473 30.9038 18.4085 30.6934 18.331C30.4862 18.2507 30.3104 18.1425 30.1657 18.0061C30.0211 17.8697 29.9093 17.7106 29.8304 17.5288C29.7548 17.347 29.717 17.1531 29.717 16.9473C29.717 16.7441 29.7548 16.5515 29.8304 16.3697C29.9093 16.1879 30.0211 16.0288 30.1657 15.8925C30.3104 15.7561 30.4862 15.6478 30.6934 15.5676C30.9038 15.4874 31.1405 15.4473 31.4035 15.4473C31.6007 15.4473 31.7864 15.47 31.9607 15.5154C32.1349 15.5582 32.2878 15.6224 32.4193 15.708C32.5541 15.7908 32.6625 15.8925 32.7447 16.0128C32.8269 16.1331 32.8779 16.2708 32.8976 16.4259H32.2812Z" fill="#2B3945"/>
<path d="M35.0855 15.8564C34.8981 15.8564 34.7354 15.8871 34.5973 15.9486C34.4625 16.0101 34.3524 16.093 34.2669 16.1973C34.1814 16.2989 34.1173 16.4152 34.0746 16.5462C34.0351 16.6772 34.0154 16.8109 34.0154 16.9473C34.0154 17.0836 34.0351 17.2173 34.0746 17.3483C34.1173 17.4794 34.1814 17.597 34.2669 17.7013C34.3524 17.8029 34.4625 17.8844 34.5973 17.9459C34.7354 18.0074 34.8981 18.0382 35.0855 18.0382C35.2729 18.0382 35.4339 18.0074 35.5687 17.9459C35.7068 17.8844 35.8186 17.8029 35.9041 17.7013C35.9895 17.597 36.052 17.4794 36.0914 17.3483C36.1342 17.2173 36.1555 17.0836 36.1555 16.9473C36.1555 16.8109 36.1342 16.6772 36.0914 16.5462C36.052 16.4152 35.9895 16.2989 35.9041 16.1973C35.8186 16.093 35.7068 16.0101 35.5687 15.9486C35.4339 15.8871 35.2729 15.8564 35.0855 15.8564ZM35.0855 15.4473C35.3485 15.4473 35.5835 15.4874 35.7906 15.5676C36.001 15.6478 36.1786 15.7561 36.3232 15.8925C36.4679 16.0288 36.578 16.1879 36.6536 16.3697C36.7325 16.5515 36.7719 16.7441 36.7719 16.9473C36.7719 17.1531 36.7325 17.347 36.6536 17.5288C36.578 17.7106 36.4679 17.8697 36.3232 18.0061C36.1786 18.1425 36.001 18.2507 35.7906 18.331C35.5835 18.4085 35.3485 18.4473 35.0855 18.4473C34.8225 18.4473 34.5858 18.4085 34.3754 18.331C34.1683 18.2507 33.9924 18.1425 33.8477 18.0061C33.7031 17.8697 33.5913 17.7106 33.5124 17.5288C33.4368 17.347 33.399 17.1531 33.399 16.9473C33.399 16.7441 33.4368 16.5515 33.5124 16.3697C33.5913 16.1879 33.7031 16.0288 33.8477 15.8925C33.9924 15.7561 34.1683 15.6478 34.3754 15.5676C34.5858 15.4874 34.8225 15.4473 35.0855 15.4473Z" fill="#2B3945"/>
<path d="M37.4464 15.5154H38.3143L39.2857 17.7574H39.2956L40.2424 15.5154H41.1004V18.3791H40.5136V16.1692H40.5037L39.5273 18.3791H39.0194L38.043 16.1692H38.0332V18.3791H37.4464V15.5154Z" fill="#2B3945"/>
<path d="M41.9617 15.5154H43.5151C43.7649 15.5154 43.9687 15.5449 44.1265 15.6037C44.2843 15.6625 44.406 15.736 44.4914 15.8243C44.5769 15.9125 44.6344 16.0088 44.664 16.113C44.6969 16.2173 44.7133 16.3136 44.7133 16.4018C44.7133 16.49 44.6969 16.5863 44.664 16.6906C44.6344 16.7922 44.5769 16.8871 44.4914 16.9753C44.406 17.0636 44.2843 17.1371 44.1265 17.1959C43.9687 17.2521 43.7649 17.2802 43.5151 17.2802H42.5781V18.3791H41.9617V15.5154ZM42.5781 16.8711H43.4805C43.5496 16.8711 43.6203 16.863 43.6926 16.847C43.7649 16.831 43.8306 16.8056 43.8898 16.7708C43.9523 16.7334 44.0016 16.6852 44.0378 16.6264C44.0772 16.5649 44.0969 16.4887 44.0969 16.3978C44.0969 16.3042 44.0805 16.2267 44.0476 16.1652C44.0147 16.1037 43.9704 16.0556 43.9145 16.0208C43.8586 15.9834 43.7945 15.958 43.7222 15.9446C43.6498 15.9312 43.5726 15.9245 43.4904 15.9245H42.5781V16.8711Z" fill="#2B3945"/>
<path d="M45.3741 15.5154H45.9905V17.9459H47.7805V18.3791H45.3741V15.5154Z" fill="#2B3945"/>
<path d="M48.3289 15.5154H48.9453V18.3791H48.3289V15.5154Z" fill="#2B3945"/>
<path d="M50.7665 15.5154H51.4224L52.7785 18.3791H52.1177L51.7873 17.6211H50.3819L50.0515 18.3791H49.4154L50.7665 15.5154ZM50.5496 17.24H51.6246L51.0969 16.0088H51.0821L50.5496 17.24Z" fill="#2B3945"/>
<path d="M53.2124 15.5154H53.8633L55.4709 17.6251H55.4807V15.5154H56.0675V18.3791H55.4166L53.814 16.2735H53.7992V18.3791H53.2124V15.5154Z" fill="#2B3945"/>
<path d="M56.5837 15.5154H59.434V15.9486H58.3146V18.3791H57.6982V15.9486H56.5837V15.5154Z" fill="#2B3945"/>
</g>
<defs>
<clipPath id="clip0_66_2421">
<rect width="65.625" height="24.1071" fill="white" transform="translate(0 0.447266)"/>
</clipPath>
</defs>
</svg>
