<svg width="76" height="75" viewBox="0 0 76 75" fill="none" xmlns="http://www.w3.org/2000/svg">
<path d="M60.4562 38.6034C59.3289 38.6034 58.4086 37.6831 58.4086 36.5558C58.4086 35.417 59.3289 34.5083 60.4562 34.5083C61.5835 34.5083 62.5037 35.4285 62.5037 36.5558C62.5153 37.6831 61.595 38.6034 60.4562 38.6034ZM60.4562 32.5527C58.2476 32.5527 56.4531 34.3472 56.4531 36.5558C56.4531 38.7644 58.2476 40.5589 60.4562 40.5589C62.6648 40.5589 64.4593 38.7644 64.4593 36.5558C64.4593 34.3357 62.6648 32.5527 60.4562 32.5527Z" fill="#E2E4E9"/>
<path d="M42.0743 38.6034C40.947 38.6034 40.0267 37.6831 40.0267 36.5558C40.0267 35.417 40.947 34.5083 42.0743 34.5083C43.2016 34.5083 44.1218 35.4285 44.1218 36.5558C44.1218 37.6831 43.2016 38.6034 42.0743 38.6034ZM42.0743 32.5527C39.8657 32.5527 38.0712 34.3472 38.0712 36.5558C38.0712 38.7644 39.8657 40.5589 42.0743 40.5589C44.2829 40.5589 46.0774 38.7644 46.0774 36.5558C46.0659 34.3357 44.2829 32.5527 42.0743 32.5527Z" fill="#E2E4E9"/>
<path d="M56.2001 38.7199C55.947 38.7889 55.5559 38.8694 55.4179 38.8694C54.7277 38.8694 54.5896 38.6279 54.5896 37.9837V34.2797H56.2231V32.7383H54.5896V30.5527H52.7492L52.358 32.7383H51.0812H50.9777C49.9309 32.7383 49.1372 33.3825 48.6311 34.3833L47.9984 32.7383H46.6755V40.4109H48.9301V37.075C48.9301 35.3955 49.9309 34.3142 51.1042 34.2797H52.335V38.0987C52.335 39.8932 53.2553 40.5604 54.7507 40.5604C55.5214 40.5604 56.1195 40.3994 56.4761 40.2843L56.2001 38.7199Z" fill="#E2E4E9"/>
<path d="M67.197 35.1537V40.4106H64.9999V32.7266H66.3342L66.7828 33.8999" fill="#E2E4E9"/>
<path d="M66.7714 33.9101C67.4385 33.1394 68.3473 32.5527 69.4171 32.5527C71.2461 32.5527 71.9938 34.0136 71.9938 35.3595V40.4093H69.7392V35.4285C69.7392 34.7728 69.187 34.4162 68.6004 34.4162C67.9677 34.4162 67.5651 34.7843 67.2085 35.1639" fill="#E2E4E9"/>
<path d="M29.3174 29.9531H31.8366L35.2875 36.5214V29.9531H37.3695V40.4094H35.0919L31.3994 33.174V40.4094H29.3174V29.9531Z" fill="#E2E4E9"/>
<path d="M71.9938 32.7383V32.8878H72.2008V33.6125H72.3734V32.8878H72.5919V32.7383H71.9938Z" fill="#E2E4E9"/>
<path d="M73.2476 32.7383L73.0981 33.3134L72.937 32.7383H72.707V33.6125H72.8565V32.9223L73.0406 33.6125H73.1556L73.3396 32.9223V33.6125H73.4777V32.7383H73.2476Z" fill="#E2E4E9"/>
<path d="M32.0436 46.5768C32.0436 45.9096 31.8366 45.1274 31.0774 45.1274C30.7208 45.1274 30.3987 45.2885 30.1111 45.5875V47.7846C30.3757 48.0722 30.6172 48.2217 30.9853 48.2217C31.664 48.2102 32.0436 47.6236 32.0436 46.5768ZM29.9616 48.2102L29.8005 48.7049H29.3864V42.9648H30.1111V45.0584C30.3527 44.7938 30.7438 44.5178 31.2384 44.5178C32.3312 44.5178 32.8143 45.599 32.8143 46.5768C32.8143 47.8882 32.1356 48.7739 31.1234 48.7739C30.5942 48.7739 30.2376 48.5553 29.9616 48.2102Z" fill="#A0A0A0"/>
<path d="M33.2745 44.5977H34.0107C34.0107 44.5977 35.0459 48.0601 35.0459 48.0716L36.0122 44.5977H36.7254L35.345 49.0148C35.1035 49.774 34.7009 50.1997 33.9071 50.1997C33.7461 50.1997 33.5736 50.1766 33.4125 50.1306L33.5045 49.613C33.6081 49.6245 33.7116 49.659 33.8496 49.659C34.2752 49.659 34.5973 49.4635 34.7584 48.9573L33.2745 44.5977Z" fill="#A0A0A0"/>
<path d="M38.8764 48.1067L39.233 47.6006C39.5896 47.8652 40.0958 48.1527 40.855 48.1527C41.6027 48.1527 42.0398 47.7961 42.0398 47.175C42.0398 46.4848 41.5106 46.2662 40.7514 46.0017C39.9347 45.7141 39.187 45.346 39.187 44.2992C39.187 43.3675 39.9232 42.8613 40.8895 42.8613C41.5797 42.8613 41.9823 42.9764 42.4309 43.2294L42.1318 43.7816C41.7752 43.586 41.3956 43.471 40.878 43.471C40.2683 43.471 39.8542 43.7126 39.8542 44.2877C39.8542 44.8974 40.2568 45.0929 41.0965 45.392C41.9017 45.6681 42.753 46.0247 42.753 47.152C42.753 48.1527 42.0398 48.7509 40.8665 48.7509C39.9117 48.7739 39.256 48.4288 38.8764 48.1067Z" fill="#A0A0A0"/>
<path d="M43.1671 44.5977H43.9033C43.9033 44.5977 44.9386 48.0601 44.9386 48.0716L45.9048 44.5977H46.618L45.2376 49.0148C44.9961 49.774 44.5935 50.1997 43.7998 50.1997C43.6387 50.1997 43.4662 50.1766 43.3051 50.1306L43.3971 49.613C43.5007 49.6245 43.6042 49.659 43.7422 49.659C44.1679 49.659 44.4899 49.4635 44.651 48.9573L43.1671 44.5977Z" fill="#A0A0A0"/>
<path d="M51.7139 44.5176C52.5421 44.5176 52.7606 45.2193 52.7606 45.898V48.7047H52.0359V45.898C52.0359 45.4953 51.9669 45.1272 51.4723 45.1272C51.1387 45.1272 50.7821 45.3343 50.4255 45.6909V48.7047H49.7008V45.898C49.7008 45.4953 49.6318 45.1272 49.1372 45.1272C48.7921 45.1272 48.424 45.3688 48.0904 45.7024V48.7047H47.3657V44.5981H47.7913L47.9754 45.2653C48.355 44.8512 48.8151 44.5176 49.3672 44.5176C49.9194 44.5176 50.1494 44.8167 50.3105 45.2308C50.6901 44.8052 51.1847 44.5176 51.7139 44.5176Z" fill="#A0A0A0"/>
<path d="M56.108 46.5881C55.2913 46.7377 54.7622 46.9102 54.5551 47.1633C54.4516 47.2898 54.4286 47.4049 54.4286 47.5774C54.4286 47.98 54.6241 48.2101 55.0613 48.2101C55.4754 48.2101 55.8435 48.003 56.108 47.8075V46.5881ZM56.108 45.9325C56.108 45.3803 55.9355 45.1042 55.3373 45.1042C54.9232 45.1042 54.5551 45.2653 54.164 45.4608L53.8994 44.9777C54.3251 44.7131 54.7852 44.5176 55.3833 44.5176C56.4071 44.5176 56.8097 45.0697 56.8097 45.99V48.7162H56.3956L56.2116 48.2216C55.924 48.5092 55.4754 48.7737 54.9462 48.7737C54.2215 48.7737 53.6924 48.3251 53.6924 47.6349C53.6924 47.1863 53.8649 46.8642 54.2445 46.6341C54.6126 46.4041 55.2683 46.243 56.108 46.1165V45.9325Z" fill="#A0A0A0"/>
<path d="M58.0175 44.5981H58.4431L58.6272 45.2768C59.0068 44.8512 59.4899 44.5176 60.0996 44.5176C60.9853 44.5176 61.2154 45.2193 61.2154 45.898V48.7047H60.4907V45.898C60.4907 45.4953 60.3872 45.1272 59.858 45.1272C59.4784 45.1272 59.0758 45.3688 58.7422 45.7139V48.7047H58.0175V44.5981Z" fill="#A0A0A0"/>
<path d="M61.9861 45.1033V44.5971H62.6188L62.8028 43.4238H63.3204V44.5971H64.2407V45.1033H63.3204V47.634C63.3204 48.0136 63.3895 48.2206 63.7806 48.2206C63.9416 48.2206 64.0681 48.1861 64.2522 48.1401L64.3557 48.6347C64.1947 48.7037 63.9416 48.7613 63.6885 48.7613C62.9408 48.7613 62.6072 48.4047 62.6072 47.6685V45.0918H61.9861V45.1033Z" fill="#A0A0A0"/>
<path d="M67.4615 46.3696C67.4385 45.5068 67.151 45.0582 66.5758 45.0582C66.0582 45.0582 65.7131 45.4608 65.6556 46.3696H67.4615ZM66.6793 48.1986C67.151 48.1986 67.45 48.0145 67.7951 47.796L68.0942 48.2331C67.6916 48.5552 67.3235 48.7737 66.6103 48.7737C65.552 48.7737 64.8734 47.957 64.8734 46.6572C64.8734 45.3918 65.529 44.5176 66.5528 44.5176C67.6111 44.5176 68.1747 45.3113 68.1747 46.6802V46.8527H65.6211C65.6786 47.7269 65.9892 48.1986 66.6793 48.1986Z" fill="#A0A0A0"/>
<path d="M68.8419 46.6802C68.8419 45.6219 69.3136 44.5176 70.5789 44.5176C71.1081 44.5176 71.4992 44.6441 71.8673 44.9547L71.5567 45.4378C71.2921 45.2423 70.9815 45.1042 70.5904 45.1042C69.7277 45.1042 69.6011 45.99 69.6011 46.6917C69.6011 47.3703 69.7507 48.1986 70.6134 48.1986C71.0275 48.1986 71.3151 48.0375 71.5912 47.8075L71.9363 48.2331C71.6372 48.5322 71.2231 48.7852 70.5789 48.7852C69.3251 48.7737 68.8419 47.7039 68.8419 46.6802Z" fill="#A0A0A0"/>
<path d="M13.7307 31.1966C11.5452 31.1966 9.4861 32.0478 7.93319 33.6008C6.38027 35.1537 5.52905 37.2127 5.52905 39.3983C5.52905 41.5839 6.38027 43.6429 7.93319 45.1959C9.4861 46.7488 11.5452 47.6 13.7307 47.6C15.9163 47.6 17.9754 46.7488 19.5283 45.1959C21.0697 43.6429 21.9209 41.5839 21.9324 39.3983C21.9324 37.2127 21.0812 35.1537 19.5283 33.6008C17.9754 32.0594 15.9163 31.1966 13.7307 31.1966ZM13.7307 51.3845C7.12797 51.3845 1.74454 46.0011 1.74454 39.3983C1.74454 32.784 7.12797 27.4121 13.7307 27.4121C20.3335 27.4121 25.7169 32.784 25.7169 39.3983C25.7169 46.0011 20.3335 51.3845 13.7307 51.3845Z" fill="#FFC20E"/>
<path d="M27.7185 25.5605H26.7867V26.4923H27.7185V25.5605Z" fill="#FFC20E"/>
<path d="M27.7185 23.6973H26.7867V24.629H27.7185V23.6973Z" fill="#FFC20E"/>
<path d="M25.0383 26.4922H24.164V27.4009H25.0383V26.4922Z" fill="white"/>
<path d="M23.3128 28.2852H22.427V29.1594H23.3128V28.2852Z" fill="#E2E4E9"/>
<path d="M26.0045 27.4004H25.0267V28.2746H26.0045V27.4004Z" fill="#E2E4E9"/>
<path d="M22.4271 27.4453H21.5528V28.285H22.4271V27.4453Z" fill="#E2E4E9"/>
<path d="M25.0383 28.2852H24.164V29.1594H25.0383V28.2852Z" fill="#E2E4E9"/>
<path d="M26.7867 24.6387H25.8665V25.5704H26.7867V24.6387Z" fill="#E2E4E9"/>
<path d="M25.8665 25.5605H24.164V26.4923H25.8665V25.5605Z" fill="#E2E4E9"/>
<path d="M24.164 26.4922H23.3128V28.2867H24.164V26.4922Z" fill="#E2E4E9"/>
<path d="M23.3128 29.1602V30.0344H22.4271V29.1602H20.9662V29.7928H20.184V30.575H21.0582V31.4493H20.184V30.575H19.2522V31.9439H18.378V32.8181H17.7913V33.6924H17.1472C16.4225 34.7621 14.628 38.098 14.0758 39.4554C12.1088 36.7177 10.5789 35.6364 9.38258 35.2453C8.73841 35.0497 7.9562 35.7514 9.02598 36.8672C11.4991 39.5934 12.2814 41.8365 13.0291 43.6425C13.4317 44.5858 15.2146 44.7353 15.5712 43.7691C16.3304 41.733 17.4347 39.4324 18.7461 37.5574V36.5796H19.4478V35.7054H20.184V34.6816H21.0582V33.7039H20.1725V32.8066H21.0582V33.7039H21.9209V32.8181H22.6111V31.7483H23.3933V31.0122H24.141V29.1602H23.3128Z" fill="#E2E4E9"/>
</svg>
