<svg width="57" height="23" viewBox="0 0 57 23" fill="none" xmlns="http://www.w3.org/2000/svg">
<g clip-path="url(#clip0_66_2412)">
<path d="M4.09598 9.14475C4.09598 8.58934 4.59598 8.37572 5.4241 8.37572C6.6116 8.37572 8.1116 8.70327 9.2991 9.28716V5.94047C8.00223 5.47051 6.72098 5.28538 5.4241 5.28538C2.25223 5.28538 0.142853 6.79495 0.142853 9.31564C0.142853 13.2462 6.08035 12.6196 6.08035 14.3143C6.08035 14.9694 5.45535 15.183 4.58035 15.183C3.28348 15.183 1.62723 14.6988 0.314728 14.0437V17.4331C1.76785 18.0028 3.2366 18.2449 4.58035 18.2449C7.83035 18.2449 10.0647 16.778 10.0647 14.2289C10.0491 9.98498 4.09598 10.7398 4.09598 9.14475ZM14.6585 2.43714L10.846 3.17768L10.8304 14.5849C10.8304 16.6926 12.5647 18.2449 14.8772 18.2449C16.1585 18.2449 17.096 18.0313 17.6116 17.7749V14.884C17.1116 15.0691 14.6429 15.7242 14.6429 13.6165V8.56086H17.6116V5.52748H14.6429L14.6585 2.43714ZM22.471 6.58133L22.221 5.52748H18.846V17.9885H22.7522V9.5435C23.6741 8.44693 25.2366 8.6463 25.721 8.80296V5.52748C25.221 5.35658 23.3929 5.04328 22.471 6.58133ZM26.6741 5.52748H30.596V17.9885H26.6741V5.52748ZM26.6741 4.44515L30.596 3.67612V0.785156L26.6741 1.53994V4.44515ZM38.7522 5.28538C37.221 5.28538 36.2366 5.94047 35.6897 6.39619L35.4866 5.51324H32.0491V22.1185L35.9554 21.3637L35.971 17.3334C36.5335 17.7037 37.3616 18.2306 38.7366 18.2306C41.5335 18.2306 44.0804 16.1799 44.0804 11.6654C44.0647 7.53549 41.4866 5.28538 38.7522 5.28538ZM37.8147 15.0976C36.8929 15.0976 36.346 14.7985 35.971 14.4282L35.9554 9.14475C36.3616 8.73175 36.9241 8.44693 37.8147 8.44693C39.2366 8.44693 40.221 9.89953 40.221 11.7651C40.221 13.6735 39.2522 15.0976 37.8147 15.0976ZM56.3929 11.8079C56.3929 8.1621 54.4554 5.28538 50.7522 5.28538C47.0335 5.28538 44.7835 8.1621 44.7835 11.7794C44.7835 16.066 47.4397 18.2306 51.2522 18.2306C53.1116 18.2306 54.5179 17.8461 55.5804 17.305V14.4567C54.5179 14.9409 53.2991 15.24 51.7522 15.24C50.2366 15.24 48.8929 14.7558 48.721 13.0753H56.3616C56.3616 12.8902 56.3929 12.1496 56.3929 11.8079ZM48.6741 10.4549C48.6741 8.84568 49.7522 8.17634 50.7366 8.17634C51.6897 8.17634 52.7054 8.84568 52.7054 10.4549H48.6741Z" fill="#6772E5"/>
</g>
<defs>
<clipPath id="clip0_66_2412">
<rect width="56.25" height="21.4286" fill="white" transform="translate(0.142853 0.785156)"/>
</clipPath>
</defs>
</svg>
