<svg width="82" height="21" viewBox="0 0 82 21" fill="none" xmlns="http://www.w3.org/2000/svg">
<path fill-rule="evenodd" clip-rule="evenodd" d="M7.23618 5.28906H12.7776C15.7528 5.28906 16.8728 6.86003 16.6997 9.168C16.4137 12.9783 14.2051 15.0864 11.2756 15.0864H9.79661C9.39466 15.0864 9.12431 15.3639 9.0156 16.1158L8.38766 20.4871C8.34617 20.7705 8.20314 20.9346 7.98857 20.957H4.50697C4.1794 20.957 4.06354 20.6959 4.14937 20.1305L6.27209 6.11707C6.35505 5.55612 6.64971 5.28906 7.23618 5.28906Z" fill="#009EE3"/>
<path fill-rule="evenodd" clip-rule="evenodd" d="M31.294 5.0293C33.1636 5.0293 34.8887 6.08709 34.6526 8.72337C34.3666 11.8565 32.7573 13.5901 30.2184 13.5976H27.9998C27.6808 13.5976 27.5263 13.8691 27.4434 14.4256L27.0143 17.2708C26.9499 17.7004 26.7382 17.9123 26.4264 17.9123H24.3623C24.0333 17.9123 23.9189 17.693 23.9918 17.2021L25.6954 5.79914C25.7798 5.23817 25.9815 5.0293 26.3491 5.0293H31.2897H31.294ZM27.9326 11.1344H29.6133C30.6647 11.0926 31.3627 10.3332 31.4328 8.96357C31.4757 8.11764 30.9279 7.5119 30.0567 7.51638L28.4747 7.52384L27.9326 11.1344ZM40.2641 17.0395C40.4529 16.8605 40.6446 16.768 40.6174 16.9888L40.5502 17.5169C40.5159 17.7929 40.6203 17.9392 40.8663 17.9392H42.7001C43.0091 17.9392 43.1593 17.8094 43.2351 17.311L44.3651 9.91394C44.4223 9.54245 44.3351 9.36043 44.0647 9.36043H42.0479C41.8662 9.36043 41.7775 9.46636 41.7303 9.7558L41.6559 10.2108C41.6173 10.4481 41.5129 10.4898 41.4156 10.2511C41.0737 9.40668 40.2012 9.02773 38.9839 9.05757C36.156 9.11874 34.2493 11.3582 34.0447 14.2287C33.8874 16.4487 35.4122 18.1928 37.4233 18.1928C38.8824 18.1928 39.5346 17.7452 40.2699 17.044L40.2641 17.0395ZM38.7279 15.9011C37.5106 15.9011 36.6624 14.8881 36.8383 13.6468C37.0142 12.4055 38.1529 11.3925 39.3701 11.3925C40.5874 11.3925 41.4356 12.4055 41.2597 13.6468C41.0838 14.8881 39.9466 15.9011 38.7279 15.9011ZM47.954 9.33656H46.0945C45.7111 9.33656 45.5552 9.63495 45.6768 10.002L47.9855 17.0529L45.7211 20.4083C45.5309 20.6888 45.6782 20.9439 45.9457 20.9439H48.0355C48.1573 20.9586 48.2806 20.9365 48.3907 20.8801C48.5008 20.8238 48.593 20.7356 48.6563 20.6262L55.7569 10.0035C55.9757 9.67673 55.8728 9.33358 55.5137 9.33358H53.5355C53.1965 9.33358 53.0606 9.47382 52.866 9.76774L49.9051 14.2436L48.582 9.75729C48.5047 9.48576 48.3116 9.33656 47.9554 9.33656H47.954Z" fill="#113984"/>
<path fill-rule="evenodd" clip-rule="evenodd" d="M63.1435 5.02838C65.013 5.02838 66.7381 6.08618 66.5021 8.72248C66.216 11.8556 64.6068 13.5893 62.0678 13.5967H59.8507C59.5317 13.5967 59.3772 13.8683 59.2942 14.4248L58.8651 17.2699C58.8008 17.6996 58.5891 17.9115 58.2772 17.9115H56.2131C55.8841 17.9115 55.7697 17.6922 55.8427 17.2013L57.5491 5.79525C57.6335 5.23427 57.8352 5.02539 58.2028 5.02539H63.1435V5.02838ZM59.782 11.1335H61.4627C62.5141 11.0917 63.2121 10.3323 63.2822 8.96269C63.3251 8.11674 62.7773 7.511 61.9062 7.51548L60.3241 7.52294L59.782 11.1335ZM72.1136 17.0387C72.3024 16.8597 72.494 16.7672 72.4669 16.988L72.3996 17.5161C72.3653 17.7921 72.4697 17.9383 72.7158 17.9383H74.5495C74.8585 17.9383 75.0087 17.8085 75.0845 17.3102L76.2145 9.91307C76.2717 9.54157 76.1845 9.35955 75.9142 9.35955H73.9001C73.7185 9.35955 73.6298 9.46548 73.5826 9.75492L73.5082 10.21C73.4696 10.4472 73.3652 10.489 73.2679 10.2503C72.926 9.4058 72.0535 9.02684 70.8362 9.05668C68.0083 9.11785 66.1016 11.3573 65.897 14.2278C65.7397 16.4479 67.2645 18.192 69.2756 18.192C70.7346 18.192 71.3869 17.7444 72.1221 17.0432L72.1136 17.0387ZM70.5787 15.9003C69.3615 15.9003 68.5132 14.8873 68.6892 13.646C68.8651 12.4047 70.0037 11.3916 71.221 11.3916C72.4383 11.3916 73.2865 12.4047 73.1105 13.646C72.9346 14.8873 71.796 15.9003 70.5787 15.9003ZM79.0367 17.9503H76.9197C76.8829 17.952 76.8462 17.9452 76.8122 17.9304C76.7781 17.9156 76.7477 17.8932 76.7229 17.8646C76.6982 17.8361 76.6798 17.8023 76.6691 17.7655C76.6583 17.7287 76.6555 17.6899 76.6608 17.6519L78.5203 5.36407C78.5381 5.28021 78.5825 5.20508 78.6464 5.1509C78.7103 5.09672 78.7899 5.06669 78.8722 5.06568H80.9892C81.0261 5.06396 81.0628 5.07074 81.0968 5.08555C81.1308 5.10035 81.1613 5.12281 81.186 5.15131C81.2108 5.17982 81.2291 5.21367 81.2399 5.25045C81.2506 5.28722 81.2534 5.32602 81.2481 5.36407L79.3886 17.6519C79.3714 17.7363 79.3272 17.8121 79.2633 17.8669C79.1993 17.9216 79.1195 17.9521 79.0367 17.9533V17.9503Z" fill="#009EE3"/>
<path fill-rule="evenodd" clip-rule="evenodd" d="M3.77081 0.464844H9.31793C10.8799 0.464844 12.7337 0.517062 13.9725 1.65841C14.8007 2.42081 15.2355 3.63377 15.1354 4.94073C14.795 9.35844 12.2617 11.8336 8.86306 11.8336H6.12812C5.66181 11.8336 5.35427 12.1559 5.22267 13.0272L4.45884 18.0998C4.40877 18.4281 4.27288 18.622 4.02971 18.6459H0.606752C0.227694 18.6459 0.0932348 18.3475 0.191933 17.6881L2.65223 1.42865C2.75093 0.775171 3.09566 0.464844 3.77081 0.464844Z" fill="#113984"/>
<path fill-rule="evenodd" clip-rule="evenodd" d="M5.30212 12.5126L6.27051 6.11663C6.35491 5.55566 6.64957 5.28711 7.23604 5.28711H12.7774C13.6943 5.28711 14.4367 5.4363 15.0175 5.71231C14.461 9.64507 12.0222 11.8293 8.82951 11.8293H6.09886C5.73268 11.8308 5.46376 12.0217 5.30212 12.5126Z" fill="#172C70"/>
</svg>
