<svg width="40" height="32" viewBox="0 0 40 32" fill="none" xmlns="http://www.w3.org/2000/svg">
<g clip-path="url(#clip0_327_278)">
<path d="M37.75 7.94336H26.25C25.0063 7.94336 24 9.00586 24 10.2496V29.7496C24 30.9934 25.0063 31.9996 26.25 31.9996H37.75C38.9937 31.9996 40 30.9934 40 29.7496V10.2496C40 9.00586 38.9937 7.94336 37.75 7.94336ZM36 27.9996H28V11.9996H36V27.9996Z" fill="#651FFF"/>
<path opacity="0.4" d="M28 12V28H36V12H28ZM8 4H28V6H32V3C32 1.34375 30.6562 0.0075 29.0075 0H6.99375C5.34375 0.0078125 4 1.34375 4 3V18H1C0.445312 18 0 18.4438 0 19V20C0.0078125 22.2031 1.78938 23.9925 3.9925 24H22V18H8V4Z" fill="#651FFF"/>
</g>
<defs>
<clipPath id="clip0_327_278">
<rect width="40" height="32" fill="white"/>
</clipPath>
</defs>
</svg>
