<svg width="39" height="32" viewBox="0 0 39 32" fill="none" xmlns="http://www.w3.org/2000/svg">
<g clip-path="url(#clip0_327_281)">
<path d="M38.7136 28.8756L33.9982 24.0394C34.6838 22.8519 35.1006 21.4844 35.1006 20C35.1006 15.5781 31.6119 12 27.3006 12C22.9887 12 19.5006 15.5781 19.5006 20C19.5006 24.4219 22.9893 28 27.3006 28C28.7479 28 30.083 27.5703 31.2408 26.8675L35.9562 31.7038C36.337 32.0944 36.9592 32.0957 37.3401 31.7051L38.7136 30.2963C39.0975 29.9069 39.0975 29.2694 38.7136 28.8756ZM27.3 24.0006C25.144 24.0006 23.3994 22.2119 23.3994 20.0006C23.3994 17.7894 25.144 16.0006 27.3 16.0006C29.456 16.0006 31.2006 17.79 31.2006 20.0006C31.2006 22.2112 29.4572 24.0006 27.3 24.0006Z" fill="#651FFF"/>
<path opacity="0.4" d="M23.4 10.8438L23.4011 5.7125L21.7852 4H7.8V12H21.5048C19.1179 13.8231 17.5488 16.7131 17.5488 20C17.5488 20.6863 17.6188 21.3538 17.7495 22H7.8V28H21.5109C23.1349 29.24 25.1203 30 27.3006 30C27.3006 31.1044 26.428 32 25.3512 32H5.85C4.77323 32 3.9 31.1044 3.9 30L3.90006 24H1.95C0.873234 24 0 23.1063 0 22V16C0 13.7906 1.74647 12 3.9 12L3.90009 2C3.90009 0.895625 4.77454 0 5.85009 0H22.5957C23.1118 0 23.6091 0.210938 23.9747 0.585938L26.7322 3.41406C27.0978 3.78906 27.3034 4.29781 27.3034 4.82781L27.3 10C25.9106 10 24.5944 10.3062 23.4 10.8438Z" fill="#651FFF"/>
</g>
<defs>
<clipPath id="clip0_327_281">
<rect width="39" height="32" fill="white"/>
</clipPath>
</defs>
</svg>
