<svg width="32" height="32" viewBox="0 0 32 32" fill="none" xmlns="http://www.w3.org/2000/svg">
<g clip-path="url(#clip0_327_284)">
<path d="M3 2H12.3438C13.4062 2 14.4187 2.42125 15.1687 3.17188L25.6688 13.6687C27.2313 15.2312 27.2313 17.7687 25.6688 19.3312L17.3312 27.6688C15.7687 29.2313 13.2312 29.2313 11.6687 27.6688L1.17188 17.1688C0.421438 16.4188 0 15.4062 0 14.3438V5C0 3.34312 1.34312 2 3 2ZM7 11C8.10625 11 9 10.1062 9 9C9 7.89375 8.10625 7 7 7C5.89563 7 5 7.89375 5 9C5 10.1062 5.89563 11 7 11Z" fill="#651FFF"/>
<path opacity="0.4" d="M19.4438 2.43323C20.0313 1.85073 20.9813 1.85635 21.5063 2.44573L29.55 10.5251C32.8188 13.8376 32.8188 19.1626 29.55 22.4751L22.55 29.5564C21.9688 30.1439 21.0188 30.1501 20.4313 29.5689C19.8375 28.9876 19.8375 28.0376 20.4188 27.4439L27.4125 20.3689C29.5313 18.2251 29.5313 14.7751 27.4125 12.6314L19.4313 4.55448C18.8438 3.9651 18.85 3.01573 19.4438 2.43323Z" fill="#651FFF"/>
</g>
<defs>
<clipPath id="clip0_327_284">
<rect width="32" height="32" fill="white"/>
</clipPath>
</defs>
</svg>
