<svg width="36" height="36" viewBox="0 0 36 36" fill="none" xmlns="http://www.w3.org/2000/svg">
<path opacity="0.4" d="M31.5 0C33.982 0 36 2.01445 36 4.5V31.5C36 33.982 33.982 36 31.5 36H4.5C2.01445 36 0 33.982 0 31.5V13.5C0 11.018 2.01445 9 4.5 9H13.5V4.5C13.5 2.01445 15.518 0 18 0H31.5ZM4.5 23.625C4.5 24.2437 5.00344 24.75 5.625 24.75H7.875C8.49375 24.75 9 24.2437 9 23.625V21.375C9 20.7563 8.49375 20.25 7.875 20.25H5.625C5.00344 20.25 4.5 20.7563 4.5 21.375V23.625ZM21.375 22.5C21.9937 22.5 22.5 21.9937 22.5 21.375V19.125C22.5 18.5063 21.9937 18 21.375 18H19.125C18.5063 18 18 18.5063 18 19.125V21.375C18 21.9937 18.5063 22.5 19.125 22.5H21.375ZM27 21.375C27 21.9937 27.5063 22.5 28.125 22.5H30.375C30.9937 22.5 31.5 21.9937 31.5 21.375V19.125C31.5 18.5063 30.9937 18 30.375 18H28.125C27.5063 18 27 18.5063 27 19.125V21.375ZM5.625 13.5C5.00344 13.5 4.5 14.0063 4.5 14.625V16.875C4.5 17.4937 5.00344 18 5.625 18H7.875C8.49375 18 9 17.4937 9 16.875V14.625C9 14.0063 8.49375 13.5 7.875 13.5H5.625ZM18 7.875C18 8.49375 18.5063 9 19.125 9H21.375C21.9937 9 22.5 8.49375 22.5 7.875V5.625C22.5 5.00344 21.9937 4.5 21.375 4.5H19.125C18.5063 4.5 18 5.00344 18 5.625V7.875ZM28.125 4.5C27.5063 4.5 27 5.00344 27 5.625V7.875C27 8.49375 27.5063 9 28.125 9H30.375C30.9937 9 31.5 8.49375 31.5 7.875V5.625C31.5 5.00344 30.9937 4.5 30.375 4.5H28.125ZM18 14.625C18 15.2437 18.5063 15.75 19.125 15.75H21.375C21.9937 15.75 22.5 15.2437 22.5 14.625V12.375C22.5 11.7563 21.9937 11.25 21.375 11.25H19.125C18.5063 11.25 18 11.7563 18 12.375V14.625ZM30.375 15.75C30.9937 15.75 31.5 15.2437 31.5 14.625V12.375C31.5 11.7563 30.9937 11.25 30.375 11.25H28.125C27.5063 11.25 27 11.7563 27 12.375V14.625C27 15.2437 27.5063 15.75 28.125 15.75H30.375Z" fill="white"/>
</svg>
