<svg width="169" height="40" viewBox="0 0 169 40" fill="none" xmlns="http://www.w3.org/2000/svg">
<g clip-path="url(#clip0_55_853)">
<path d="M9.08646 19.4316C9.28757 19.4316 9.57617 19.476 10.4067 20.0156C10.945 20.3655 11.4557 20.7571 11.9344 21.1869L11.909 26.1064C13.3386 26.085 14.4726 26.0935 15.2636 26.1064C16.0546 26.1193 16.8534 26.0707 17.6487 26.0613C18.1445 26.0631 18.639 26.0081 19.1227 25.8975C19.3828 25.8368 19.639 25.7598 19.8898 25.6671C19.8898 26.0785 19.9441 27.6084 21.095 28.9057C21.653 29.5295 22.3635 29.9928 23.1547 30.2488C22.1573 30.681 21.1161 31.0011 20.0499 31.2034C19.0994 31.3805 18.1345 31.4658 17.1681 31.4581C15.0075 31.471 12.4404 31.4882 9.48585 31.4875C8.80562 31.4875 8.32014 31.3444 7.94897 31.1411C7.61486 30.9558 7.31805 30.7084 7.07398 30.412C6.64125 29.8938 6.35153 29.2687 6.23428 28.6002L6.23004 21.1197C6.72099 20.6979 7.2433 20.3151 7.79232 19.9748C8.60874 19.4703 8.891 19.4309 9.08646 19.4316Z" fill="#651FFF"/>
<path d="M9.08646 12.2109C8.43184 12.2147 7.79799 12.4444 7.2892 12.8621L0.206726 18.0478L2.21638 20.8764C2.44387 21.1819 2.78029 21.3848 3.15355 21.4418C3.52682 21.4988 3.90724 21.4052 4.21333 21.1812L8.27286 18.2267C8.52881 18.0446 8.83608 17.9517 9.14855 17.9617C9.46103 17.9718 9.76186 18.0843 10.0059 18.2825C10.4999 18.6331 11.9979 19.7136 14.028 21.2292C14.3259 21.4216 14.6835 21.4953 15.0318 21.4361C15.3801 21.3769 15.6945 21.189 15.9142 20.9086L17.9605 18.0464L10.7588 12.7641C10.2722 12.4068 9.68726 12.2133 9.08646 12.2109Z" fill="#00E5FF"/>
<path d="M6.20959 4.37726C6.28016 3.85704 6.50596 2.84738 7.31744 2.12538C7.91221 1.60534 8.67021 1.31716 9.45552 1.3125L17.281 1.33325C20.9673 1.29747 23.3396 2.57189 24.3946 3.24667C31.3303 7.68316 30.583 17.6731 30.5265 18.2978C30.3085 20.7307 29.4843 22.8553 29.3975 23.0678C29.0144 24.0374 28.3624 25.6488 26.9236 27.3189C26.3344 28.0029 25.6773 28.6235 24.9626 29.1708C24.1308 28.9763 23.3678 28.5538 22.7568 27.9494C21.541 26.7329 21.409 25.2209 21.3864 24.8274C21.8052 24.5155 22.1827 24.1504 22.5098 23.7411C22.7247 23.4649 22.9191 23.1729 23.0912 22.8674C25.7691 18.0359 24.0368 12.3737 24.0368 12.3737C23.5676 10.8395 23.0842 9.30248 21.6376 8.13182C20.1558 6.92967 18.487 6.74291 17.715 6.70856L11.9076 6.6735L6.20959 6.75651V4.37726Z" fill="#651FFF"/>
<path d="M51.6929 18.934C51.8119 19.5036 51.909 20.1071 51.9843 20.7444L37.0086 23.9716C37.4508 25.2439 38.2505 26.1565 39.4077 26.7094C40.565 27.2622 41.8723 27.3815 43.3297 27.0671C44.3361 26.8581 45.2817 26.4174 46.0936 25.7791C46.899 25.1451 47.44 24.3673 47.7166 23.4457C48.4048 23.6537 49.858 24.083 52.076 24.7337C51.5745 26.5364 50.5798 28.0141 49.0919 29.1666C47.6039 30.3191 45.8786 31.1063 43.916 31.528C41.0554 32.1443 38.4394 31.6911 36.0679 30.1684C33.6965 28.6457 32.1879 26.3487 31.542 23.2775C30.898 20.2063 31.3578 17.5065 32.9215 15.1781C34.4852 12.8496 36.6974 11.377 39.558 10.7602C42.4177 10.1433 44.994 10.5837 47.2869 12.0811C49.5797 13.5785 51.0484 15.8628 51.6929 18.934ZM36.2246 20.4367L46.3201 18.2607C45.8441 16.967 45.0796 16.047 44.0268 15.5008C42.974 14.9546 41.8029 14.8205 40.5135 15.0986C39.1389 15.3949 38.0609 16.021 37.2795 16.977C36.4981 17.933 36.1465 19.0874 36.2246 20.4403V20.4367Z" fill="#651FFF"/>
<path d="M66.8238 10.9297H72.1457V23.0943C72.1457 28.5326 68.0488 31.9601 62.5159 31.9601C56.983 31.9601 52.886 28.534 52.886 23.0943V10.9297H58.208V22.622C58.208 25.3626 59.8126 27.1615 62.5123 27.1615C65.2121 27.1615 66.8238 25.3626 66.8238 22.622V10.9297Z" fill="#651FFF"/>
<path d="M73.1414 10.9297H78.4626V12.8997C80.1528 11.1866 82.3913 10.3301 85.1781 10.3301C91.049 10.3301 94.935 15.0843 94.935 21.2066C94.935 27.329 91.049 31.9995 85.1781 31.9995C82.6442 31.9995 80.1102 31.2281 78.4626 29.6868V39.9279L75.7812 39.9666C75.1292 39.9424 74.5057 39.6894 74.0171 39.251C73.1647 38.4746 73.1068 37.4385 73.0997 37.2474L73.1414 10.9297ZM84.0787 15.2982C80.6578 15.2982 78.6729 17.739 78.6729 21.2088C78.6729 24.592 80.7002 27.0335 84.0787 27.0335C87.4573 27.0335 89.4416 24.592 89.4416 21.2088C89.4444 17.739 87.4587 15.2982 84.0802 15.2982H84.0787Z" fill="#651FFF"/>
<path d="M96.7364 0.89375C97.2197 0.423501 97.8506 0.140355 98.5189 0.09375H101.227V31.3589H95.9059C95.9002 21.8242 95.8948 12.2893 95.8896 2.75422C95.9398 2.05039 96.2408 1.38911 96.7364 0.89375Z" fill="#651FFF"/>
<path d="M113.095 10.2871C119.642 10.2871 124.076 15.0413 124.076 21.08C124.076 27.2045 119.642 31.9565 113.095 31.9565C106.507 31.9565 102.158 27.2023 102.158 21.08C102.156 15.0413 106.507 10.2871 113.095 10.2871ZM113.095 15.2553C109.674 15.2553 107.562 17.6968 107.562 21.08C107.562 24.5061 109.674 26.9905 113.095 26.9905C116.601 26.9905 118.713 24.549 118.713 21.08C118.713 17.6968 116.601 15.2553 113.095 15.2553Z" fill="#651FFF"/>
<path d="M133.537 10.2871C136.282 10.2871 138.52 11.1436 140.252 12.8567V10.9297H145.573V31.359H140.252V29.3891C138.563 31.1021 136.324 31.9587 133.537 31.9587C127.751 31.9587 123.781 27.1186 123.781 21.0821C123.781 15.0456 127.751 10.2871 133.537 10.2871ZM134.636 15.2553C131.299 15.2553 129.273 17.6968 129.273 21.08C129.273 24.5061 131.258 26.9905 134.636 26.9905C138.013 26.9905 140.041 24.549 140.041 21.08C140.041 17.6968 138.013 15.2553 134.636 15.2553Z" fill="#651FFF"/>
<path d="M156.299 10.287C158.833 10.287 161.367 11.0576 163.014 12.5997V0.09375H168.336L168.356 28.7292C168.369 28.9059 168.432 30.1159 167.51 31.019C167.029 31.4804 166.406 31.7585 165.746 31.8061L162.994 31.7345V29.3732C162.154 30.2094 161.16 30.8696 160.068 31.3159C158.423 31.9871 157.026 31.9599 156.299 31.9599C150.428 31.9599 146.542 27.2057 146.542 21.0834C146.542 14.961 150.43 10.287 156.299 10.287ZM157.397 15.2551C154.018 15.2551 152.034 17.6966 152.034 21.0798C152.034 24.5488 154.019 26.9904 157.397 26.9904C160.818 26.9904 162.803 24.5488 162.803 21.0798C162.805 17.6966 160.778 15.2551 157.399 15.2551H157.397Z" fill="#651FFF"/>
</g>
<defs>
<clipPath id="clip0_55_853">
<rect width="169" height="40" fill="white"/>
</clipPath>
</defs>
</svg>
