<svg width="598" height="598" viewBox="0 0 598 598" fill="none" xmlns="http://www.w3.org/2000/svg">
<path d="M489.044 309.201C489.044 309.201 489.044 304.202 482.036 297.241C475.027 290.281 470.542 286.238 470.542 286.238C470.542 286.238 467.038 297.732 473.532 304.74C478.33 309.666 483.531 314.183 489.08 318.243L489.044 309.201Z" fill="#651FFF"/>
<path d="M478.878 340.442C478.878 340.442 478.878 335.442 471.882 328.482C464.885 321.521 460.376 317.479 460.376 317.479C460.376 317.479 456.872 328.9 463.378 335.945C468.174 340.872 473.375 345.389 478.926 349.448L478.878 340.442Z" fill="#651FFF"/>
<path d="M488.602 317.729C488.602 317.729 489.128 312.753 496.83 306.522C504.533 300.291 509.496 296.799 509.496 296.799C509.496 296.799 511.756 308.615 504.557 314.882C499.283 319.278 493.65 323.223 487.717 326.675L488.602 317.729Z" fill="#651FFF"/>
<path d="M476.331 354.614C476.331 354.614 477.371 349.723 485.684 344.341C493.996 338.959 499.246 335.969 499.246 335.969C499.246 335.969 500.251 347.929 492.429 353.442C486.736 357.252 480.735 360.58 474.489 363.393L476.331 354.614Z" fill="#651FFF"/>
<path d="M478.639 394.834C478.639 394.834 478.639 389.835 485.636 382.874C492.632 375.914 497.141 371.871 497.141 371.871C497.141 371.871 500.646 383.377 494.139 390.385C489.34 395.31 484.14 399.826 478.591 403.888L478.639 394.834Z" fill="#651FFF"/>
<path d="M478.52 404.655C478.52 404.655 479.225 399.704 473.293 391.774C467.361 383.845 463.474 379.252 463.474 379.252C463.474 379.252 458.367 390.136 463.809 397.993C467.844 403.542 472.337 408.743 477.24 413.541L478.52 404.655Z" fill="#651FFF"/>
<path d="M471.619 433.741C471.619 433.741 471.619 428.741 478.615 421.781C485.612 414.82 490.121 410.777 490.121 410.777C490.121 410.777 493.625 422.283 487.119 429.279C482.323 434.208 477.122 438.725 471.571 442.782L471.619 433.741Z" fill="#651FFF"/>
<path d="M476.283 460.126C476.283 460.126 475.027 455.282 480.027 446.742C485.026 438.203 488.399 433.18 488.399 433.18C488.399 433.18 494.701 443.417 490.181 451.849C486.806 457.826 482.933 463.507 478.603 468.832L476.283 460.126Z" fill="#651FFF"/>
<path d="M489.678 307.922C489.325 313.136 488.686 318.326 487.765 323.47C484.99 337.762 478.077 346.995 475.302 359.912C472.528 372.829 480.481 389.465 478.352 406.066C476.223 422.666 469.765 431.875 471.619 442.95C473.472 454.025 483.184 483.997 483.184 483.997" stroke="#263238" stroke-width="0.5" stroke-linecap="round" stroke-linejoin="round"/>
<path d="M488.53 321.055L496.077 315.254" stroke="#263238" stroke-width="0.5" stroke-linecap="round" stroke-linejoin="round"/>
<path d="M488.889 314.381L485.731 308.76" stroke="#263238" stroke-width="0.5" stroke-linecap="round" stroke-linejoin="round"/>
<path d="M475.721 359.302C475.721 359.302 482.036 354.518 488.53 349.83" stroke="#263238" stroke-width="0.5" stroke-linecap="round" stroke-linejoin="round"/>
<path d="M478.878 349.448C478.878 349.448 473.616 339.126 467.648 332.285" stroke="#263238" stroke-width="0.5" stroke-linecap="round" stroke-linejoin="round"/>
<path d="M478.878 401.952C482.488 395.318 487.04 389.243 492.393 383.916" stroke="#263238" stroke-width="0.5" stroke-linecap="round" stroke-linejoin="round"/>
<path d="M477.658 409.032C475.736 404.522 473.443 400.177 470.805 396.044C467.122 390.602 466.595 389.896 466.595 389.896" stroke="#263238" stroke-width="0.5" stroke-linecap="round" stroke-linejoin="round"/>
<path d="M471.619 442.938C473.213 438.963 475.113 435.116 477.3 431.433C479.486 428.015 481.954 424.787 484.679 421.781" stroke="#263238" stroke-width="0.5" stroke-linecap="round" stroke-linejoin="round"/>
<path d="M478.567 468.831C478.201 465.037 478.853 461.214 480.457 457.756C483.088 452.661 486.078 446 487.31 443.404" stroke="#263238" stroke-width="0.5" stroke-linecap="round" stroke-linejoin="round"/>
<path d="M443.19 376.023C443.19 376.023 442.652 372.889 446.275 367.735C449.899 362.58 452.255 359.59 452.255 359.59C452.255 359.59 455.7 366.419 452.387 371.55C449.928 375.161 447.167 378.558 444.135 381.704L443.19 376.023Z" fill="#651FFF"/>
<path d="M452.949 394.511C452.949 394.511 452.411 391.366 456.047 386.223C459.683 381.08 462.027 378.066 462.027 378.066C462.027 378.066 465.471 384.908 462.146 390.026C459.684 393.635 456.923 397.032 453.894 400.18L452.949 394.511Z" fill="#651FFF"/>
<path d="M444.386 381.321C444.386 381.321 443.525 378.259 438.011 375.185C432.498 372.111 429.053 370.461 429.053 370.461C429.053 370.461 428.921 378.115 434.112 381.225C437.9 383.41 441.865 385.275 445.964 386.798L444.386 381.321Z" fill="#651FFF"/>
<path d="M456.095 403.123C456.095 403.123 454.899 400.169 449.11 397.693C443.321 395.217 439.697 393.926 439.697 393.926C439.697 393.926 440.367 401.556 445.869 404.14C449.863 405.916 454 407.352 458.235 408.433L456.095 403.123Z" fill="#651FFF"/>
<path d="M459.013 428.586C459.013 428.586 458.475 425.453 453.32 421.817C448.165 418.181 444.948 416.172 444.948 416.172C444.948 416.172 444.003 423.766 448.835 427.45C452.371 430.018 456.116 432.287 460.029 434.231L459.013 428.586Z" fill="#651FFF"/>
<path d="M460.149 434.733C460.149 434.733 459.168 431.707 462.027 426.086C464.885 420.465 466.811 417.164 466.811 417.164C466.811 417.164 471.188 423.443 468.629 428.957C466.703 432.882 464.451 436.639 461.895 440.187L460.149 434.733Z" fill="#651FFF"/>
<path d="M468.94 460.03C468.94 460.03 469.298 456.873 474.238 452.95C479.177 449.027 482.311 446.826 482.311 446.826C482.311 446.826 483.686 454.361 479.07 458.308C475.696 461.077 472.095 463.558 468.306 465.723L468.94 460.03Z" fill="#651FFF"/>
<path d="M467.636 452.231C467.636 452.231 467.098 449.098 461.943 445.462C456.788 441.826 453.571 439.805 453.571 439.805C453.571 439.805 452.626 447.399 457.47 451.095C461.001 453.664 464.742 455.933 468.653 457.876L467.636 452.231Z" fill="#651FFF"/>
<path d="M467.636 469.273C467.636 469.273 467.899 466.104 463.833 461.284C459.766 456.464 457.135 453.689 457.135 453.689C457.135 453.689 454.301 460.794 458.044 465.649C460.812 469.03 463.857 472.174 467.146 475.05L467.636 469.273Z" fill="#651FFF"/>
<path d="M442.652 375.293C443.438 378.534 444.404 381.728 445.546 384.861C448.835 393.52 454.169 398.555 457.315 406.389C460.46 414.223 457.315 425.525 460.4 435.667C463.486 445.809 468.593 450.916 468.641 458.068C468.688 465.22 465.866 485.062 465.866 485.062" stroke="#263238" stroke-width="0.5" stroke-linecap="round" stroke-linejoin="round"/>
<path d="M444.792 383.389L439.434 380.578" stroke="#263238" stroke-width="0.5" stroke-linecap="round" stroke-linejoin="round"/>
<path d="M443.848 379.252L445.223 375.389" stroke="#263238" stroke-width="0.5" stroke-linecap="round" stroke-linejoin="round"/>
<path d="M456.98 405.994C456.98 405.994 452.507 403.71 447.914 401.438" stroke="#263238" stroke-width="0.5" stroke-linecap="round" stroke-linejoin="round"/>
<path d="M453.93 400.157C455.243 396.004 456.979 391.997 459.109 388.197" stroke="#263238" stroke-width="0.5" stroke-linecap="round" stroke-linejoin="round"/>
<path d="M459.635 433.084C456.65 429.307 453.133 425.984 449.194 423.217" stroke="#263238" stroke-width="0.5" stroke-linecap="round" stroke-linejoin="round"/>
<path d="M461.166 437.352C461.876 434.315 462.84 431.342 464.048 428.466C465.77 424.651 466.021 424.148 466.021 424.148" stroke="#263238" stroke-width="0.5" stroke-linecap="round" stroke-linejoin="round"/>
<path d="M468.389 463.413C470.136 461.258 472.064 459.257 474.154 457.433C475.488 456.452 476.74 455.364 477.898 454.18" stroke="#263238" stroke-width="0.5" stroke-linecap="round" stroke-linejoin="round"/>
<path d="M468.641 457.995C467.218 455.675 465.618 453.468 463.857 451.393C462.114 449.491 460.218 447.735 458.188 446.143" stroke="#263238" stroke-width="0.5" stroke-linecap="round" stroke-linejoin="round"/>
<path d="M467.086 474.991C466.907 472.568 466.081 470.239 464.694 468.245C462.493 465.339 459.91 461.476 458.845 459.969" stroke="#263238" stroke-width="0.5" stroke-linecap="round" stroke-linejoin="round"/>
<path d="M451.562 481.533H497.369V515.858C497.369 516.81 496.991 517.723 496.318 518.396C495.645 519.068 494.732 519.446 493.781 519.446H455.198C454.246 519.446 453.333 519.068 452.66 518.396C451.988 517.723 451.61 516.81 451.61 515.858V481.533H451.562Z" fill="#263238"/>
<path d="M496.962 487.5H451.514C450.562 487.5 449.65 487.122 448.977 486.449C448.304 485.776 447.926 484.864 447.926 483.912C447.926 482.961 448.304 482.048 448.977 481.375C449.65 480.702 450.562 480.324 451.514 480.324H496.962C497.913 480.324 498.826 480.702 499.499 481.375C500.172 482.048 500.55 482.961 500.55 483.912C500.55 484.864 500.172 485.776 499.499 486.449C498.826 487.122 497.913 487.5 496.962 487.5Z" fill="#263238"/>
<path d="M409.833 168.242C432.291 168.242 450.497 150.036 450.497 127.578C450.497 105.12 432.291 86.9141 409.833 86.9141C387.375 86.9141 369.169 105.12 369.169 127.578C369.169 150.036 387.375 168.242 409.833 168.242Z" fill="#263238"/>
<path d="M423.086 160.257C441.137 152.935 449.834 132.366 442.512 114.316C435.19 96.2652 414.621 87.5682 396.57 94.8904C378.52 102.213 369.823 122.781 377.145 140.832C384.467 158.882 405.036 167.579 423.086 160.257Z" fill="white"/>
<path d="M386.954 134.06L409.833 127.577V95.5723" stroke="#263238" stroke-width="2" stroke-miterlimit="10"/>
<path d="M212.529 309.369H167.883L109.434 152.502H154.081L212.529 309.369Z" fill="#263238"/>
<path opacity="0.2" d="M212.529 309.369H167.883L109.434 152.502H154.081L212.529 309.369Z" fill="white"/>
<path d="M142.157 190.821H130.675C129.892 190.774 129.139 190.505 128.503 190.046C127.868 189.586 127.377 188.955 127.087 188.226L122.65 176.326C122.496 176.053 122.419 175.744 122.426 175.431C122.433 175.118 122.525 174.813 122.692 174.548C122.859 174.284 123.094 174.069 123.373 173.927C123.652 173.785 123.964 173.721 124.276 173.742H135.758C136.539 173.791 137.29 174.059 137.925 174.516C138.559 174.973 139.052 175.601 139.346 176.326L143.783 188.226C144.309 189.661 143.592 190.821 142.157 190.821Z" fill="#263238"/>
<path d="M157.035 160.431H112.388L109.434 152.502H154.081L157.035 160.431Z" fill="#263238"/>
<path d="M127.649 161.734L128.929 165.179" stroke="#263238" stroke-linecap="round" stroke-linejoin="round"/>
<path d="M129.371 161.734L130.651 165.179" stroke="#263238" stroke-linecap="round" stroke-linejoin="round"/>
<path d="M131.082 161.734L132.373 165.179" stroke="#263238" stroke-linecap="round" stroke-linejoin="round"/>
<path d="M132.804 161.734L134.084 165.179" stroke="#263238" stroke-linecap="round" stroke-linejoin="round"/>
<path d="M134.526 161.734L135.806 165.179" stroke="#263238" stroke-linecap="round" stroke-linejoin="round"/>
<path d="M136.248 161.734L137.528 165.179" stroke="#263238" stroke-linecap="round" stroke-linejoin="round"/>
<path d="M137.971 161.734L139.25 165.179" stroke="#263238" stroke-linecap="round" stroke-linejoin="round"/>
<path d="M139.693 161.734L140.973 165.179" stroke="#263238" stroke-linecap="round" stroke-linejoin="round"/>
<path d="M141.403 161.734L142.695 165.179" stroke="#263238" stroke-linecap="round" stroke-linejoin="round"/>
<path d="M143.125 161.734L144.405 165.179" stroke="#263238" stroke-linecap="round" stroke-linejoin="round"/>
<path d="M138.437 183.358L127.673 176.505C127.573 176.426 127.452 176.377 127.325 176.365C127.198 176.352 127.069 176.376 126.955 176.434C126.864 176.503 126.802 176.604 126.782 176.717C126.762 176.831 126.785 176.947 126.848 177.044L131.799 187.724C131.864 187.859 131.958 187.978 132.073 188.073C132.189 188.168 132.324 188.237 132.469 188.274H132.636C132.725 188.281 132.814 188.257 132.888 188.207C132.962 188.157 133.016 188.084 133.043 187.999L134.239 184.483H138.545C138.6 184.488 138.657 184.481 138.71 184.463C138.763 184.444 138.811 184.415 138.852 184.377C138.892 184.338 138.925 184.291 138.946 184.24C138.967 184.188 138.977 184.132 138.975 184.076C138.952 183.921 138.891 183.775 138.797 183.649C138.703 183.524 138.579 183.424 138.437 183.358Z" fill="white"/>
<path d="M138.222 183.836L127.41 176.982L132.361 187.663L133.593 183.883L138.222 183.836Z" fill="#263238"/>
<path d="M158.422 183.836L147.61 176.982L152.574 187.663L153.794 183.883L158.422 183.836Z" fill="white"/>
<path d="M163.96 189.912L162.991 187.711L161.711 189.565L163.96 189.912Z" fill="white"/>
<path d="M190.08 260.021L189.112 257.82L187.832 259.674L190.08 260.021Z" fill="white"/>
<path d="M198.105 281.539L197.125 279.338L195.857 281.18L198.105 281.539Z" fill="white"/>
<path d="M206.322 303.591L205.341 301.391L204.073 303.244L206.322 303.591Z" fill="white"/>
<path d="M160.288 235.181L159.307 232.98L158.039 234.822L160.288 235.181Z" fill="white"/>
<path d="M169.545 260.021L168.564 257.82L167.296 259.674L169.545 260.021Z" fill="white"/>
<path d="M177.558 281.539L176.589 279.338L175.31 281.18L177.558 281.539Z" fill="white"/>
<path d="M185.787 303.591L184.806 301.391L183.538 303.244L185.787 303.591Z" fill="white"/>
<path d="M138.437 213.52L140.315 214.728L145.481 203.952L143.604 202.732L138.437 213.52Z" fill="white"/>
<path d="M140.757 202.96C138.018 200.831 137.827 200.4 138.497 197.984C137.086 199.922 136.667 199.958 133.713 198.379C136.452 200.52 136.643 200.95 135.973 203.366C137.337 201.429 137.755 201.393 140.757 202.96Z" fill="white"/>
<path d="M149.775 204.121C148.089 202.805 147.969 202.542 148.376 201.047C147.503 202.243 147.252 202.243 145.398 201.298C147.084 202.614 147.204 202.877 146.785 204.372C147.658 203.176 147.921 203.152 149.775 204.121Z" fill="white"/>
<path d="M149.261 209.193C148.065 208.248 147.969 208.068 148.268 207.004C147.646 207.853 147.455 207.865 146.139 207.171C147.335 208.116 147.419 208.308 147.132 209.372C147.754 208.511 147.933 208.499 149.261 209.193Z" fill="white"/>
<path d="M176.362 256.995L177.522 257.82L182.689 247.032L181.529 246.207L176.362 256.995Z" fill="white"/>
<path d="M172.033 210.735L162.501 204.695L166.866 214.12L167.954 210.783L172.033 210.735Z" fill="white"/>
<path d="M164.857 211.296C161.364 211.296 157.752 209.227 156.808 206.692C155.863 204.156 157.944 202.123 161.46 202.123C164.976 202.123 168.564 204.192 169.509 206.716C170.454 209.239 168.361 211.296 164.857 211.296ZM161.639 202.649C158.446 202.649 156.532 204.467 157.358 206.692C158.183 208.916 161.46 210.734 164.653 210.734C167.847 210.734 169.772 208.928 168.935 206.692C168.098 204.455 164.833 202.649 161.639 202.649Z" fill="white"/>
<path d="M160.659 210.376C160.191 210.342 159.742 210.177 159.363 209.9C158.985 209.623 158.692 209.245 158.518 208.809C158.425 208.644 158.378 208.457 158.383 208.268C158.387 208.079 158.443 207.895 158.543 207.734C158.643 207.574 158.785 207.444 158.953 207.357C159.121 207.27 159.31 207.231 159.499 207.242C159.966 207.276 160.415 207.441 160.794 207.718C161.173 207.995 161.466 208.373 161.639 208.809C161.732 208.974 161.779 209.161 161.774 209.35C161.77 209.539 161.715 209.723 161.614 209.884C161.514 210.044 161.372 210.174 161.204 210.261C161.036 210.347 160.847 210.387 160.659 210.376ZM159.702 207.804C159.58 207.794 159.457 207.818 159.348 207.872C159.238 207.927 159.146 208.011 159.08 208.114C159.015 208.218 158.979 208.337 158.977 208.46C158.975 208.582 159.006 208.703 159.068 208.809C159.179 209.093 159.368 209.339 159.614 209.519C159.859 209.699 160.151 209.805 160.455 209.826C161.006 209.826 161.293 209.371 161.089 208.809C160.974 208.529 160.784 208.287 160.539 208.109C160.293 207.932 160.004 207.826 159.702 207.804Z" fill="white"/>
<path d="M160.814 212.015L160.431 211.489C160.712 211.417 160.966 211.266 161.164 211.054C161.361 210.842 161.493 210.578 161.544 210.293C161.559 209.813 161.416 209.343 161.137 208.953L161.592 208.762C161.96 209.277 162.149 209.899 162.13 210.532C162.075 210.879 161.922 211.203 161.689 211.465C161.455 211.728 161.152 211.919 160.814 212.015Z" fill="white"/>
<path d="M154.834 227.563L148.172 222.719L146.761 224.967L153.423 229.811L154.834 227.563Z" fill="white"/>
<path d="M144.166 233.842L145.254 234.631L147.646 230.756C147.517 230.646 147.427 230.497 147.388 230.331C147.35 230.165 147.364 229.992 147.431 229.835C147.61 229.536 148.101 229.536 148.507 229.835C148.691 229.939 148.832 230.103 148.906 230.3C148.98 230.497 148.983 230.713 148.914 230.912C148.808 231.034 148.662 231.114 148.502 231.138C148.342 231.162 148.178 231.129 148.041 231.043L145.649 234.918L146.665 235.66L152.645 233.974L153.016 230.386L146.45 225.602L143.52 227.24L144.166 233.842Z" fill="white"/>
<path d="M137.875 218.615H176.302" stroke="#263238" stroke-linecap="round" stroke-linejoin="round"/>
<path d="M171.291 222.719L169.88 224.967L176.542 229.811L177.953 227.563L171.291 222.719Z" fill="white"/>
<path d="M166.579 227.238L167.285 233.828L168.373 234.618L170.765 230.743C170.636 230.632 170.546 230.483 170.507 230.317C170.468 230.152 170.483 229.978 170.55 229.822C170.729 229.523 171.219 229.523 171.626 229.822C171.809 229.925 171.95 230.089 172.025 230.286C172.099 230.483 172.102 230.7 172.033 230.898C171.926 231.02 171.78 231.1 171.62 231.124C171.46 231.148 171.297 231.115 171.16 231.03L168.768 234.905L169.784 235.646L175.764 233.96L176.135 230.372L169.569 225.588L166.579 227.238Z" fill="white"/>
<path d="M164.928 229.188C165 228.722 165.06 228.22 165.108 227.658C165.162 227.119 165.106 226.576 164.943 226.06C164.781 225.544 164.516 225.066 164.163 224.656C163.384 223.786 162.371 223.159 161.245 222.85C161.065 222.85 160.922 222.85 160.946 223.065C160.963 223.156 161.006 223.241 161.07 223.308C161.133 223.376 161.215 223.424 161.305 223.448C162.219 223.714 163.046 224.223 163.697 224.919C163.981 225.26 164.195 225.655 164.324 226.08C164.453 226.505 164.496 226.952 164.45 227.394C164.45 227.945 164.33 228.447 164.271 228.901C163.948 231.293 163.756 232.729 167.727 235.109C167.79 235.154 167.865 235.179 167.942 235.18C167.984 235.182 168.026 235.172 168.062 235.151C168.098 235.13 168.127 235.098 168.146 235.061C168.16 234.972 168.146 234.882 168.105 234.802C168.064 234.722 167.999 234.658 167.918 234.618C164.486 232.549 164.617 231.568 164.928 229.188Z" fill="white"/>
<path d="M147.921 245.179L148.16 245.801C148.501 246.761 148.9 247.7 149.356 248.611L150.469 248.336C150.158 247.714 149.882 247.075 149.644 246.423H154.428L158.398 257.091H156.616L157.083 258.287H161.867L161.4 257.091H159.63L155.635 246.375H160.264L161.089 248.623H162.345L161.281 245.753L161.041 245.131L147.921 245.179Z" fill="white"/>
<path opacity="0.44" d="M172.894 274.745C173.922 277.495 171.698 279.72 167.871 279.72C164.043 279.72 160.168 277.495 159.152 274.745C158.135 271.994 160.348 269.781 164.175 269.781C168.002 269.781 171.877 272.006 172.894 274.745Z" fill="white"/>
<path d="M172.894 274.745C173.922 277.495 171.698 279.72 167.871 279.72C164.043 279.72 160.168 277.495 159.152 274.745C158.135 271.994 160.348 269.781 164.175 269.781C168.002 269.781 171.877 272.006 172.894 274.745Z" stroke="white" stroke-miterlimit="10"/>
<path d="M187.042 274.889L191.551 266.696C191.617 266.605 191.701 266.528 191.798 266.47C191.895 266.411 192.002 266.373 192.114 266.358C192.225 266.342 192.339 266.349 192.448 266.379C192.557 266.408 192.659 266.459 192.747 266.529C193.01 266.639 193.231 266.828 193.379 267.071C193.527 267.314 193.595 267.597 193.573 267.88L191.181 276.934L187.042 274.889Z" fill="white"/>
<path d="M186.301 275.581C188.071 275.342 191.539 276.861 191.635 279.169C191.62 279.422 191.538 279.666 191.397 279.876C191.256 280.086 191.062 280.255 190.834 280.365C189.253 281.079 187.515 281.375 185.787 281.226C186.01 281.053 186.176 280.817 186.263 280.548C186.351 280.28 186.356 279.991 186.277 279.72C186.038 279.059 185.763 278.412 185.452 277.782C185.129 276.861 185.296 275.629 186.301 275.557" fill="white"/>
<path d="M176.912 293.557C176.54 292.701 175.985 291.938 175.286 291.32L173.922 293.485C174.729 294.18 175.37 295.047 175.8 296.021C176.193 296.886 176.648 297.722 177.163 298.52L178.491 296.391C177.884 295.494 177.356 294.545 176.912 293.557Z" fill="white"/>
<path d="M175.346 296.057C174.964 295.204 174.405 294.442 173.707 293.82L172.344 295.997C173.152 296.694 173.797 297.559 174.233 298.533C174.621 299.398 175.072 300.234 175.585 301.032L176.924 298.903C176.309 298.007 175.78 297.054 175.346 296.057Z" fill="white"/>
<path d="M177.379 293.521C177.766 294.387 178.218 295.222 178.73 296.02L180.692 292.887L176.302 289.682L175.489 290.973C176.294 291.678 176.938 292.546 177.379 293.521Z" fill="white"/>
<path d="M173.767 298.569C173.395 297.713 172.84 296.95 172.14 296.332L170.944 298.15L171.148 302.276C171.156 302.349 171.18 302.42 171.217 302.484C171.254 302.548 171.304 302.603 171.363 302.647C171.423 302.691 171.49 302.722 171.562 302.738C171.634 302.755 171.709 302.756 171.781 302.743L175.274 301.367C174.692 300.479 174.188 299.543 173.767 298.569ZM172.224 301.391L172.116 299.19L174.114 300.65L172.224 301.391Z" fill="white"/>
<path d="M191.001 295.507L189.506 297.899L197.232 303.532L198.727 301.14L199.194 301.487L202.782 295.854L194.111 289.539L190.583 295.172L191.001 295.507ZM196.718 302.169L190.87 297.899L191.934 296.189L197.794 300.459L196.718 302.169Z" fill="white"/>
<path d="M118.057 154.605L118.344 155.359L117.268 156.675L119.325 157.99L119.6 158.756L116.371 156.675L118.057 154.605Z" fill="white"/>
<path d="M115.354 154.605L115.641 155.359L114.565 156.675L116.622 157.99L116.909 158.756L113.668 156.675L115.354 154.605Z" fill="white"/>
<path d="M299 246.579H206.657L178.431 167.834H270.774L299 246.579Z" fill="#263238"/>
<path d="M292.446 242.284H210.125L184.985 172.139H267.306L292.446 242.284Z" fill="#651FFF"/>
<path d="M276.79 198.618L263.18 188.596L252.428 216.51L224.549 208.641L210.125 242.284H292.446L276.79 198.618Z" fill="white"/>
<path d="M220.064 187.162C218.15 181.828 212.278 177.498 206.908 177.498C201.538 177.498 198.799 181.828 200.713 187.162C202.626 192.496 208.499 196.825 213.869 196.825C219.239 196.825 221.99 192.556 220.064 187.162Z" fill="white"/>
<path d="M308.568 233.028H216.225L187.999 154.283H280.342L308.568 233.028Z" fill="#263238"/>
<path d="M302.014 228.734H219.693L194.553 158.576H276.874L302.014 228.734Z" fill="#651FFF"/>
<path d="M286.358 185.067L272.748 175.045L261.996 202.96L234.117 195.09L219.693 228.733H302.014L286.358 185.067Z" fill="white"/>
<path d="M229.632 173.611C227.718 168.277 221.846 163.947 216.476 163.947C211.106 163.947 208.367 168.277 210.281 173.611C212.194 178.945 218.067 183.275 223.437 183.275C228.807 183.275 231.558 178.945 229.632 173.611Z" fill="white"/>
<path d="M308.987 141.929L311.199 147.311H310.565C310.227 146.586 309.806 145.904 309.31 145.278C308.775 144.667 308.119 144.174 307.384 143.83C306.605 143.502 305.765 143.344 304.92 143.364H301.679L308.102 160.909C308.368 161.887 308.855 162.791 309.525 163.552C310.165 164.044 310.955 164.297 311.761 164.27H312.563L312.79 164.892H303.054L302.827 164.27H303.64C304.609 164.27 305.183 163.971 305.375 163.385C305.406 162.529 305.225 161.678 304.848 160.909L298.426 143.364H295.675C294.933 143.324 294.19 143.404 293.474 143.603C293.221 143.712 292.995 143.875 292.813 144.082C292.631 144.289 292.497 144.534 292.422 144.799C292.232 145.618 292.286 146.475 292.577 147.263H291.932L290.233 141.881L308.987 141.929Z" fill="black"/>
<path d="M322.968 152.752H329.988" stroke="#263238" stroke-width="0.5" stroke-miterlimit="10"/>
<path d="M329.761 171.363H294.407L281.311 135.555H316.665L329.761 171.363Z" stroke="#263238" stroke-width="0.5" stroke-miterlimit="10"/>
<path d="M289.372 154.069H286.717L285.748 151.426H288.403L289.372 154.069Z" fill="white" stroke="#263238" stroke-width="0.5" stroke-miterlimit="10"/>
<path d="M324.774 154.069H322.119L321.15 151.426H323.805L324.774 154.069Z" fill="white" stroke="#263238" stroke-width="0.5" stroke-miterlimit="10"/>
<path d="M283.153 137.073H280.51L279.541 134.43H282.184L283.153 137.073Z" fill="white" stroke="#263238" stroke-width="0.5" stroke-miterlimit="10"/>
<path d="M318.555 137.073H315.911L314.943 134.43H317.586L318.555 137.073Z" fill="white" stroke="#263238" stroke-width="0.5" stroke-miterlimit="10"/>
<path d="M300.866 137.073H298.223L297.254 134.43H299.897L300.866 137.073Z" fill="white" stroke="#263238" stroke-width="0.5" stroke-miterlimit="10"/>
<path d="M296.106 172.475H293.451L292.482 169.832H295.137L296.106 172.475Z" fill="white" stroke="#263238" stroke-width="0.5" stroke-miterlimit="10"/>
<path d="M331.507 172.475H328.852L327.883 169.832H330.539L331.507 172.475Z" fill="white" stroke="#263238" stroke-width="0.5" stroke-miterlimit="10"/>
<path d="M312.288 171.996L314.859 179.029" stroke="#263238" stroke-width="0.5" stroke-miterlimit="10"/>
<path d="M313.818 172.475H311.163L310.195 169.832H312.85L313.818 172.475Z" fill="white" stroke="#263238" stroke-width="0.5" stroke-miterlimit="10"/>
<path d="M316.701 180.356H314.046L313.077 177.701H315.732L316.701 180.356Z" fill="#263238"/>
<path d="M292.29 164.652H321.987" stroke="#263238" stroke-width="0.5" stroke-miterlimit="10"/>
<path d="M331.388 152.753C331.235 152.364 330.976 152.026 330.639 151.778C330.303 151.53 329.903 151.383 329.486 151.353C329.317 151.343 329.149 151.378 328.998 151.455C328.847 151.532 328.72 151.648 328.63 151.791C328.539 151.934 328.489 152.099 328.484 152.268C328.479 152.437 328.519 152.605 328.601 152.753C328.754 153.14 329.014 153.476 329.351 153.722C329.687 153.968 330.087 154.113 330.503 154.14C330.671 154.153 330.84 154.12 330.991 154.045C331.142 153.969 331.27 153.854 331.361 153.712C331.452 153.569 331.502 153.405 331.507 153.236C331.512 153.067 331.47 152.9 331.388 152.753Z" fill="#263238"/>
<path opacity="0.2" d="M167.476 342.643L199.517 370.103L168.983 519.495H171.052L205.018 372.842L236.138 398.938L192.197 519.316L194.948 518.861L241.173 401.689L369.791 518.861H448.057L356.516 339.438L167.476 342.643Z" fill="black"/>
<path d="M171.052 519.496H168.983L165.885 340.084H174.15L171.052 519.496Z" fill="#263238" stroke="#263238" stroke-linecap="round" stroke-linejoin="round"/>
<path d="M349.088 519.496H347.019L343.922 340.084H352.186L349.088 519.496Z" fill="#263238" stroke="#263238" stroke-linecap="round" stroke-linejoin="round"/>
<path d="M361.694 337.309H162.728V341.961H361.694V337.309Z" fill="white" stroke="#263238" stroke-linecap="round" stroke-linejoin="round"/>
<path d="M117.806 433.633L114.218 441.264C114.218 441.264 118.643 446.048 120.652 446.048C122.662 446.048 123.463 444.038 125.879 443.225C128.295 442.412 132.302 434.793 132.302 434.793C132.302 434.793 129.91 430.775 127.518 430.368C125.126 429.961 121.538 428.765 119.48 428.359C117.423 427.952 117.806 433.633 117.806 433.633Z" fill="white" stroke="#263238" stroke-linecap="round" stroke-linejoin="round"/>
<path d="M117.806 433.634L120.198 437.652V441.24C120.198 441.24 122.59 442.436 123.415 441.24C124.24 440.044 127.84 436.014 127.84 436.014L126.226 432.426" stroke="#263238" stroke-linecap="round" stroke-linejoin="round"/>
<path d="M120.21 441.264L115.797 440.463" stroke="#263238" stroke-linecap="round" stroke-linejoin="round"/>
<path d="M187.054 505.907L178.934 508.299C178.934 508.299 178.228 514.805 179.555 516.312C180.883 517.819 182.928 517.101 185.117 518.381C187.306 519.661 195.701 517.628 195.701 517.628C195.701 517.628 197.137 513.167 195.845 511.097C194.553 509.028 193.07 505.5 192.042 503.73C191.013 501.96 187.054 505.907 187.054 505.907Z" fill="white" stroke="#263238" stroke-linecap="round" stroke-linejoin="round"/>
<path d="M187.054 505.906L185.631 510.379L182.916 512.771C182.916 512.771 183.598 515.379 185.033 515.163C186.468 514.948 191.886 515.032 191.886 515.032L193.537 511.444" stroke="#263238" stroke-linecap="round" stroke-linejoin="round"/>
<path d="M182.916 512.785L180.596 508.934" stroke="#263238" stroke-linecap="round" stroke-linejoin="round"/>
<path d="M104.937 432.018C104.937 432.018 98.1079 436.443 99.3158 438.859C100.524 441.275 101.325 442.877 102.533 443.643C103.741 444.408 107.317 445.652 108.513 444.839C109.709 444.025 112.532 442.028 112.926 438.859C113.321 435.689 114.541 435.271 113.333 433.632C112.125 431.994 104.937 432.018 104.937 432.018Z" fill="white" stroke="#263238" stroke-linecap="round" stroke-linejoin="round"/>
<path d="M99.268 438.859L104.052 442.076L108.071 441.669L109.673 437.244C109.673 436.61 109.421 436.001 108.973 435.553C108.524 435.104 107.916 434.852 107.281 434.852C105.979 434.798 104.702 435.224 103.693 436.048L104.506 438.44" stroke="#263238" stroke-linecap="round" stroke-linejoin="round"/>
<path d="M134.682 426.396C134.682 426.396 128.702 432.018 129.455 436.036C130.209 440.055 137.899 443.272 137.899 443.272L147.144 438.057L144.321 430.881L138.341 427.664L134.682 426.396Z" fill="white" stroke="#263238" stroke-linecap="round" stroke-linejoin="round"/>
<path d="M129.455 436.036L135.89 438.452L143.125 436.036L140.303 429.613" stroke="#263238" stroke-linecap="round" stroke-linejoin="round"/>
<path d="M134.682 426.396L134.275 434.84L139.107 436.443" stroke="#263238" stroke-linecap="round" stroke-linejoin="round"/>
<path d="M152.765 501.949C152.765 501.949 146.785 507.582 147.539 511.601C148.292 515.62 155.982 518.837 155.982 518.837L165.227 513.61L162.417 506.374L156.377 503.157L152.765 501.949Z" fill="white" stroke="#263238" stroke-linecap="round" stroke-linejoin="round"/>
<path d="M147.539 511.601L153.973 514.004L161.209 511.601L158.398 505.166" stroke="#263238" stroke-linecap="round" stroke-linejoin="round"/>
<path d="M152.765 501.949L152.358 510.393L157.19 512.008" stroke="#263238" stroke-linecap="round" stroke-linejoin="round"/>
<path d="M112.579 420.369C112.579 420.369 106.599 425.99 107.353 430.009C108.106 434.027 115.797 437.185 115.797 437.185L125.03 431.958L122.219 424.782L116.239 421.565L112.579 420.369Z" fill="white" stroke="#263238" stroke-linecap="round" stroke-linejoin="round"/>
<path d="M107.353 430.008L113.787 432.424L121.011 430.008L118.201 423.586" stroke="#263238" stroke-linecap="round" stroke-linejoin="round"/>
<path d="M112.579 420.369L112.173 428.813L116.993 430.416" stroke="#263238" stroke-linecap="round" stroke-linejoin="round"/>
<path d="M146.295 519.493H98.5982L91.4462 440.426H153.447L146.295 519.493Z" fill="#263238" stroke="#263238" stroke-linecap="round" stroke-linejoin="round"/>
<path d="M114.589 506.373C114.589 506.373 107.748 510.798 108.956 513.202C110.164 515.606 110.965 517.221 112.173 517.986C113.381 518.752 116.957 519.996 118.153 519.182C119.349 518.369 122.171 516.372 122.578 513.202C122.985 510.033 124.181 509.614 122.973 507.976C121.765 506.337 114.589 506.373 114.589 506.373Z" fill="white" stroke="#263238" stroke-linecap="round" stroke-linejoin="round"/>
<path d="M108.956 513.203L113.74 516.42L117.758 516.026L119.361 511.6C119.361 510.966 119.109 510.358 118.66 509.909C118.212 509.46 117.603 509.208 116.969 509.208C115.666 509.15 114.388 509.576 113.381 510.404L114.182 512.796" stroke="#263238" stroke-linecap="round" stroke-linejoin="round"/>
<path d="M241.042 282.638C241.127 283.179 241.045 283.733 240.806 284.226C240.567 284.719 240.182 285.127 239.704 285.394C239.226 285.662 238.677 285.776 238.132 285.722C237.586 285.668 237.071 285.449 236.654 285.092C236.238 284.736 235.941 284.261 235.803 283.731C235.665 283.201 235.693 282.641 235.883 282.127C236.073 281.613 236.416 281.17 236.866 280.857C237.316 280.544 237.851 280.377 238.399 280.377C239.048 280.331 239.689 280.542 240.184 280.965C240.679 281.388 240.987 281.989 241.042 282.638Z" fill="#808080" stroke="#263238" stroke-linecap="round" stroke-linejoin="round"/>
<path d="M243.589 289.526C243.675 290.068 243.593 290.622 243.353 291.115C243.114 291.608 242.729 292.016 242.251 292.283C241.773 292.551 241.224 292.665 240.679 292.611C240.134 292.557 239.618 292.337 239.202 291.981C238.786 291.625 238.488 291.15 238.35 290.62C238.212 290.089 238.24 289.529 238.431 289.016C238.621 288.502 238.964 288.059 239.414 287.746C239.863 287.433 240.398 287.265 240.946 287.266C241.595 287.22 242.237 287.431 242.732 287.854C243.226 288.277 243.534 288.878 243.589 289.526Z" fill="#808080" stroke="#263238" stroke-linecap="round" stroke-linejoin="round"/>
<path d="M246.125 296.415C246.21 296.956 246.128 297.511 245.889 298.004C245.65 298.497 245.265 298.904 244.787 299.172C244.309 299.439 243.76 299.554 243.215 299.5C242.669 299.446 242.154 299.226 241.737 298.87C241.321 298.514 241.024 298.038 240.886 297.508C240.748 296.978 240.776 296.418 240.966 295.904C241.156 295.39 241.499 294.947 241.949 294.634C242.399 294.322 242.934 294.154 243.482 294.155C244.131 294.108 244.772 294.32 245.267 294.743C245.762 295.166 246.07 295.767 246.125 296.415Z" fill="#808080" stroke="#263238" stroke-linecap="round" stroke-linejoin="round"/>
<path d="M248.672 303.304C248.758 303.845 248.676 304.398 248.437 304.891C248.198 305.384 247.814 305.791 247.337 306.059C246.859 306.327 246.311 306.442 245.767 306.389C245.222 306.336 244.706 306.117 244.29 305.762C243.873 305.408 243.575 304.934 243.435 304.404C243.296 303.875 243.322 303.315 243.51 302.801C243.699 302.287 244.04 301.843 244.488 301.529C244.936 301.215 245.47 301.045 246.017 301.043C246.668 300.997 247.31 301.208 247.807 301.631C248.304 302.053 248.614 302.654 248.672 303.304Z" fill="#808080" stroke="#263238" stroke-linecap="round" stroke-linejoin="round"/>
<path d="M212.84 336.864H194.733L192.006 306.832H215.567L212.84 336.864Z" fill="#263238" stroke="#263238" stroke-linecap="round" stroke-linejoin="round"/>
<path d="M214.67 316.713L193.86 327.309L194.733 336.865H204.42L213.821 326.066L214.67 316.713Z" fill="#651FFF" stroke="#263238" stroke-linecap="round" stroke-linejoin="round"/>
<path d="M217.66 303.244H189.913V309.774H217.66V303.244Z" fill="#651FFF" stroke="#263238" stroke-linecap="round" stroke-linejoin="round"/>
<path d="M266.445 337.27H233.854C233.293 337.301 232.731 337.216 232.203 337.022C231.676 336.828 231.193 336.529 230.785 336.142C230.377 335.755 230.052 335.289 229.83 334.773C229.608 334.257 229.493 333.7 229.493 333.138C229.493 332.576 229.608 332.02 229.83 331.503C230.052 330.987 230.377 330.521 230.785 330.134C231.193 329.748 231.676 329.448 232.203 329.254C232.731 329.06 233.293 328.976 233.854 329.006H266.445C267.006 328.976 267.568 329.06 268.095 329.254C268.623 329.448 269.106 329.748 269.514 330.134C269.922 330.521 270.247 330.987 270.469 331.503C270.691 332.02 270.805 332.576 270.805 333.138C270.805 333.7 270.691 334.257 270.469 334.773C270.247 335.289 269.922 335.755 269.514 336.142C269.106 336.529 268.623 336.828 268.095 337.022C267.568 337.216 267.006 337.301 266.445 337.27Z" fill="#263238" stroke="#263238" stroke-linecap="round" stroke-linejoin="round"/>
<path d="M353.131 337.308H252.799L228.867 272.174H329.199L353.131 337.308Z" fill="#263238" stroke="#263238" stroke-linecap="round" stroke-linejoin="round"/>
<path d="M346.768 330.538H261.087L240.659 274.924H326.329L346.768 330.538Z" fill="#808080" stroke="#263238" stroke-linecap="round" stroke-linejoin="round"/>
<path d="M363.584 360.569C361.257 363.991 358.623 367.194 355.714 370.137C346.531 378.434 338.635 388.051 332.285 398.674C323.291 413.923 317.024 429.506 311.068 442.997C305.112 456.488 294.324 481.389 288.93 488.972C283.536 496.554 279.888 500.609 279.888 500.609C279.888 500.609 270.978 500.812 260.429 499.879C249.88 498.946 245.515 497.045 245.383 499.795C245.252 502.546 252.559 510.093 257.75 511.408C262.941 512.724 269.71 514.733 271.289 516.3C272.867 517.867 274.877 519.661 277.532 518.513C280.187 517.365 288.092 506.302 296.931 498.683C305.769 491.064 316.318 483.518 325.862 465.757C335.406 447.997 335.909 437.843 342.606 431.169C349.304 424.495 356.36 414.03 364.9 408.517C373.439 403.003 398.926 392.789 407.071 382.205C415.215 371.62 410.97 358.667 403.136 354.039C395.302 349.41 369.731 347.736 363.584 360.569Z" fill="#263238" stroke="#263238" stroke-linecap="round" stroke-linejoin="round"/>
<path d="M295.245 477.777C293.403 481.653 291.297 485.398 288.942 488.984C283.488 496.555 279.9 500.621 279.9 500.621C279.9 500.621 270.99 500.824 260.441 499.891C249.892 498.958 245.527 497.057 245.395 499.808C245.264 502.558 252.571 510.105 257.762 511.421C262.953 512.736 269.722 514.746 271.301 516.312C272.879 517.879 274.889 519.673 277.544 518.525C280.199 517.377 288.104 506.314 296.943 498.695C301.057 495.107 305.542 491.603 310.099 487.058C304.301 485.588 299.108 482.343 295.245 477.777Z" fill="white" stroke="#263238" stroke-linecap="round" stroke-linejoin="round"/>
<path d="M277.544 518.524C278.971 517.57 280.242 516.4 281.311 515.056C274.135 513.633 270.475 510.033 267.198 509.076C264.207 508.194 261.347 506.914 258.695 505.273L262.283 499.998L260.465 499.843C249.916 498.91 245.551 497.008 245.419 499.759C245.288 502.51 252.595 510.057 257.786 511.372C262.976 512.688 269.746 514.697 271.325 516.264C272.903 517.831 274.948 519.673 277.544 518.524Z" fill="#651FFF" stroke="#263238" stroke-linecap="round" stroke-linejoin="round"/>
<path d="M289.946 394.248C291.34 400.243 293.398 406.063 296.082 411.602C300.316 420.07 309.632 428.956 316.414 434.039C323.195 439.122 344.986 458.593 355.786 474.045C357.138 475.983 351.971 482.513 345.62 488.23C339.269 493.947 336.519 496.063 339.903 497.116C343.288 498.168 351.337 497.75 359.386 490.98C367.435 484.211 372.721 479.762 375.257 474.236C376.525 471.486 369.54 468.089 365.306 464.501C361.072 460.913 345.405 437.196 340.537 426.229C335.669 415.262 323.398 399.558 314.297 394.057" fill="#263238"/>
<path d="M289.946 394.248C291.34 400.243 293.398 406.063 296.082 411.602C300.316 420.07 309.632 428.956 316.414 434.039C323.195 439.122 344.986 458.593 355.786 474.045C357.138 475.983 351.971 482.513 345.62 488.23C339.269 493.947 336.519 496.063 339.903 497.116C343.288 498.168 351.337 497.75 359.386 490.98C367.435 484.211 372.721 479.762 375.257 474.236C376.525 471.486 369.54 468.089 365.306 464.501C361.072 460.913 345.405 437.196 340.537 426.229C335.669 415.262 323.398 399.558 314.297 394.057" stroke="#263238" stroke-linecap="round" stroke-linejoin="round"/>
<path d="M375.245 474.26C376.513 471.51 369.528 468.113 365.294 464.525C361.706 461.499 350.093 444.253 343.587 432.305L329.235 445.03C338.193 453.318 349.136 464.453 355.834 474.045C357.185 475.983 352.019 482.513 345.668 488.23C339.317 493.947 336.566 496.063 339.951 497.116C343.336 498.168 351.385 497.75 359.434 490.98C367.483 484.211 372.709 479.762 375.245 474.26Z" fill="white" stroke="#263238" stroke-linecap="round" stroke-linejoin="round"/>
<path d="M370.892 468.641C369.755 470.339 368.272 472.647 366.562 475.53C362.543 482.299 351.54 490.982 350.057 489.499C349.165 488.491 348.416 487.364 347.833 486.15C347.115 486.844 346.374 487.549 345.608 488.231C339.257 493.948 336.507 496.065 339.891 497.117C343.276 498.17 351.325 497.751 359.374 490.982C367.423 484.213 372.709 479.763 375.245 474.238C376.01 472.587 373.738 470.686 370.892 468.641Z" fill="#651FFF" stroke="#263238" stroke-linecap="round" stroke-linejoin="round"/>
<path d="M428.371 488.016H356.408V491.4H428.371V488.016Z" fill="white" stroke="#263238" stroke-linecap="round" stroke-linejoin="round"/>
<path d="M362.962 397.215L350.428 517.604C350.415 517.739 350.43 517.876 350.472 518.004C350.515 518.133 350.584 518.252 350.676 518.352C350.767 518.452 350.878 518.532 351.003 518.587C351.127 518.641 351.261 518.669 351.397 518.669C351.629 518.668 351.853 518.585 352.028 518.433C352.204 518.282 352.319 518.073 352.354 517.843L371.071 397.215H362.962Z" fill="white" stroke="#263238" stroke-linecap="round" stroke-linejoin="round"/>
<path d="M420.538 397.215L433.131 517.604C433.147 517.739 433.133 517.875 433.092 518.004C433.051 518.132 432.983 518.251 432.892 518.351C432.802 518.452 432.691 518.532 432.567 518.587C432.444 518.642 432.31 518.67 432.175 518.669C431.942 518.671 431.717 518.588 431.541 518.436C431.365 518.285 431.25 518.074 431.218 517.843L412.5 397.215H420.538Z" fill="white" stroke="#263238" stroke-linecap="round" stroke-linejoin="round"/>
<path d="M397.682 397.215L398.268 517.7C398.265 517.956 398.162 518.2 397.981 518.381C397.8 518.562 397.555 518.666 397.299 518.669C397.052 518.669 396.814 518.573 396.635 518.401C396.457 518.229 396.352 517.995 396.342 517.748L389.609 397.215H397.682Z" fill="white" stroke="#263238" stroke-linecap="round" stroke-linejoin="round"/>
<path d="M424.544 379.012H357.903C354.62 379.012 351.959 381.673 351.959 384.956V392.538C351.959 395.821 354.62 398.483 357.903 398.483H424.544C427.827 398.483 430.488 395.821 430.488 392.538V384.956C430.488 381.673 427.827 379.012 424.544 379.012Z" fill="#651FFF"/>
<path opacity="0.2" d="M424.58 379.012H359.422L357.484 383.078C357.484 383.078 417.619 384.131 417.619 387.599C417.619 391.067 418.66 395.6 406.855 395.6C397.287 395.6 365.175 396.055 353.286 396.222C353.762 396.818 354.346 397.317 355.009 397.693L358.501 398.483H424.58C426.166 398.483 427.687 397.853 428.808 396.731C429.93 395.61 430.56 394.089 430.56 392.503V384.92C430.541 383.346 429.903 381.844 428.783 380.738C427.664 379.632 426.154 379.012 424.58 379.012Z" fill="black"/>
<path d="M424.544 379.012H357.903C354.62 379.012 351.959 381.673 351.959 384.956V392.538C351.959 395.821 354.62 398.483 357.903 398.483H424.544C427.827 398.483 430.488 395.821 430.488 392.538V384.956C430.488 381.673 427.827 379.012 424.544 379.012Z" stroke="#263238" stroke-linecap="round" stroke-linejoin="round"/>
<path d="M291.633 401.854C290.15 396.987 284.014 387.251 313.436 366.931C328.984 356.167 362.759 347.879 362.759 347.879L365.928 344.291C365.928 344.291 375.03 353.859 392.814 353.189C410.599 352.519 421.602 344.722 423.719 345.355C425.836 345.989 426.039 351.491 425.202 361.86C424.365 372.23 423.288 377.528 415.036 380.063C406.784 382.599 388.58 383.448 375.46 383.245C368.952 383.226 362.449 382.871 355.977 382.18C355.977 382.18 327.836 399.965 310.266 401.233" fill="#263238"/>
<path d="M291.633 401.855C290.15 396.987 284.014 387.251 313.436 366.931C328.984 356.167 362.759 347.879 362.759 347.879L365.928 344.291C365.928 344.291 375.03 353.859 392.814 353.189C410.599 352.519 421.602 344.722 423.719 345.355C425.836 345.989 426.039 351.491 425.202 361.86C424.365 372.23 423.288 377.528 415.036 380.063C406.784 382.599 388.58 383.448 375.46 383.245C368.952 383.226 362.449 382.871 355.977 382.18C355.977 382.18 327.836 399.965 310.266 401.233" stroke="#263238" stroke-linecap="round" stroke-linejoin="round"/>
<path d="M356.827 285.246C355.547 285.641 316.82 293.283 313.436 292.649C310.051 292.015 301.165 284.397 297.983 284.6C294.802 284.803 288.415 285.88 287.829 287.566C287.243 289.252 289.312 294.981 289.312 294.981C289.312 294.981 287.195 298.151 288.248 299.634C289.3 301.117 295.424 297.517 295.424 297.517C295.424 297.517 302.409 302.6 305.578 301.535C308.747 300.471 312.144 299.215 312.144 299.215C312.144 299.215 361.886 302.169 362.52 302.385C363.153 302.6 369.289 303.868 369.923 294.981C370.557 286.095 364.242 282.914 356.827 285.246Z" fill="white" stroke="#263238" stroke-linecap="round" stroke-linejoin="round"/>
<path d="M289.312 294.981L297.983 287.781" stroke="#263238" stroke-linecap="round" stroke-linejoin="round"/>
<path d="M292.482 291.798L297.134 277.195L299.048 277.614L296.716 288.199L292.482 291.798Z" fill="#263238"/>
<path d="M326.508 300.697C326.508 300.697 275.08 314.87 266.828 313.853C258.575 312.837 256.064 309.189 254.126 309.189C252.189 309.189 246.95 311.736 244.558 311.521C242.166 311.306 239.487 310.672 239.487 312.155C239.487 313.638 241.604 315.97 242.872 315.97C244.139 315.97 249.222 315.755 249.222 315.755C249.222 315.755 239.272 318.721 238.841 320.623C238.75 321.069 238.749 321.529 238.84 321.975C238.93 322.421 239.11 322.844 239.368 323.22C239.626 323.595 239.957 323.914 240.341 324.158C240.725 324.403 241.155 324.567 241.604 324.641C242.616 324.824 243.563 325.265 244.355 325.921C244.784 327.583 245.5 329.158 246.472 330.573C247.739 332.056 251.543 332.69 255.777 331.841C260.01 330.992 267.426 327.189 269.112 326.124C270.798 325.06 322.238 320.407 326.054 319.57C329.869 318.733 334.521 318.721 336.004 316.173C337.487 313.626 326.508 300.697 326.508 300.697Z" fill="white"/>
<path d="M264.316 324.115C255.478 324.115 257.439 315.276 254.497 316.759C251.925 318.039 241.891 319.319 239.045 322.56C239.274 323.095 239.63 323.566 240.082 323.933C240.534 324.3 241.069 324.551 241.64 324.665C242.652 324.848 243.599 325.289 244.391 325.945C244.82 327.607 245.536 329.181 246.508 330.597C247.775 332.08 251.579 332.714 255.812 331.865C260.046 331.016 267.461 327.212 269.148 326.148C270.834 325.084 322.274 320.431 326.089 319.594C329.163 318.9 332.799 318.769 334.856 317.405L336.052 316.209L330.586 310.875C330.586 310.875 273.19 324.115 264.316 324.115Z" fill="#651FFF"/>
<path opacity="0.5" d="M264.316 324.115C255.478 324.115 257.439 315.276 254.497 316.759C251.925 318.039 241.891 319.319 239.045 322.56C239.274 323.095 239.63 323.566 240.082 323.933C240.534 324.3 241.069 324.551 241.64 324.665C242.652 324.848 243.599 325.289 244.391 325.945C244.82 327.607 245.536 329.181 246.508 330.597C247.775 332.08 251.579 332.714 255.812 331.865C260.046 331.016 267.461 327.212 269.148 326.148C270.834 325.084 322.274 320.431 326.089 319.594C329.163 318.9 332.799 318.769 334.856 317.405L336.052 316.209L330.586 310.875C330.586 310.875 273.19 324.115 264.316 324.115Z" fill="white"/>
<path d="M326.508 300.697C326.508 300.697 275.08 314.87 266.828 313.853C258.575 312.837 256.064 309.189 254.126 309.189C252.189 309.189 246.95 311.736 244.558 311.521C242.166 311.306 239.487 310.672 239.487 312.155C239.487 313.638 241.604 315.97 242.872 315.97C244.139 315.97 249.222 315.755 249.222 315.755C249.222 315.755 239.272 318.721 238.841 320.623C238.75 321.069 238.749 321.529 238.84 321.975C238.93 322.421 239.11 322.844 239.368 323.22C239.626 323.595 239.957 323.914 240.341 324.158C240.725 324.403 241.155 324.567 241.604 324.641C242.616 324.824 243.563 325.265 244.355 325.921C244.784 327.583 245.5 329.158 246.472 330.573C247.739 332.056 251.543 332.69 255.777 331.841C260.01 330.992 267.426 327.189 269.112 326.124C270.798 325.06 322.238 320.407 326.054 319.57C329.869 318.733 334.521 318.721 336.004 316.173C337.487 313.626 326.508 300.697 326.508 300.697Z" stroke="#263238" stroke-linecap="round" stroke-linejoin="round"/>
<path d="M369.947 248.84C369.947 248.84 365.294 261.529 359.374 269.997C353.454 278.465 350.906 287.363 354.71 296.883C355.722 299.607 357.331 302.071 359.419 304.093C361.508 306.115 364.022 307.644 366.777 308.568C366.777 308.568 363.811 336.506 364.66 343.922C365.51 351.337 376.931 360.008 394.082 360.666C411.233 361.323 426.039 355.164 426.039 349.232C426.039 343.3 413.983 311.773 413.983 305.207C413.983 298.641 415.036 278.118 409.319 259.759C403.602 241.401 383.497 235.289 369.947 248.84Z" fill="#651FFF"/>
<path opacity="0.2" d="M409.319 259.626C406.245 249.711 398.986 243.421 390.829 241.842C386.894 242.715 376.142 245.226 373.463 245.86C372.21 246.753 371.034 247.75 369.947 248.838C369.947 248.838 365.294 261.528 359.374 269.996C355.391 275.677 352.952 281.549 352.916 287.661C368.535 291.356 392.384 297.372 389.992 298.042C386.559 299.023 371.836 291.165 376.25 296.08C380.663 300.996 404.236 323.588 397.359 321.603C390.482 319.618 375.269 303.436 379.204 311.294C383.139 319.151 393.927 331.913 390.494 331.913C387.061 331.913 368.894 313.745 375.269 324.545C381.644 335.345 410.611 352.532 401.282 354.983C395.9 356.395 384.478 356.024 377.852 357.136C382.997 359.272 388.49 360.443 394.058 360.593C411.197 361.227 426.015 355.091 426.015 349.159C426.015 343.227 413.959 311.7 413.959 305.134C413.959 298.568 415.012 278.045 409.319 259.626Z" fill="black"/>
<path d="M369.947 248.84C369.947 248.84 365.294 261.529 359.374 269.997C353.454 278.465 350.906 287.363 354.71 296.883C355.722 299.607 357.331 302.071 359.419 304.093C361.508 306.115 364.022 307.644 366.777 308.568C366.777 308.568 363.811 336.506 364.66 343.922C365.51 351.337 376.931 360.008 394.082 360.666C411.233 361.323 426.039 355.164 426.039 349.232C426.039 343.3 413.983 311.773 413.983 305.207C413.983 298.641 415.036 278.118 409.319 259.759C403.602 241.401 383.497 235.289 369.947 248.84Z" stroke="#263238" stroke-linecap="round" stroke-linejoin="round"/>
<path d="M372.554 300.195C372.554 300.195 388.102 325.311 410.826 332.487" stroke="#263238" stroke-linecap="round" stroke-linejoin="round"/>
<path d="M370.76 304.381C370.76 304.381 376.74 324.115 392.288 333.683" stroke="#263238" stroke-linecap="round" stroke-linejoin="round"/>
<path d="M373.965 288.571C373.965 288.571 388.018 282.447 393.783 278.488" stroke="#263238" stroke-linecap="round" stroke-linejoin="round"/>
<path d="M368.201 290.018C368.201 290.018 373.248 291.094 386.212 290.018" stroke="#263238" stroke-linecap="round" stroke-linejoin="round"/>
<path d="M368.679 252.008C365.415 254.089 362.429 256.576 359.793 259.411C354.925 264.494 331.424 300.075 331.424 300.075C331.424 300.075 338.408 314.69 340.525 315.109C342.642 315.527 379.479 284.013 382.863 280.186C386.248 276.358 388.365 269.422 387.313 266.42" fill="#651FFF"/>
<path opacity="0.2" d="M382.864 280.162C386.248 276.347 388.365 269.398 387.313 266.396L378.941 259.938L376.262 262.7C376.262 262.7 376.082 273.536 366.442 279.384C356.803 285.233 352.7 285.281 351.229 292.636C349.758 299.992 354.662 301.965 348.778 302.946C342.893 303.926 338.958 304.417 338.958 308.352C338.997 310.3 339.145 312.244 339.401 314.176C339.681 314.576 340.066 314.891 340.513 315.085C342.642 315.504 379.479 283.965 382.864 280.162Z" fill="black"/>
<path d="M368.679 252.008C365.415 254.089 362.429 256.576 359.793 259.411C354.925 264.494 331.424 300.075 331.424 300.075C331.424 300.075 338.408 314.69 340.525 315.109C342.642 315.527 379.479 284.013 382.863 280.186C386.248 276.358 388.365 269.422 387.313 266.42" stroke="#263238" stroke-linecap="round" stroke-linejoin="round"/>
<path d="M323.386 302.169C323.386 302.169 329.952 317.837 331.424 319.535C332.895 321.233 340.74 320.169 343.276 318.255C345.811 316.342 345.393 312.55 345.393 312.55C345.393 312.55 335.657 295.4 334.629 294.61C333.6 293.821 333.146 295.675 328.649 297.158C324.152 298.641 322.537 299.215 323.386 302.169Z" fill="white" stroke="#263238" stroke-linecap="round" stroke-linejoin="round"/>
<path d="M333.971 208.833C333.971 208.833 333.54 214.969 334.605 216.871C335.669 218.772 338.624 220.686 338.624 223.221C338.624 225.757 336.507 229.201 337.14 231.055C337.774 232.909 341.171 233.172 341.171 233.172C341.171 233.172 347.51 241.006 349.423 243.757C351.337 246.507 352.174 245.443 355.14 244.606C358.106 243.769 364.445 238.255 368.045 234.021C371.645 229.787 365.653 216.871 357.891 208.2C350.129 199.529 338.408 199.732 335.873 202.22C333.337 204.707 333.971 208.833 333.971 208.833Z" fill="white"/>
<path d="M350.751 202.9C349.77 207.684 348.789 215.901 351.732 221.462C356.157 229.834 359.589 234.224 357.138 241.101C356.695 242.297 356.241 243.397 355.798 244.354C358.955 243.002 364.696 237.955 368.045 234.02C371.633 229.786 365.653 216.87 357.891 208.199C355.888 205.974 353.461 204.173 350.751 202.9Z" fill="#651FFF"/>
<path opacity="0.5" d="M350.751 202.9C349.77 207.684 348.789 215.901 351.732 221.462C356.157 229.834 359.589 234.224 357.138 241.101C356.695 242.297 356.241 243.397 355.798 244.354C358.955 243.002 364.696 237.955 368.045 234.02C371.633 229.786 365.653 216.87 357.891 208.199C355.888 205.974 353.461 204.173 350.751 202.9Z" fill="white"/>
<path d="M338.623 217.934C338.623 217.934 338.623 214.752 342.439 216.869" stroke="#263238" stroke-linecap="round" stroke-linejoin="round"/>
<path d="M341.338 220.877L341.841 223.807C341.841 223.807 344.161 224.608 345.871 221.583" stroke="#263238" stroke-linecap="round" stroke-linejoin="round"/>
<path d="M333.971 208.833C333.971 208.833 333.54 214.969 334.605 216.871C335.669 218.772 338.624 220.686 338.624 223.221C338.624 225.757 336.507 229.201 337.14 231.055C337.774 232.909 341.171 233.172 341.171 233.172C341.171 233.172 347.51 241.006 349.423 243.757C351.337 246.507 352.174 245.443 355.14 244.606C358.106 243.769 364.445 238.255 368.045 234.021C371.645 229.787 365.653 216.871 357.891 208.2C350.129 199.529 338.408 199.732 335.873 202.22C333.337 204.707 333.971 208.833 333.971 208.833Z" stroke="#263238" stroke-linecap="round" stroke-linejoin="round"/>
<path d="M327.405 199.516V200.365L327.022 210.734L338.444 212.217L340.992 207.768V212.636C344.516 212.341 348.061 212.848 351.361 214.119C356.862 216.236 363.847 231.27 363.429 237.405C363.01 243.541 357.712 244.808 358.346 254.149C358.979 263.49 373.152 272.747 383.916 266.827C394.68 260.907 396.414 253.276 400.851 254.759C405.289 256.242 412.07 265.344 416.304 252.427C420.538 239.51 418.636 231.27 408.685 220.685C398.734 210.101 390.913 210.95 389.633 202.482C388.353 194.014 385.614 182.581 376.477 176.17C367.339 169.759 354.255 169.401 342.989 174.268C331.723 179.136 327.405 194.014 327.405 199.516Z" fill="#263238"/>
<path d="M333.768 204.372C333.692 204.384 333.616 204.384 333.54 204.372C332.344 204.097 332.153 201.98 332.034 196.838C332.034 195.498 331.974 194.123 331.89 193.022C331.89 192.915 331.89 192.819 331.89 192.747C330.873 193.943 328.721 199.026 327.106 203.511L325.982 203.105C330.311 191.049 331.723 191.228 332.177 191.3C333.002 191.408 333.086 192.496 333.122 192.903C333.206 194.027 333.241 195.426 333.265 196.766C333.265 198.895 333.397 202.387 333.839 203.117C334.418 202.522 334.873 201.819 335.179 201.048C336.375 198.56 337.571 197.46 338.671 197.46C340.083 197.46 340.824 199.397 341.35 200.773C341.478 201.112 341.625 201.444 341.793 201.765C342.319 201.909 344.185 200.007 345.178 198.979L346.051 198.093C346.251 197.832 346.508 197.619 346.802 197.47C347.096 197.321 347.419 197.24 347.749 197.232C348.419 197.34 348.742 197.962 349.088 198.608C349.405 199.306 349.866 199.929 350.44 200.438C350.823 200.737 351.014 200.689 351.098 200.677C351.959 200.462 352.999 198.141 354.207 195.462C354.482 194.828 354.781 194.171 355.104 193.477C355.427 192.783 356.037 191.623 356.922 191.707C358.035 191.791 358.549 193.537 359.314 196.18C359.781 198.29 360.589 200.31 361.706 202.16C361.981 202.495 362.352 202.878 362.699 202.842C363.632 202.686 364.66 199.923 365.282 198.273C365.558 197.448 365.902 196.648 366.311 195.881C366.402 195.688 366.545 195.525 366.725 195.41C366.905 195.296 367.114 195.235 367.327 195.235C368.213 195.235 368.822 196.431 369.648 198.058C370.27 199.254 371.119 200.94 371.824 201.215C371.968 201.275 372.016 201.215 372.052 201.215C372.518 200.976 372.913 199.433 373.248 198.201C373.53 196.815 374.022 195.48 374.707 194.242C374.883 193.952 375.12 193.703 375.4 193.511C375.681 193.319 375.999 193.189 376.333 193.13C377.9 192.879 379.646 194.23 380.806 195.139C380.747 194.529 380.615 193.692 380.507 192.963C379.909 188.98 379.742 187.054 380.735 186.504C381.201 186.253 381.751 186.397 382.373 186.947C383.449 187.965 384.471 189.039 385.435 190.164C387.624 192.628 390.948 196.335 392.288 195.977C392.659 195.881 392.862 195.307 392.958 194.852L394.154 195.092C393.903 196.288 393.388 196.933 392.623 197.137C390.697 197.639 388.078 194.9 384.562 190.965C383.608 189.846 382.594 188.78 381.524 187.772C381.438 187.689 381.341 187.616 381.237 187.557C381.154 189.285 381.287 191.016 381.632 192.711C382.062 195.522 382.146 196.299 381.632 196.622C381.513 196.701 381.373 196.742 381.231 196.742C381.089 196.742 380.949 196.701 380.83 196.622C380.627 196.479 380.364 196.288 380.077 196.048C379.132 195.319 377.553 194.111 376.489 194.266C376.317 194.298 376.154 194.366 376.011 194.468C375.869 194.569 375.75 194.7 375.664 194.852C375.061 195.979 374.626 197.188 374.372 198.44C373.905 200.21 373.511 201.741 372.566 202.22C372.379 202.307 372.175 202.353 371.968 202.353C371.761 202.353 371.557 202.307 371.37 202.22C370.246 201.777 369.397 200.103 368.571 198.5C368.245 197.756 367.844 197.047 367.375 196.383C367.004 197.102 366.692 197.85 366.442 198.62C365.557 201.012 364.553 203.691 362.914 203.942C362.493 203.97 362.073 203.879 361.701 203.68C361.329 203.482 361.02 203.183 360.809 202.818C359.591 200.863 358.713 198.716 358.214 196.467C357.951 195.207 357.49 193.996 356.851 192.879C356.612 193.216 356.407 193.577 356.241 193.955C355.918 194.637 355.619 195.307 355.344 195.929C353.849 199.266 352.856 201.466 351.421 201.813C351.123 201.873 350.815 201.862 350.522 201.781C350.229 201.7 349.959 201.551 349.734 201.347C349.033 200.739 348.471 199.989 348.084 199.146C347.961 198.873 347.8 198.62 347.605 198.392C347.605 198.392 347.414 198.392 346.948 198.907L346.087 199.792C344.101 201.825 342.833 203.045 341.745 202.961C341.563 202.944 341.388 202.885 341.233 202.79C341.077 202.695 340.946 202.565 340.848 202.411C340.623 202.031 340.434 201.631 340.286 201.215C339.951 200.33 339.305 198.691 338.659 198.668C338.468 198.668 337.667 198.847 336.267 201.586C335.239 203.535 334.509 204.372 333.768 204.372Z" fill="#575757"/>
<path d="M357.604 252.428C357.604 252.428 360.57 241.389 363.584 244.893C366.598 248.397 368.691 249.474 368.966 246.508C369.241 243.542 368.966 239.236 371.932 243.278C374.898 247.321 382.158 251.351 382.696 245.156C383.234 238.961 384.048 230.613 387.552 234.93C391.056 239.248 394.01 242.465 394.285 240.037C394.56 237.609 396.976 235.732 398.053 238.423C399.129 241.114 399.942 243.817 400.744 237.621C401.545 231.426 397.778 224.693 401.82 226.307C405.863 227.922 407.8 233.304 407.8 230.35C407.8 227.396 402.944 223.879 407.262 224.956C411.579 226.032 412.106 228.735 412.644 227.121C413.182 225.506 410.252 221.727 413.995 221.727" stroke="#575757" stroke-miterlimit="10"/>
<path d="M327.405 199.516V200.365L327.022 210.734L338.444 212.217L340.992 207.768V212.636C344.516 212.341 348.061 212.848 351.361 214.119C356.862 216.236 363.847 231.27 363.429 237.405C363.01 243.541 357.712 244.808 358.346 254.149C358.979 263.49 373.152 272.747 383.916 266.827C394.68 260.907 396.414 253.276 400.851 254.759C405.289 256.242 412.07 265.344 416.304 252.427C420.538 239.51 418.636 231.27 408.685 220.685C398.734 210.101 390.913 210.95 389.633 202.482C388.353 194.014 385.614 182.581 376.477 176.17C367.339 169.759 354.255 169.401 342.989 174.268C331.723 179.136 327.405 194.014 327.405 199.516Z" stroke="#263238" stroke-linecap="round" stroke-linejoin="round"/>
<path d="M80.4071 519.494H518.071" stroke="#263238" stroke-miterlimit="10"/>
</svg>
