<svg width="496" height="496" viewBox="0 0 496 496" fill="none" xmlns="http://www.w3.org/2000/svg">
<path opacity="0.5" d="M455.457 136.896H136.936V349.591H455.457V136.896Z" stroke="black" stroke-linecap="round" stroke-linejoin="round"/>
<path opacity="0.5" d="M451.181 139.754H141.211V346.745H451.181V139.754Z" stroke="black" stroke-linecap="round" stroke-linejoin="round"/>
<path opacity="0.3" d="M178.739 170.753C178.739 170.753 182.131 189.075 182.131 194.502V213.498C182.131 213.498 195.702 214.173 206.554 213.498C217.407 212.824 230.303 206.039 230.303 206.039C230.303 206.039 225.551 187.716 225.551 182.965C225.551 178.213 222.843 166.656 222.843 166.656L178.739 170.753Z" fill="white" stroke="black" stroke-linecap="round" stroke-linejoin="round"/>
<path opacity="0.3" d="M180.088 284.705C180.088 284.705 178.104 300.309 178.104 307.095C178.104 313.88 174.711 324.732 174.711 324.732C174.711 324.732 191 330.843 195.067 330.843C199.134 330.843 216.782 329.484 216.782 329.484L219.5 289.457C219.5 289.457 185.504 286.104 180.088 284.705Z" fill="white" stroke="black" stroke-linecap="round" stroke-linejoin="round"/>
<path opacity="0.3" d="M255.41 200.603L263.545 237.922C263.545 237.922 273.723 238.606 284.585 238.606C295.447 238.606 313.76 228.428 313.76 228.428C313.76 228.428 304.941 210.781 304.941 206.039C304.941 201.297 302.223 187.717 302.223 187.717C302.223 187.717 274.447 196.536 270.33 197.21C266.213 197.885 255.41 200.603 255.41 200.603Z" fill="white" stroke="black" stroke-linecap="round" stroke-linejoin="round"/>
<path opacity="0.3" d="M316.448 190.465C316.448 190.465 314.464 214.888 314.464 217.596C314.464 220.304 313.789 231.167 313.789 231.167C313.789 231.167 327.36 233.21 334.82 233.21C342.28 233.21 355.176 232.526 355.176 232.526C355.176 232.526 354.501 208.777 355.85 206.734C357.199 204.69 357.894 193.838 357.894 193.838C357.894 193.838 319.186 191.11 316.448 190.465Z" fill="white" stroke="black" stroke-linecap="round" stroke-linejoin="round"/>
<path opacity="0.3" d="M331.397 244.707V260.996C331.397 263.704 330.038 283.385 330.038 283.385C330.038 283.385 347.686 284.06 354.471 283.385C361.257 282.711 374.827 278.634 374.827 278.634L372.784 256.929L371.435 242.049C371.435 242.049 338.867 246.751 331.397 244.707Z" fill="white" stroke="black" stroke-linecap="round" stroke-linejoin="round"/>
<path opacity="0.3" d="M433.851 153.115L418.247 153.789H410.103V165.326C410.103 168.719 409.428 179.572 409.428 181.605C409.428 183.639 420.281 184.998 425.032 184.998H441.996L442.67 151.756L433.851 153.115Z" fill="white" stroke="black" stroke-linecap="round" stroke-linejoin="round"/>
<g opacity="0.5">
<path d="M394.499 226.395H423.673" stroke="black" stroke-linecap="round" stroke-linejoin="round"/>
<path d="M394.499 233.18H423.673" stroke="black" stroke-linecap="round" stroke-linejoin="round"/>
<path d="M394.499 239.965H423.673" stroke="black" stroke-linecap="round" stroke-linejoin="round"/>
<path d="M394.499 246.75H423.673" stroke="black" stroke-linecap="round" stroke-linejoin="round"/>
</g>
<g opacity="0.5">
<path d="M243.873 149.039H340.216" stroke="black" stroke-linecap="round" stroke-linejoin="round"/>
<path d="M243.873 155.824H340.216" stroke="black" stroke-linecap="round" stroke-linejoin="round"/>
</g>
<g opacity="0.5">
<path d="M342.25 296.955H371.435" stroke="black" stroke-linecap="round" stroke-linejoin="round"/>
<path d="M342.25 303.74H371.435" stroke="black" stroke-linecap="round" stroke-linejoin="round"/>
<path d="M342.25 310.525H371.435" stroke="black" stroke-linecap="round" stroke-linejoin="round"/>
<path d="M342.25 317.311H371.435" stroke="black" stroke-linecap="round" stroke-linejoin="round"/>
</g>
<g opacity="0.5">
<path d="M161.091 252.178H190.266" stroke="black" stroke-linecap="round" stroke-linejoin="round"/>
<path d="M161.091 258.963H190.266" stroke="black" stroke-linecap="round" stroke-linejoin="round"/>
<path d="M161.091 265.748H190.266" stroke="black" stroke-linecap="round" stroke-linejoin="round"/>
<path d="M161.091 272.533H190.266" stroke="black" stroke-linecap="round" stroke-linejoin="round"/>
</g>
<g opacity="0.5">
<path d="M366.683 166.686H395.858" stroke="black" stroke-linecap="round" stroke-linejoin="round"/>
<path d="M366.683 173.471H395.858" stroke="black" stroke-linecap="round" stroke-linejoin="round"/>
<path d="M366.683 180.256H395.858" stroke="black" stroke-linecap="round" stroke-linejoin="round"/>
<path d="M366.683 187.041H395.858" stroke="black" stroke-linecap="round" stroke-linejoin="round"/>
</g>
<path opacity="0.5" d="M259.904 231.473L243.179 236.255L247.484 239.985C239.657 245.133 223.081 253.952 212.238 244.994C197.696 232.981 201.614 222.595 201.783 222.178L200.493 221.662L199.213 221.137C199.005 221.643 194.253 233.765 210.473 247.157C214.166 250.187 218.821 251.795 223.597 251.69C233.715 251.69 244.161 245.659 249.676 241.909L255.123 246.621L259.904 231.473Z" fill="black"/>
<path opacity="0.5" d="M428.752 202.915L423.921 186.805L415.063 199.691L419.983 200.851L414.874 219.233L417.553 219.977L422.691 201.486L428.752 202.915Z" fill="black"/>
<path opacity="0.3" d="M206.554 172.786C206.554 171.979 206.315 171.191 205.866 170.52C205.418 169.849 204.781 169.327 204.035 169.018C203.289 168.71 202.469 168.63 201.678 168.788C200.887 168.946 200.16 169.335 199.591 169.907C199.021 170.478 198.633 171.205 198.477 171.997C198.321 172.788 198.403 173.608 198.713 174.353C199.023 175.098 199.547 175.734 200.219 176.181C200.891 176.628 201.68 176.865 202.487 176.863C203.567 176.861 204.601 176.43 205.364 175.666C206.126 174.901 206.554 173.866 206.554 172.786Z" fill="white" stroke="black" stroke-linecap="round" stroke-linejoin="round"/>
<path opacity="0.3" d="M281.192 198.569C281.192 197.763 280.953 196.975 280.505 196.304C280.057 195.634 279.42 195.111 278.675 194.803C277.93 194.494 277.111 194.413 276.32 194.571C275.529 194.728 274.802 195.116 274.232 195.686C273.662 196.257 273.274 196.983 273.116 197.774C272.959 198.565 273.04 199.385 273.348 200.13C273.657 200.875 274.18 201.511 274.85 201.959C275.521 202.407 276.309 202.646 277.115 202.646C277.651 202.646 278.181 202.541 278.675 202.336C279.17 202.131 279.62 201.831 279.998 201.452C280.377 201.074 280.677 200.624 280.882 200.13C281.087 199.635 281.192 199.105 281.192 198.569Z" fill="#651FFF" stroke="black" stroke-linecap="round" stroke-linejoin="round"/>
<path opacity="0.3" d="M338.867 196.535C341.113 196.535 342.934 194.714 342.934 192.468C342.934 190.221 341.113 188.4 338.867 188.4C336.621 188.4 334.8 190.221 334.8 192.468C334.8 194.714 336.621 196.535 338.867 196.535Z" fill="white" stroke="black" stroke-linecap="round" stroke-linejoin="round"/>
<path opacity="0.3" d="M356.505 248.784C356.507 247.978 356.269 247.188 355.823 246.516C355.376 245.845 354.74 245.321 353.995 245.01C353.25 244.7 352.43 244.618 351.639 244.774C350.847 244.931 350.12 245.318 349.548 245.888C348.977 246.458 348.588 247.184 348.43 247.975C348.272 248.766 348.352 249.587 348.66 250.332C348.968 251.078 349.491 251.715 350.162 252.164C350.832 252.612 351.621 252.852 352.428 252.852C353.507 252.852 354.543 252.423 355.307 251.661C356.072 250.898 356.502 249.864 356.505 248.784Z" fill="white" stroke="black" stroke-linecap="round" stroke-linejoin="round"/>
<path opacity="0.3" d="M206.554 292.204C206.554 291.397 206.315 290.609 205.866 289.938C205.418 289.267 204.781 288.745 204.035 288.436C203.289 288.128 202.469 288.048 201.678 288.206C200.887 288.364 200.16 288.753 199.591 289.325C199.021 289.896 198.633 290.623 198.477 291.415C198.321 292.206 198.403 293.026 198.713 293.771C199.023 294.516 199.547 295.152 200.219 295.599C200.891 296.046 201.68 296.283 202.487 296.281C203.567 296.279 204.601 295.848 205.364 295.084C206.126 294.319 206.554 293.284 206.554 292.204Z" fill="#651FFF" stroke="black" stroke-linecap="round" stroke-linejoin="round"/>
<path opacity="0.3" d="M426.391 157.183C428.638 157.183 430.459 155.362 430.459 153.116C430.459 150.87 428.638 149.049 426.391 149.049C424.145 149.049 422.324 150.87 422.324 153.116C422.324 155.362 424.145 157.183 426.391 157.183Z" fill="#651FFF" stroke="black" stroke-linecap="round" stroke-linejoin="round"/>
<path d="M466.24 333.312H324.543V437.006H466.24V333.312Z" fill="#263238" stroke="#263238" stroke-linecap="round" stroke-linejoin="round"/>
<path opacity="0.25" d="M459.405 338.312H331.378V432.007H459.405V338.312Z" fill="white" stroke="#263238" stroke-linecap="round" stroke-linejoin="round"/>
<path d="M409.24 433.018H383.825V453.344H409.24V433.018Z" fill="#263238" stroke="#263238" stroke-linecap="round" stroke-linejoin="round"/>
<path d="M335.177 352.418H454.981" stroke="white" stroke-linecap="round" stroke-linejoin="round"/>
<path d="M336.635 374.928H365.235" stroke="white" stroke-linecap="round" stroke-linejoin="round"/>
<path d="M354.511 382.912H370.76" stroke="white" stroke-linecap="round" stroke-linejoin="round"/>
<path d="M336.635 382.912H352.239" stroke="white" stroke-linecap="round" stroke-linejoin="round"/>
<path d="M363.29 390.898H390.917" stroke="white" stroke-linecap="round" stroke-linejoin="round"/>
<path d="M336.635 390.898H359.709" stroke="white" stroke-linecap="round" stroke-linejoin="round"/>
<path d="M336.635 398.883H353.212" stroke="white" stroke-linecap="round" stroke-linejoin="round"/>
<path d="M352.567 406.879H370.76" stroke="white" stroke-linecap="round" stroke-linejoin="round"/>
<path d="M336.635 406.879H348.013" stroke="white" stroke-linecap="round" stroke-linejoin="round"/>
<path d="M399.359 414.865H407.484" stroke="white" stroke-linecap="round" stroke-linejoin="round"/>
<path d="M348.668 414.865H394.489" stroke="white" stroke-linecap="round" stroke-linejoin="round"/>
<path d="M336.635 414.865H345.087" stroke="white" stroke-linecap="round" stroke-linejoin="round"/>
<path d="M45.8502 298.979L61.9504 453.244" stroke="#263238" stroke-linecap="round" stroke-linejoin="round"/>
<path d="M61.623 450.398L53.4192 441.777" stroke="#263238" stroke-linecap="round" stroke-linejoin="round"/>
<path d="M56.1274 444.596C56.1101 443.155 55.7841 441.735 55.1715 440.431C54.5589 439.127 53.6738 437.97 52.576 437.037C50.2845 435.003 38.2614 429.934 37.1107 434.17C35.8806 438.783 48.2013 447.83 56.1274 444.596Z" fill="#651FFF" stroke="#263238" stroke-linecap="round" stroke-linejoin="round"/>
<path d="M56.1273 444.596L44.6697 437.453" stroke="#263238" stroke-linecap="round" stroke-linejoin="round"/>
<path d="M56.0579 396.82L47.9731 389.539" stroke="#263238" stroke-linecap="round" stroke-linejoin="round"/>
<path d="M50.6714 392.357C50.6545 390.919 50.3297 389.501 49.7188 388.199C49.1079 386.896 48.2252 385.74 47.1299 384.808C44.8483 382.764 32.8154 377.705 31.6745 381.941C30.4345 386.544 42.7453 395.601 50.6714 392.357Z" fill="#651FFF" stroke="#263238" stroke-linecap="round" stroke-linejoin="round"/>
<path d="M50.6713 392.357L39.2237 385.225" stroke="#263238" stroke-linecap="round" stroke-linejoin="round"/>
<path d="M58.3097 419.578L50.2051 410.947" stroke="#263238" stroke-linecap="round" stroke-linejoin="round"/>
<path d="M52.9133 413.763C52.8933 412.325 52.5661 410.907 51.9536 409.605C51.3411 408.303 50.4575 407.147 49.3619 406.214C47.0803 404.171 35.0473 399.111 33.9065 403.347C32.6665 407.95 44.9773 417.007 52.9133 413.763Z" fill="#651FFF" stroke="#263238" stroke-linecap="round" stroke-linejoin="round"/>
<path d="M52.9133 413.763L41.4557 406.631" stroke="#263238" stroke-linecap="round" stroke-linejoin="round"/>
<path d="M52.4569 363.033L44.3424 354.77" stroke="#263238" stroke-linecap="round" stroke-linejoin="round"/>
<path d="M47.0505 357.588C47.03 356.148 46.7027 354.729 46.0903 353.425C45.4779 352.122 44.5945 350.964 43.4992 350.029C41.2176 347.995 29.1846 342.936 28.0438 347.172C26.784 351.775 39.1145 360.822 47.0505 357.588Z" fill="#651FFF" stroke="#263238" stroke-linecap="round" stroke-linejoin="round"/>
<path d="M47.0506 357.588L35.593 350.455" stroke="#263238" stroke-linecap="round" stroke-linejoin="round"/>
<path d="M48.5485 325.853L40.6918 319.842" stroke="#263238" stroke-linecap="round" stroke-linejoin="round"/>
<path d="M43.4 322.658C43.3831 321.22 43.0583 319.802 42.4475 318.499C41.8366 317.197 40.9538 316.041 39.8585 315.109C37.567 313.065 25.544 308.006 24.4032 312.242C23.1632 316.855 35.4739 325.902 43.4 322.658Z" fill="#651FFF" stroke="#263238" stroke-linecap="round" stroke-linejoin="round"/>
<path d="M43.4 322.658L31.9523 315.525" stroke="#263238" stroke-linecap="round" stroke-linejoin="round"/>
<path d="M60.8294 438.514L67.6048 427.473" stroke="#263238" stroke-linecap="round" stroke-linejoin="round"/>
<path d="M65.5315 430.787C65.2553 429.375 65.2841 427.921 65.616 426.521C65.948 425.122 66.5753 423.809 67.456 422.672C69.2714 420.202 79.9949 412.752 81.9888 416.67C84.1414 420.926 73.9635 432.324 65.5315 430.787Z" fill="#651FFF" stroke="#263238" stroke-linecap="round" stroke-linejoin="round"/>
<path d="M65.5315 430.786L73.5965 423.227" stroke="#263238" stroke-linecap="round" stroke-linejoin="round"/>
<path d="M54.9469 382.187L61.7222 371.146" stroke="#263238" stroke-linecap="round" stroke-linejoin="round"/>
<path d="M59.6589 374.46C59.3778 373.048 59.4023 371.593 59.7309 370.191C60.0594 368.79 60.6843 367.475 61.5635 366.336C63.3789 363.865 71.7712 357.685 73.7651 361.594C75.9277 365.84 68.0809 375.968 59.6589 374.46Z" fill="#651FFF" stroke="#263238" stroke-linecap="round" stroke-linejoin="round"/>
<path d="M59.6589 374.46L69.9658 364.6" stroke="#263238" stroke-linecap="round" stroke-linejoin="round"/>
<path d="M52.3677 357.428L59.1331 346.387" stroke="#263238" stroke-linecap="round" stroke-linejoin="round"/>
<path d="M57.0697 349.701C56.7922 348.29 56.8194 346.836 57.1496 345.437C57.4798 344.037 58.1053 342.724 58.9843 341.586C60.7997 339.116 71.5232 331.666 73.5171 335.634C75.6797 339.84 65.472 351.238 57.0697 349.701Z" fill="#651FFF" stroke="#263238" stroke-linecap="round" stroke-linejoin="round"/>
<path d="M57.0697 349.7L67.3865 339.85" stroke="#263238" stroke-linecap="round" stroke-linejoin="round"/>
<path d="M48.5782 321.141L55.3536 310.1" stroke="#263238" stroke-linecap="round" stroke-linejoin="round"/>
<path d="M53.2803 313.414C53.0025 312.001 53.0297 310.546 53.3598 309.145C53.69 307.744 54.3156 306.429 55.1949 305.289C57.0102 302.819 67.7337 295.369 69.7277 299.337C71.8902 303.553 61.7123 314.942 53.2803 313.414Z" fill="#651FFF" stroke="#263238" stroke-linecap="round" stroke-linejoin="round"/>
<path d="M53.2803 313.413L63.5971 303.553" stroke="#263238" stroke-linecap="round" stroke-linejoin="round"/>
<path d="M45.6816 297.937C45.404 296.524 45.433 295.067 45.7667 293.665C46.1004 292.264 46.7311 290.95 47.616 289.813C49.4314 287.343 60.1549 279.893 62.1389 283.861C64.2915 288.067 54.1136 299.465 45.6816 297.937Z" fill="#651FFF" stroke="#263238" stroke-linecap="round" stroke-linejoin="round"/>
<path d="M45.6816 297.939L55.9984 288.078" stroke="#263238" stroke-linecap="round" stroke-linejoin="round"/>
<path d="M46.2768 298.364C44.844 298.492 43.4004 298.313 42.0422 297.84C40.684 297.366 39.4424 296.608 38.4003 295.616C36.1385 293.543 29.8691 282.105 33.9661 280.528C38.4201 278.822 48.6873 290.14 46.2768 298.364Z" fill="#651FFF" stroke="#263238" stroke-linecap="round" stroke-linejoin="round"/>
<path d="M46.2768 298.365L37.5571 287.076" stroke="#263238" stroke-linecap="round" stroke-linejoin="round"/>
<path d="M75.2729 248.258V453.641" stroke="#263238" stroke-linecap="round" stroke-linejoin="round"/>
<path d="M97.6624 324.9L84.191 452.997" stroke="#263238" stroke-linecap="round" stroke-linejoin="round"/>
<path d="M87.7721 420.935L81.0662 415.33" stroke="#263238" stroke-linecap="round" stroke-linejoin="round"/>
<path d="M83.1494 417.275C83.4305 415.864 83.406 414.408 83.0774 413.007C82.7489 411.605 82.124 410.29 81.2448 409.151C79.4294 406.681 68.696 399.231 66.7021 403.199C64.5395 407.415 74.7274 418.813 83.1494 417.275Z" fill="#651FFF" stroke="#263238" stroke-linecap="round" stroke-linejoin="round"/>
<path d="M83.1494 417.276L73.4179 407.932" stroke="#263238" stroke-linecap="round" stroke-linejoin="round"/>
<path d="M85.2723 444.585L78.864 435.369" stroke="#263238" stroke-linecap="round" stroke-linejoin="round"/>
<path d="M80.9373 438.682C81.2194 437.265 81.1946 435.804 80.8643 434.397C80.534 432.991 79.9061 431.671 79.0227 430.528C77.2073 428.058 66.4739 420.608 64.48 424.576C62.3174 428.821 72.5053 440.22 80.9373 438.682Z" fill="#651FFF" stroke="#263238" stroke-linecap="round" stroke-linejoin="round"/>
<path d="M80.9373 438.683L71.1958 429.338" stroke="#263238" stroke-linecap="round" stroke-linejoin="round"/>
<path d="M91.1648 386.641L84.6969 379.182" stroke="#263238" stroke-linecap="round" stroke-linejoin="round"/>
<path d="M86.7603 382.495C87.0407 381.083 87.0149 379.627 86.6846 378.225C86.3543 376.823 85.7273 375.509 84.8458 374.37C83.0304 371.91 72.3069 364.45 70.313 368.418C68.1504 372.644 78.368 384.033 86.7603 382.495Z" fill="#651FFF" stroke="#263238" stroke-linecap="round" stroke-linejoin="round"/>
<path d="M86.7603 382.495L77.0288 373.16" stroke="#263238" stroke-linecap="round" stroke-linejoin="round"/>
<path d="M94.5574 353.956L88.3177 344.254" stroke="#263238" stroke-linecap="round" stroke-linejoin="round"/>
<path d="M90.391 347.568C90.6686 346.157 90.6414 344.703 90.3112 343.304C89.981 341.904 89.3555 340.592 88.4765 339.454C86.6611 336.983 75.9277 329.534 73.9338 333.502C71.7712 337.718 81.959 349.106 90.391 347.568Z" fill="#651FFF" stroke="#263238" stroke-linecap="round" stroke-linejoin="round"/>
<path d="M90.391 347.567L80.6496 338.232" stroke="#263238" stroke-linecap="round" stroke-linejoin="round"/>
<path d="M89.4288 408.199L98.327 398.785" stroke="#263238" stroke-linecap="round" stroke-linejoin="round"/>
<path d="M95.6288 401.601C95.6456 400.163 95.9704 398.745 96.5813 397.443C97.1922 396.141 98.075 394.985 99.1702 394.052C101.452 392.009 113.475 386.94 114.626 391.175C115.866 395.808 103.555 404.835 95.6288 401.601Z" fill="#651FFF" stroke="#263238" stroke-linecap="round" stroke-linejoin="round"/>
<path d="M95.6288 401.601L107.751 394.082" stroke="#263238" stroke-linecap="round" stroke-linejoin="round"/>
<path d="M91.9981 383.437L100.896 374.033" stroke="#263238" stroke-linecap="round" stroke-linejoin="round"/>
<path d="M98.208 376.852C98.2241 375.412 98.5485 373.992 99.1593 372.688C99.7702 371.384 100.653 370.226 101.749 369.292C104.031 367.249 116.054 362.18 117.205 366.416C118.435 371.009 106.144 380.085 98.208 376.852Z" fill="#651FFF" stroke="#263238" stroke-linecap="round" stroke-linejoin="round"/>
<path d="M98.1981 376.851L110.32 369.332" stroke="#263238" stroke-linecap="round" stroke-linejoin="round"/>
<path d="M95.6685 345.295L104.666 337.736" stroke="#263238" stroke-linecap="round" stroke-linejoin="round"/>
<path d="M101.968 340.554C101.984 339.117 102.307 337.7 102.917 336.398C103.526 335.096 104.406 333.939 105.499 333.005C107.791 330.962 119.814 325.893 120.955 330.129C122.204 334.731 109.894 343.788 101.968 340.554Z" fill="#651FFF" stroke="#263238" stroke-linecap="round" stroke-linejoin="round"/>
<path d="M101.968 340.555L114.08 333.035" stroke="#263238" stroke-linecap="round" stroke-linejoin="round"/>
<path d="M97.712 323.85C97.728 322.41 98.0525 320.99 98.6633 319.686C99.2742 318.382 100.157 317.224 101.253 316.291C103.535 314.247 115.558 309.178 116.709 313.414C117.949 318.027 105.638 327.083 97.712 323.85Z" fill="#651FFF" stroke="#263238" stroke-linecap="round" stroke-linejoin="round"/>
<path d="M97.712 323.85L109.834 316.32" stroke="#263238" stroke-linecap="round" stroke-linejoin="round"/>
<path d="M98.208 324.385C96.7782 324.218 95.4008 323.747 94.1687 323.002C92.9366 322.258 91.8784 321.258 91.0656 320.07C89.2701 317.59 85.4905 305.091 89.8256 304.396C94.5376 303.642 102.255 316.836 98.208 324.385Z" fill="#651FFF" stroke="#263238" stroke-linecap="round" stroke-linejoin="round"/>
<path d="M98.208 324.384L91.9981 311.537" stroke="#263238" stroke-linecap="round" stroke-linejoin="round"/>
<path d="M74.9456 450.061L67.5849 440.221" stroke="#263238" stroke-linecap="round" stroke-linejoin="round"/>
<path d="M69.9856 443.296C70.117 441.863 69.9397 440.418 69.4657 439.06C68.9917 437.701 68.232 436.46 67.2377 435.419C65.1744 433.148 53.7366 426.868 52.1693 430.965C50.4531 435.419 61.7619 445.697 69.9856 443.296Z" fill="#651FFF" stroke="#263238" stroke-linecap="round" stroke-linejoin="round"/>
<path d="M69.9856 443.295L59.3315 435.012" stroke="#263238" stroke-linecap="round" stroke-linejoin="round"/>
<path d="M75.2035 402.583L67.5849 395.48" stroke="#263238" stroke-linecap="round" stroke-linejoin="round"/>
<path d="M69.9856 398.565C70.117 397.132 69.9397 395.688 69.4657 394.329C68.9917 392.971 68.232 391.729 67.2377 390.689C65.1744 388.417 53.7366 382.138 52.1693 386.235C50.4531 390.689 61.7619 400.966 69.9856 398.565Z" fill="#651FFF" stroke="#263238" stroke-linecap="round" stroke-linejoin="round"/>
<path d="M69.9856 398.566L59.3315 390.283" stroke="#263238" stroke-linecap="round" stroke-linejoin="round"/>
<path d="M75.4614 353.242L67.5849 342.965" stroke="#263238" stroke-linecap="round" stroke-linejoin="round"/>
<path d="M69.9856 346.05C70.1171 344.616 69.94 343.17 69.466 341.81C68.992 340.449 68.2322 339.206 67.2377 338.164C65.1744 335.902 53.7366 329.623 52.1693 333.71C50.4531 338.164 61.7619 348.451 69.9856 346.05Z" fill="#651FFF" stroke="#263238" stroke-linecap="round" stroke-linejoin="round"/>
<path d="M69.9856 346.049L59.3315 337.766" stroke="#263238" stroke-linecap="round" stroke-linejoin="round"/>
<path d="M74.9456 314.642L67.5849 308.006" stroke="#263238" stroke-linecap="round" stroke-linejoin="round"/>
<path d="M69.9856 311.092C70.1244 309.65 69.9509 308.194 69.4767 306.825C69.0025 305.455 68.2389 304.204 67.2377 303.156C65.1744 300.895 53.7366 294.605 52.1693 298.702C50.4531 303.206 61.7619 313.473 69.9856 311.092Z" fill="#651FFF" stroke="#263238" stroke-linecap="round" stroke-linejoin="round"/>
<path d="M69.9856 311.092L59.3315 302.799" stroke="#263238" stroke-linecap="round" stroke-linejoin="round"/>
<path d="M75.3721 279.665L67.7337 274.061" stroke="#263238" stroke-linecap="round" stroke-linejoin="round"/>
<path d="M69.9856 275.974C70.1171 274.54 69.94 273.094 69.466 271.733C68.992 270.373 68.2322 269.13 67.2377 268.088C65.1744 265.826 53.7366 259.547 52.1693 263.634C50.4531 268.088 61.7619 278.375 69.9856 275.974Z" fill="#651FFF" stroke="#263238" stroke-linecap="round" stroke-linejoin="round"/>
<path d="M69.9856 275.975L59.3315 267.691" stroke="#263238" stroke-linecap="round" stroke-linejoin="round"/>
<path d="M75.2928 393.011L83.1693 382.734" stroke="#263238" stroke-linecap="round" stroke-linejoin="round"/>
<path d="M80.7686 385.82C80.6399 384.389 80.8185 382.946 81.2924 381.59C81.7663 380.233 82.5246 378.993 83.5165 377.953C85.5699 375.692 97.0176 369.402 98.5849 373.499C100.301 377.953 88.9923 388.211 80.7686 385.82Z" fill="#651FFF" stroke="#263238" stroke-linecap="round" stroke-linejoin="round"/>
<path d="M80.7686 385.82L92.0477 377.08" stroke="#263238" stroke-linecap="round" stroke-linejoin="round"/>
<path d="M75.2928 357.894L83.1693 347.617" stroke="#263238" stroke-linecap="round" stroke-linejoin="round"/>
<path d="M80.7686 350.703C80.637 349.268 80.8142 347.822 81.2882 346.462C81.7622 345.102 82.5219 343.859 83.5165 342.816C85.5699 340.555 97.0176 334.275 98.5849 338.362C100.301 342.816 88.9923 353.153 80.7686 350.703Z" fill="#651FFF" stroke="#263238" stroke-linecap="round" stroke-linejoin="round"/>
<path d="M80.7686 350.702L92.0477 341.973" stroke="#263238" stroke-linecap="round" stroke-linejoin="round"/>
<path d="M75.2928 311.488L83.1693 301.201" stroke="#263238" stroke-linecap="round" stroke-linejoin="round"/>
<path d="M80.7686 304.286C80.6372 302.853 80.8145 301.409 81.2885 300.05C81.7625 298.691 82.5222 297.45 83.5165 296.41C85.5699 294.138 97.0176 287.859 98.5849 291.956C100.301 296.41 88.9923 306.687 80.7686 304.286Z" fill="#651FFF" stroke="#263238" stroke-linecap="round" stroke-linejoin="round"/>
<path d="M80.7686 304.286L92.0477 295.557" stroke="#263238" stroke-linecap="round" stroke-linejoin="round"/>
<path d="M75.6301 271.432L83.3577 265.4" stroke="#263238" stroke-linecap="round" stroke-linejoin="round"/>
<path d="M80.7686 267.84C80.6285 266.397 80.8014 264.941 81.2756 263.572C81.7499 262.202 82.5142 260.951 83.5165 259.904C85.5699 257.632 97.0176 251.353 98.585 255.45C100.301 259.904 88.9923 270.201 80.7686 267.84Z" fill="#651FFF" stroke="#263238" stroke-linecap="round" stroke-linejoin="round"/>
<path d="M80.7686 267.8L92.0477 259.07" stroke="#263238" stroke-linecap="round" stroke-linejoin="round"/>
<path d="M74.8166 251.622C74.6771 250.18 74.8494 248.725 75.3219 247.356C75.7943 245.986 76.5557 244.735 77.5545 243.686C79.6179 241.424 91.0557 235.135 92.6329 239.232C94.3491 243.735 83.0403 254.022 74.8166 251.622Z" fill="#651FFF" stroke="#263238" stroke-linecap="round" stroke-linejoin="round"/>
<path d="M74.8166 251.62L86.0957 242.881" stroke="#263238" stroke-linecap="round" stroke-linejoin="round"/>
<path d="M75.392 252.107C73.9523 252.087 72.5336 251.759 71.2314 251.145C69.9292 250.531 68.7738 249.644 67.8429 248.546C65.7994 246.264 60.7501 234.231 64.9859 233.091C69.5789 231.851 78.616 244.181 75.392 252.107Z" fill="#651FFF" stroke="#263238" stroke-linecap="round" stroke-linejoin="round"/>
<path d="M75.3721 252.107L67.8627 239.965" stroke="#263238" stroke-linecap="round" stroke-linejoin="round"/>
<path d="M439.456 454.01H467.232" stroke="#263238" stroke-linecap="round" stroke-linejoin="round"/>
<path d="M32.0714 454.01H428.544" stroke="#263238" stroke-linecap="round" stroke-linejoin="round"/>
<path d="M267.493 63.3187C267.494 58.5278 266.342 53.8071 264.133 49.5559C261.924 45.3047 258.723 41.6481 254.802 38.8955C250.881 36.1429 246.354 34.3752 241.605 33.7421C236.857 33.109 232.025 33.629 227.52 35.2581C223.014 36.8873 218.968 39.5776 215.722 43.1016C212.476 46.6255 210.127 50.8794 208.874 55.5033C207.62 60.1272 207.498 64.9851 208.519 69.6659C209.54 74.3468 211.673 78.7129 214.738 82.3948C219.134 87.6683 221.539 94.3179 221.533 101.183V105.27H253.783V101.183C253.778 94.3317 256.18 87.6959 260.569 82.4345C265.049 77.073 267.5 70.3059 267.493 63.3187Z" fill="white" stroke="#263238" stroke-width="2" stroke-linecap="round" stroke-linejoin="round"/>
<path d="M253.783 105.26H221.533V113.235H253.783V105.26Z" fill="white" stroke="#263238" stroke-width="2" stroke-linecap="round" stroke-linejoin="round"/>
<path d="M221.533 113.256H253.783V116.549C253.783 117.794 253.289 118.987 252.409 119.867C251.529 120.747 250.336 121.241 249.091 121.241H226.176C224.932 121.241 223.738 120.747 222.858 119.867C221.978 118.987 221.484 117.794 221.484 116.549V113.256H221.533Z" fill="white" stroke="#263238" stroke-width="2" stroke-linecap="round" stroke-linejoin="round"/>
<path d="M225.601 121.221H249.706V122.838C249.706 123.673 249.542 124.5 249.222 125.271C248.903 126.043 248.434 126.743 247.844 127.334C247.253 127.924 246.552 128.393 245.781 128.712C245.009 129.032 244.183 129.196 243.347 129.196H231.959C230.273 129.196 228.656 128.526 227.463 127.334C226.271 126.141 225.601 124.524 225.601 122.838V121.221Z" fill="white" stroke="#263238" stroke-width="2" stroke-linecap="round" stroke-linejoin="round"/>
<path d="M271.719 63.4668H285.388" stroke="#263238" stroke-width="2" stroke-linecap="round" stroke-linejoin="round"/>
<path d="M188.649 63.4668H202.487" stroke="#263238" stroke-width="2" stroke-linecap="round" stroke-linejoin="round"/>
<path d="M237.019 28.8069V15.1074" stroke="#263238" stroke-width="2" stroke-linecap="round" stroke-linejoin="round"/>
<path d="M261.789 38.6974L271.223 29.2734" stroke="#263238" stroke-width="2" stroke-linecap="round" stroke-linejoin="round"/>
<path d="M202.814 97.6724L212.387 88.0996" stroke="#263238" stroke-width="2" stroke-linecap="round" stroke-linejoin="round"/>
<path d="M211.98 38.4296L202.814 29.2734" stroke="#263238" stroke-width="2" stroke-linecap="round" stroke-linejoin="round"/>
<path d="M271.223 97.6712L262.096 88.5547" stroke="#263238" stroke-width="2" stroke-linecap="round" stroke-linejoin="round"/>
<path d="M345.018 192.299C345.018 192.299 338.292 177.766 337.478 176.427C336.665 175.088 335.861 167.003 336.407 164.583C336.953 162.162 343.668 153.82 343.668 153.82C343.668 153.82 344.472 136.608 345.553 131.996C346.635 127.383 346.089 123.385 348.777 122.572C351.466 121.758 352.279 122.036 352.547 125.548C352.815 129.059 352.011 137.382 352.011 138.186C352.011 138.989 353.35 151.369 353.35 151.369C353.35 151.369 365.998 164.265 367.348 165.634C368.697 167.003 370.839 169.94 368.687 176.933C367.385 181.15 365.283 185.077 362.497 188.5L363.578 193.886L345.018 195.226V192.299Z" fill="white" stroke="#263238" stroke-linecap="round" stroke-linejoin="round"/>
<path d="M343.668 185.305C343.668 185.305 337.211 178.311 335.326 174.274C333.441 170.236 333.987 160.554 334.79 159.205C335.594 157.856 342.052 154.632 343.668 153.819C345.285 153.005 356.316 152.212 358.737 150.843C361.157 149.474 363.846 153.531 360.354 157.033C356.862 160.535 346.357 163.491 346.357 163.491C346.357 163.491 354.164 168.867 352.309 176.674" fill="white"/>
<path d="M343.668 185.305C343.668 185.305 337.211 178.311 335.326 174.274C333.441 170.236 333.987 160.554 334.79 159.205C335.594 157.856 342.052 154.632 343.668 153.819C345.285 153.005 356.316 152.212 358.737 150.843C361.157 149.474 363.846 153.531 360.354 157.033C356.862 160.535 346.357 163.491 346.357 163.491C346.357 163.491 354.164 168.867 352.309 176.674" stroke="#263238" stroke-linecap="round" stroke-linejoin="round"/>
<path d="M363.747 152.421C363.747 152.421 358.251 167.301 360.87 169.186C363.489 171.07 366.633 170.495 367.417 167.618C368.201 164.741 372.377 157.698 371.871 153.988C371.365 150.278 366.633 148.8 363.747 152.421Z" fill="white" stroke="#263238" stroke-linecap="round" stroke-linejoin="round"/>
<path d="M370.81 157.401C370.81 157.401 366.356 169.493 368.478 170.981C370.601 172.469 373.151 172.043 373.786 169.712C374.42 167.38 377.813 161.647 377.396 158.671C376.98 155.695 373.151 154.425 370.81 157.401Z" fill="white" stroke="#263238" stroke-linecap="round" stroke-linejoin="round"/>
<path d="M357.388 148.175C357.388 148.175 351.743 163.512 354.412 165.397C357.08 167.281 360.364 166.736 361.138 163.78C361.911 160.823 366.246 153.552 365.711 149.792C365.175 146.033 360.354 144.406 357.388 148.175Z" fill="white" stroke="#263238" stroke-linecap="round" stroke-linejoin="round"/>
<path d="M343.936 200.909L342.052 189.342L365.195 187.18L369.222 200.909H343.936Z" fill="#651FFF" stroke="#263238" stroke-linecap="round" stroke-linejoin="round"/>
<path d="M158.293 454.008L175.088 370.511L181.536 454.008H301.082C301.221 448.631 303.066 376.969 302.56 364.559C302.064 351.663 308.512 329.839 308.512 329.839C308.512 329.839 388.368 312.975 398.784 306.031C409.2 299.087 403.248 290.159 402.256 285.199C401.264 280.239 372 202.863 371.008 199.391C370.016 195.919 365.552 196.415 361.088 196.415C356.624 196.415 341.248 197.407 341.248 200.383C341.248 203.359 349.68 275.775 349.68 275.775H345.712L344.224 279.247L322.896 274.783C322.896 274.783 307.024 262.879 301.568 262.383L263.872 258.911H208.816C208.816 258.911 147.312 287.679 142.848 293.135C138.384 298.591 138.384 316.943 138.384 316.943L124.496 454.008H158.293Z" fill="#651FFF" stroke="#263238" stroke-linecap="round" stroke-linejoin="round"/>
<path d="M268.882 413.804L273.792 407.217" stroke="#263238" stroke-linecap="round" stroke-linejoin="round"/>
<path d="M240.748 451.599C248.992 439.457 257.92 428.545 266.59 416.889" stroke="#263238" stroke-linecap="round" stroke-linejoin="round"/>
<path d="M277.274 408.963C272.86 417.058 265.608 429.18 257.434 437.969" stroke="#263238" stroke-linecap="round" stroke-linejoin="round"/>
<path d="M281.728 400.271C281.728 400.271 280.815 402.255 279.188 405.36" stroke="#263238" stroke-linecap="round" stroke-linejoin="round"/>
<path d="M316.021 301.003L319.097 289.168" stroke="#263238" stroke-linecap="round" stroke-linejoin="round"/>
<path d="M308.512 329.841L314.94 305.17" stroke="#263238" stroke-linecap="round" stroke-linejoin="round"/>
<path d="M311.736 317.312L324.622 293.375" stroke="#263238" stroke-linecap="round" stroke-linejoin="round"/>
<path d="M362.437 292.164C362.953 292.958 363.409 293.712 363.806 294.426" stroke="#263238" stroke-linecap="round" stroke-linejoin="round"/>
<path d="M354.075 293.373C351.061 288.006 349.544 281.929 349.68 275.775C349.68 275.775 355.444 282.313 359.977 288.572" stroke="#263238" stroke-linecap="round" stroke-linejoin="round"/>
<path d="M161.894 314.375C160.615 311.647 159.593 309.604 159.593 309.604" stroke="#263238" stroke-linecap="round" stroke-linejoin="round"/>
<path d="M175.088 370.513C175.088 370.513 168.075 330.089 166.299 324.792C165.664 322.867 164.603 320.338 163.511 317.848" stroke="#263238" stroke-linecap="round" stroke-linejoin="round"/>
<path d="M163.68 334.393C162.243 331.467 160.657 328.616 158.928 325.852L150.1 313.135" stroke="#263238" stroke-linecap="round" stroke-linejoin="round"/>
<path d="M171.616 350.573C171.616 350.573 168.332 343.629 164.98 336.992" stroke="#263238" stroke-linecap="round" stroke-linejoin="round"/>
<path d="M223.865 285.368L234.439 300.903L219.559 417.959L239.072 437.144L253.952 414.655L241.383 299.583L251.968 283.711L236.423 271.143L223.865 285.368Z" fill="#263238" stroke="#263238" stroke-linecap="round" stroke-linejoin="round"/>
<path d="M233.785 279.079L214.599 300.575L204.679 263.207L212.288 250.975L218.567 250.311L257.593 250.975L270.489 262.879L261.888 299.256L240.391 277.759L233.785 279.079Z" fill="#651FFF" stroke="#263238" stroke-linecap="round" stroke-linejoin="round"/>
<path d="M213.28 237.416L214.599 256.929C214.599 256.929 233.785 282.056 236.423 282.056C239.062 282.056 257.593 255.272 257.593 255.272L257.92 238.408L213.28 237.416Z" fill="white" stroke="#263238" stroke-linecap="round" stroke-linejoin="round"/>
<path d="M204.025 210.631C204.025 210.631 200.384 199.392 195.751 206.663C191.119 213.935 201.376 225.184 203.36 226.503L205.344 227.833L204.025 210.631Z" fill="white" stroke="#263238" stroke-linecap="round" stroke-linejoin="round"/>
<path d="M268.505 210.631C268.505 210.631 272.135 199.392 276.768 206.663C281.401 213.935 271.143 225.184 269.159 226.503L267.175 227.833L268.505 210.631Z" fill="white" stroke="#263238" stroke-linecap="round" stroke-linejoin="round"/>
<path d="M203.36 209.312C203.36 209.312 204.352 232.128 207.824 237.088C211.296 242.048 223.2 254.448 232.128 256.432C241.056 258.416 244.528 256.432 251.472 251.968C258.416 247.504 267.84 238.576 268.832 233.12C269.824 227.664 269.824 204.848 269.824 204.848L267.84 181.04C267.84 181.04 266.848 167.152 249.984 161.2C233.12 155.248 219.728 151.28 214.272 161.2C208.816 171.12 201.872 182.032 201.872 182.032L203.36 209.312Z" fill="white" stroke="#263238" stroke-linecap="round" stroke-linejoin="round"/>
<path d="M231.632 226.453C235.069 227.285 238.642 227.392 242.123 226.766C245.604 226.141 248.916 224.798 251.849 222.822" stroke="#263238" stroke-linecap="round" stroke-linejoin="round"/>
<path d="M216.603 203.648L225.938 205.722" stroke="#263238" stroke-linecap="round" stroke-linejoin="round"/>
<path d="M249.776 206.238L260.658 203.133" stroke="#263238" stroke-linecap="round" stroke-linejoin="round"/>
<path d="M222.208 168.641C222.208 168.641 221.216 179.553 215.264 184.017L205.344 191.457L206.336 209.809L203.36 209.313L201.872 197.409C201.872 197.409 195.92 181.537 195.92 170.129C195.92 158.721 204.848 151.777 208.32 151.281C211.29 151.01 214.278 151.01 217.248 151.281C217.248 151.281 224.192 141.361 242.544 140.369C260.896 139.377 275.28 158.721 273.296 162.193L271.312 165.665C273.764 170.252 275.123 175.345 275.28 180.545C275.28 188.481 270.32 195.921 270.32 195.921V211.297L266.352 194.433C266.352 194.433 262.88 184.017 261.888 182.033C260.896 180.049 250.48 181.041 244.528 178.561C238.576 176.081 234.112 169.137 234.112 169.137C234.112 169.137 239.072 178.561 235.104 178.561C231.136 178.561 222.208 168.641 222.208 168.641Z" fill="#263238" stroke="#263238" stroke-linecap="round" stroke-linejoin="round"/>
<path d="M258.912 217.248C254.944 215.264 238.407 210.969 238.407 210.969C238.407 210.969 218.905 216.256 215.929 219.559C212.953 222.863 215.591 239.399 218.905 245.689C222.218 251.978 225.849 257.255 236.096 257.593C246.343 257.93 256.928 251.968 258.585 246.016C260.241 240.064 262.88 219.232 258.912 217.248ZM252.633 241.056C249.984 245.689 244.032 245.351 243.705 242.713C243.377 240.074 243.367 237.088 240.064 237.088C236.761 237.088 237.753 238.407 238.08 242.048C238.407 245.689 233.785 248.327 228.825 245.351C223.865 242.375 221.543 230.144 221.543 226.176C221.543 222.208 238.745 216.583 238.745 216.583C238.745 216.583 253.287 217.248 255.271 221.216C257.255 225.184 255.271 236.423 252.633 241.056Z" fill="#263238" stroke="#263238" stroke-linecap="round" stroke-linejoin="round"/>
<path d="M224.023 201.702C224.845 201.702 225.511 200.223 225.511 198.399C225.511 196.575 224.845 195.096 224.023 195.096C223.202 195.096 222.535 196.575 222.535 198.399C222.535 200.223 223.202 201.702 224.023 201.702Z" fill="#263238"/>
<path d="M250.48 201.702C251.302 201.702 251.968 200.223 251.968 198.399C251.968 196.575 251.302 195.096 250.48 195.096C249.658 195.096 248.992 196.575 248.992 198.399C248.992 200.223 249.658 201.702 250.48 201.702Z" fill="#263238"/>
<path d="M217.248 189.145C217.248 189.145 220.889 182.201 231.801 184.512" stroke="#263238" stroke-width="4" stroke-linecap="round" stroke-linejoin="round"/>
<path d="M245.351 183.846C245.351 183.846 253.625 180.216 260.569 188.152" stroke="#263238" stroke-width="4" stroke-linecap="round" stroke-linejoin="round"/>
<path d="M242.713 186.824L243.367 212.953L230.809 209.64" fill="white"/>
<path d="M242.713 186.824L243.367 212.953L230.809 209.64" stroke="#263238" stroke-linecap="round" stroke-linejoin="round"/>
</svg>
