<svg width="646" height="431" viewBox="0 0 646 431" fill="none" xmlns="http://www.w3.org/2000/svg">
<path opacity="0.2" d="M399.831 27.584H406.196" stroke="black" stroke-linecap="round" stroke-linejoin="round"/>
<path opacity="0.2" d="M410.89 27.584H422.915V96.544H366.928V27.584H393.793" stroke="black" stroke-linecap="round" stroke-linejoin="round"/>
<path opacity="0.2" d="M482.347 27.584H426.36V96.544H482.347V27.584Z" stroke="black" stroke-linecap="round" stroke-linejoin="round"/>
<path opacity="0.2" d="M527.911 27.584H541.779V96.544H485.792V27.584H521.537" stroke="black" stroke-linecap="round" stroke-linejoin="round"/>
<path opacity="0.2" d="M601.211 79.5453V96.544H545.224V27.584H601.211V75.8818" stroke="black" stroke-linecap="round" stroke-linejoin="round"/>
<path opacity="0.2" d="M422.915 100.854H366.928V169.814H422.915V100.854Z" stroke="black" stroke-linecap="round" stroke-linejoin="round"/>
<path opacity="0.2" d="M426.36 122.472V100.854H482.347V169.814H426.36V128.705" stroke="black" stroke-linecap="round" stroke-linejoin="round"/>
<path opacity="0.2" d="M541.779 100.854H485.792V169.814H541.779V100.854Z" stroke="black" stroke-linecap="round" stroke-linejoin="round"/>
<path opacity="0.2" d="M559.238 100.854H601.211V169.814H545.224V100.854H554.836" stroke="black" stroke-linecap="round" stroke-linejoin="round"/>
<path opacity="0.2" d="M422.915 174.123H366.928V243.083H422.915V174.123Z" stroke="black" stroke-linecap="round" stroke-linejoin="round"/>
<path opacity="0.2" d="M482.347 174.123H426.36V243.083H482.347V174.123Z" stroke="black" stroke-linecap="round" stroke-linejoin="round"/>
<path opacity="0.2" d="M541.779 174.123H485.792V243.083H541.779V174.123Z" stroke="black" stroke-linecap="round" stroke-linejoin="round"/>
<path opacity="0.2" d="M601.211 232.163V243.085H545.224V198.416" stroke="black" stroke-linecap="round" stroke-linejoin="round"/>
<path opacity="0.2" d="M601.211 221.896V228.129" stroke="black" stroke-linecap="round" stroke-linejoin="round"/>
<path opacity="0.2" d="M545.224 192.544V174.123H601.211V217.861" stroke="black" stroke-linecap="round" stroke-linejoin="round"/>
<path opacity="0.2" d="M422.915 247.395H366.928V316.355H422.915V247.395Z" stroke="black" stroke-linecap="round" stroke-linejoin="round"/>
<path opacity="0.2" d="M482.347 247.395H426.36V316.355H482.347V247.395Z" stroke="black" stroke-linecap="round" stroke-linejoin="round"/>
<path opacity="0.2" d="M541.779 247.395H485.792V316.355H541.779V247.395Z" stroke="black" stroke-linecap="round" stroke-linejoin="round"/>
<path opacity="0.2" d="M558.506 316.355H545.224V247.395H601.211V316.355H564.001" stroke="black" stroke-linecap="round" stroke-linejoin="round"/>
<g opacity="0.2">
<path d="M75.4528 146.541H141.259V29.3086H49.096V146.541H69.2254" stroke="black" stroke-linecap="round" stroke-linejoin="round"/>
<path d="M121.646 34.4805H84.6174" stroke="black" stroke-linecap="round" stroke-linejoin="round"/>
<path d="M53.1615 82.1146V141.368H137.193V34.4805H126.409" stroke="black" stroke-linecap="round" stroke-linejoin="round"/>
<path d="M78.7603 34.4805H53.1615V76.2444" stroke="black" stroke-linecap="round" stroke-linejoin="round"/>
<path d="M108.08 63.2715H75.7973V112.578H100.388" stroke="black" stroke-linecap="round" stroke-linejoin="round"/>
<path d="M104.419 112.578H114.557V63.2715H112.111" stroke="black" stroke-linecap="round" stroke-linejoin="round"/>
</g>
<g opacity="0.2">
<path d="M186.909 100.708C205.857 100.708 221.216 85.3363 221.216 66.3745C221.216 47.4126 205.857 32.041 186.909 32.041C167.962 32.041 152.602 47.4126 152.602 66.3745C152.602 85.3363 167.962 100.708 186.909 100.708Z" stroke="black" stroke-linecap="round" stroke-linejoin="round"/>
<path d="M186.909 95.8891C203.197 95.8891 216.401 82.6749 216.401 66.3743C216.401 50.0736 203.197 36.8594 186.909 36.8594C170.621 36.8594 157.417 50.0736 157.417 66.3743C157.417 82.6749 170.621 95.8891 186.909 95.8891Z" stroke="black" stroke-linecap="round" stroke-linejoin="round"/>
<path d="M178.753 75.3226L186.909 66.375H210.88" stroke="black" stroke-linecap="round" stroke-linejoin="round"/>
</g>
<path d="M95.9784 204.64C95.9784 204.64 84.5743 198.261 83.7302 212.665C82.8861 227.069 80.7758 346.215 80.7758 346.215" stroke="#263238" stroke-width="2" stroke-linecap="round" stroke-linejoin="round"/>
<path d="M77.8129 213.932C77.8129 213.932 87.1066 260.437 82.8861 344.956" stroke="#263238" stroke-width="2" stroke-linecap="round" stroke-linejoin="round"/>
<path d="M86.9947 207.527C86.9947 207.527 82.6277 210.328 80.104 207.121C77.5803 203.915 81.8267 198.062 78.1143 195.553C74.402 193.045 68.1228 196.872 68.1228 196.872C68.1228 196.872 72.998 198.303 72.843 200.967C72.6879 203.63 70.3365 204.639 70.0178 203.475C69.6991 202.312 67.3821 196.45 63.4286 198.889C62.2872 199.562 61.2941 200.46 60.5094 201.529C59.7248 202.597 59.1648 203.813 58.8635 205.104C58.8635 205.104 68.0453 204.122 68.631 207.596C69.2167 211.069 64.8584 206.992 61.0513 206.734C57.2442 206.475 53.7903 207.061 54.0314 209.371C54.1202 211.407 53.999 213.446 53.6697 215.457C55.7533 213.741 58.3794 212.825 61.0771 212.871C65.2546 213.121 65.0996 215.785 61.3011 215.56C57.5026 215.336 54.264 218.948 54.264 218.948C54.264 218.948 57.7093 224.879 62.1366 227.809C66.5638 230.74 68.1659 229.697 68.6397 227.43C69.1134 225.163 67.9764 219.379 70.6379 219.534C73.2995 219.689 66.1935 229.594 69.5957 230.154C72.998 230.714 75.7198 229.758 76.6156 227.516L77.4769 225.275C77.4769 225.275 76.2883 219.483 76.8051 217.224C77.3219 214.966 77.942 217.293 78.5278 220C79.1135 222.706 79.5097 229.215 80.6725 228.904C81.8353 228.594 85.5476 223.844 86.4262 222.008C87.3047 220.172 81.5252 214.466 81.5941 213.328C81.663 212.19 86.1161 214.354 86.7621 215.543C87.2627 216.436 87.7169 217.354 88.123 218.293C88.123 218.293 90.8965 216.569 90.8362 211.199C90.7759 205.828 86.9947 207.527 86.9947 207.527Z" fill="#651FFF"/>
<path opacity="0.3" d="M86.9947 207.527C86.9947 207.527 82.6277 210.328 80.104 207.121C77.5803 203.915 81.8267 198.062 78.1143 195.553C74.402 193.045 68.1228 196.872 68.1228 196.872C68.1228 196.872 72.998 198.303 72.843 200.967C72.6879 203.63 70.3365 204.639 70.0178 203.475C69.6991 202.312 67.3821 196.45 63.4286 198.889C62.2872 199.562 61.2941 200.46 60.5094 201.529C59.7248 202.597 59.1648 203.813 58.8635 205.104C58.8635 205.104 68.0453 204.122 68.631 207.596C69.2167 211.069 64.8584 206.992 61.0513 206.734C57.2442 206.475 53.7903 207.061 54.0314 209.371C54.1202 211.407 53.999 213.446 53.6697 215.457C55.7533 213.741 58.3794 212.825 61.0771 212.871C65.2546 213.121 65.0996 215.785 61.3011 215.56C57.5026 215.336 54.264 218.948 54.264 218.948C54.264 218.948 57.7093 224.879 62.1366 227.809C66.5638 230.74 68.1659 229.697 68.6397 227.43C69.1134 225.163 67.9764 219.379 70.6379 219.534C73.2995 219.689 66.1935 229.594 69.5957 230.154C72.998 230.714 75.7198 229.758 76.6156 227.516L77.4769 225.275C77.4769 225.275 76.2883 219.483 76.8051 217.224C77.3219 214.966 77.942 217.293 78.5278 220C79.1135 222.706 79.5097 229.215 80.6725 228.904C81.8353 228.594 85.5476 223.844 86.4262 222.008C87.3047 220.172 81.5252 214.466 81.5941 213.328C81.663 212.19 86.1161 214.354 86.7621 215.543C87.2627 216.436 87.7169 217.354 88.123 218.293C88.123 218.293 90.8965 216.569 90.8362 211.199C90.7759 205.828 86.9947 207.527 86.9947 207.527Z" fill="#263238"/>
<path d="M64.8412 220.068C67.6836 216.552 71.8783 211.793 75.3839 209.518" stroke="#263238" stroke-linecap="round" stroke-linejoin="round"/>
<path d="M61.5423 224.353C61.5423 224.353 62.2744 223.335 63.4544 221.818" stroke="#263238" stroke-linecap="round" stroke-linejoin="round"/>
<path d="M77.2444 210.389C77.2444 210.389 81.4649 216.371 82.2487 222.526" stroke="#263238" stroke-linecap="round" stroke-linejoin="round"/>
<path d="M72.4554 213.923C72.4554 213.923 73.644 213.233 73.1961 220.819" stroke="#263238" stroke-linecap="round" stroke-linejoin="round"/>
<path d="M75.5475 206.881C75.5475 206.881 77.9593 204.735 76.6845 200.459" stroke="#263238" stroke-linecap="round" stroke-linejoin="round"/>
<path d="M72.2745 210.483L70.5604 207.328" stroke="#263238" stroke-linecap="round" stroke-linejoin="round"/>
<path d="M68.6569 213.699C68.6569 213.699 63.1788 209.561 59.7593 209.389" stroke="#263238" stroke-linecap="round" stroke-linejoin="round"/>
<path d="M102.499 196.252C102.499 196.252 102.326 202.528 97.434 202.838C92.5417 203.148 89.5098 194.977 84.514 196.942C79.5183 198.907 79.0187 207.855 79.0187 207.855C79.0187 207.855 83.7733 203.95 86.3314 205.924C88.8896 207.898 88.2953 210.932 86.9171 210.449C85.539 209.967 78.0885 208.303 77.8301 213.897C77.7251 215.507 77.949 217.122 78.488 218.642C79.027 220.163 79.87 221.558 80.9653 222.742C80.9653 222.742 86.2625 212.846 90.1127 214.647C93.9629 216.449 86.9344 218.026 84.0834 221.681C81.2323 225.336 79.4666 229.189 81.9386 230.517C84.0366 231.816 85.9963 233.327 87.7871 235.025C87.7871 235.025 87.1153 229.853 90.2074 225.819C93.2996 221.785 95.8664 223.776 93.0498 227.431C90.2333 231.086 91.6373 236.827 91.6373 236.827C91.6373 236.827 99.9319 237.396 105.866 234.982C111.801 232.568 111.827 230.258 109.923 228.207C108.02 226.155 101.405 223.379 103.377 220.828C105.35 218.276 110.423 232.086 113.326 229.077C116.228 226.069 117.098 222.664 115.47 220.242L113.842 217.82C113.842 217.82 107.236 215.061 105.324 213.001C103.412 210.941 106.185 211.906 109.286 213.148C112.387 214.389 119.183 218.449 119.622 217.07C120.061 215.69 117.899 208.734 116.616 206.596C115.333 204.459 105.737 206.364 104.643 205.519C103.549 204.674 108.752 201.692 110.406 201.804C112.059 201.916 114.092 202.312 114.092 202.312C114.092 202.312 114.239 198.347 108.838 194.77C103.438 191.192 102.499 196.252 102.499 196.252Z" fill="#651FFF"/>
<path opacity="0.2" d="M102.499 196.252C102.499 196.252 102.326 202.528 97.434 202.838C92.5417 203.148 89.5098 194.977 84.514 196.942C79.5183 198.907 79.0187 207.855 79.0187 207.855C79.0187 207.855 83.7733 203.95 86.3314 205.924C88.8896 207.898 88.2953 210.932 86.9171 210.449C85.539 209.967 78.0885 208.303 77.8301 213.897C77.7251 215.507 77.949 217.122 78.488 218.642C79.027 220.163 79.87 221.558 80.9653 222.742C80.9653 222.742 86.2625 212.846 90.1127 214.647C93.9629 216.449 86.9344 218.026 84.0834 221.681C81.2323 225.336 79.4666 229.189 81.9386 230.517C84.0366 231.816 85.9963 233.327 87.7871 235.025C87.7871 235.025 87.1153 229.853 90.2074 225.819C93.2996 221.785 95.8664 223.776 93.0498 227.431C90.2333 231.086 91.6373 236.827 91.6373 236.827C91.6373 236.827 99.9319 237.396 105.866 234.982C111.801 232.568 111.827 230.258 109.923 228.207C108.02 226.155 101.405 223.379 103.377 220.828C105.35 218.276 110.423 232.086 113.326 229.077C116.228 226.069 117.098 222.664 115.47 220.242L113.842 217.82C113.842 217.82 107.236 215.061 105.324 213.001C103.412 210.941 106.185 211.906 109.286 213.148C112.387 214.389 119.183 218.449 119.622 217.07C120.061 215.69 117.899 208.734 116.616 206.596C115.333 204.459 105.737 206.364 104.643 205.519C103.549 204.674 108.752 201.692 110.406 201.804C112.059 201.916 114.092 202.312 114.092 202.312C114.092 202.312 114.239 198.347 108.838 194.77C103.438 191.192 102.499 196.252 102.499 196.252Z" fill="#263238"/>
<path d="M99.9663 226.957C98.3901 221.708 96.521 214.26 96.5985 209.191" stroke="#263238" stroke-linecap="round" stroke-linejoin="round"/>
<path d="M102.008 233.18C102.008 233.18 101.491 231.749 100.767 229.525" stroke="#263238" stroke-linecap="round" stroke-linejoin="round"/>
<path d="M98.7432 207.933C98.7432 207.933 107.598 207.769 114.247 211.183" stroke="#263238" stroke-linecap="round" stroke-linejoin="round"/>
<path d="M99.0533 215.139C99.0533 215.139 99.1739 213.476 106.478 219.113" stroke="#263238" stroke-linecap="round" stroke-linejoin="round"/>
<path d="M94.0404 207.225C94.0404 207.225 93.5408 203.337 88.3986 201.699" stroke="#263238" stroke-linecap="round" stroke-linejoin="round"/>
<path d="M95.4443 212.966L91.1118 212.535" stroke="#263238" stroke-linecap="round" stroke-linejoin="round"/>
<path d="M96.2023 218.793C96.2023 218.793 88.3211 221.457 85.7888 224.749" stroke="#263238" stroke-linecap="round" stroke-linejoin="round"/>
<path d="M49.9573 238.025C49.9573 238.025 74.8671 280.263 74.445 344.103" stroke="#263238" stroke-width="2" stroke-linecap="round" stroke-linejoin="round"/>
<path d="M80.6725 233.663C80.6725 233.663 79.8714 240.895 74.2039 240.783C68.5363 240.671 65.7973 230.965 59.8368 232.74C53.8764 234.516 52.4638 244.808 52.4638 244.808C52.4638 244.808 58.3209 240.748 61.0772 243.265C63.8334 245.782 62.8773 249.23 61.3269 248.55C59.7765 247.869 51.3527 245.265 50.5258 251.704C50.2577 253.543 50.3636 255.417 50.8373 257.214C51.3109 259.011 52.1425 260.693 53.2821 262.16C53.2821 262.16 60.2933 251.273 64.6 253.722C68.9067 256.17 60.612 257.307 57.0203 261.264C53.4285 265.221 50.9909 269.496 53.7127 271.255C56.0091 272.955 58.1273 274.885 60.0349 277.013C60.0349 277.013 59.7507 270.979 63.7042 266.626C67.6577 262.273 70.414 264.79 66.8222 268.746C63.2305 272.703 64.3072 279.461 64.3072 279.461C64.3072 279.461 73.7818 280.9 80.8964 278.676C88.011 276.452 88.2264 273.789 86.2195 271.237C84.2126 268.686 76.8482 264.867 79.3288 262.1C81.8094 259.333 86.4003 275.763 90.0266 272.565C93.6528 269.367 94.9878 265.522 93.3341 262.574L91.6889 259.626C91.6889 259.626 84.3245 255.816 82.3176 253.256C80.3107 250.696 83.3943 252.075 86.8741 253.799C90.3539 255.523 97.7958 260.85 98.4762 259.307C99.1567 257.764 97.2618 249.524 96.0042 246.938C94.7467 244.352 83.4977 245.67 82.3176 244.558C81.1376 243.446 87.4167 240.533 89.3203 240.826C90.7367 241.062 92.1397 241.373 93.5236 241.757C93.5236 241.757 94.0662 237.197 88.1747 232.559C82.2832 227.922 80.6725 233.663 80.6725 233.663Z" fill="#651FFF"/>
<path opacity="0.3" d="M80.6725 233.663C80.6725 233.663 79.8714 240.895 74.2039 240.783C68.5363 240.671 65.7973 230.965 59.8368 232.74C53.8764 234.516 52.4638 244.808 52.4638 244.808C52.4638 244.808 58.3209 240.748 61.0772 243.265C63.8334 245.782 62.8773 249.23 61.3269 248.55C59.7765 247.869 51.3527 245.265 50.5258 251.704C50.2577 253.543 50.3636 255.417 50.8373 257.214C51.3109 259.011 52.1425 260.693 53.2821 262.16C53.2821 262.16 60.2933 251.273 64.6 253.722C68.9067 256.17 60.612 257.307 57.0203 261.264C53.4285 265.221 50.9909 269.496 53.7127 271.255C56.0091 272.955 58.1273 274.885 60.0349 277.013C60.0349 277.013 59.7507 270.979 63.7042 266.626C67.6577 262.273 70.414 264.79 66.8222 268.746C63.2305 272.703 64.3072 279.461 64.3072 279.461C64.3072 279.461 73.7818 280.9 80.8964 278.676C88.011 276.452 88.2264 273.789 86.2195 271.237C84.2126 268.686 76.8482 264.867 79.3288 262.1C81.8094 259.333 86.4003 275.763 90.0266 272.565C93.6528 269.367 94.9878 265.522 93.3341 262.574L91.6889 259.626C91.6889 259.626 84.3245 255.816 82.3176 253.256C80.3107 250.696 83.3943 252.075 86.8741 253.799C90.3539 255.523 97.7958 260.85 98.4762 259.307C99.1567 257.764 97.2618 249.524 96.0042 246.938C94.7467 244.352 83.4977 245.67 82.3176 244.558C81.1376 243.446 87.4167 240.533 89.3203 240.826C90.7367 241.062 92.1397 241.373 93.5236 241.757C93.5236 241.757 94.0662 237.197 88.1747 232.559C82.2832 227.922 80.6725 233.663 80.6725 233.663Z" fill="#263238"/>
<path d="M74.8585 268.858C73.532 262.652 72.0333 253.877 72.6535 248.041" stroke="#263238" stroke-linecap="round" stroke-linejoin="round"/>
<path d="M76.6587 276.228C76.6587 276.228 76.1935 274.504 75.582 271.918" stroke="#263238" stroke-linecap="round" stroke-linejoin="round"/>
<path d="M75.2375 246.783C75.2375 246.783 85.4787 247.438 92.8776 252.007" stroke="#263238" stroke-linecap="round" stroke-linejoin="round"/>
<path d="M74.8757 255.152C74.8757 255.152 75.1686 253.247 83.067 260.436" stroke="#263238" stroke-linecap="round" stroke-linejoin="round"/>
<path d="M69.8886 245.525C69.8886 245.525 69.6733 240.999 63.8593 238.629" stroke="#263238" stroke-linecap="round" stroke-linejoin="round"/>
<path d="M70.9653 252.283L66.004 251.387" stroke="#263238" stroke-linecap="round" stroke-linejoin="round"/>
<path d="M71.284 259.074C71.284 259.074 61.9385 261.41 58.7085 264.97" stroke="#263238" stroke-linecap="round" stroke-linejoin="round"/>
<path d="M80.6725 294.073C80.6725 294.073 79.8714 301.305 74.2039 301.193C68.5363 301.081 65.7973 291.358 59.8368 293.168C53.8764 294.978 52.4638 305.236 52.4638 305.236C52.4638 305.236 58.3209 301.176 61.0772 303.693C63.8334 306.21 62.8773 309.658 61.3269 308.977C59.7765 308.296 51.3441 305.667 50.5172 312.14C50.2491 313.979 50.355 315.853 50.8287 317.65C51.3023 319.447 52.1339 321.129 53.2735 322.597C53.2735 322.597 60.2933 311.684 64.6 314.132C68.9067 316.58 60.612 317.718 57.0203 321.674C53.4285 325.631 50.9909 329.906 53.7127 331.665C56.0091 333.365 58.1273 335.295 60.0349 337.423C60.0349 337.423 59.7507 331.389 63.7042 327.036C67.6577 322.683 70.414 325.2 66.8222 329.156C63.2305 333.113 64.3071 339.871 64.3071 339.871C64.3071 339.871 73.7818 341.311 80.8964 339.087C88.011 336.863 88.2264 334.199 86.2195 331.648C84.2126 329.096 76.8482 325.277 79.3288 322.51C81.8094 319.743 86.4003 336.173 90.0266 332.975C93.6528 329.777 94.9878 325.932 93.3341 322.984L91.6889 320.036C91.6889 320.036 84.3245 316.226 82.3176 313.666C80.3107 311.106 83.3943 312.485 86.8741 314.209C90.3539 315.933 97.7958 321.26 98.4762 319.717C99.1567 318.174 97.2618 309.934 96.0042 307.348C94.7467 304.762 83.4977 306.012 82.3176 304.969C81.1376 303.926 87.4167 300.943 89.3203 301.236C90.7367 301.473 92.1397 301.783 93.5236 302.167C93.5236 302.167 94.0662 297.607 88.1747 292.97C82.2832 288.332 80.6725 294.073 80.6725 294.073Z" fill="#651FFF"/>
<path opacity="0.3" d="M80.6725 294.073C80.6725 294.073 79.8714 301.305 74.2039 301.193C68.5363 301.081 65.7973 291.358 59.8368 293.168C53.8764 294.978 52.4638 305.236 52.4638 305.236C52.4638 305.236 58.3209 301.176 61.0772 303.693C63.8334 306.21 62.8773 309.658 61.3269 308.977C59.7765 308.296 51.3441 305.667 50.5172 312.14C50.2491 313.979 50.355 315.853 50.8287 317.65C51.3023 319.447 52.1339 321.129 53.2735 322.597C53.2735 322.597 60.2933 311.684 64.6 314.132C68.9067 316.58 60.612 317.718 57.0203 321.674C53.4285 325.631 50.9909 329.906 53.7127 331.665C56.0091 333.365 58.1273 335.295 60.0349 337.423C60.0349 337.423 59.7507 331.389 63.7042 327.036C67.6577 322.683 70.414 325.2 66.8222 329.156C63.2305 333.113 64.3071 339.871 64.3071 339.871C64.3071 339.871 73.7818 341.311 80.8964 339.087C88.011 336.863 88.2264 334.199 86.2195 331.648C84.2126 329.096 76.8482 325.277 79.3288 322.51C81.8094 319.743 86.4003 336.173 90.0266 332.975C93.6528 329.777 94.9878 325.932 93.3341 322.984L91.6889 320.036C91.6889 320.036 84.3245 316.226 82.3176 313.666C80.3107 311.106 83.3943 312.485 86.8741 314.209C90.3539 315.933 97.7958 321.26 98.4762 319.717C99.1567 318.174 97.2618 309.934 96.0042 307.348C94.7467 304.762 83.4977 306.012 82.3176 304.969C81.1376 303.926 87.4167 300.943 89.3203 301.236C90.7367 301.473 92.1397 301.783 93.5236 302.167C93.5236 302.167 94.0662 297.607 88.1747 292.97C82.2832 288.332 80.6725 294.073 80.6725 294.073Z" fill="#263238"/>
<path d="M74.8585 329.285C73.532 323.087 72.0333 314.312 72.6535 308.477" stroke="#263238" stroke-linecap="round" stroke-linejoin="round"/>
<path d="M76.6587 336.638C76.6587 336.638 76.1935 334.914 75.582 332.328" stroke="#263238" stroke-linecap="round" stroke-linejoin="round"/>
<path d="M75.2375 307.191C75.2375 307.191 85.4787 307.847 92.8776 312.415" stroke="#263238" stroke-linecap="round" stroke-linejoin="round"/>
<path d="M74.8757 315.535C74.8757 315.535 75.1686 313.63 83.067 320.819" stroke="#263238" stroke-linecap="round" stroke-linejoin="round"/>
<path d="M69.8886 305.933C69.8886 305.933 69.6733 301.408 63.8593 299.037" stroke="#263238" stroke-linecap="round" stroke-linejoin="round"/>
<path d="M70.9653 312.691L66.004 311.795" stroke="#263238" stroke-linecap="round" stroke-linejoin="round"/>
<path d="M71.284 319.484C71.284 319.484 61.9385 321.82 58.7085 325.38" stroke="#263238" stroke-linecap="round" stroke-linejoin="round"/>
<path d="M59.6646 288.305C59.6646 288.305 75.7112 326.353 77.3994 344.524L74.023 257.885" stroke="#263238" stroke-width="2" stroke-linecap="round" stroke-linejoin="round"/>
<path d="M98.5107 279.436C77.3994 275.626 77.3994 344.525 77.3994 344.525" stroke="#263238" stroke-width="2" stroke-linecap="round" stroke-linejoin="round"/>
<path d="M79.9317 344.103C79.9317 344.103 67.6836 229.146 103.188 229.146" stroke="#263238" stroke-width="2" stroke-linecap="round" stroke-linejoin="round"/>
<path d="M90.44 276.867C87.5545 273.626 81.4305 273.626 77.8215 281.918C74.2125 290.211 77.52 288.771 77.52 288.771C77.52 288.771 84.4107 286.608 88.7173 285.168C93.024 283.729 98.8122 280.117 99.1653 282.28C99.5185 284.444 96.2885 286.59 92.3177 287.332C88.347 288.073 77.899 290.944 78.9843 293.107C80.0695 295.271 82.5846 301.727 82.5846 301.727C85.6673 299.111 88.9187 296.701 92.3177 294.512C97.0034 291.625 99.8888 292.711 97.3651 295.952C94.8414 299.193 87.6321 302.848 89.0791 307.158C90.5261 311.468 99.1653 316.898 99.1653 316.898C99.1653 316.898 100.251 307.882 102.774 304.994C105.298 302.107 105.298 305.356 104.574 310.408C104.217 312.556 103.978 314.723 103.86 316.898L113.946 320.502C113.946 320.502 117.555 315.097 119.355 313.287L121.155 311.485C121.155 311.485 113.231 304.632 112.869 300.279C112.507 295.926 118.278 300.279 120.078 300.995C121.879 301.71 124.764 306.77 124.764 306.77C124.764 306.77 126.564 298.469 126.926 295.564L127.288 292.676C127.288 292.676 119.717 289.789 116.831 289.789C113.946 289.789 112.525 291.952 112.525 289.064C112.525 286.177 115.41 284.375 118.649 284.754C121.587 285.246 124.481 285.969 127.305 286.918C127.305 286.918 129.467 285.116 128.743 279.703C128.02 274.29 126.22 274.29 121.896 275.738C117.572 277.186 114.687 280.427 111.439 280.427C108.192 280.427 110.001 276.453 112.163 275.376C114.325 274.298 119.734 272.126 120.819 271.764C121.905 271.402 115.048 266.359 111.439 265.635C107.83 264.911 103.171 267.454 103.515 271.049C104.161 278.677 93.3513 280.151 90.44 276.867Z" fill="#651FFF"/>
<path d="M113.696 314.01C113.808 315.105 113.885 316.191 113.92 317.277" stroke="#263238" stroke-linecap="round" stroke-linejoin="round"/>
<path d="M106.426 288.115C109.593 295.26 111.873 302.767 113.214 310.467" stroke="#263238" stroke-linecap="round" stroke-linejoin="round"/>
<path d="M105.134 285.219C103.343 281.375 101.999 279.03 101.999 279.03C103.964 278.107 105.6 276.602 106.685 274.72C107.532 273.019 108.768 271.542 110.294 270.41" stroke="#263238" stroke-linecap="round" stroke-linejoin="round"/>
<path d="M89.3892 291.296C89.3892 291.296 102.361 285.891 102.361 286.986" stroke="#263238" stroke-linecap="round" stroke-linejoin="round"/>
<path d="M109.57 284.46C109.57 284.46 115.341 281.572 120.389 281.572" stroke="#263238" stroke-linecap="round" stroke-linejoin="round"/>
<path d="M107.408 293.08C104.891 295.147 102.583 297.457 100.518 299.976C98.4096 302.457 96.7062 305.256 95.4702 308.269" stroke="#263238" stroke-linecap="round" stroke-linejoin="round"/>
<path d="M111.37 294.547C111.37 294.547 118.942 292.383 122.912 295.986" stroke="#263238" stroke-linecap="round" stroke-linejoin="round"/>
<path d="M125.083 245.799C121.164 243.481 116.823 243.429 114.695 240.972C112.568 238.516 116.745 237.283 119.002 238.205C121.259 239.128 126.418 241.8 127.4 242.377C128.382 242.955 127.701 234.473 125.884 231.275C124.066 228.077 119.088 226.223 116.599 228.835C111.353 234.343 103.179 227.111 103.739 222.801C104.299 218.491 100.294 213.862 91.6803 216.578C83.067 219.293 86.2712 220.801 86.2712 220.801C86.2712 220.801 92.3952 224.551 96.3229 226.835C100.251 229.12 106.745 231.145 105.35 232.869C103.954 234.593 100.182 233.525 97.0464 231.008C93.9112 228.491 84.8758 222.474 83.9542 224.706C83.0325 226.939 79.7767 233.111 79.7767 233.111C83.7713 233.711 87.7219 234.575 91.6028 235.697C96.8569 237.352 97.925 240.24 93.825 240.455C89.7251 240.671 82.2746 237.593 79.949 241.524C77.6234 245.455 79.2168 255.54 79.2168 255.54C79.2168 255.54 86.7363 250.446 90.5606 250.454C94.3849 250.463 91.9473 252.601 87.6665 255.368C85.806 256.503 84.0115 257.743 82.2918 259.083L86.1333 269.134C86.1333 269.134 92.5761 268.272 95.1257 268.487L97.7097 268.668C97.7097 268.668 97.7097 258.186 100.707 255.075C103.705 251.963 104.256 259.16 104.893 260.997C105.531 262.833 103.61 268.315 103.61 268.315C103.61 268.315 111.052 264.238 113.463 262.626L115.884 261.005C115.884 261.005 113.093 253.385 111.207 251.213C109.32 249.041 106.736 249.36 108.916 247.472C111.095 245.584 114.342 246.61 116.194 249.265C117.752 251.804 119.103 254.464 120.234 257.221C120.234 257.221 123.016 257.669 126.625 253.575C130.234 249.48 129.011 248.127 125.083 245.799ZM90.974 257.35C88.0886 255.902 94.9362 253.04 94.9362 253.04C97.4599 252.661 93.8853 258.79 90.974 257.35ZM95.8319 243.877C94.6002 243.265 98.2867 242.033 98.2867 242.033C103.61 243.084 97.055 244.498 95.8319 243.877Z" fill="#651FFF"/>
<path d="M90.8965 264.695C90.1472 265.488 89.3719 266.264 88.5795 267.005" stroke="#263238" stroke-linecap="round" stroke-linejoin="round"/>
<path d="M105.686 242.223C102.375 249.315 98.2068 255.974 93.2738 262.049" stroke="#263238" stroke-linecap="round" stroke-linejoin="round"/>
<path d="M107.021 239.369C108.743 235.499 109.605 232.947 109.605 232.947C111.596 233.825 113.809 234.069 115.944 233.645C117.787 233.163 119.717 233.125 121.577 233.533" stroke="#263238" stroke-linecap="round" stroke-linejoin="round"/>
<path d="M92.111 231.457C92.111 231.457 104.704 237.715 103.885 238.422" stroke="#263238" stroke-linecap="round" stroke-linejoin="round"/>
<path d="M110.518 242.223C110.518 242.223 116.478 244.688 119.786 248.507" stroke="#263238" stroke-linecap="round" stroke-linejoin="round"/>
<path d="M102.568 246.257C99.3757 245.719 96.1392 245.491 92.9034 245.576C89.6486 245.612 86.4196 246.159 83.334 247.197" stroke="#263238" stroke-linecap="round" stroke-linejoin="round"/>
<path d="M104.075 250.195C104.075 250.195 110.673 254.505 110.552 259.858" stroke="#263238" stroke-linecap="round" stroke-linejoin="round"/>
<path d="M69.0703 295.787C65.9092 293.916 62.4208 293.882 60.7068 291.908C58.9927 289.934 62.3605 288.934 64.1521 289.675C65.9437 290.417 70.1212 292.572 70.9136 293.037C71.706 293.503 71.1548 286.676 69.6905 284.098C68.2262 281.521 64.221 280.03 62.2227 282.133C58.0022 286.572 51.4216 280.754 51.8867 277.288C52.3518 273.823 49.1046 270.091 42.1623 272.28C35.2199 274.47 37.8556 275.677 37.8556 275.677C37.8556 275.677 42.7824 278.702 45.9435 280.564C49.1046 282.426 54.3329 284.012 53.2046 285.4C52.0762 286.788 49.0616 285.934 46.5292 283.9C43.9969 281.866 36.7273 277.004 35.9865 278.831C35.2458 280.659 32.6273 285.598 32.6273 285.598C35.8285 286.093 38.9936 286.798 42.102 287.71C46.3311 289.038 47.1925 291.356 43.8935 291.537C40.5946 291.718 34.5911 289.236 32.6962 292.399C30.8013 295.563 32.1105 303.674 32.1105 303.674C32.1105 303.674 38.1398 299.571 41.2406 299.588C44.3414 299.606 42.3518 301.312 38.9064 303.536C37.4156 304.451 35.9777 305.45 34.5998 306.528L37.735 314.561C40.1339 314.241 42.5502 314.068 44.9702 314.044L47.0116 314.191C47.0116 314.191 47.0116 305.752 49.4319 303.252C51.8523 300.752 52.2829 306.536 52.7911 308.019C53.2993 309.501 51.7661 313.906 51.7661 313.906C51.7661 313.906 57.7955 310.631 59.6904 309.329L61.637 308.019C61.637 308.019 59.3976 301.899 57.873 300.14C56.3484 298.382 54.264 298.649 55.9867 297.132C57.7093 295.615 60.3536 296.408 61.8523 298.571C63.1019 300.617 64.1877 302.759 65.0996 304.976C65.0996 304.976 67.339 305.338 70.2676 302.045C73.1961 298.752 72.2314 297.658 69.0703 295.787ZM41.6196 305.079C39.294 303.916 44.8066 301.631 44.8066 301.631C46.8393 301.304 43.928 306.243 41.6196 305.079ZM45.5301 294.244C44.5396 293.744 47.5025 292.761 47.5025 292.761C51.792 293.58 46.512 294.735 45.5301 294.244Z" fill="#651FFF"/>
<path d="M41.5593 310.992C40.9564 311.63 40.3362 312.251 39.6989 312.854" stroke="#263238" stroke-linecap="round" stroke-linejoin="round"/>
<path d="M53.463 292.926C50.7927 298.62 47.4373 303.967 43.4715 308.847" stroke="#263238" stroke-linecap="round" stroke-linejoin="round"/>
<path d="M54.531 290.615C55.9264 287.495 56.6413 285.443 56.6413 285.443C58.2428 286.151 60.0225 286.349 61.7404 286.012C63.2218 285.622 64.7746 285.59 66.271 285.917" stroke="#263238" stroke-linecap="round" stroke-linejoin="round"/>
<path d="M42.5326 284.246C42.5326 284.246 52.6705 289.28 52.0073 289.849" stroke="#263238" stroke-linecap="round" stroke-linejoin="round"/>
<path d="M57.3476 292.9C57.3476 292.9 62.1452 294.892 64.8067 297.96" stroke="#263238" stroke-linecap="round" stroke-linejoin="round"/>
<path d="M50.9479 296.158C48.3881 295.721 45.7917 295.536 43.1959 295.606C40.5764 295.637 37.9781 296.08 35.4955 296.916" stroke="#263238" stroke-linecap="round" stroke-linejoin="round"/>
<path d="M52.1623 299.33C52.1623 299.33 57.4768 302.778 57.3303 307.088" stroke="#263238" stroke-linecap="round" stroke-linejoin="round"/>
<path d="M56.1934 236.189C56.1934 236.189 52.2313 239.076 49.7075 236.189C47.1838 233.301 50.7842 227.569 47.1838 225.371C43.5835 223.172 37.8125 227.172 37.8125 227.172C37.8125 227.172 42.4982 228.25 42.4982 230.775C42.4982 233.301 40.3362 234.387 39.9745 233.301C39.6127 232.215 37.089 226.81 33.48 229.336C32.4404 230.037 31.5534 230.941 30.8724 231.995C30.1915 233.048 29.7307 234.228 29.5179 235.465C29.5179 235.465 38.1312 234.025 38.8892 237.275C39.6472 240.525 35.2888 236.913 31.6798 236.913C28.0709 236.913 24.7892 237.637 25.194 239.8C25.3904 241.718 25.3904 243.65 25.194 245.567C27.0721 243.812 29.5173 242.791 32.0847 242.688C36.0468 242.688 36.0468 245.205 32.4464 245.205C28.8461 245.205 25.952 248.817 25.952 248.817C25.952 248.817 29.561 254.23 33.8849 256.756C38.2087 259.282 39.6558 258.196 40.0175 256.032C40.3793 253.868 38.9323 248.455 41.456 248.455C43.9797 248.455 37.8556 258.196 41.0942 258.558C44.3328 258.92 46.8651 257.833 47.5887 255.67L48.3036 253.506C48.3036 253.506 46.8651 248.093 47.2269 245.929C47.5887 243.766 48.3036 245.929 49.0271 248.455C49.7506 250.981 50.4655 257.118 51.5508 256.756C52.6361 256.394 55.8575 251.705 56.5982 249.903C57.339 248.102 51.5508 243.007 51.5508 241.964C51.5508 240.921 55.8575 242.688 56.5982 243.766C57.122 244.581 57.6021 245.425 58.0366 246.291C58.0366 246.291 60.5603 244.49 60.1986 239.438C59.8368 234.387 56.1934 236.189 56.1934 236.189Z" fill="#651FFF"/>
<path d="M36.0037 249.3C38.493 245.852 42.1881 241.085 45.375 238.74" stroke="#263238" stroke-linecap="round" stroke-linejoin="round"/>
<path d="M33.1183 253.532C33.1183 253.532 33.7557 252.532 34.7893 251.023" stroke="#263238" stroke-linecap="round" stroke-linejoin="round"/>
<path d="M47.1838 239.465C47.1838 239.465 51.4905 244.878 52.5844 250.671" stroke="#263238" stroke-linecap="round" stroke-linejoin="round"/>
<path d="M42.8513 243.084C42.8513 243.084 43.9366 242.369 43.9366 249.584" stroke="#263238" stroke-linecap="round" stroke-linejoin="round"/>
<path d="M45.375 236.189C45.375 236.189 47.5456 234.026 46.0986 230.061" stroke="#263238" stroke-linecap="round" stroke-linejoin="round"/>
<path d="M42.4982 239.827L40.6894 236.939" stroke="#263238" stroke-linecap="round" stroke-linejoin="round"/>
<path d="M39.251 243.086C39.251 243.086 33.8418 239.482 30.6376 239.482" stroke="#263238" stroke-linecap="round" stroke-linejoin="round"/>
<path d="M91.3013 312.906C91.3013 312.906 87.3306 315.785 84.8069 312.906C82.2832 310.027 85.8922 304.243 82.2832 302.08C78.6742 299.916 72.9119 303.881 72.9119 303.881C72.9119 303.881 77.5975 304.967 77.5975 307.493C77.5975 310.019 75.4356 311.096 75.0738 310.019C74.7121 308.941 72.1883 303.519 68.588 306.045C67.546 306.745 66.6574 307.651 65.9763 308.706C65.2951 309.761 64.8356 310.944 64.6258 312.182C64.6258 312.182 73.2392 310.734 73.9971 313.984C74.7551 317.233 70.3882 313.622 66.7878 313.622C63.1874 313.622 59.9402 314.346 60.2933 316.509C60.4897 318.43 60.4897 320.365 60.2933 322.285C62.1701 320.527 64.6155 319.502 67.184 319.397C71.1461 319.397 71.1461 321.923 67.5371 321.923C63.9282 321.923 61.0513 325.526 61.0513 325.526C61.0513 325.526 64.6603 330.939 68.9842 333.465C73.3081 335.991 74.7465 334.913 75.1083 332.741C75.47 330.569 74.0316 325.173 76.5553 325.173C79.079 325.173 72.9463 334.913 76.1935 335.267C79.4408 335.62 81.9559 334.551 82.6794 332.387L83.4029 330.215C83.4029 330.215 81.9559 324.81 82.3176 322.647C82.6794 320.483 83.4029 322.647 84.1264 325.173C84.8499 327.698 85.5649 333.793 86.6501 333.465C87.7354 333.137 90.9568 328.414 91.6889 326.612C92.4211 324.81 86.6501 319.759 86.6501 318.673C86.6501 317.587 90.9568 319.397 91.6889 320.475C92.2139 321.291 92.6969 322.134 93.136 323C93.136 323 95.6597 321.199 95.2979 316.147C94.9362 311.096 91.3013 312.906 91.3013 312.906Z" fill="#651FFF"/>
<path d="M71.1289 325.976C73.6182 322.484 77.3133 317.752 80.5088 315.416" stroke="#263238" stroke-linecap="round" stroke-linejoin="round"/>
<path d="M68.2521 330.199C68.2521 330.199 68.8894 329.199 69.923 327.699" stroke="#263238" stroke-linecap="round" stroke-linejoin="round"/>
<path d="M82.309 316.131C82.309 316.131 86.6157 321.544 87.7182 327.337" stroke="#263238" stroke-linecap="round" stroke-linejoin="round"/>
<path d="M77.9851 319.743C77.9851 319.743 79.0704 319.019 79.0704 326.234" stroke="#263238" stroke-linecap="round" stroke-linejoin="round"/>
<path d="M80.5088 312.907C80.5088 312.907 82.6708 310.735 81.2323 306.77" stroke="#263238" stroke-linecap="round" stroke-linejoin="round"/>
<path d="M77.6234 316.493L75.8232 313.605" stroke="#263238" stroke-linecap="round" stroke-linejoin="round"/>
<path d="M74.3847 319.743C74.3847 319.743 68.9756 316.131 65.7714 316.131" stroke="#263238" stroke-linecap="round" stroke-linejoin="round"/>
<path d="M92.5933 342.904H64.7292V383.048H92.5933V342.904Z" fill="#263238" stroke="#263238" stroke-width="2" stroke-linecap="round" stroke-linejoin="round"/>
<path d="M36 387H624.205" stroke="#263238" stroke-linecap="round" stroke-linejoin="round"/>
<path d="M525.31 297.391L529.186 380.143" stroke="#263238" stroke-width="6" stroke-linecap="round" stroke-linejoin="round"/>
<path d="M507.92 297.391L512.226 380.143" stroke="#263238" stroke-width="6" stroke-linecap="round" stroke-linejoin="round"/>
<path d="M452.484 297.391L446.886 380.143" stroke="#263238" stroke-width="6" stroke-linecap="round" stroke-linejoin="round"/>
<path d="M439.814 297.391L426.463 380.143" stroke="#263238" stroke-width="6" stroke-linecap="round" stroke-linejoin="round"/>
<path d="M527.877 207.129L528.161 294.484H448.996L451.821 207.129H527.877Z" fill="#808080" stroke="#263238" stroke-linecap="round" stroke-linejoin="round"/>
<path d="M433.793 299.209H528.161V294.235H433.793V299.209Z" fill="#808080" stroke="#263238" stroke-linecap="round" stroke-linejoin="round"/>
<path d="M433.793 299.209H513.725V294.235H433.793V299.209Z" fill="#808080" stroke="#263238" stroke-linecap="round" stroke-linejoin="round"/>
<path d="M453.802 249.117C453.802 249.117 446.472 260.323 445.318 268.788C444.164 277.253 446.093 286.89 451.485 290.39C454.998 292.539 458.954 293.86 463.053 294.251H508.919C508.919 294.251 517.015 292.321 520.487 284.606C523.958 276.891 521.641 266.857 519.332 261.84C517.024 256.823 515.077 252.565 515.077 252.565L453.802 249.117Z" fill="#263238" stroke="#263238" stroke-linecap="round" stroke-linejoin="round"/>
<path d="M475.387 160.331C475.387 160.331 448.402 170.365 446.86 173.063C445.318 175.761 458.815 228.998 458.815 228.998L451.873 250.988C462.443 253.228 473.124 254.905 483.871 256.013C500.056 257.556 515.861 252.927 515.861 252.927L509.694 227.067L519.72 173.063C519.72 173.063 499.909 163.659 495.551 161.995C491.193 160.331 478.471 159.978 475.387 160.331Z" fill="#651FFF" stroke="#263238" stroke-linecap="round" stroke-linejoin="round"/>
<path d="M503.923 165.72C500.271 164.048 497.032 162.591 495.551 162.031C491.193 160.367 478.471 159.979 475.387 160.367C475.387 160.367 468.772 162.824 461.907 165.634L477.316 229.81L490.805 231.732L503.923 165.72Z" fill="#651FFF" stroke="#263238" stroke-linecap="round" stroke-linejoin="round"/>
<path d="M489.789 256.351L494.517 161.703C489.453 160.315 478.255 159.979 475.387 160.367L473.182 161.229L478.229 255.454C480.09 255.678 481.976 255.885 483.871 256.066C485.766 256.247 487.842 256.325 489.789 256.351Z" fill="white" stroke="#263238" stroke-linecap="round" stroke-linejoin="round"/>
<path d="M446.86 173.098C446.86 173.098 422.191 240.997 426.429 243.308C430.667 245.618 480.012 246.394 480.012 246.394V240.997L447.282 229.033L453.837 207.819L446.86 173.098Z" fill="#651FFF" stroke="#263238" stroke-linecap="round" stroke-linejoin="round"/>
<path d="M480.012 240.998C480.012 240.998 493.122 239.455 494.276 239.455C495.43 239.455 505.835 246.782 505.835 246.782L479.995 246.394L480.012 240.998Z" fill="white" stroke="#263238" stroke-linecap="round" stroke-linejoin="round"/>
<path d="M519.608 173.098C519.608 173.098 544.285 240.997 540.039 243.308C535.792 245.618 486.464 246.394 486.464 246.394V240.997L519.195 229.033L512.976 208.957L519.608 173.098Z" fill="#651FFF" stroke="#263238" stroke-linecap="round" stroke-linejoin="round"/>
<path d="M530.271 227.568C531.077 227.572 531.88 227.641 532.674 227.775" stroke="#263238" stroke-linecap="round" stroke-linejoin="round"/>
<path d="M519.229 229.033C522.341 228.286 525.511 227.799 528.704 227.576" stroke="#263238" stroke-linecap="round" stroke-linejoin="round"/>
<path d="M486.464 240.998C486.464 240.998 473.354 239.455 472.2 239.455C471.046 239.455 460.632 246.782 460.632 246.782L486.472 246.394L486.464 240.998Z" fill="white" stroke="#263238" stroke-linecap="round" stroke-linejoin="round"/>
<path d="M520.96 265.944C517.877 253.289 505.913 250.928 495.336 250.057C484.758 249.186 477.704 252.324 477.704 252.324C477.704 252.324 494.931 253.186 497.11 264.978L490.099 281.985C490.099 281.985 488.772 285.916 495.387 292.019" fill="#263238"/>
<path d="M520.96 265.944C517.877 253.289 505.913 250.928 495.336 250.057C484.758 249.186 477.704 252.324 477.704 252.324C477.704 252.324 494.931 253.186 497.11 264.978L490.099 281.985C490.099 281.985 488.772 285.916 495.387 292.019" stroke="#263238" stroke-linecap="round" stroke-linejoin="round"/>
<path d="M492.881 271.159C493.596 279.42 494.781 287.634 496.429 295.76C499.194 309.423 511.425 359.005 512.218 360.962C513.01 362.919 522.08 375.797 520.504 380.478C518.928 385.159 516.955 384.788 513.398 381.262C509.84 377.737 506.3 362.91 505.904 361.35C505.508 359.79 484.991 324.646 478.677 308.639C472.364 292.631 468.41 283.641 470.391 271.943C472.372 260.246 479.461 259.875 485.034 261.401C490.607 262.927 492.881 271.159 492.881 271.159Z" fill="white" stroke="#263238" stroke-linecap="round" stroke-linejoin="round"/>
<path d="M492.571 275.322L478.677 308.639L474.956 298.726L492.571 275.322Z" fill="#263238" stroke="#263238" stroke-miterlimit="10"/>
<path d="M520.504 380.479C521.365 377.953 519.1 373.031 516.722 368.738C513.854 373.048 510.831 372.609 508.712 371.324C510.056 375.436 511.727 379.608 513.398 381.263C516.955 384.78 518.927 385.168 520.504 380.479Z" fill="#263238" stroke="#263238" stroke-linecap="round" stroke-linejoin="round"/>
<path d="M495.818 260.325C495.818 260.325 489.237 248.714 478.901 252.179C468.565 255.644 446.515 331.267 439.581 342.068C437.793 344.865 435.864 347.57 433.802 350.171C430.155 351.184 426.389 351.703 422.605 351.714C416.437 351.714 411.037 351.714 415.662 355.567C420.288 359.42 429.926 362.127 434.939 362.894C439.952 363.661 442.648 354.024 442.648 354.024C442.648 354.024 472.329 303.494 477.721 298.089C483.113 292.684 493.148 275.332 495.069 271.858C496.989 268.385 496.584 263.773 495.818 260.325Z" fill="white" stroke="#263238" stroke-linecap="round" stroke-linejoin="round"/>
<path d="M442.183 355.341C436.679 355.928 427.971 356.721 427.971 356.721L424.922 351.635C424.164 351.678 423.38 351.712 422.579 351.712C416.412 351.712 411.011 351.712 415.636 355.565C420.262 359.419 429.9 362.125 434.913 362.892C438.755 363.487 441.235 357.953 442.183 355.341Z" fill="#263238" stroke="#263238" stroke-linecap="round" stroke-linejoin="round"/>
<path d="M467.523 130.472C467.523 130.472 463.63 133.593 464.405 137.101C465.18 140.609 463.242 146.057 460.512 146.842C457.781 147.626 460.512 151.152 462.458 151.514L464.405 151.902C464.405 151.902 466.352 161.642 467.911 162.815C469.47 163.987 475.31 162.815 475.31 162.815C475.31 162.815 477.256 175.667 479.978 179.563C482.7 183.459 484.285 184.235 487.73 179.175C491.175 174.115 495.482 162.03 495.482 162.03C495.482 162.03 496.653 149.178 493.535 140.213C490.417 131.248 478.815 119.568 467.523 130.472Z" fill="white" stroke="#263238" stroke-linecap="round" stroke-linejoin="round"/>
<path d="M468.126 143.609C468.126 144.609 467.773 145.419 467.334 145.419C466.894 145.419 466.541 144.609 466.541 143.609C466.541 142.609 466.903 141.799 467.334 141.799C467.764 141.799 468.126 142.609 468.126 143.609Z" fill="#263238"/>
<path d="M466.093 139.308C466.093 139.308 467.902 137.274 469.487 139.989" stroke="#263238" stroke-linecap="round" stroke-linejoin="round"/>
<path d="M466.998 154.297C466.998 154.297 468.126 154.745 470.839 152.711" stroke="#263238" stroke-linecap="round" stroke-linejoin="round"/>
<path d="M470.831 117.465C470.831 117.465 462.657 120.844 464.603 128.041C466.55 135.239 477.842 141.152 481.339 147.074C484.836 152.996 484.069 159.349 481.339 161.883C478.609 164.418 476.67 164.849 476.67 164.849C482.625 168.163 489.323 169.91 496.137 169.926C507.429 169.926 512.037 158.263 511.253 150.652C510.469 143.04 508.436 125.154 500.262 119.62C492.088 114.086 478.617 113.655 470.831 117.465Z" fill="#263238" stroke="#263238" stroke-linecap="round" stroke-linejoin="round"/>
<path d="M298.263 297.389L294.387 380.141" stroke="#263238" stroke-width="6" stroke-linecap="round" stroke-linejoin="round"/>
<path d="M340.468 297.389L336.161 380.141" stroke="#263238" stroke-width="6" stroke-linecap="round" stroke-linejoin="round"/>
<path d="M361.57 297.389L367.169 380.141" stroke="#263238" stroke-width="6" stroke-linecap="round" stroke-linejoin="round"/>
<path d="M383.965 297.389L397.316 380.141" stroke="#263238" stroke-width="6" stroke-linecap="round" stroke-linejoin="round"/>
<path d="M291.682 207.129L295.403 294.484H365.059L358.229 207.129H291.682Z" fill="#808080" stroke="#263238" stroke-linecap="round" stroke-linejoin="round"/>
<path d="M389.986 294.234H295.403V299.208H389.986V294.234Z" fill="#808080" stroke="#263238" stroke-linecap="round" stroke-linejoin="round"/>
<path d="M389.986 294.234H333.879V299.208H389.986V294.234Z" fill="#808080" stroke="#263238" stroke-linecap="round" stroke-linejoin="round"/>
<path d="M304.051 250.445C304.051 250.445 300.554 282.038 301.716 286.167C302.217 287.988 303.176 289.65 304.502 290.994C305.827 292.339 307.475 293.321 309.288 293.847C312.492 294.709 356.962 293.847 358.194 293.847C365.274 293.985 366.687 290.347 366.928 283.219C367.195 275.461 366.067 248.256 366.067 248.256L304.051 250.445Z" fill="#263238" stroke="#263238" stroke-linecap="round" stroke-linejoin="round"/>
<path d="M319.184 164.341C319.184 164.341 293.06 174.685 293.921 176.409C294.783 178.133 302.535 228.43 302.853 229.853C303.172 231.275 303.715 247.955 303.715 249.386C303.715 250.816 305.437 253.411 307.16 253.696C316.152 255.195 325.929 254.42 335.024 254.558C341.174 254.632 347.318 254.652 353.457 254.618C357.074 254.618 365.515 256.342 366.868 252.299C367.445 249.136 367.419 178.167 367.729 174.719C368.039 171.271 364.577 170.409 360.838 168.401C357.1 166.392 339.882 161.789 338.159 161.789C336.437 161.789 319.184 164.341 319.184 164.341Z" fill="white" stroke="#263238" stroke-linecap="round" stroke-linejoin="round"/>
<path d="M326.678 180.745L332.501 188.908L325.851 238.792L336.325 249.868L344.766 237.051L336.29 188.029L340.072 179.874L329.296 173.754L326.678 180.745Z" fill="#263238" stroke="#263238" stroke-linecap="round" stroke-linejoin="round"/>
<path d="M321.191 161.754C321.191 161.754 317.746 162.901 317.462 165.202C317.177 167.504 318.039 185.606 318.039 185.606L329.236 181.296L334.111 180.158L346.764 182.511C346.764 182.511 346.463 172.115 344.447 166.943C342.432 161.771 340.141 160.047 338.418 159.763C336.695 159.478 321.191 161.754 321.191 161.754Z" fill="white" stroke="#263238" stroke-linecap="round" stroke-linejoin="round"/>
<path d="M319.469 160.893C319.469 160.893 322.63 172.676 323.775 174.685C324.921 176.693 332.389 182.727 334.111 180.141C335.834 177.555 337.557 170.659 337.849 169.797C338.142 168.935 338.418 159.746 338.418 159.746C338.418 159.746 324.637 164.642 319.469 160.893Z" fill="white" stroke="#263238" stroke-linecap="round" stroke-linejoin="round"/>
<path d="M325.102 168.39C325.102 168.39 325.42 168.873 329.649 170.666C331.946 171.707 334.433 172.259 336.954 172.287L337.763 169.201L338.254 160.908L325.102 168.39Z" fill="#263238" stroke="#263238" stroke-miterlimit="10"/>
<path d="M346.669 139.057C346.669 139.057 347.677 129.644 346.669 124.266C345.662 118.887 339.951 117.214 335.584 116.508C331.217 115.801 312.75 117.516 310.399 122.542C308.047 127.567 313.086 131.61 313.086 131.61C313.086 131.61 310.063 133.627 311.406 136.316C312.75 139.006 314.43 142.704 314.43 142.704L316.445 134.946L330.545 135.282L335.92 136.627L341.631 143.686C341.631 143.686 344.654 144.359 345.662 143.014C346.669 141.669 346.669 139.057 346.669 139.057Z" fill="#263238" stroke="#263238" stroke-linecap="round" stroke-linejoin="round"/>
<path d="M314.878 141.368C314.878 141.368 312.009 138.213 312.009 141.661C312.009 145.109 315.455 148.557 315.455 148.557L314.878 141.368Z" stroke="#263238" stroke-linecap="round" stroke-linejoin="round"/>
<path d="M314.43 132.67C314.43 132.67 314.766 151.488 315.437 155.186C316.109 158.884 324.171 168.633 325.851 168.633C327.531 168.633 329.873 169.305 331.88 167.624C333.887 165.944 342.294 158.211 342.966 155.858C343.477 153.536 343.814 151.179 343.973 148.807C343.973 148.807 349.348 146.118 348.676 142.083C348.004 138.049 345.989 137.713 344.981 138.722C344.021 139.789 343.123 140.911 342.294 142.083C342.294 142.083 341.622 138.722 340.278 137.377C338.935 136.032 334.904 135.36 335.575 134.015L339.271 126.619C339.271 126.619 332.888 131.998 326.85 133.007C322.719 133.568 318.524 133.455 314.43 132.67Z" fill="white" stroke="#263238" stroke-linecap="round" stroke-linejoin="round"/>
<path d="M320.692 141.911C320.692 142.851 320.218 143.635 319.624 143.635C319.029 143.635 318.556 142.886 318.556 141.911C318.556 140.937 319.038 140.188 319.624 140.188C320.209 140.188 320.692 140.981 320.692 141.911Z" fill="#263238"/>
<path d="M331.536 141.911C331.536 142.851 331.062 143.635 330.468 143.635C329.873 143.635 329.4 142.886 329.4 141.911C329.4 140.937 329.882 140.188 330.468 140.188C331.053 140.188 331.536 140.981 331.536 141.911Z" fill="#263238"/>
<path d="M323.534 141.471C323.534 141.471 321.045 151.073 322.113 151.608C323.181 152.142 329.227 149.832 329.227 149.832" stroke="#263238" stroke-linecap="round" stroke-linejoin="round"/>
<path d="M322.139 151.607C320.686 152.135 319.311 152.854 318.047 153.745C316.454 154.986 319.296 156.055 323.026 156.055C326.755 156.055 331.562 155.883 333.698 154.814C335.834 153.745 334.051 152.857 332.277 152.142C330.653 151.595 328.988 151.18 327.298 150.9C327.298 150.9 323.861 151.435 322.139 151.607Z" fill="#263238" stroke="#263238" stroke-linecap="round" stroke-linejoin="round"/>
<path d="M317.315 138.092C317.315 138.092 318.917 136.308 321.941 137.73" stroke="#263238" stroke-linecap="round" stroke-linejoin="round"/>
<path d="M327.091 137.919C328.129 137.376 329.315 137.187 330.47 137.38C331.625 137.573 332.686 138.137 333.491 138.988" stroke="#263238" stroke-linecap="round" stroke-linejoin="round"/>
<path d="M293.921 176.408C293.921 176.408 275.833 228.128 275.833 228.99C275.833 229.852 273.249 234.731 275.833 237.895C278.417 241.058 283.008 242.205 285.592 241.058C288.176 239.912 301.673 216.06 301.673 216.06C301.673 216.06 294.783 179.296 293.921 176.408Z" fill="white" stroke="#263238" stroke-linecap="round" stroke-linejoin="round"/>
<path d="M295.506 195.665L294.602 192.734" stroke="#263238" stroke-linecap="round" stroke-linejoin="round"/>
<path d="M300.459 211.715L296.402 198.578" stroke="#263238" stroke-linecap="round" stroke-linejoin="round"/>
<path d="M279.882 222.112L331.854 199.984L333 205.441C333 205.441 293.663 235.904 290.795 238.197C287.926 240.49 286.772 242.222 283.043 242.222C279.313 242.222 274.429 238.774 274.429 234.18C274.498 231.199 275.181 228.264 276.436 225.56" fill="white"/>
<path d="M279.882 222.112L331.855 199.984L333 205.441C333 205.441 293.663 235.904 290.795 238.197C287.926 240.49 286.772 242.222 283.043 242.222C279.313 242.222 274.429 238.774 274.429 234.18C274.498 231.199 275.181 228.264 276.436 225.56" stroke="#263238" stroke-linecap="round" stroke-linejoin="round"/>
<path d="M326.032 202.982L327.987 207.879" stroke="#263238" stroke-linecap="round" stroke-linejoin="round"/>
<path d="M331.855 199.983C331.855 199.983 333.577 193.665 334.146 192.803C334.714 191.941 338.168 189.639 339.607 188.493C341.045 187.346 343.336 185.329 343.62 186.769C343.905 188.208 340.175 192.51 340.175 192.51C340.175 192.51 345.92 189.639 347.927 189.355C349.89 188.977 351.896 188.873 353.887 189.044C355.326 189.329 353.836 190.139 353.672 192.225C353.396 195.673 347.359 198.837 345.636 200.561C343.913 202.285 333 205.44 333 205.44L331.855 199.983Z" fill="white" stroke="#263238" stroke-linecap="round" stroke-linejoin="round"/>
<path d="M353.396 191.002L343.138 194.424" stroke="#263238" stroke-linecap="round" stroke-linejoin="round"/>
<path d="M352.914 194.182L344.111 197.362" stroke="#263238" stroke-linecap="round" stroke-linejoin="round"/>
<path d="M347.048 199.561L344.843 200.293" stroke="#263238" stroke-linecap="round" stroke-linejoin="round"/>
<path d="M340.175 192.51L336.781 192.717" stroke="#263238" stroke-linecap="round" stroke-linejoin="round"/>
<path d="M367.135 172.676C367.135 172.676 372.673 186.64 374.025 189.623C375.636 193.2 382.957 208.026 382.957 208.026L396.739 178.149L404.206 181.304C404.206 181.304 392.432 218.37 389.848 223.835C387.264 229.301 387.841 233.602 383.819 233.317C379.796 233.033 367.453 220.387 367.453 220.387L367.135 172.676Z" fill="white" stroke="#263238" stroke-linecap="round" stroke-linejoin="round"/>
<path d="M382.957 208.025L377.35 218.145" stroke="#263238" stroke-linecap="round" stroke-linejoin="round"/>
<path d="M380.77 211.793L376.127 215.456" stroke="#263238" stroke-linecap="round" stroke-linejoin="round"/>
<path d="M394.947 182.934L402.277 186.597" stroke="#263238" stroke-linecap="round" stroke-linejoin="round"/>
<path d="M396.739 178.149C396.739 178.149 396.454 170.098 397.316 168.374C398.177 166.65 401.33 162.056 401.622 160.909C401.915 159.763 403.345 157.746 403.629 159.754C403.763 161.294 403.667 162.845 403.345 164.357C403.345 164.357 407.075 160.909 407.359 159.754C407.643 158.599 407.359 154.582 408.513 154.582C409.667 154.582 410.804 155.444 411.958 158.892C413.113 162.34 411.958 167.805 411.381 169.814C410.804 171.822 405.068 179.58 405.068 179.58L404.206 181.304L396.739 178.149Z" fill="white" stroke="#263238" stroke-linecap="round" stroke-linejoin="round"/>
<path d="M412.053 161.193C412.053 161.193 411.562 159.236 411.08 160.71C410.598 162.184 409.125 167.796 409.125 167.796C409.125 167.796 401.545 172.968 401.545 174.407V175.847" stroke="#263238" stroke-linecap="round" stroke-linejoin="round"/>
<path d="M368.935 369.004L375.472 377.71C375.472 377.71 384.198 379.994 384.258 380.899C384.318 381.804 381.14 383.132 381.14 383.132L372.682 384.451C372.682 384.451 362.664 380.52 360.253 379.96C357.841 379.399 355.619 380.02 356.325 377.236C357.031 374.452 358.16 368.693 358.16 368.693L368.935 369.004Z" fill="white" stroke="#263238" stroke-linecap="round" stroke-linejoin="round"/>
<path d="M345.937 279.848C345.937 279.848 352.63 267.91 361.949 263.246C371.269 258.583 379.417 260.324 386.98 260.324C394.542 260.324 407.359 261.488 408.815 263.238C410.27 264.988 368.935 368.996 368.935 368.996L358.16 368.703C358.16 368.703 366.024 333.741 367.186 325.603C368.349 317.466 371.235 293.839 371.235 293.839C371.235 293.839 351.045 293.839 341.734 293.511" fill="#263238"/>
<path d="M345.937 279.848C345.937 279.848 352.63 267.91 361.949 263.246C371.269 258.583 379.417 260.324 386.98 260.324C394.542 260.324 407.359 261.488 408.815 263.238C410.27 264.988 368.935 368.996 368.935 368.996L358.16 368.703C358.16 368.703 366.024 333.741 367.186 325.603C368.349 317.466 371.235 293.839 371.235 293.839C371.235 293.839 351.045 293.839 341.734 293.511" stroke="#263238" stroke-linecap="round" stroke-linejoin="round"/>
<path d="M306.635 263.85C306.635 263.85 306.928 259.479 316.239 259.186C325.55 258.893 335.455 258.023 336.618 263.557C337.78 269.091 338.073 353.877 338.073 356.791C338.073 359.704 338.935 366.695 338.935 366.695L328.159 367.557C328.159 367.557 314.206 320.664 311.872 310.174C309.537 299.683 309.839 274.34 309.839 272.297" fill="#263238"/>
<path d="M306.635 263.85C306.635 263.85 306.928 259.479 316.239 259.186C325.55 258.893 335.455 258.023 336.618 263.557C337.78 269.091 338.073 353.877 338.073 356.791C338.073 359.704 338.935 366.695 338.935 366.695L328.159 367.557C328.159 367.557 314.206 320.664 311.872 310.174C309.537 299.683 309.839 274.34 309.839 272.297" stroke="#263238" stroke-linecap="round" stroke-linejoin="round"/>
<path d="M338.952 366.695C338.952 366.695 342.733 379.513 343.603 380.97C344.473 382.427 345.059 383.306 342.44 385.047C339.822 386.789 334.585 387.961 331.381 387.09C328.177 386.22 327.591 380.677 328.177 376.022C328.53 373.214 328.53 370.374 328.177 367.566L338.952 366.695Z" fill="white" stroke="#263238" stroke-linecap="round" stroke-linejoin="round"/>
<path d="M165.617 297.389L152.267 380.141" stroke="#263238" stroke-width="6" stroke-linecap="round" stroke-linejoin="round"/>
<path d="M210.407 297.389L197.056 380.141" stroke="#263238" stroke-width="6" stroke-linecap="round" stroke-linejoin="round"/>
<path d="M228.925 297.389L242.276 380.141" stroke="#263238" stroke-width="6" stroke-linecap="round" stroke-linejoin="round"/>
<path d="M275.437 297.389L288.788 380.141" stroke="#263238" stroke-width="6" stroke-linecap="round" stroke-linejoin="round"/>
<path d="M143.533 207.129L162.758 294.484H225.523L203.189 207.129H143.533Z" fill="#808080" stroke="#263238" stroke-linecap="round" stroke-linejoin="round"/>
<path d="M281.458 294.234H162.758V299.208H281.458V294.234Z" fill="#808080" stroke="#263238" stroke-linecap="round" stroke-linejoin="round"/>
<path d="M281.458 294.234H241.285V299.208H281.458V294.234Z" fill="#808080" stroke="#263238" stroke-linecap="round" stroke-linejoin="round"/>
<path d="M179.683 168.089L155.85 181.019L168.485 258.599C168.485 258.599 167.908 260.607 169.347 261.469C170.785 262.331 174.799 262.624 174.799 262.624H221.604C223.284 262.094 224.778 261.096 225.911 259.745C227.34 257.737 227.34 256.59 227.34 254.573C227.34 252.556 232.224 179.872 231.363 178.433C230.699 177.398 229.928 176.436 229.063 175.562L204.377 165.787L179.683 168.089Z" fill="white" stroke="#263238" stroke-linecap="round" stroke-linejoin="round"/>
<path d="M196.677 185.605L202.293 189.466L200.725 243.876L211.208 254.953L219.649 242.135L206.074 188.587L209.864 180.433L199.089 174.312L196.677 185.605Z" fill="#263238" stroke="#263238" stroke-linecap="round" stroke-linejoin="round"/>
<path d="M214.42 122.688L217.866 133.032L216.436 137.058L221.027 144.816L217.866 146.824C217.866 146.824 219.588 157.461 219.02 158.323C218.451 159.185 206.384 160.047 206.384 160.047L204.661 177.287L185.428 166.081V149.126C185.428 149.126 179.106 125.274 180.544 123.266C181.983 121.257 191.741 117.232 203.516 115.792C215.29 114.352 217.004 113.206 217.581 116.654C218.159 120.102 214.42 122.688 214.42 122.688Z" fill="white" stroke="#263238" stroke-linecap="round" stroke-linejoin="round"/>
<path d="M217.581 116.655C217.004 113.207 215.282 114.362 203.516 115.793C191.75 117.224 181.983 121.258 180.544 123.266C179.106 125.275 185.428 149.126 185.428 149.126V153.729C186.187 153.85 186.96 153.85 187.719 153.729C190.88 153.161 195.187 148.851 195.187 148.851C195.187 148.851 190.88 151.437 189.157 148.851C187.472 146.316 186.853 143.219 187.435 140.231C188.012 137.351 192.319 138.213 192.319 139.653C192.319 141.093 194.041 143.963 195.471 143.385C196.901 142.808 197.194 136.205 197.194 136.205C197.194 136.205 203.223 132.179 203.516 130.171C203.809 128.163 201.793 124.999 201.793 124.999L214.42 122.697C214.42 122.697 218.159 120.103 217.581 116.655Z" fill="#263238" stroke="#263238" stroke-linecap="round" stroke-linejoin="round"/>
<path d="M214.713 134.187C214.713 134.187 211.268 133.032 209.252 135.618" stroke="#263238" stroke-linecap="round" stroke-linejoin="round"/>
<path d="M214.997 138.066C214.997 139.092 214.61 139.928 214.136 139.928C213.662 139.928 213.275 139.066 213.275 138.066C213.275 137.066 213.662 136.195 214.136 136.195C214.61 136.195 214.997 137.057 214.997 138.066Z" fill="#263238"/>
<path d="M216.72 149.703C216.72 149.703 212.991 150.565 211.552 149.125" stroke="#263238" stroke-linecap="round" stroke-linejoin="round"/>
<path d="M206.384 160.047H199.778L205.239 168.951L206.384 160.047Z" fill="#263238" stroke="#263238" stroke-linecap="round" stroke-linejoin="round"/>
<path d="M185.428 162.918L178.244 168.668L195.764 188.778L204.661 177.288L185.428 162.918Z" fill="white" stroke="#263238" stroke-linecap="round" stroke-linejoin="round"/>
<path d="M204.661 177.288L211.268 185.908L209.252 167.806L206.1 164.064L204.661 177.288Z" fill="white" stroke="#263238" stroke-linecap="round" stroke-linejoin="round"/>
<path d="M231.363 178.434L254.903 235.041L239.115 241.36L229.063 223.542L231.363 178.434Z" fill="white" stroke="#263238" stroke-linecap="round" stroke-linejoin="round"/>
<path d="M213.852 234.747C213.852 234.747 234.524 231.592 240.553 230.437C246.583 229.282 251.458 230.153 254.335 233.316C257.211 236.48 256.626 242.505 255.764 243.945C254.903 245.384 247.151 245.953 241.983 245.953C236.815 245.953 221.027 241.936 217.866 241.074L214.713 240.212L213.852 234.747Z" fill="white" stroke="#263238" stroke-linecap="round" stroke-linejoin="round"/>
<path d="M233.085 243.084C233.085 243.084 240.837 244.23 241.415 245.092C241.992 245.954 248.305 253.144 249.167 254.006C250.028 254.868 250.596 262.91 250.596 262.91C250.596 262.91 248.589 264.35 248.012 263.488C247.435 262.626 240.837 254.29 240.837 254.29C240.837 254.29 232.508 251.42 231.94 249.696L231.363 247.972L233.085 243.084Z" fill="white" stroke="#263238" stroke-linecap="round" stroke-linejoin="round"/>
<path d="M155.85 181.02C155.85 181.02 170.208 246.532 171.354 246.816C172.499 247.1 231.363 247.971 231.363 247.971L233.085 243.084L184.274 230.731L181.121 187.054" fill="white"/>
<path d="M155.85 181.02C155.85 181.02 170.208 246.532 171.354 246.816C172.499 247.1 231.363 247.971 231.363 247.971L233.085 243.084L184.274 230.731L181.121 187.054" stroke="#263238" stroke-linecap="round" stroke-linejoin="round"/>
<path d="M256.057 267.676C256.057 267.676 287.065 275.011 289.356 276.416C291.647 277.822 290.51 282.907 289.072 287.14C287.634 291.372 243.706 366.676 243.706 366.676L237.108 364.952L257.203 293.596H231.94L256.057 267.676Z" fill="#263238" stroke="#263238" stroke-linecap="round" stroke-linejoin="round"/>
<path d="M243.706 366.677L248.874 378.521C248.874 378.521 256.057 383.874 255.764 384.728C255.471 385.581 252.035 385.59 252.035 385.59L243.706 383.59C243.706 383.59 235.954 376.254 233.947 374.841C231.94 373.427 229.64 373.117 231.363 370.893C233.149 368.798 235.068 366.82 237.108 364.971L243.706 366.677Z" fill="white" stroke="#263238" stroke-linecap="round" stroke-linejoin="round"/>
<path d="M169.347 261.471C169.347 261.471 167.908 276.987 167.908 280.935C167.908 284.883 171.069 291.089 176.815 293.347C182.56 295.606 249.451 293.347 249.451 293.347L275.868 374.574L283.62 371.746C283.62 371.746 273.852 283.193 273.852 281.236C273.852 279.28 272.991 272.211 270.123 270.798C267.254 269.384 221.604 262.617 221.604 262.617L169.347 261.471Z" fill="#263238" stroke="#263238" stroke-linecap="round" stroke-linejoin="round"/>
<path d="M283.62 371.746C283.62 371.746 298.547 373.72 300.269 373.47C301.992 373.22 307.444 372.056 305.722 374.875C303.999 377.694 292.802 380.797 288.211 382.771C283.62 384.745 279.02 387.848 277.59 385.598C276.161 383.349 275.868 374.599 275.868 374.599L283.62 371.746Z" fill="white" stroke="#263238" stroke-linecap="round" stroke-linejoin="round"/>
<path d="M202.939 230.438H197.487L191.741 237.049C191.741 237.049 190.019 241.075 191.741 241.075C193.464 241.075 197.487 241.937 200.071 241.075C202.655 240.213 209.829 237.334 209.829 237.334C209.467 235.642 208.624 234.09 207.402 232.867C206.179 231.643 204.629 230.8 202.939 230.438Z" fill="white" stroke="#263238" stroke-linecap="round" stroke-linejoin="round"/>
<path d="M205.807 231.594L213.852 234.749L214.997 238.197L209.829 237.335L205.807 231.594Z" fill="white" stroke="#263238" stroke-linecap="round" stroke-linejoin="round"/>
<path d="M191.423 238.774C191.423 238.774 199.011 232.128 200.975 231.301" stroke="#263238" stroke-linecap="round" stroke-linejoin="round"/>
<path d="M192.809 240.652C192.809 240.652 202.887 232.145 204.971 232.145" stroke="#263238" stroke-linecap="round" stroke-linejoin="round"/>
<path d="M196.634 241.522C196.634 241.522 203.929 234.747 207.228 234.402" stroke="#263238" stroke-linecap="round" stroke-linejoin="round"/>
<path d="M579.049 248.756H141.879V268.901H579.049V248.756Z" fill="white" stroke="#263238" stroke-linecap="round" stroke-linejoin="round"/>
<path d="M145.686 382.892H139.794L135.548 248.756H149.932L145.686 382.892Z" fill="white" stroke="#263238" stroke-linecap="round" stroke-linejoin="round"/>
<path d="M579.979 382.892H574.087L569.841 248.756H584.225L579.979 382.892Z" fill="white" stroke="#263238" stroke-linecap="round" stroke-linejoin="round"/>
<path d="M583.915 255.305H135.772V250.564H584.225L583.915 255.305Z" fill="#263238" stroke="#263238" stroke-miterlimit="10"/>
<path d="M588.532 246.531H129.01V251.272H588.532V246.531Z" fill="white" stroke="#263238" stroke-linecap="round" stroke-linejoin="round"/>
<path d="M397.738 230.024C397.738 230.024 399.814 229.162 400.994 229.878C402.174 230.593 402.475 238.903 400.994 241.42C400.649 242.109 400.149 242.708 399.533 243.17C398.917 243.632 398.202 243.945 397.445 244.083L397.152 240.084C397.152 240.084 398.479 240.825 399.219 238.015C399.96 235.205 399.814 232.843 399.366 232.688C398.859 232.667 398.354 232.768 397.893 232.981L397.738 230.024Z" fill="#651FFF" stroke="#263238" stroke-linecap="round" stroke-linejoin="round"/>
<path d="M398.065 225.99H381.373V247.066H398.065V225.99Z" fill="#651FFF" stroke="#263238" stroke-linecap="round" stroke-linejoin="round"/>
<path d="M154.782 230.024C154.782 230.024 152.714 229.162 151.534 229.878C150.354 230.593 150.053 238.903 151.534 241.42C151.879 242.109 152.379 242.708 152.995 243.17C153.611 243.632 154.326 243.945 155.083 244.083L155.376 240.084C155.376 240.084 154.049 240.825 153.309 238.015C152.568 235.205 152.714 232.843 153.162 232.688C153.67 232.667 154.174 232.768 154.635 232.981L154.782 230.024Z" fill="#651FFF" stroke="#263238" stroke-linecap="round" stroke-linejoin="round"/>
<path d="M154.463 247.074H171.156V225.998H154.463V247.074Z" fill="#651FFF" stroke="#263238" stroke-linecap="round" stroke-linejoin="round"/>
<path d="M550.995 230.024C550.995 230.024 548.928 229.162 547.748 229.878C546.568 230.593 546.266 238.903 547.748 241.42C548.093 242.109 548.593 242.708 549.209 243.17C549.825 243.632 550.539 243.945 551.296 244.083L551.589 240.084C551.589 240.084 550.263 240.825 549.522 238.015C548.781 235.205 548.928 232.843 549.376 232.688C549.883 232.667 550.388 232.768 550.849 232.981L550.995 230.024Z" fill="#651FFF" stroke="#263238" stroke-linecap="round" stroke-linejoin="round"/>
<path d="M550.676 247.074H567.369V225.998H550.676V247.074Z" fill="#651FFF" stroke="#263238" stroke-linecap="round" stroke-linejoin="round"/>
<path d="M481.348 208H413.216V246.816H481.348V208Z" fill="#263238" stroke="#263238" stroke-miterlimit="10"/>
<path d="M282.802 52.2871H215.919C214.824 52.2849 213.74 52.4989 212.728 52.9168C211.716 53.3348 210.796 53.9486 210.021 54.723C209.247 55.4973 208.633 56.4171 208.214 57.4295C207.795 58.4418 207.58 59.527 207.581 60.6227V92.5167C207.58 93.6109 207.795 94.6946 208.212 95.7059C208.63 96.7171 209.243 97.6361 210.015 98.4103C210.788 99.1844 211.706 99.7985 212.716 100.218C213.726 100.637 214.808 100.852 215.902 100.852H224.067L220.183 116.825L234.283 100.852H282.784C283.878 100.852 284.961 100.637 285.972 100.218C286.982 99.7988 287.901 99.1848 288.674 98.4108C289.447 97.6368 290.061 96.7178 290.479 95.7065C290.898 94.6952 291.113 93.6113 291.113 92.5167V60.6227C291.113 58.4149 290.238 56.2974 288.68 54.7346C287.122 53.1719 285.008 52.2917 282.802 52.2871Z" fill="#263238"/>
<path d="M262.707 66.0449H278.676" stroke="white" stroke-linecap="round" stroke-linejoin="round"/>
<path d="M236.694 66.0449H258.908" stroke="white" stroke-linecap="round" stroke-linejoin="round"/>
<path d="M219.881 66.0449H232.56" stroke="white" stroke-linecap="round" stroke-linejoin="round"/>
<path d="M268.435 73.0527H278.693" stroke="white" stroke-linecap="round" stroke-linejoin="round"/>
<path d="M248.753 73.0527H266.212" stroke="white" stroke-linecap="round" stroke-linejoin="round"/>
<path d="M219.881 73.0527H247.203" stroke="white" stroke-linecap="round" stroke-linejoin="round"/>
<path d="M259.546 80.0625H278.693" stroke="white" stroke-linecap="round" stroke-linejoin="round"/>
<path d="M234.472 80.0625H256.376" stroke="white" stroke-linecap="round" stroke-linejoin="round"/>
<path d="M219.881 80.0625H231.94" stroke="white" stroke-linecap="round" stroke-linejoin="round"/>
<path d="M273.198 87.0605H278.693" stroke="white" stroke-linecap="round" stroke-linejoin="round"/>
<path d="M255.42 87.0605H270.019" stroke="white" stroke-linecap="round" stroke-linejoin="round"/>
<path d="M247.487 87.0605H253.232" stroke="white" stroke-linecap="round" stroke-linejoin="round"/>
<path d="M223.361 87.0605H243.361" stroke="white" stroke-linecap="round" stroke-linejoin="round"/>
<path d="M219.881 87.0605H221.776" stroke="white" stroke-linecap="round" stroke-linejoin="round"/>
<path d="M375.257 59.4766H312.664C311.57 59.4766 310.487 59.6922 309.477 60.1111C308.466 60.53 307.548 61.144 306.774 61.918C306.001 62.692 305.387 63.6109 304.969 64.6222C304.55 65.6335 304.335 66.7175 304.335 67.8121V97.2235C304.335 98.3182 304.55 99.4021 304.969 100.413C305.387 101.425 306.001 102.344 306.774 103.118C307.548 103.892 308.466 104.506 309.477 104.925C310.487 105.343 311.57 105.559 312.664 105.559H356.988V118.722L364.878 105.559H375.266C376.359 105.559 377.443 105.343 378.453 104.925C379.464 104.506 380.382 103.892 381.155 103.118C381.929 102.344 382.542 101.425 382.961 100.413C383.379 99.4021 383.595 98.3182 383.595 97.2235V67.7776C383.586 65.5714 382.703 63.4588 381.14 61.9027C379.577 60.3467 377.462 59.4743 375.257 59.4766Z" fill="white" stroke="#263238" stroke-linecap="round" stroke-linejoin="round"/>
<path d="M357.944 72.4062H373.913" stroke="#263238" stroke-linecap="round" stroke-linejoin="round"/>
<path d="M331.915 72.4062H354.129" stroke="#263238" stroke-linecap="round" stroke-linejoin="round"/>
<path d="M315.102 72.4062H327.789" stroke="#263238" stroke-linecap="round" stroke-linejoin="round"/>
<path d="M363.655 79.4062H373.913" stroke="#263238" stroke-linecap="round" stroke-linejoin="round"/>
<path d="M343.973 79.4062H361.433" stroke="#263238" stroke-linecap="round" stroke-linejoin="round"/>
<path d="M315.102 79.4062H342.389" stroke="#263238" stroke-linecap="round" stroke-linejoin="round"/>
<path d="M354.766 86.4141H373.913" stroke="#263238" stroke-linecap="round" stroke-linejoin="round"/>
<path d="M329.693 86.4141H351.596" stroke="#263238" stroke-linecap="round" stroke-linejoin="round"/>
<path d="M315.102 86.4141H327.16" stroke="#263238" stroke-linecap="round" stroke-linejoin="round"/>
<path d="M368.418 93.4219H373.913" stroke="#263238" stroke-linecap="round" stroke-linejoin="round"/>
<path d="M350.64 93.4219H365.283" stroke="#263238" stroke-linecap="round" stroke-linejoin="round"/>
<path d="M342.707 93.4219H348.418" stroke="#263238" stroke-linecap="round" stroke-linejoin="round"/>
<path d="M318.581 93.4219H338.582" stroke="#263238" stroke-linecap="round" stroke-linejoin="round"/>
<path d="M315.102 93.4219H316.971" stroke="#263238" stroke-linecap="round" stroke-linejoin="round"/>
<path d="M461.623 42.625H399.013C396.804 42.625 394.685 43.5032 393.123 45.0664C391.561 46.6296 390.684 48.7498 390.684 50.9605V80.372C390.684 81.4666 390.899 82.5505 391.318 83.5619C391.736 84.5732 392.35 85.4921 393.123 86.2661C393.897 87.0401 394.815 87.6541 395.825 88.073C396.836 88.4919 397.919 88.7075 399.013 88.7075H444.87L455.482 106.542L453.759 88.7075H461.606C462.7 88.7075 463.783 88.4919 464.793 88.073C465.804 87.6541 466.722 87.0401 467.495 86.2661C468.269 85.4921 468.882 84.5732 469.301 83.5619C469.719 82.5505 469.935 81.4666 469.935 80.372V50.9605C469.935 48.7528 469.06 46.6352 467.501 45.0725C465.943 43.5098 463.829 42.6296 461.623 42.625Z" fill="#651FFF" stroke="#263238" stroke-linecap="round" stroke-linejoin="round"/>
<path d="M443.638 54.6074H459.616" stroke="#263238" stroke-linecap="round" stroke-linejoin="round"/>
<path d="M417.609 54.6074H439.831" stroke="#263238" stroke-linecap="round" stroke-linejoin="round"/>
<path d="M400.796 54.6074H413.483" stroke="#263238" stroke-linecap="round" stroke-linejoin="round"/>
<path d="M449.349 61.6152H459.616" stroke="#263238" stroke-linecap="round" stroke-linejoin="round"/>
<path d="M429.676 61.6152H447.127" stroke="#263238" stroke-linecap="round" stroke-linejoin="round"/>
<path d="M400.796 61.6152H428.083" stroke="#263238" stroke-linecap="round" stroke-linejoin="round"/>
<path d="M440.469 68.623H459.616" stroke="#263238" stroke-linecap="round" stroke-linejoin="round"/>
<path d="M415.387 68.623H437.29" stroke="#263238" stroke-linecap="round" stroke-linejoin="round"/>
<path d="M400.796 68.623H412.854" stroke="#263238" stroke-linecap="round" stroke-linejoin="round"/>
<path d="M454.112 75.6309H459.616" stroke="#263238" stroke-linecap="round" stroke-linejoin="round"/>
<path d="M436.343 75.6309H450.942" stroke="#263238" stroke-linecap="round" stroke-linejoin="round"/>
<path d="M428.401 75.6309H434.112" stroke="#263238" stroke-linecap="round" stroke-linejoin="round"/>
<path d="M404.284 75.6309H424.276" stroke="#263238" stroke-linecap="round" stroke-linejoin="round"/>
<path d="M400.796 75.6309H402.691" stroke="#263238" stroke-linecap="round" stroke-linejoin="round"/>
</svg>
