<svg width="639" height="457" viewBox="0 0 639 457" fill="none" xmlns="http://www.w3.org/2000/svg">
<path d="M592.526 264.146H48.7648V268.442H592.526V264.146Z" fill="#263238"/>
<path d="M536.833 211.682C537.753 211.924 538.703 212.029 539.654 211.993C539.654 211.993 539.225 210.677 539.188 210.595C538.75 209.681 537.362 208.154 536.231 208.31C536.043 208.339 535.864 208.408 535.705 208.511C535.546 208.615 535.41 208.751 535.308 208.911C535.205 209.07 535.137 209.25 535.109 209.438C535.081 209.626 535.093 209.818 535.144 210.001C535.286 210.387 535.511 210.738 535.803 211.029C536.094 211.319 536.446 211.542 536.833 211.682Z" fill="#263238"/>
<path d="M563.078 204.844C561.946 204.726 560.595 206.279 560.184 207.212C560.184 207.294 559.727 208.619 559.755 208.619L559.07 209.424C558.632 209.972 558.157 210.593 557.637 211.306C557.096 212.066 556.599 212.856 556.149 213.674C555.641 214.59 555.216 215.551 554.88 216.544C554.88 216.205 554.88 215.273 554.88 215.2C554.743 214.185 553.894 212.312 552.771 212.102C552.585 212.073 552.394 212.084 552.212 212.134C552.03 212.184 551.86 212.272 551.714 212.392C551.568 212.512 551.448 212.661 551.363 212.829C551.278 212.998 551.229 213.183 551.22 213.372C551.234 213.783 551.337 214.185 551.524 214.552C551.71 214.918 551.974 215.239 552.297 215.493C553.091 216.005 553.955 216.399 554.862 216.662C554.539 217.679 554.289 218.718 554.113 219.77C554.004 220.373 553.913 220.995 553.83 221.598C553.83 221.315 553.83 221.05 553.83 221.013C553.703 220.008 552.854 218.125 551.731 217.915C551.543 217.885 551.352 217.895 551.169 217.944C550.985 217.994 550.814 218.081 550.667 218.201C550.52 218.321 550.399 218.47 550.314 218.64C550.228 218.81 550.179 218.995 550.17 219.185C550.187 219.596 550.293 219.999 550.48 220.365C550.668 220.731 550.933 221.052 551.256 221.306C552.019 221.817 552.857 222.205 553.739 222.457C553.739 222.695 553.675 222.932 553.648 223.17C553.511 224.313 553.383 225.464 553.219 226.579C553.155 226.972 553.091 227.365 553.018 227.749C553.028 227.582 553.028 227.414 553.018 227.247C552.89 226.232 552.041 224.349 550.918 224.148C550.731 224.118 550.54 224.128 550.357 224.178C550.175 224.227 550.004 224.315 549.858 224.435C549.711 224.555 549.592 224.704 549.507 224.874C549.422 225.044 549.374 225.229 549.367 225.419C549.377 225.829 549.479 226.231 549.665 226.597C549.852 226.962 550.118 227.281 550.444 227.53C551.187 228.028 552.003 228.407 552.863 228.654C552.772 229.047 552.689 229.449 552.598 229.824C552.507 230.199 552.47 230.336 552.379 230.583C552.288 230.829 552.215 231.085 552.142 231.341C551.968 231.807 551.795 232.301 551.612 232.758C551.494 233.069 551.366 233.37 551.247 233.672C551.311 233.288 551.411 232.511 551.411 232.447C551.403 231.55 551.161 230.671 550.708 229.897C550.722 229.797 550.722 229.696 550.708 229.596C550.68 229.405 550.611 229.222 550.506 229.06C550.4 228.898 550.262 228.76 550.099 228.657C549.937 228.553 549.754 228.485 549.563 228.458C549.372 228.43 549.177 228.444 548.992 228.499C547.897 228.8 547.167 230.738 547.167 231.753C547.167 231.817 547.167 232.475 547.24 232.886C547.176 232.648 547.13 232.411 547.066 232.164C546.957 231.679 546.82 231.195 546.683 230.665C546.61 230.418 546.537 230.171 546.455 229.915C546.372 229.66 546.281 229.404 546.19 229.139C545.971 228.544 545.724 227.95 545.46 227.356C546.353 227.169 547.212 226.845 548.006 226.397C548.351 226.172 548.64 225.874 548.853 225.523C549.067 225.171 549.198 224.777 549.239 224.367C549.242 224.174 549.203 223.982 549.125 223.804C549.047 223.627 548.932 223.469 548.787 223.34C548.642 223.212 548.471 223.116 548.286 223.06C548.101 223.004 547.906 222.988 547.714 223.015C546.582 223.134 545.596 224.943 545.396 225.949C545.396 226.013 545.313 226.744 545.286 227.146C545.122 226.79 544.957 226.433 544.784 226.077C544.282 225.062 543.734 224.038 543.196 223.015L542.703 222.101C543.626 221.909 544.515 221.579 545.341 221.123C545.681 220.894 545.968 220.594 546.182 220.244C546.397 219.893 546.533 219.501 546.582 219.094C546.587 218.904 546.551 218.715 546.478 218.54C546.406 218.364 546.297 218.206 546.159 218.075C546.022 217.944 545.858 217.844 545.68 217.78C545.501 217.716 545.311 217.69 545.122 217.704C543.99 217.832 543.004 219.642 542.794 220.638C542.794 220.721 542.684 221.772 542.675 222.046C542.319 221.351 541.963 220.666 541.653 219.971C541.219 219.037 540.847 218.075 540.539 217.092C541.466 216.896 542.358 216.563 543.186 216.105C543.528 215.877 543.816 215.578 544.03 215.227C544.245 214.877 544.38 214.484 544.428 214.076C544.432 213.886 544.397 213.698 544.324 213.523C544.251 213.348 544.142 213.19 544.005 213.06C543.867 212.93 543.703 212.83 543.525 212.768C543.346 212.705 543.156 212.68 542.967 212.696C541.835 212.815 540.85 214.624 540.64 215.63C540.64 215.703 540.521 216.836 540.521 217.046C540.497 216.99 540.479 216.932 540.466 216.873C540.18 215.881 539.985 214.865 539.882 213.838C539.818 213.262 539.791 212.723 539.772 212.184C540.697 212.105 541.602 211.879 542.456 211.517C542.82 211.326 543.138 211.06 543.388 210.735C543.639 210.409 543.816 210.034 543.908 209.634C543.933 209.446 543.919 209.255 543.866 209.073C543.814 208.891 543.723 208.722 543.601 208.577C543.479 208.432 543.327 208.315 543.157 208.232C542.987 208.15 542.801 208.104 542.611 208.098C541.47 208.098 540.293 209.78 539.982 210.758C539.982 210.804 539.845 211.361 539.772 211.773C539.772 211.526 539.772 211.279 539.772 211.05C539.772 210.136 539.836 209.396 539.882 208.692C539.882 208.299 539.955 207.934 540.001 207.605C540.775 207.104 541.467 206.488 542.055 205.777C542.292 205.441 542.453 205.058 542.527 204.654C542.601 204.25 542.586 203.835 542.484 203.437C542.42 203.262 542.321 203.102 542.192 202.968C542.064 202.833 541.909 202.726 541.738 202.654C541.567 202.582 541.382 202.546 541.196 202.549C541.011 202.551 540.827 202.592 540.658 202.669C539.645 203.19 539.38 205.237 539.544 206.243C539.544 206.334 539.946 207.669 539.955 207.65C539.912 207.967 539.867 208.315 539.818 208.692C539.754 209.396 539.681 210.191 539.663 211.06C539.626 211.992 539.647 212.926 539.727 213.856C539.807 214.903 539.982 215.94 540.247 216.955C540.065 216.672 539.544 215.895 539.489 215.84C538.823 215.072 537.08 214.012 536.03 214.414C535.857 214.493 535.703 214.609 535.577 214.752C535.452 214.895 535.358 215.063 535.302 215.245C535.246 215.427 535.229 215.619 535.252 215.808C535.275 215.997 535.338 216.179 535.436 216.343C535.676 216.676 535.986 216.952 536.344 217.153C536.702 217.353 537.099 217.473 537.509 217.503C538.438 217.496 539.36 217.351 540.247 217.074C540.544 218.095 540.907 219.097 541.333 220.072C541.58 220.647 541.845 221.214 542.118 221.781C541.954 221.534 541.808 221.324 541.781 221.296C541.114 220.529 539.371 219.468 538.321 219.871C538.148 219.95 537.994 220.065 537.868 220.208C537.743 220.352 537.649 220.52 537.593 220.702C537.537 220.884 537.52 221.076 537.543 221.265C537.566 221.454 537.629 221.636 537.728 221.799C537.968 222.132 538.277 222.409 538.635 222.609C538.993 222.81 539.391 222.929 539.8 222.96C540.728 222.961 541.651 222.823 542.538 222.549L542.858 223.198C543.369 224.23 543.889 225.254 544.373 226.278C544.547 226.643 544.702 227 544.857 227.365L544.565 226.945C543.899 226.177 542.155 225.071 541.105 225.519C540.932 225.599 540.778 225.714 540.653 225.857C540.527 226 540.433 226.168 540.376 226.349C540.319 226.531 540.301 226.723 540.323 226.912C540.345 227.101 540.406 227.284 540.503 227.448C540.743 227.78 541.054 228.056 541.411 228.256C541.769 228.457 542.166 228.577 542.575 228.608C543.466 228.617 544.354 228.485 545.204 228.215C545.35 228.59 545.496 228.965 545.624 229.34C545.752 229.714 545.797 229.833 545.87 230.089L546.08 230.848C546.199 231.341 546.318 231.844 546.427 232.319C546.5 232.657 546.564 232.968 546.628 233.297C546.464 232.932 546.126 232.228 546.089 232.173C545.551 231.314 543.99 229.961 542.885 230.244C542.699 230.294 542.525 230.383 542.375 230.505C542.225 230.627 542.103 230.779 542.016 230.952C541.93 231.125 541.882 231.314 541.874 231.508C541.866 231.701 541.9 231.893 541.972 232.072C542.156 232.432 542.413 232.748 542.728 233.001C543.043 233.253 543.408 233.435 543.798 233.535C544.727 233.675 545.672 233.675 546.601 233.535C546.701 234.065 546.801 234.577 546.893 235.07C547.185 236.77 547.377 238.187 547.486 239.193C547.486 239.366 547.486 239.522 547.541 239.677H544.108L545.45 264.145H551.302L552.562 239.64H549.357L549.43 239.494C549.869 238.58 550.48 237.255 551.137 235.646C551.347 235.134 551.557 234.586 551.777 234.028C552.673 234.238 553.597 234.309 554.515 234.239C554.921 234.176 555.308 234.026 555.65 233.799C555.992 233.572 556.281 233.273 556.496 232.922C556.579 232.752 556.626 232.565 556.633 232.375C556.64 232.185 556.607 231.996 556.536 231.82C556.466 231.643 556.359 231.483 556.223 231.351C556.088 231.218 555.925 231.115 555.747 231.049C554.661 230.683 553.009 231.963 552.406 232.74C552.406 232.785 552.041 233.352 551.84 233.718C551.932 233.489 552.014 233.261 552.096 233.023C552.269 232.548 552.434 232.109 552.607 231.57L552.826 230.811C552.908 230.555 552.963 230.281 553.036 230.016C553.182 229.394 553.301 228.764 553.401 228.124C554.249 228.456 555.141 228.662 556.049 228.736C556.46 228.735 556.866 228.643 557.238 228.468C557.61 228.293 557.939 228.038 558.203 227.722C558.313 227.567 558.388 227.391 558.425 227.206C558.462 227.02 558.46 226.828 558.417 226.643C558.375 226.459 558.294 226.285 558.18 226.134C558.066 225.983 557.922 225.857 557.756 225.766C556.733 225.236 554.917 226.205 554.196 226.927C554.196 226.972 553.694 227.548 553.447 227.841C553.502 227.448 553.566 227.064 553.611 226.671C553.757 225.537 553.858 224.386 553.976 223.243C553.976 222.887 554.049 222.539 554.086 222.192C554.962 222.539 555.885 222.755 556.825 222.832C557.234 222.829 557.638 222.737 558.009 222.561C558.379 222.386 558.707 222.132 558.97 221.817C559.079 221.663 559.155 221.487 559.192 221.301C559.229 221.115 559.226 220.924 559.184 220.739C559.142 220.554 559.061 220.381 558.947 220.229C558.833 220.078 558.688 219.953 558.523 219.861C557.5 219.34 555.684 220.3 554.962 221.022C554.908 221.077 554.25 221.936 554.05 222.128C554.132 221.351 554.223 220.583 554.342 219.825C554.497 218.807 554.717 217.799 554.999 216.809C555.874 217.162 556.797 217.38 557.737 217.458C558.147 217.456 558.55 217.366 558.921 217.192C559.291 217.018 559.62 216.766 559.883 216.452C559.993 216.297 560.068 216.12 560.105 215.934C560.142 215.747 560.14 215.555 560.098 215.37C560.055 215.184 559.975 215.01 559.86 214.858C559.746 214.706 559.602 214.579 559.435 214.487C558.413 213.966 556.596 214.926 555.875 215.648C555.82 215.703 555.108 216.562 554.962 216.772V216.589C555.276 215.605 555.676 214.651 556.158 213.738C556.414 213.226 556.697 212.76 556.971 212.303C557.79 212.737 558.67 213.045 559.581 213.217C559.989 213.258 560.401 213.211 560.788 213.079C561.176 212.946 561.53 212.731 561.827 212.449C561.953 212.307 562.048 212.14 562.105 211.958C562.162 211.777 562.181 211.586 562.159 211.397C562.138 211.208 562.077 211.026 561.98 210.862C561.884 210.699 561.754 210.557 561.599 210.447C560.686 209.817 558.732 210.575 557.947 211.215C557.947 211.215 557.509 211.645 557.217 211.946C557.345 211.736 557.473 211.526 557.601 211.334C558.084 210.621 558.513 209.99 558.997 209.433C559.244 209.122 559.472 208.839 559.691 208.583C560.619 208.595 561.543 208.463 562.43 208.19C562.812 208.043 563.158 207.814 563.442 207.519C563.726 207.223 563.941 206.869 564.073 206.48C564.155 206.132 564.097 205.764 563.911 205.458C563.725 205.151 563.425 204.931 563.078 204.844ZM550.517 235.381C549.832 236.962 549.193 238.251 548.746 239.147C548.655 239.33 548.572 239.494 548.49 239.64H548.417C548.417 239.467 548.417 239.275 548.344 239.055C548.198 238.05 547.988 236.615 547.641 234.906C547.541 234.367 547.413 233.791 547.285 233.206C547.82 232.99 548.341 232.743 548.846 232.465C549.531 233.061 550.296 233.556 551.119 233.937C550.918 234.44 550.708 234.897 550.517 235.381Z" fill="#263238"/>
<path d="M557.098 212.121C557.098 212.121 557.464 210.787 557.473 210.696C557.619 209.69 557.299 207.652 556.268 207.158C556.096 207.081 555.909 207.041 555.721 207.041C555.532 207.041 555.346 207.08 555.174 207.157C555.001 207.234 554.847 207.346 554.721 207.486C554.595 207.627 554.5 207.792 554.442 207.972C554.348 208.372 554.342 208.788 554.426 209.191C554.509 209.594 554.68 209.973 554.926 210.303C555.557 211.013 556.289 211.625 557.098 212.121Z" fill="#263238"/>
<path d="M108.137 214.26C109.03 214.494 109.953 214.592 110.876 214.553C110.876 214.553 110.465 213.31 110.428 213.227C110.008 212.359 108.685 210.915 107.608 211.052C107.43 211.083 107.26 211.15 107.11 211.25C106.96 211.35 106.832 211.48 106.735 211.633C106.638 211.785 106.573 211.956 106.546 212.135C106.519 212.313 106.529 212.495 106.576 212.67C106.71 213.03 106.919 213.357 107.188 213.631C107.457 213.905 107.78 214.119 108.137 214.26Z" fill="#263238"/>
<path d="M133.104 207.761C132.017 207.651 130.739 209.132 130.365 210.018C130.365 210.091 129.936 211.353 129.954 211.353L129.306 212.111C128.886 212.632 128.393 213.226 127.937 213.939C127.424 214.665 126.952 215.419 126.522 216.197C126.038 217.072 125.635 217.99 125.317 218.939C125.317 218.619 125.317 217.733 125.317 217.659C125.189 216.7 124.404 214.917 123.318 214.716C123.14 214.688 122.958 214.697 122.784 214.744C122.61 214.791 122.448 214.874 122.308 214.988C122.169 215.102 122.055 215.244 121.974 215.405C121.893 215.566 121.847 215.743 121.839 215.923C121.852 216.313 121.952 216.696 122.13 217.044C122.308 217.391 122.561 217.695 122.871 217.934C123.618 218.428 124.437 218.805 125.299 219.049C124.997 220.016 124.759 221.002 124.587 222.001C124.486 222.586 124.395 223.171 124.322 223.765C124.322 223.491 124.322 223.244 124.322 223.207C124.194 222.248 123.409 220.465 122.323 220.264C122.145 220.236 121.963 220.245 121.789 220.292C121.615 220.339 121.453 220.422 121.313 220.536C121.174 220.65 121.06 220.792 120.979 220.953C120.898 221.114 120.852 221.291 120.844 221.471C120.859 221.861 120.958 222.243 121.137 222.591C121.315 222.938 121.567 223.242 121.876 223.482C122.601 223.963 123.395 224.333 124.231 224.578L124.149 225.255C124.021 226.342 123.893 227.439 123.738 228.499C123.683 228.874 123.619 229.24 123.546 229.615C123.546 229.368 123.546 229.158 123.546 229.13C123.418 228.216 122.633 226.388 121.547 226.178C121.369 226.151 121.186 226.162 121.013 226.209C120.839 226.257 120.677 226.341 120.537 226.456C120.398 226.571 120.284 226.713 120.203 226.875C120.122 227.036 120.076 227.213 120.068 227.393C120.087 227.783 120.189 228.164 120.367 228.51C120.545 228.857 120.795 229.162 121.1 229.404C121.803 229.878 122.576 230.239 123.391 230.474C123.309 230.848 123.236 231.223 123.135 231.58C123.035 231.936 123.017 232.064 122.934 232.311C122.852 232.558 122.779 232.786 122.706 233.024C122.542 233.472 122.378 233.938 122.204 234.367C122.031 234.797 121.976 234.961 121.857 235.281C121.921 234.907 122.012 234.175 122.022 234.111C122.005 233.26 121.773 232.426 121.346 231.689C121.36 231.595 121.36 231.5 121.346 231.406C121.325 231.226 121.267 231.052 121.174 230.897C121.081 230.741 120.956 230.607 120.808 230.503C120.659 230.4 120.491 230.329 120.313 230.295C120.135 230.262 119.952 230.267 119.776 230.309C118.726 230.592 118.069 232.43 118.014 233.398C118.014 233.462 118.014 234.084 118.078 234.477C118.023 234.248 117.978 234.029 117.923 233.791C117.813 233.325 117.686 232.877 117.558 232.375L117.339 231.653C117.275 231.415 117.174 231.168 117.083 230.922C116.882 230.346 116.645 229.788 116.389 229.221C117.237 229.039 118.052 228.731 118.808 228.307C119.131 228.087 119.404 227.8 119.607 227.466C119.81 227.132 119.939 226.758 119.986 226.37C119.99 226.189 119.957 226.01 119.888 225.844C119.819 225.677 119.715 225.527 119.584 225.403C119.454 225.279 119.298 225.184 119.128 225.123C118.959 225.063 118.778 225.04 118.598 225.054C117.521 225.172 116.581 226.882 116.389 227.796C116.389 227.86 116.307 228.554 116.28 228.938C116.134 228.603 115.979 228.265 115.814 227.924C115.33 226.955 114.81 225.986 114.299 225.017C114.135 224.715 113.988 224.423 113.833 224.103C114.712 223.928 115.558 223.62 116.344 223.189C116.666 222.97 116.937 222.685 117.14 222.352C117.343 222.019 117.473 221.647 117.521 221.261C117.527 221.079 117.494 220.899 117.426 220.732C117.357 220.564 117.254 220.413 117.123 220.288C116.992 220.162 116.836 220.066 116.666 220.006C116.495 219.945 116.314 219.921 116.134 219.935C115.047 220.054 114.116 221.763 113.915 222.732C113.915 222.796 113.815 223.801 113.806 224.057C113.459 223.408 113.13 222.75 112.829 222.092C112.417 221.202 112.063 220.286 111.77 219.35C112.651 219.173 113.5 218.865 114.29 218.436C114.615 218.221 114.889 217.936 115.092 217.603C115.296 217.27 115.424 216.896 115.467 216.508C115.473 216.327 115.441 216.147 115.372 215.98C115.303 215.813 115.2 215.662 115.069 215.537C114.938 215.413 114.782 215.318 114.611 215.258C114.441 215.199 114.26 215.176 114.08 215.192C113.003 215.31 112.071 217.02 111.871 217.934C111.871 218.007 111.761 219.085 111.752 219.286C111.738 219.23 111.72 219.175 111.697 219.122C111.431 218.174 111.248 217.204 111.149 216.224C111.095 215.685 111.058 215.173 111.049 214.661C111.926 214.582 112.785 214.366 113.596 214.022C113.948 213.84 114.254 213.581 114.493 213.264C114.731 212.948 114.896 212.582 114.974 212.194C114.999 212.015 114.985 211.833 114.935 211.66C114.885 211.487 114.799 211.326 114.683 211.188C114.567 211.05 114.423 210.938 114.261 210.86C114.099 210.781 113.922 210.737 113.742 210.731C112.656 210.731 111.542 212.34 111.241 213.263C111.241 213.318 111.113 213.839 111.04 214.232C111.04 214.003 111.04 213.766 111.04 213.546C111.04 212.724 111.095 211.974 111.14 211.307C111.14 210.923 111.213 210.585 111.25 210.265C111.986 209.79 112.645 209.204 113.203 208.529C113.427 208.208 113.579 207.843 113.65 207.458C113.721 207.073 113.709 206.678 113.614 206.298C113.552 206.13 113.455 205.975 113.33 205.846C113.205 205.717 113.054 205.615 112.887 205.547C112.721 205.479 112.542 205.447 112.362 205.452C112.183 205.457 112.006 205.499 111.843 205.576C110.876 206.07 110.62 208.017 110.784 208.976C110.784 209.059 111.159 210.329 111.177 210.32C111.177 210.631 111.095 210.96 111.058 211.316C110.994 211.983 110.921 212.733 110.903 213.565C110.875 214.452 110.897 215.34 110.967 216.224C111.042 217.218 111.207 218.203 111.46 219.167C111.286 218.893 110.784 218.162 110.739 218.107C110.109 217.376 108.447 216.334 107.452 216.755C107.288 216.829 107.141 216.938 107.022 217.073C106.902 217.209 106.813 217.368 106.759 217.541C106.706 217.714 106.689 217.896 106.711 218.076C106.733 218.255 106.793 218.428 106.886 218.583C107.112 218.9 107.405 219.164 107.744 219.355C108.084 219.546 108.461 219.66 108.849 219.688C109.747 219.684 110.639 219.545 111.496 219.277C111.775 220.253 112.12 221.209 112.528 222.138C112.765 222.677 113.012 223.217 113.276 223.756L112.957 223.299C112.318 222.558 110.666 221.516 109.662 221.946C109.498 222.022 109.352 222.131 109.234 222.267C109.115 222.403 109.026 222.562 108.973 222.734C108.919 222.906 108.903 223.088 108.924 223.267C108.945 223.446 109.004 223.619 109.096 223.774C109.327 224.088 109.622 224.349 109.962 224.54C110.302 224.731 110.679 224.847 111.067 224.88C111.937 224.879 112.802 224.746 113.632 224.487C113.733 224.688 113.833 224.898 113.943 225.099C114.436 226.077 114.929 227.055 115.385 228.033C115.549 228.371 115.696 228.719 115.842 229.066C115.705 228.865 115.586 228.691 115.559 228.664C114.929 227.933 113.267 226.891 112.272 227.311C112.108 227.386 111.961 227.495 111.841 227.63C111.722 227.766 111.633 227.925 111.579 228.098C111.526 228.271 111.509 228.453 111.531 228.632C111.553 228.812 111.613 228.985 111.706 229.139C111.933 229.457 112.226 229.721 112.565 229.913C112.904 230.106 113.281 230.222 113.669 230.254C114.517 230.255 115.36 230.129 116.17 229.88C116.316 230.236 116.453 230.592 116.572 230.94C116.691 231.287 116.745 231.406 116.809 231.653C116.873 231.9 116.937 232.137 117.01 232.384C117.12 232.841 117.238 233.298 117.33 233.782C117.403 234.093 117.466 234.395 117.521 234.696C117.366 234.349 117.047 233.682 117.019 233.636C116.499 232.814 115.02 231.525 113.97 231.808C113.797 231.859 113.636 231.945 113.498 232.062C113.36 232.179 113.248 232.323 113.169 232.486C113.089 232.648 113.045 232.826 113.039 233.007C113.032 233.187 113.063 233.368 113.13 233.536C113.311 233.88 113.564 234.183 113.871 234.422C114.178 234.662 114.532 234.833 114.91 234.925C115.79 235.066 116.687 235.066 117.567 234.925C117.667 235.437 117.768 235.93 117.841 236.387C118.133 238.005 118.306 239.358 118.416 240.308C118.416 240.482 118.416 240.628 118.461 240.774H115.193L116.335 264.145H121.903L123.099 240.848H120.05L120.123 240.701C120.534 239.787 121.118 238.581 121.739 237.045C121.939 236.561 122.14 236.04 122.35 235.51C123.217 235.711 124.11 235.778 124.998 235.711C125.383 235.652 125.751 235.51 126.076 235.293C126.401 235.077 126.675 234.792 126.878 234.459C126.958 234.296 127.003 234.119 127.011 233.938C127.018 233.757 126.987 233.577 126.92 233.408C126.852 233.24 126.751 233.088 126.621 232.962C126.491 232.836 126.336 232.739 126.166 232.676C125.144 232.329 123.564 233.499 122.989 234.285C122.989 234.331 122.642 234.87 122.46 235.199C122.533 234.98 122.615 234.76 122.697 234.541C122.861 234.084 123.017 233.627 123.181 233.152C123.254 232.914 123.318 232.676 123.391 232.43C123.464 232.183 123.519 231.927 123.592 231.68C123.729 231.086 123.838 230.483 123.939 229.852C124.744 230.171 125.594 230.365 126.458 230.428C126.845 230.435 127.229 230.357 127.582 230.199C127.936 230.041 128.25 229.807 128.503 229.514C128.6 229.367 128.666 229.202 128.697 229.029C128.728 228.856 128.723 228.678 128.683 228.507C128.643 228.336 128.568 228.175 128.463 228.033C128.359 227.892 128.226 227.774 128.074 227.686C127.106 227.192 125.335 228.106 124.696 228.792C124.696 228.838 124.212 229.386 123.975 229.706C124.039 229.34 124.094 228.975 124.139 228.6C124.276 227.521 124.377 226.425 124.486 225.337C124.486 224.999 124.55 224.67 124.587 224.332C125.418 224.666 126.295 224.872 127.188 224.944C127.578 224.939 127.962 224.85 128.314 224.685C128.667 224.519 128.98 224.281 129.233 223.984C129.33 223.838 129.396 223.673 129.427 223.499C129.458 223.326 129.454 223.149 129.413 222.977C129.373 222.806 129.298 222.645 129.194 222.504C129.089 222.363 128.956 222.244 128.804 222.156C127.837 221.663 126.111 222.577 125.427 223.262C125.372 223.317 124.742 224.103 124.596 224.304C124.669 223.573 124.751 222.842 124.87 222.129C125.011 221.159 125.219 220.2 125.49 219.259C126.329 219.591 127.212 219.798 128.11 219.871C128.501 219.872 128.887 219.787 129.24 219.621C129.594 219.455 129.906 219.213 130.155 218.912C130.252 218.765 130.318 218.6 130.349 218.427C130.38 218.254 130.376 218.076 130.335 217.905C130.295 217.733 130.22 217.572 130.116 217.431C130.011 217.29 129.878 217.172 129.726 217.084C128.758 216.59 126.988 217.504 126.339 218.19C126.294 218.244 125.609 219.104 125.5 219.25C125.5 219.195 125.5 219.14 125.545 219.085C125.844 218.141 126.222 217.223 126.677 216.343C126.924 215.859 127.188 215.429 127.453 214.981C128.228 215.413 129.066 215.721 129.936 215.895C130.323 215.94 130.715 215.898 131.085 215.773C131.454 215.649 131.791 215.444 132.072 215.173C132.191 215.038 132.281 214.879 132.334 214.707C132.388 214.535 132.405 214.353 132.385 214.174C132.364 213.995 132.306 213.822 132.215 213.667C132.123 213.511 132 213.377 131.853 213.272C130.94 212.669 129.115 213.391 128.366 213.994C128.366 213.994 127.946 214.406 127.672 214.689L128.037 214.113C128.494 213.428 128.95 212.833 129.361 212.285L130.018 211.481C130.896 211.489 131.771 211.363 132.611 211.106C132.974 210.966 133.303 210.748 133.573 210.467C133.843 210.186 134.047 209.849 134.172 209.479C134.238 209.296 134.261 209.1 134.241 208.906C134.221 208.713 134.157 208.526 134.054 208.361C133.951 208.195 133.812 208.055 133.648 207.951C133.483 207.848 133.297 207.782 133.104 207.761ZM121.145 236.799C120.497 238.297 119.895 239.541 119.466 240.381L119.228 240.848H119.155C119.155 240.674 119.11 240.491 119.082 240.29C118.954 239.376 118.744 237.968 118.425 236.351C118.325 235.83 118.206 235.29 118.078 234.724C118.588 234.524 119.085 234.292 119.566 234.029C120.218 234.595 120.946 235.066 121.73 235.428C121.529 235.903 121.337 236.369 121.145 236.799Z" fill="#263238"/>
<path d="M127.417 214.679C127.417 214.679 127.754 213.409 127.773 213.327C127.9 212.367 127.599 210.429 126.622 209.954C126.457 209.881 126.279 209.844 126.098 209.844C125.918 209.844 125.74 209.882 125.575 209.955C125.41 210.028 125.262 210.135 125.14 210.268C125.019 210.402 124.927 210.56 124.87 210.731C124.786 211.112 124.784 211.506 124.864 211.887C124.945 212.269 125.105 212.628 125.335 212.943C125.939 213.622 126.641 214.207 127.417 214.679Z" fill="#263238"/>
<path d="M409.836 266.677V28.6992" stroke="#263238" stroke-linecap="round" stroke-linejoin="round"/>
<path d="M197.241 266.677V30.1797" stroke="#263238" stroke-linecap="round" stroke-linejoin="round"/>
<path d="M61.5266 149.859H575.538" stroke="#263238" stroke-linecap="round" stroke-linejoin="round"/>
<path d="M55.0818 233.92L50.1615 236.954" stroke="#263238" stroke-width="0.5" stroke-linecap="round" stroke-linejoin="round"/>
<path d="M138.07 182.709L61.7 229.835" stroke="#263238" stroke-width="0.5" stroke-linecap="round" stroke-linejoin="round"/>
<path d="M148.148 185.889L86.9588 223.646" stroke="#263238" stroke-width="0.5" stroke-linecap="round" stroke-linejoin="round"/>
<path d="M174.876 169.4L156.391 180.807" stroke="#263238" stroke-width="0.5" stroke-linecap="round" stroke-linejoin="round"/>
<path d="M432.548 231.352L427.044 234.752" stroke="#263238" stroke-width="0.5" stroke-linecap="round" stroke-linejoin="round"/>
<path d="M525.249 174.152L439.933 226.799" stroke="#263238" stroke-width="0.5" stroke-linecap="round" stroke-linejoin="round"/>
<path d="M536.504 177.709L468.15 219.89" stroke="#263238" stroke-width="0.5" stroke-linecap="round" stroke-linejoin="round"/>
<path d="M566.355 159.291L545.715 172.032" stroke="#263238" stroke-width="0.5" stroke-linecap="round" stroke-linejoin="round"/>
<path d="M394.281 286.795H432.439V242.658H394.281V286.795Z" fill="white" stroke="#263238" stroke-linecap="round" stroke-linejoin="round"/>
<path d="M435.396 288.768H392.3V248.918H412.694L435.396 288.768Z" fill="#D1D1D1" stroke="#263238" stroke-linecap="round" stroke-linejoin="round"/>
<path d="M383.062 290.991H407.709C407.976 291.048 408.252 291.045 408.517 290.982C408.782 290.919 409.029 290.798 409.241 290.626C409.453 290.455 409.624 290.238 409.742 289.992C409.859 289.746 409.92 289.477 409.92 289.204C409.92 288.931 409.859 288.662 409.742 288.416C409.624 288.17 409.453 287.953 409.241 287.782C409.029 287.61 408.782 287.489 408.517 287.425C408.252 287.362 407.976 287.36 407.709 287.417H383.062C382.412 287.417 381.77 287.266 381.188 286.977C380.605 286.687 380.097 286.267 379.704 285.748C379.311 285.23 379.042 284.627 378.92 283.987C378.798 283.348 378.825 282.688 379 282.061L387.745 250.683C387.876 250.44 387.95 250.171 387.962 249.895C387.974 249.619 387.923 249.344 387.814 249.09C387.704 248.837 387.539 248.612 387.33 248.431C387.121 248.251 386.874 248.121 386.607 248.05C386.341 247.979 386.062 247.969 385.791 248.022C385.52 248.074 385.265 248.187 385.044 248.353C384.823 248.518 384.643 248.732 384.516 248.977C384.389 249.223 384.32 249.493 384.313 249.769L375.559 281.147C375.236 282.306 375.186 283.523 375.411 284.704C375.637 285.886 376.132 286.999 376.859 287.956C377.586 288.914 378.524 289.69 379.6 290.225C380.676 290.759 381.861 291.037 383.062 291.037V290.991Z" fill="#D1D1D1" stroke="#263238" stroke-linecap="round" stroke-linejoin="round"/>
<path d="M394.782 281.636L400.365 280.967L391.722 208.711L386.138 209.38L394.782 281.636Z" fill="white" stroke="#263238" stroke-linecap="round" stroke-linejoin="round"/>
<path d="M386.139 209.416C386.139 209.416 376.225 244.843 394.783 281.668L386.139 209.416Z" fill="#D1D1D1" stroke="#263238" stroke-linecap="round" stroke-linejoin="round"/>
<path d="M587.515 290.826H362.067V418.128H587.515V290.826Z" fill="#263238"/>
<path d="M587.515 290.826H362.067V418.128H587.515V290.826Z" fill="white" stroke="#263238" stroke-linecap="round" stroke-linejoin="round"/>
<path d="M587.515 290.826H362.067V418.128H587.515V290.826Z" stroke="#263238" stroke-linecap="round" stroke-linejoin="round"/>
<path d="M587.351 293.887H362.176V297.406H587.351V293.887Z" fill="#263238"/>
<path d="M589.167 288.742H357.146V294.308H589.167V288.742Z" fill="white" stroke="#263238" stroke-linecap="round" stroke-linejoin="round"/>
<path d="M54.8992 188.833L87.0866 189.098C87.0866 189.098 89.2227 188.833 89.7521 190.432C89.7521 190.432 95.3388 204.544 95.6035 209.626C95.8683 214.708 94.5355 213.885 96.6716 220.548C98.8077 227.212 104.887 242.923 108.374 255.701C113.021 272.884 114.235 291.128 114.527 308.859C114.573 311.711 116.271 336.197 111.852 336.197C108.201 336.197 74.3066 340.694 73.9049 334.149C72.28 308.101 76.9721 282.636 67.9348 257.3C64.4295 247.457 60.4038 237.064 57.4278 226.773C54.4519 216.481 53.9225 205.751 51.9507 195.24C50.6453 188.037 54.8992 188.833 54.8992 188.833Z" fill="#263238" stroke="#263238" stroke-linecap="round" stroke-linejoin="round"/>
<path d="M51.7499 192.023C52.0694 188.303 54.8992 188.833 54.8992 188.833L87.0866 189.098C87.0866 189.098 89.2227 188.833 89.7521 190.432C89.7521 190.432 95.3388 204.544 95.6035 209.626C95.6733 210.965 95.6336 212.307 95.4849 213.639L94.8093 214.69C94.8093 214.69 93.7413 224.013 80.9704 224.543C68.1996 225.073 61.0245 219.214 58.359 213.575C55.6934 207.935 54.6345 198.951 52.5076 193.604C52.2841 193.063 52.0312 192.535 51.7499 192.023Z" fill="#D1D1D1" stroke="#263238" stroke-linecap="round" stroke-linejoin="round"/>
<path d="M59.2079 202.424C61.3714 210.211 60.1208 212.368 62.2386 225.768C64.3564 239.167 72.1614 254.303 75.1829 268.132C78.2045 281.96 76.9173 330.814 76.4792 332.971C76.3131 334.12 76.252 335.283 76.2966 336.444C74.8543 335.905 73.9414 335.155 73.9414 334.131C72.3165 308.082 77.0086 282.618 67.9713 257.282C64.466 247.439 60.4403 237.046 57.4644 226.755C54.4884 216.463 53.959 205.733 51.9872 195.222C51.1656 190.807 52.4619 189.409 53.5756 188.988C56.0124 193.211 57.9049 197.725 59.2079 202.424Z" fill="#D1D1D1" stroke="#263238" stroke-linecap="round" stroke-linejoin="round"/>
<path d="M121.41 399.108L121.629 398.934V368.854H117.311V349.834H133.277V368.854H128.959V399.418L167.162 411.611V414.637C167.117 415.523 166.733 416.359 166.09 416.97C165.447 417.582 164.594 417.923 163.707 417.923C162.82 417.923 161.967 417.582 161.324 416.97C160.682 416.359 160.298 415.523 160.252 414.637V414.207L128.302 410.487V415.057C128.302 415.859 127.984 416.629 127.417 417.196C126.85 417.764 126.082 418.082 125.281 418.082C124.479 418.082 123.711 417.764 123.144 417.196C122.577 416.629 122.259 415.859 122.259 415.057V410.386L89.0036 414.244V414.673C88.9581 415.56 88.5742 416.395 87.9312 417.007C87.2882 417.618 86.4352 417.959 85.5484 417.959C84.6616 417.959 83.8086 417.618 83.1657 417.007C82.5227 416.395 82.1388 415.56 82.0933 414.673V411.648L121.41 399.108Z" fill="#263238" stroke="#263238" stroke-linecap="round" stroke-linejoin="round"/>
<path d="M75.1008 353.344H171.435C173.451 353.344 175.086 351.707 175.086 349.688V334.936C175.086 332.917 173.451 331.28 171.435 331.28H75.1008C73.0841 331.28 71.4493 332.917 71.4493 334.936V349.688C71.4493 351.707 73.0841 353.344 75.1008 353.344Z" fill="#263238" stroke="#263238" stroke-linecap="round" stroke-linejoin="round"/>
<path d="M238.831 242.658H200.673V286.795H238.831V242.658Z" fill="white" stroke="#263238" stroke-linecap="round" stroke-linejoin="round"/>
<path d="M197.716 288.77H240.803V248.92H220.409L197.716 288.77Z" fill="#D1D1D1" stroke="#263238" stroke-linecap="round" stroke-linejoin="round"/>
<path d="M250.05 290.991H225.403C224.995 290.903 224.629 290.677 224.367 290.352C224.105 290.027 223.962 289.622 223.962 289.204C223.962 288.786 224.105 288.381 224.367 288.056C224.629 287.731 224.995 287.505 225.403 287.417H250.05C250.7 287.417 251.342 287.266 251.924 286.977C252.507 286.687 253.015 286.267 253.408 285.748C253.801 285.23 254.07 284.627 254.192 283.987C254.314 283.348 254.287 282.688 254.112 282.061L245.367 250.683C245.236 250.44 245.162 250.171 245.15 249.895C245.138 249.619 245.189 249.344 245.298 249.09C245.408 248.837 245.573 248.612 245.782 248.431C245.991 248.251 246.238 248.121 246.505 248.05C246.771 247.979 247.051 247.969 247.321 248.022C247.592 248.074 247.847 248.187 248.068 248.353C248.289 248.518 248.47 248.732 248.596 248.977C248.723 249.223 248.792 249.493 248.799 249.769L257.544 281.147C257.869 282.305 257.921 283.522 257.696 284.704C257.472 285.885 256.977 286.998 256.251 287.956C255.525 288.914 254.588 289.691 253.512 290.225C252.436 290.76 251.251 291.037 250.05 291.037V290.991Z" fill="#D1D1D1" stroke="#263238" stroke-linecap="round" stroke-linejoin="round"/>
<path d="M247.003 209.402L241.42 208.732L232.777 280.989L238.36 281.658L247.003 209.402Z" fill="white" stroke="#263238" stroke-linecap="round" stroke-linejoin="round"/>
<path d="M246.992 209.416C246.992 209.416 256.905 244.843 238.338 281.668L246.992 209.416Z" fill="#D1D1D1" stroke="#263238" stroke-linecap="round" stroke-linejoin="round"/>
<path d="M45.5972 418.137H271.046V290.835H45.5972L45.5972 418.137Z" fill="#263238"/>
<path d="M45.5972 418.139H271.046V290.837H45.5972L45.5972 418.139Z" fill="white" stroke="#263238" stroke-linecap="round" stroke-linejoin="round"/>
<path d="M45.5972 418.137H271.046V290.835H45.5972L45.5972 418.137Z" stroke="#263238" stroke-linecap="round" stroke-linejoin="round"/>
<path d="M45.7615 297.406H270.936V293.887H45.7615V297.406Z" fill="#263238"/>
<path d="M43.9449 294.309L275.966 294.309V288.742H43.9449V294.309Z" fill="white" stroke="#263238" stroke-linecap="round" stroke-linejoin="round"/>
<path d="M524.546 188.833L492.359 189.098C492.359 189.098 490.232 188.833 489.693 190.432C489.693 190.432 484.106 204.544 483.842 209.626C483.577 214.708 484.91 213.885 482.783 220.548C480.656 227.212 474.567 242.923 471.071 255.701C466.424 272.884 465.219 291.128 464.918 308.859C464.872 311.711 463.175 336.197 467.602 336.197C471.253 336.197 505.139 340.694 505.54 334.149C507.174 308.101 502.473 282.636 511.51 257.3C515.016 247.457 519.041 237.064 522.026 226.773C525.012 216.481 525.523 205.751 527.504 195.24C528.8 188.037 524.546 188.833 524.546 188.833Z" fill="#263238" stroke="#263238" stroke-linecap="round" stroke-linejoin="round"/>
<path d="M527.695 192.023C527.376 188.303 524.546 188.833 524.546 188.833L492.359 189.098C492.359 189.098 490.232 188.833 489.693 190.432C489.693 190.432 484.106 204.544 483.842 209.626C483.772 210.965 483.812 212.307 483.96 213.639L484.645 214.69C484.645 214.69 485.704 224.013 498.475 224.543C511.246 225.073 518.43 219.214 521.086 213.575C523.743 207.935 524.811 198.951 526.938 193.604C527.161 193.063 527.414 192.535 527.695 192.023Z" fill="#D1D1D1" stroke="#263238" stroke-linecap="round" stroke-linejoin="round"/>
<path d="M520.237 202.424C518.074 210.211 519.37 212.368 517.216 225.768C515.061 239.167 507.284 254.303 504.262 268.132C501.241 281.96 502.537 330.814 502.966 332.971C503.131 334.121 503.195 335.283 503.158 336.444C504.6 335.905 505.486 335.155 505.54 334.131C507.174 308.082 502.473 282.618 511.51 257.282C515.016 247.439 519.041 237.046 522.026 226.755C525.012 216.463 525.523 205.733 527.504 195.222C528.325 190.807 527.029 189.409 525.915 188.988C523.46 193.207 521.552 197.722 520.237 202.424Z" fill="#D1D1D1" stroke="#263238" stroke-linecap="round" stroke-linejoin="round"/>
<path d="M458.063 399.108L457.853 398.934V368.854H462.17V349.834H446.195V368.854H450.513V399.418L412.301 411.611V414.637C412.347 415.523 412.73 416.359 413.373 416.97C414.016 417.582 414.869 417.923 415.756 417.923C416.643 417.923 417.496 417.582 418.139 416.97C418.782 416.359 419.166 415.523 419.211 414.637V414.207L451.161 410.487V415.057C451.161 415.859 451.48 416.629 452.046 417.196C452.613 417.764 453.382 418.082 454.183 418.082C454.984 418.082 455.753 417.764 456.319 417.196C456.886 416.629 457.204 415.859 457.204 415.057V410.386L490.442 414.262V414.691C490.487 415.578 490.871 416.414 491.514 417.025C492.157 417.637 493.01 417.978 493.897 417.978C494.784 417.978 495.637 417.637 496.28 417.025C496.923 416.414 497.306 415.578 497.352 414.691V411.666L458.063 399.108Z" fill="#263238" stroke="#263238" stroke-linecap="round" stroke-linejoin="round"/>
<path d="M504.344 331.27H408.011C405.994 331.27 404.359 332.906 404.359 334.926V349.677C404.359 351.697 405.994 353.333 408.011 353.333H504.344C506.361 353.333 507.996 351.697 507.996 349.677V334.926C507.996 332.906 506.361 331.27 504.344 331.27Z" fill="#263238" stroke="#263238" stroke-linecap="round" stroke-linejoin="round"/>
<path d="M396.764 307.104C396.764 307.104 380.853 307.826 379.42 316.856C377.987 325.886 417.422 380.589 420.499 382.253C423.575 383.916 424.771 393.221 424.771 396.995C424.771 400.77 424.059 402.233 421.685 405.322C419.312 408.411 422.397 407.461 425.008 406.748C427.619 406.035 428.815 406.985 431.9 401.044C434.986 395.103 434.511 394.646 436.172 391.53C437.834 388.413 439.02 384.154 436.41 382.015C433.799 379.876 425.455 376.312 424.296 375.361C423.137 374.41 406.952 323.044 406.952 323.044C406.952 323.044 421.201 330.886 429.992 333.5C438.783 336.114 444.954 338.262 453.498 337.549C462.043 336.836 454.411 319.708 441.869 314.004C429.326 308.301 396.764 307.104 396.764 307.104Z" fill="white" stroke="#263238" stroke-miterlimit="10"/>
<path d="M441.896 314.041C434.438 310.659 419.987 308.868 409.462 307.963L412.849 326.151C417.787 328.656 424.844 332.001 430.02 333.537C438.801 336.16 444.981 338.299 453.526 337.586C462.07 336.873 454.475 319.744 441.896 314.041Z" fill="#949494" stroke="#263238" stroke-linecap="round" stroke-linejoin="round"/>
<path d="M436.428 382.051C435.278 381.189 434.056 380.428 432.776 379.775V381.814C432.776 385.47 428.523 396.438 428.523 396.438L424.798 398.156C424.661 401.154 423.885 402.589 421.74 405.358C419.367 408.448 422.452 407.497 425.063 406.784C427.674 406.071 428.869 407.022 431.955 401.081C435.04 395.14 434.566 394.683 436.227 391.566C437.888 388.449 439.084 384.19 436.428 382.051Z" fill="#651FFF" stroke="#263238" stroke-linecap="round" stroke-linejoin="round"/>
<path d="M454.046 235.857C454.046 235.857 450.696 234.331 444.607 240.427C438.518 246.524 425.136 286.127 426.049 288.869C426.962 291.611 431.526 292.224 433.352 290.697C435.177 289.171 444.917 265.389 444.917 265.389L456.474 241.022" fill="white"/>
<path d="M454.046 235.857C454.046 235.857 450.696 234.331 444.607 240.427C438.518 246.524 425.136 286.127 426.049 288.869C426.962 291.611 431.526 292.224 433.352 290.697C435.177 289.171 444.917 265.389 444.917 265.389L456.474 241.022" stroke="#263238" stroke-linecap="round" stroke-linejoin="round"/>
<path d="M456.474 241.04L454.046 235.857C454.046 235.857 450.696 234.331 444.607 240.427C442.973 242.073 440.791 245.793 438.509 250.381L448.35 258.168L456.474 241.04Z" fill="#651FFF" stroke="#263238" stroke-linecap="round" stroke-linejoin="round"/>
<path d="M448.122 249.521C447.492 251.121 446.917 252.62 446.433 253.844C444.306 259.328 442.48 262.372 443.393 266.33C444.306 270.287 447.957 276.694 447.957 276.694L437.003 296.51L485.686 307.478L486.909 278.23C486.909 278.23 501.515 247.766 501.816 242.895C502.117 238.023 493.901 235.884 486.598 233.142C483.011 231.74 479.355 230.52 475.644 229.486L469.254 230.4C469.254 230.4 455.26 234.358 454.046 235.884C453.757 236.293 453.506 236.727 453.297 237.182" fill="#651FFF"/>
<path d="M448.122 249.521C447.492 251.121 446.917 252.62 446.433 253.844C444.306 259.328 442.48 262.372 443.393 266.33C444.306 270.287 447.957 276.694 447.957 276.694L437.003 296.51L485.686 307.478L486.909 278.23C486.909 278.23 501.515 247.766 501.816 242.895C502.117 238.023 493.901 235.884 486.598 233.142C483.011 231.74 479.355 230.52 475.644 229.486L469.254 230.4C469.254 230.4 455.26 234.358 454.046 235.884C453.757 236.293 453.506 236.727 453.297 237.182" stroke="#263238" stroke-linecap="round" stroke-linejoin="round"/>
<path d="M467.52 278.586L469.227 279.61" stroke="#263238" stroke-linecap="round" stroke-linejoin="round"/>
<path d="M460.281 274.236L464.909 277.024" stroke="#263238" stroke-linecap="round" stroke-linejoin="round"/>
<path d="M439.084 300.139C439.084 300.139 433.415 294.609 430.75 294.609C428.084 294.609 422.534 297.452 422.534 297.452C422.534 297.452 431.371 298.613 433.534 298.786C435.698 298.96 438.372 301.455 440.371 299.956L439.084 300.139Z" fill="white" stroke="#263238" stroke-linecap="round" stroke-linejoin="round"/>
<path d="M489.036 251.696L478.383 288.869L439.084 294.947L439.413 299.617C439.413 299.617 476.438 303.365 479.314 303.191C489.355 302.579 487.977 298.758 492.094 290.395C493.746 287.059 506.079 247.382 505.486 244.997C503.66 237.685 494.832 236.158 494.832 236.158" fill="white"/>
<path d="M489.036 251.696L478.383 288.869L439.084 294.947L439.413 299.617C439.413 299.617 476.438 303.365 479.314 303.191C489.355 302.579 487.977 298.758 492.094 290.395C493.746 287.059 506.079 247.382 505.486 244.997C503.66 237.685 494.832 236.158 494.832 236.158" stroke="#263238" stroke-linecap="round" stroke-linejoin="round"/>
<path d="M489.036 251.697L485.877 262.72C490.846 260.603 496.283 259.834 501.642 260.49C503.952 252.547 505.705 245.911 505.467 244.952C503.642 237.64 494.814 236.113 494.814 236.113" fill="#651FFF"/>
<path d="M489.036 251.697L485.877 262.72C490.846 260.603 496.283 259.834 501.642 260.49C503.952 252.547 505.705 245.911 505.467 244.952C503.642 237.64 494.814 236.113 494.814 236.113" stroke="#263238" stroke-linecap="round" stroke-linejoin="round"/>
<path d="M465.019 229.496C465.217 231.865 465.097 234.251 464.663 236.588C463.932 239.86 460.482 249.32 461.924 249.32C463.366 249.32 477.726 236.04 479.542 234.221C481.359 232.402 483.54 219.131 483.54 219.131C483.54 219.131 469.747 228.764 465.019 229.496Z" fill="white" stroke="#263238" stroke-linecap="round" stroke-linejoin="round"/>
<path d="M464.882 235.373L476.037 227.805L468.98 228.024C467.732 228.691 466.399 229.186 465.019 229.496C465.177 231.454 465.132 233.424 464.882 235.373Z" fill="#263238" stroke="#263238" stroke-linecap="round" stroke-linejoin="round"/>
<path d="M484.882 307.624C484.882 307.624 424.077 295.742 410.302 294.782C396.527 293.823 388.685 292.634 389.169 299.06C389.653 305.485 415.77 380.863 417.669 384.903C417.669 384.903 416.482 395.871 415.286 399.645C414.09 403.42 409.353 409.398 408.896 410.824C408.44 412.25 421.01 409.16 424.095 406.309C427.181 403.457 427.655 397.744 431.937 392.279C436.218 386.813 434.31 384.427 431.699 382.764C429.089 381.1 425.757 376.823 425.757 376.823C424.53 373.173 423.578 369.437 422.908 365.645C421.484 358.269 417.924 322.842 417.924 322.842C417.924 322.842 432.649 335.638 449.509 337.347C466.37 339.056 476.11 335.446 483.951 327.357C491.793 319.268 484.882 307.624 484.882 307.624Z" fill="white" stroke="#263238" stroke-miterlimit="10"/>
<path d="M417.906 322.842C417.906 322.842 417.696 314.241 413.88 309.232" stroke="#263238" stroke-linecap="round" stroke-linejoin="round"/>
<path d="M431.681 382.765C431.466 382.631 431.258 382.484 431.06 382.326C430.81 383.356 430.347 384.321 429.7 385.16C427.728 387.554 425.136 398.87 422.698 400.698C420.708 402.197 416.044 401.849 414.437 401.685C412.611 405.295 409.27 409.637 408.878 410.825C408.403 412.251 420.991 409.161 424.077 406.31C427.162 403.458 427.637 397.745 431.918 392.28C436.2 386.814 434.292 384.428 431.681 382.765Z" fill="#651FFF" stroke="#263238" stroke-linecap="round" stroke-linejoin="round"/>
<path d="M417.906 322.843C417.906 322.843 432.63 335.639 449.491 337.348C466.351 339.057 476.092 335.447 483.933 327.358C491.774 319.269 484.846 307.625 484.846 307.625C484.846 307.625 424.04 295.743 410.265 294.783C413.891 298.375 416.506 302.86 417.847 307.786C419.189 312.713 419.209 317.906 417.906 322.843Z" fill="#949494" stroke="#263238" stroke-linecap="round" stroke-linejoin="round"/>
<path d="M428.176 283.467C428.176 283.467 425.136 288.037 424.835 291.382C424.533 294.727 429.225 298.1 433.826 299.809C438.489 301.362 443.23 302.668 448.03 303.721C447.37 305.571 447.197 307.561 447.528 309.498C448.012 313.154 450.732 313.547 450.732 313.547C450.732 313.547 449.573 314.78 449.664 315.448C449.857 315.968 450.164 316.437 450.565 316.82C450.965 317.203 451.447 317.49 451.974 317.66C452.972 317.803 453.99 317.705 454.943 317.374C455.895 317.043 456.755 316.489 457.451 315.758C458.227 314.982 460.107 312.459 460.053 311.371C459.925 308.913 457.141 305.275 457.141 305.275C455.506 302.643 453.157 300.531 450.367 299.188C445.803 297.04 433.352 287.123 433.352 287.123L432.621 286.602" fill="white"/>
<path d="M428.176 283.467C428.176 283.467 425.136 288.037 424.835 291.382C424.533 294.727 429.225 298.1 433.826 299.809C438.489 301.362 443.23 302.668 448.03 303.721C447.37 305.571 447.197 307.561 447.528 309.498C448.012 313.154 450.732 313.547 450.732 313.547C450.732 313.547 449.573 314.78 449.664 315.448C449.857 315.968 450.164 316.437 450.565 316.82C450.965 317.203 451.447 317.49 451.974 317.66C452.972 317.803 453.99 317.705 454.943 317.374C455.895 317.043 456.755 316.489 457.451 315.758C458.227 314.982 460.107 312.459 460.053 311.371C459.925 308.913 457.141 305.275 457.141 305.275C455.506 302.643 453.157 300.531 450.367 299.188C445.803 297.04 433.352 287.123 433.352 287.123L432.621 286.602" stroke="#263238" stroke-linecap="round" stroke-linejoin="round"/>
<path d="M450.732 313.547C450.732 313.547 451.645 315.183 452.987 315.165" stroke="#263238" stroke-linecap="round" stroke-linejoin="round"/>
<path d="M458.975 207.002C458.975 207.002 450.605 198.612 454.32 193.649C458.035 188.686 479.442 185.889 489.054 187.132C498.666 188.375 500.218 220.347 498.977 223.765C497.735 227.183 486.571 229.66 483.458 229.039C480.345 228.417 460.518 230.282 455.863 227.805C451.207 225.328 448.112 220.036 448.112 220.036C448.112 220.036 451.216 221.864 455.552 218.208C459.888 214.552 458.975 207.002 458.975 207.002Z" fill="#263238" stroke="#263238" stroke-linecap="round" stroke-linejoin="round"/>
<path d="M469.829 200.166C469.829 200.166 458.975 202.652 458.665 205.449C458.355 208.246 454.009 227.495 458.044 229.35C462.079 231.205 475.096 229.972 479.131 226.562C481.643 224.398 483.835 221.887 485.64 219.104C485.64 219.104 486.553 220.018 487.813 217.559C489.072 215.101 488.725 211.344 488.725 211.344C488.725 211.344 485.311 216.316 480.665 211.966C476.018 207.615 469.829 200.166 469.829 200.166Z" fill="white" stroke="#263238" stroke-linecap="round" stroke-linejoin="round"/>
<path d="M461.632 209.762C461.632 210.539 461.212 211.179 460.719 211.179C460.226 211.179 459.806 210.539 459.806 209.762C459.806 208.986 460.226 208.346 460.719 208.346C461.212 208.346 461.632 208.976 461.632 209.762Z" fill="#263238"/>
<path d="M470.121 211.352C470.121 212.129 469.692 212.769 469.209 212.769C468.725 212.769 468.296 212.129 468.296 211.352C468.296 210.575 468.716 209.936 469.209 209.936C469.702 209.936 470.121 210.566 470.121 211.352Z" fill="#263238"/>
<path d="M464.334 208.51C464.334 208.51 463.859 211.343 462.919 212.056C461.979 212.769 459.377 214.414 459.14 215.831C458.902 217.248 464.097 218.189 464.097 218.189" stroke="#263238" stroke-linecap="round" stroke-linejoin="round"/>
<path d="M460.436 220.795C460.436 220.795 463.266 222.915 466.087 221.023" stroke="#263238" stroke-linecap="round" stroke-linejoin="round"/>
<path d="M467.383 208.529C468.314 208.278 469.297 208.3 470.216 208.591C471.135 208.883 471.951 209.432 472.568 210.174" stroke="#263238" stroke-linecap="round" stroke-linejoin="round"/>
<path d="M463.385 207.341C463.385 207.341 462.207 205.695 459.843 207.341" stroke="#263238" stroke-linecap="round" stroke-linejoin="round"/>
<path d="M484.663 223.4C484.663 223.4 479.852 226.444 477.826 226.947C476.918 227.215 475.985 227.386 475.042 227.459C475.042 227.459 475.042 228.976 482.637 229.734C490.232 230.493 495.8 228.72 497.571 224.927" fill="#263238"/>
<path d="M484.663 223.4C484.663 223.4 479.852 226.444 477.826 226.947C476.918 227.215 475.985 227.386 475.042 227.459C475.042 227.459 475.042 228.976 482.637 229.734C490.232 230.493 495.8 228.72 497.571 224.927" stroke="#263238" stroke-linecap="round" stroke-linejoin="round"/>
<path d="M333.54 398.504C333.54 398.504 335.302 405.231 337.045 406.785C338.36 407.955 340.943 410.788 344.266 412.781C345.288 413.393 349.46 414.499 349.743 415.239C349.875 415.564 349.925 415.915 349.889 416.264C349.853 416.612 349.732 416.946 349.536 417.236C349.34 417.526 349.075 417.764 348.766 417.927C348.457 418.091 348.112 418.175 347.762 418.173H317.811L318.021 399.893L333.54 398.504Z" fill="#666666" stroke="#263238" stroke-linecap="round" stroke-linejoin="round"/>
<path d="M284.273 245.152L283.972 267.509L283.241 330.977C283.241 330.977 283.606 350.701 284.346 353.927C285.085 357.154 283.606 398.458 283.606 398.458L298.669 399.893L304.146 340.3L312.59 281.137L316.999 341.378L317.912 400.395L333.54 398.503L334.672 351.46C334.672 351.46 340.149 308.072 340.149 293.731V258.552L341.217 245.948L284.273 245.152Z" fill="#263238" stroke="#263238" stroke-linecap="round" stroke-linejoin="round"/>
<path d="M283.606 398.504C283.606 398.504 281.845 405.231 280.101 406.785C278.787 407.955 276.203 410.788 272.88 412.781C271.858 413.393 267.686 414.499 267.403 415.239C267.271 415.564 267.221 415.917 267.257 416.266C267.294 416.615 267.416 416.95 267.613 417.24C267.81 417.53 268.076 417.768 268.386 417.93C268.697 418.093 269.043 418.177 269.393 418.173H298.915L298.696 399.893L283.606 398.504Z" fill="#666666" stroke="#263238" stroke-linecap="round" stroke-linejoin="round"/>
<path d="M394.509 152.3C394.326 152.143 394.113 152.025 393.883 151.954C393.652 151.883 393.41 151.86 393.17 151.887C392.931 151.913 392.699 151.989 392.49 152.108C392.28 152.228 392.098 152.39 391.953 152.583L387.809 157.948L390.21 153.14C390.464 152.664 390.534 152.111 390.406 151.586C390.278 151.062 389.961 150.603 389.516 150.298C389.186 150.079 388.798 149.965 388.402 149.969C386.632 149.969 384.267 156.175 384.267 156.175L379.247 164.154L377.777 162.692C377.777 162.692 380.132 157.665 379.247 156.184C378.361 154.703 375.705 154.118 375.705 156.184C375.705 158.25 373.642 160.324 373.048 161.805C372.455 163.286 376.006 174.811 376.006 174.811L357.402 196.683C357.402 196.683 349.725 168.304 347.954 167.435C346.183 166.567 324.338 162.408 324.338 162.408H302.229C302.229 162.408 280.384 166.549 278.613 167.435C276.842 168.322 269.165 196.683 269.165 196.683L250.561 174.811C250.561 174.811 254.103 163.277 253.519 161.805C252.934 160.334 250.862 158.259 250.862 156.184C250.862 154.109 248.206 154.713 247.32 156.184C246.435 157.656 248.79 162.692 248.79 162.692L247.32 164.163L242.3 156.184C242.3 156.184 239.935 149.978 238.164 149.978C237.769 149.974 237.381 150.088 237.051 150.307C236.606 150.612 236.289 151.071 236.161 151.596C236.033 152.12 236.103 152.673 236.357 153.15L238.758 157.957L234.604 152.583C234.46 152.39 234.277 152.228 234.068 152.108C233.859 151.989 233.627 151.913 233.388 151.887C233.148 151.86 232.906 151.883 232.675 151.954C232.445 152.025 232.231 152.143 232.048 152.3C231.786 152.519 231.585 152.802 231.465 153.123C231.344 153.443 231.31 153.79 231.364 154.128C231.665 156.193 233.847 160.197 233.847 160.197C233.847 160.197 231.108 164.474 231.957 165.955C232.858 167.298 233.846 168.58 234.915 169.794C234.915 169.794 233.436 170.973 236.978 175.113C240.52 179.253 242.884 180.14 242.884 180.14C242.884 180.14 252.925 202.597 257.051 208.803C261.178 215.009 271.812 221.517 273.282 221.517C274.615 221.517 282.876 209.068 284.51 206.582C284.675 211.664 282.684 240.098 283.223 242.694C283.28 242.951 283.354 243.205 283.442 243.453L283.579 246.597C283.579 246.597 283.579 248.224 285.852 248.873C287.057 249.22 300.458 249.193 313.238 249.101C326.018 249.193 339.455 249.22 340.624 248.873C342.897 248.224 342.897 246.597 342.897 246.597L343.033 243.453C343.116 243.197 343.198 242.941 343.253 242.694C343.828 240.098 341.801 211.664 341.965 206.582C343.599 209.068 351.861 221.517 353.184 221.517C354.663 221.517 365.289 215.018 369.424 208.803C373.559 202.588 383.592 180.14 383.592 180.14C383.592 180.14 385.956 179.226 389.498 175.113C393.04 171 391.561 169.794 391.561 169.794C392.629 168.58 393.617 167.298 394.519 165.955C395.431 164.474 392.629 160.197 392.629 160.197C392.629 160.197 394.811 156.193 395.103 154.128C395.17 153.798 395.151 153.456 395.047 153.135C394.943 152.815 394.758 152.527 394.509 152.3Z" fill="white" stroke="#263238" stroke-linecap="round" stroke-linejoin="round"/>
<path d="M372.957 178.376L357.438 196.656C357.438 196.656 349.761 168.276 347.99 167.408C346.219 166.54 324.375 162.381 324.375 162.381H302.229C302.229 162.381 280.384 166.521 278.613 167.408C276.842 168.294 269.165 196.656 269.165 196.656L253.564 178.312C250.707 181.118 246.617 182.151 243.988 182.535C246.727 188.512 253.756 203.812 257.061 208.766C261.196 214.982 271.821 221.48 273.291 221.48C274.624 221.48 282.885 209.031 284.519 206.545C284.684 211.627 282.694 240.062 283.232 242.657C283.29 242.915 283.363 243.168 283.451 243.416L283.588 246.56C283.588 246.56 283.588 248.187 285.861 248.836C287.066 249.183 300.467 249.156 313.247 249.065C326.027 249.156 339.464 249.183 340.633 248.836C342.906 248.187 342.906 246.56 342.906 246.56L343.043 243.416C343.125 243.16 343.207 242.904 343.262 242.657C343.837 240.062 341.81 211.627 341.975 206.545C343.609 209.031 351.87 221.48 353.194 221.48C354.672 221.48 365.298 214.982 369.433 208.766C372.3 204.471 377.987 192.387 381.218 185.35C376.49 184.07 373.669 179.628 372.957 178.376Z" fill="white" stroke="#263238" stroke-linecap="round" stroke-linejoin="round"/>
<path d="M284.519 206.563L283.488 188.42L280.612 211.882L284.519 206.563Z" fill="#263238" stroke="#263238" stroke-linecap="round" stroke-linejoin="round"/>
<path d="M342.048 206.564L341.911 189.463L345.462 210.969L342.048 206.564Z" fill="#263238" stroke="#263238" stroke-linecap="round" stroke-linejoin="round"/>
<path d="M372.957 178.375L368.794 183.274C369.57 186.245 371.825 190.586 378.306 191.783C379.402 189.453 380.433 187.213 381.291 185.385C376.49 184.069 373.669 179.627 372.957 178.375Z" fill="white" stroke="#263238" stroke-linecap="round" stroke-linejoin="round"/>
<path d="M232.852 161.495C232.852 161.495 237.58 156.769 239.351 159.136C241.122 161.504 236.695 165.041 236.695 165.041L238.466 167.116" fill="white"/>
<path d="M232.852 161.495C232.852 161.495 237.58 156.769 239.351 159.136C241.122 161.504 236.695 165.041 236.695 165.041L238.466 167.116" stroke="#263238" stroke-linecap="round" stroke-linejoin="round"/>
<path d="M234.924 169.775C234.924 169.775 238.466 165.634 240.821 166.228C243.176 166.822 239.643 171.548 239.643 171.548C240.906 171.532 242.154 171.819 243.284 172.385C244.413 172.951 245.39 173.78 246.134 174.802" fill="white"/>
<path d="M234.924 169.775C234.924 169.775 238.466 165.634 240.821 166.228C243.176 166.822 239.643 171.548 239.643 171.548C240.906 171.532 242.154 171.819 243.284 172.385C244.413 172.951 245.39 173.78 246.134 174.802" stroke="#263238" stroke-linecap="round" stroke-linejoin="round"/>
<path d="M393.715 161.495C393.715 161.495 388.987 156.769 387.216 159.136C385.445 161.504 389.872 165.041 389.872 165.041L388.101 167.116" fill="white"/>
<path d="M393.715 161.495C393.715 161.495 388.987 156.769 387.216 159.136C385.445 161.504 389.872 165.041 389.872 165.041L388.101 167.116" stroke="#263238" stroke-linecap="round" stroke-linejoin="round"/>
<path d="M391.616 169.775C391.616 169.775 388.074 165.634 385.719 166.228C383.364 166.822 386.896 171.548 386.896 171.548C385.633 171.532 384.385 171.819 383.256 172.385C382.127 172.951 381.149 173.78 380.406 174.802" fill="white"/>
<path d="M391.616 169.775C391.616 169.775 388.074 165.634 385.719 166.228C383.364 166.822 386.896 171.548 386.896 171.548C385.633 171.532 384.385 171.819 383.256 172.385C382.127 172.951 381.149 173.78 380.406 174.802" stroke="#263238" stroke-linecap="round" stroke-linejoin="round"/>
<path d="M246.316 187.635C249.119 187.324 252.861 186.053 257.042 182.416L253.564 178.33C250.707 181.136 246.617 182.169 243.988 182.553C244.582 183.869 245.394 185.624 246.316 187.635Z" fill="white" stroke="#263238" stroke-linecap="round" stroke-linejoin="round"/>
<path d="M310.81 176.648L317.382 184.965L310.919 238.398L319.911 247.062L327.278 238.708L320.148 185.303L326.73 173.522L316.004 166.594L310.81 176.648Z" fill="#651FFF" stroke="#263238" stroke-linecap="round" stroke-linejoin="round"/>
<path d="M307.094 155.59L303.552 157.364L299.572 164.008L306.656 182.636L318.834 174.876L331.897 183.294C331.897 183.294 331.897 164.237 330.783 162.016C329.669 159.795 325.251 155.143 325.251 155.143L307.094 155.59Z" fill="white" stroke="#263238" stroke-linecap="round" stroke-linejoin="round"/>
<path d="M305.634 147.089L306.875 160.689C306.875 160.689 314.844 174.646 317.72 175.98C320.595 177.315 325.251 164.455 326.136 162.462C327.022 160.47 327.46 153.816 327.46 153.816C327.46 153.816 319.491 153.587 315.511 150.928C311.531 148.268 305.99 145.389 305.99 145.389L305.634 147.089Z" fill="white" stroke="#263238" stroke-linecap="round" stroke-linejoin="round"/>
<path d="M305.99 145.389L305.634 147.089L306.875 160.689C306.875 160.689 307.268 161.384 307.916 162.471C314.518 161.637 320.979 159.928 327.131 157.389C327.351 155.479 327.46 153.816 327.46 153.816C327.46 153.816 319.491 153.587 315.511 150.928C311.531 148.268 305.99 145.389 305.99 145.389Z" fill="#263238" stroke="#263238" stroke-linecap="round" stroke-linejoin="round"/>
<path d="M304.785 133.088C304.785 133.088 303.507 129.432 300.339 131.397C297.172 133.362 298.075 137.42 299.426 139.349C300.588 141.109 302.309 142.426 304.31 143.087C305.625 143.352 304.785 133.088 304.785 133.088Z" fill="white" stroke="#263238" stroke-linecap="round" stroke-linejoin="round"/>
<path d="M308.108 109.332C308.108 109.332 300.677 110.438 300.129 117.32C299.581 124.203 303.425 142.126 305.606 147.089C307.788 152.052 309.732 153.423 314.132 156.732C318.532 160.04 327.068 158.386 329.277 156.458C331.486 154.529 333.951 149.292 334.507 140.198C334.991 133.964 335.083 127.706 334.781 121.461C334.507 115.977 330.646 111.535 330.646 111.535C330.646 111.535 331.751 107.952 325.424 106.581C319.098 105.21 311.686 107.952 308.108 109.332Z" fill="white" stroke="#263238" stroke-linecap="round" stroke-linejoin="round"/>
<path d="M332.326 147.089V146.239C332.326 145.417 328.747 142.656 325.452 142.108C322.156 141.56 317.236 142.94 315.264 144.037C313.293 145.133 312.79 147.894 312.79 147.894C312.046 147.872 311.314 147.689 310.647 147.356C309.981 147.023 309.394 146.548 308.929 145.965C307.56 144.037 305.634 131.917 306.191 131.085C306.747 130.254 309.769 126.396 309.495 125.025C309.221 123.654 307.843 123.097 307.569 120.885C307.295 118.673 311.147 116.48 311.147 116.48C313.621 114.551 319.673 117.028 323.526 116.754C325.696 116.656 327.796 115.96 329.596 114.743L331.349 116.571L332.262 119.313C332.705 120.023 333.232 120.677 333.832 121.26C334.69 122.11 334.361 121.708 334.845 122.421C334.845 122.073 334.845 121.726 334.799 121.379C334.526 115.895 330.664 111.453 330.664 111.453C330.664 111.453 331.769 107.87 325.443 106.499C319.117 105.128 311.677 107.87 308.098 109.241C308.098 109.241 300.668 110.347 300.12 117.229C299.572 124.111 303.415 142.035 305.597 146.998C307.779 151.961 309.723 153.332 314.123 156.641C318.523 159.949 327.058 158.295 329.268 156.367C330.92 154.913 332.736 151.586 333.768 146.139L332.326 147.089Z" fill="#D1D1D1" stroke="#263238" stroke-linecap="round" stroke-linejoin="round"/>
<path d="M326.803 129.45L328.108 128.325C328.108 128.325 330.326 126.497 333.868 129.239" stroke="#263238" stroke-width="2" stroke-linecap="round" stroke-linejoin="round"/>
<path d="M320.221 139.924C320.221 139.924 321.043 141.852 322.695 141.852C324.187 141.74 325.663 141.464 327.095 141.03L326.547 131.104L326.821 129.449" stroke="#263238" stroke-linecap="round" stroke-linejoin="round"/>
<path d="M318.815 145.326C318.815 145.326 320.203 148.498 321.992 148.781C323.781 149.064 325.032 146.432 325.032 146.432C322.913 146.413 320.811 146.039 318.815 145.326Z" fill="#263238" stroke="#263238" stroke-linecap="round" stroke-linejoin="round"/>
<path d="M326.547 146.24C326.547 146.24 321.444 146.679 317.848 144.467" stroke="#263238" stroke-linecap="round" stroke-linejoin="round"/>
<path d="M320.586 132.045C320.586 133.087 320.039 133.928 319.372 133.928C318.706 133.928 318.149 133.087 318.149 132.045C318.149 131.003 318.697 130.162 319.372 130.162C320.048 130.162 320.586 131.003 320.586 132.045Z" fill="#263238"/>
<path d="M332.326 132.045C332.326 133.087 331.778 133.928 331.102 133.928C330.427 133.928 329.888 133.087 329.888 132.045C329.888 131.003 330.436 130.162 331.102 130.162C331.769 130.162 332.326 131.003 332.326 132.045Z" fill="#263238"/>
<path d="M313.74 129.212C315.916 128.07 318.429 127.746 320.824 128.298" stroke="#263238" stroke-width="2" stroke-linecap="round" stroke-linejoin="round"/>
<path d="M176.054 367.363C176.054 367.363 171.334 404.261 170.449 407.798C169.563 411.335 170.157 417.285 170.157 417.285C172.677 417.865 175.237 418.259 177.815 418.465H183.713C183.713 418.465 187.364 417.551 188.277 417.231C189.19 416.911 192.111 417.532 195.644 417.532C199.176 417.532 211.272 417.825 212.741 416.938C214.211 416.052 214.083 412.524 210.551 409.571C207.018 406.619 198.117 405.212 196.94 403.731L195.762 402.259L193.398 398.128C193.398 398.128 196.401 392.16 195.808 388.915C195.215 385.67 194.046 380.058 194.046 378.861C194.046 377.664 196.109 368.533 196.995 367.052C197.88 365.571 195.808 352.3 188.441 351.706C181.074 351.112 176.346 357.921 176.054 367.363Z" fill="#263238" stroke="#263238" stroke-linecap="round" stroke-linejoin="round"/>
<path d="M207.301 404.554C207.301 404.554 212.604 408.091 214.375 408.685C216.146 409.279 225.275 412.231 226.462 413.703C227.648 415.174 227.931 418.127 227.931 418.127H185.191C185.191 418.127 183.128 417.542 183.713 412.816C184.297 408.091 202.581 401.894 207.301 404.554Z" fill="#666666" stroke="#263238" stroke-linecap="round" stroke-linejoin="round"/>
<path d="M168.386 248.133C168.386 248.133 165.437 267.327 167.801 274.694C169.178 279.075 171.489 283.104 174.575 286.503C174.575 286.503 178.71 331.069 178.71 337.851C178.71 344.633 174.575 354.084 175.168 364.119C175.762 374.155 181.649 403.668 181.649 407.507V413.411L184.306 415.77C184.306 415.77 200.226 407.544 201.404 406.63C203.231 405.595 205.228 404.896 207.301 404.564C208.214 404.564 207.885 403.65 207.301 401.319C206.716 398.988 203.175 396.594 202.581 393.642C201.988 390.689 202.581 380.069 202.873 377.409C203.165 374.749 208.186 354.093 209.063 342.878C209.939 331.663 213.49 309.234 213.49 298.321V265.846L213.782 250.793L168.386 248.133Z" fill="#263238" stroke="#263238" stroke-linecap="round" stroke-linejoin="round"/>
<path d="M174.794 161.777C174.794 161.777 164.232 174.939 161.913 184.225C159.595 193.511 162.945 213.107 163.465 214.917C163.986 216.727 165.784 232.201 165.784 239.677C165.784 247.154 166.295 250.508 169.39 251.285C172.484 252.062 201.851 255.928 207.255 255.672C212.659 255.416 217.561 252.83 218.848 250.252C220.135 247.675 217.561 226.26 215.498 214.14C213.435 202.021 209.108 186.026 208.031 181.126C206.954 176.227 199.012 169.244 197.99 167.974C196.967 166.704 176.355 160.232 176.355 160.232L174.794 161.777Z" fill="white" stroke="#263238" stroke-linecap="round" stroke-linejoin="round"/>
<path d="M203.704 110.081C208.13 112.463 211.844 115.981 214.467 120.272C218.337 126.46 214.467 132.913 214.211 135.491C213.955 138.068 216.037 140.646 217.561 141.889C219.086 143.132 218.072 144.987 216.53 145.764C215.818 146.176 215.028 146.438 214.211 146.532C214.211 146.532 212.148 156.074 211.116 157.884C210.085 159.693 206.999 160.461 204.936 160.461C202.873 160.461 198.501 159.949 198.501 159.949L196.949 169.235L177.888 159.693L178.664 151.696C178.664 151.696 170.932 139.055 169.901 127.932C168.34 111.16 190.888 103.354 203.704 110.081Z" fill="#D1D1D1" stroke="#263238" stroke-linecap="round" stroke-linejoin="round"/>
<path d="M198.501 159.995L194.274 157.271L197.424 163.935L198.501 159.995Z" fill="#263238" stroke="#263238" stroke-linecap="round" stroke-linejoin="round"/>
<path d="M211.682 149.301C211.682 149.301 208.999 148.634 208.031 147.281" stroke="#263238" stroke-linecap="round" stroke-linejoin="round"/>
<path d="M209.601 114.314C207.835 112.644 205.851 111.22 203.704 110.082C190.924 103.355 168.34 111.161 169.928 128.006C170.768 137.036 176.035 147.081 177.98 150.518C179.166 150.664 180.718 150.326 183.329 149.677C187.446 148.644 188.989 143.745 188.989 143.745L190.815 139.102C190.815 139.102 193.389 139.102 194.165 137.036C194.941 134.97 192.878 131.616 195.452 129.816C198.026 128.015 202.152 129.304 201.376 124.661C200.692 120.794 202.362 114.99 209.601 114.314Z" fill="#263238" stroke="#263238" stroke-linecap="round" stroke-linejoin="round"/>
<path d="M193.343 139.84C193.343 139.84 191.8 134.932 187.674 136.998C183.548 139.063 186.387 143.962 188.195 147.317C190.002 150.671 194.119 149.382 194.119 149.382" fill="#D1D1D1"/>
<path d="M193.343 139.84C193.343 139.84 191.8 134.932 187.674 136.998C183.548 139.063 186.387 143.962 188.195 147.317C190.002 150.671 194.119 149.382 194.119 149.382" stroke="#263238" stroke-linecap="round" stroke-linejoin="round"/>
<path d="M211.637 136.002C211.637 136.998 211.29 137.83 210.861 137.83C210.432 137.83 210.094 137.016 210.094 136.002C210.094 134.987 210.432 134.174 210.861 134.174C211.29 134.174 211.637 135.006 211.637 136.002Z" fill="#263238"/>
<path d="M207.511 131.88C207.511 131.88 210.094 128.781 213.18 130.326" stroke="#263238" stroke-linecap="round" stroke-linejoin="round"/>
<path d="M206.716 181.328L213.106 245.262L222.116 249.247L221.587 240.756L209.4 182.653C209.4 182.653 206.452 176.813 206.716 181.328Z" fill="#651FFF" stroke="#263238" stroke-linecap="round" stroke-linejoin="round"/>
<path d="M195.059 171.776L206.716 181.327C206.716 181.327 208.04 177.086 206.981 174.162C205.922 171.237 197.98 167.992 197.98 167.992L195.059 171.776Z" fill="#651FFF" stroke="#263238" stroke-linecap="round" stroke-linejoin="round"/>
<path d="M176.601 156.641L199.788 167.216L196.383 177.087L174.794 161.796L176.601 156.641Z" fill="white" stroke="#263238" stroke-linecap="round" stroke-linejoin="round"/>
<path d="M221.204 194.252C221.204 194.252 227.858 194.197 231.172 197.743C234.486 201.29 235.818 203.94 234.933 207.258C234.047 210.576 231.619 211.243 230.067 211.682C228.516 212.121 226.306 212.349 221.222 205.046C216.137 197.743 217.205 194.535 221.204 194.252Z" fill="white" stroke="#263238" stroke-linecap="round" stroke-linejoin="round"/>
<path d="M172.74 175.981C170.267 179.945 168.847 184.475 168.614 189.143C168.358 196.619 170.157 199.462 172.475 200.23C174.794 200.997 195.406 216.225 201.331 219.058C207.255 221.892 220.82 229.505 224.691 227.184C228.561 224.862 233.445 222.796 233.445 216.088C233.445 209.379 229.584 205.257 227.265 202.679C224.946 200.102 210.833 191.711 206.479 187.333C202.125 182.955 193.088 175.725 191.545 175.451" fill="white"/>
<path d="M172.74 175.981C170.267 179.945 168.847 184.475 168.614 189.143C168.358 196.619 170.157 199.462 172.475 200.23C174.794 200.997 195.406 216.225 201.331 219.058C207.255 221.892 220.82 229.505 224.691 227.184C228.561 224.862 233.445 222.796 233.445 216.088C233.445 209.379 229.584 205.257 227.265 202.679C224.946 200.102 210.833 191.711 206.479 187.333C202.125 182.955 193.088 175.725 191.545 175.451" stroke="#263238" stroke-linecap="round" stroke-linejoin="round"/>
<path d="M221.204 194.252C221.204 194.252 219.378 192.113 218.209 192.259C217.041 192.405 215.644 197.962 216.931 199.571C218.218 201.18 219.779 201.143 220.062 199.717C220.345 198.292 221.487 196.39 221.204 194.252Z" fill="#D1D1D1" stroke="#263238" stroke-linecap="round" stroke-linejoin="round"/>
<path d="M223.915 196.253C223.915 196.253 222.682 194.827 221.916 194.918C221.149 195.01 220.209 198.721 221.067 199.762C221.925 200.804 222.965 200.814 223.157 199.863C223.349 198.912 224.097 197.679 223.915 196.253Z" fill="#D1D1D1" stroke="#263238" stroke-linecap="round" stroke-linejoin="round"/>
<path d="M217.351 191.254C217.351 191.254 215.526 189.115 214.366 189.261C213.207 189.407 211.801 194.964 213.079 196.573C214.357 198.182 215.927 198.145 216.219 196.719C216.511 195.293 217.643 193.401 217.351 191.254Z" fill="#D1D1D1" stroke="#263238" stroke-linecap="round" stroke-linejoin="round"/>
<path d="M213.654 187.972C213.654 187.972 211.828 185.834 210.66 185.98C209.492 186.126 208.095 191.683 209.373 193.292C210.651 194.9 212.221 194.864 212.513 193.438C212.805 192.012 213.937 190.111 213.654 187.972Z" fill="#D1D1D1" stroke="#263238" stroke-linecap="round" stroke-linejoin="round"/>
<path d="M181.065 205.933C181.065 205.933 172.849 205.933 168.687 203.867L181.065 205.933Z" fill="white"/>
<path d="M181.065 205.933C181.065 205.933 172.849 205.933 168.687 203.867" stroke="#263238" stroke-linecap="round" stroke-linejoin="round"/>
<path d="M166.341 93.5564V108.025H89.7339V51.0371H95.7039" stroke="#263238" stroke-linecap="round" stroke-linejoin="round"/>
<path d="M102.076 51.0371H166.341V89.3063" stroke="#263238" stroke-linecap="round" stroke-linejoin="round"/>
<path d="M166.341 96.5098H89.7339V108.026H166.341V96.5098Z" stroke="#263238" stroke-linecap="round" stroke-linejoin="round"/>
<path d="M160.909 100.211H95.1745V104.324H160.909V100.211Z" stroke="#263238" stroke-linecap="round" stroke-linejoin="round"/>
<path d="M142.652 75.049L117.822 60.6992V89.408L142.652 75.049Z" stroke="#263238" stroke-linecap="round" stroke-linejoin="round"/>
<path d="M488.26 49.7305C493.81 53.063 498.395 57.7889 501.56 63.4405" stroke="#263238" stroke-linecap="round" stroke-linejoin="round"/>
<path d="M439.997 103.994C435.028 97.4976 432.35 89.5341 432.384 81.3507C432.417 73.1674 435.16 65.2263 440.183 58.7707C445.206 52.3151 452.226 47.7095 460.142 45.675C468.059 43.6405 476.426 44.2921 483.933 47.5275" stroke="#263238" stroke-linecap="round" stroke-linejoin="round"/>
<path d="M448.368 111.929C446.904 110.922 445.516 109.81 444.215 108.602" stroke="#263238" stroke-linecap="round" stroke-linejoin="round"/>
<path d="M506.216 80.1035C506.216 80.5605 506.216 81.0175 506.216 81.4745C506.21 87.8254 504.571 94.0679 501.457 99.6005C498.342 105.133 493.857 109.769 488.434 113.063C483.01 116.356 476.831 118.195 470.492 118.403C464.152 118.611 457.866 117.181 452.239 114.251" stroke="#263238" stroke-linecap="round" stroke-linejoin="round"/>
<path d="M442.845 79.8564C443.119 75.1278 444.658 70.5599 447.3 66.6309" stroke="#263238" stroke-linecap="round" stroke-linejoin="round"/>
<path d="M450.559 62.6998C454.819 58.4408 460.402 55.763 466.387 55.1081C472.372 54.4532 478.4 55.8603 483.479 59.0972C488.558 62.3341 492.383 67.2076 494.323 72.9137C496.264 78.6199 496.204 84.8178 494.153 90.4852C492.103 96.1526 488.184 100.951 483.044 104.089C477.903 107.227 471.848 108.516 465.878 107.746C459.907 106.975 454.377 104.189 450.199 99.8483C446.022 95.5075 443.448 89.8709 442.9 83.868" stroke="#263238" stroke-linecap="round" stroke-linejoin="round"/>
<path d="M480.026 92.2039C477.339 94.8947 473.741 96.4767 469.944 96.6362C466.148 96.7957 462.43 95.5211 459.527 93.0651C456.625 90.609 454.75 87.1508 454.275 83.376C453.799 79.6011 454.758 75.7851 456.96 72.6844C459.162 69.5836 462.447 67.4245 466.165 66.635C469.882 65.8455 473.76 66.4832 477.03 68.4217C480.3 70.3602 482.723 73.458 483.819 77.1011C484.915 80.7442 484.604 84.6667 482.947 88.0909" stroke="#263238" stroke-linecap="round" stroke-linejoin="round"/>
<path d="M469.309 88.1092C472.969 88.1092 475.936 85.1383 475.936 81.4735C475.936 77.8088 472.969 74.8379 469.309 74.8379C465.649 74.8379 462.682 77.8088 462.682 81.4735C462.682 85.1383 465.649 88.1092 469.309 88.1092Z" stroke="#263238" stroke-linecap="round" stroke-linejoin="round"/>
<path d="M499.004 72.3253L507.01 77.5716L523.295 72.8462L521.269 65.8633L499.004 72.3253Z" stroke="#263238" stroke-linecap="round" stroke-linejoin="round"/>
<path d="M498.867 71.8506L502.829 63.131L519.105 58.3965L521.132 65.3886L498.867 71.8506Z" stroke="#263238" stroke-linecap="round" stroke-linejoin="round"/>
<path d="M521.406 65.5332L470.998 80.1755" stroke="#263238" stroke-width="2" stroke-linecap="round" stroke-linejoin="round"/>
<path d="M277.618 72.2617H267.321V95.0477H277.618V72.2617Z" stroke="#263238" stroke-linecap="round" stroke-linejoin="round"/>
<path d="M291.703 59.2461H281.406V95.0475H291.703V59.2461Z" stroke="#263238" stroke-linecap="round" stroke-linejoin="round"/>
<path d="M305.789 65.2051H295.492V95.038H305.789V65.2051Z" stroke="#263238" stroke-linecap="round" stroke-linejoin="round"/>
<path d="M319.874 51.1016H309.577V95.0375H319.874V51.1016Z" stroke="#263238" stroke-linecap="round" stroke-linejoin="round"/>
<path d="M333.96 45.1426H323.663V95.047H333.96V45.1426Z" stroke="#263238" stroke-linecap="round" stroke-linejoin="round"/>
<path d="M265.495 94.9375H261.378" stroke="#263238" stroke-linecap="round" stroke-linejoin="round"/>
<path d="M340.614 94.9375H336.497" stroke="#263238" stroke-linecap="round" stroke-linejoin="round"/>
<path d="M265.495 90.0391H261.378" stroke="#263238" stroke-linecap="round" stroke-linejoin="round"/>
<path d="M340.614 90.0391H336.497" stroke="#263238" stroke-linecap="round" stroke-linejoin="round"/>
<path d="M265.495 85.1484H261.378" stroke="#263238" stroke-linecap="round" stroke-linejoin="round"/>
<path d="M340.614 85.1484H336.497" stroke="#263238" stroke-linecap="round" stroke-linejoin="round"/>
<path d="M265.495 80.25H261.378" stroke="#263238" stroke-linecap="round" stroke-linejoin="round"/>
<path d="M340.614 80.25H336.497" stroke="#263238" stroke-linecap="round" stroke-linejoin="round"/>
<path d="M265.495 75.3594H261.378" stroke="#263238" stroke-linecap="round" stroke-linejoin="round"/>
<path d="M340.614 75.3594H336.497" stroke="#263238" stroke-linecap="round" stroke-linejoin="round"/>
<path d="M265.495 70.4609H261.378" stroke="#263238" stroke-linecap="round" stroke-linejoin="round"/>
<path d="M340.614 70.4609H336.497" stroke="#263238" stroke-linecap="round" stroke-linejoin="round"/>
<path d="M265.495 65.5703H261.378" stroke="#263238" stroke-linecap="round" stroke-linejoin="round"/>
<path d="M340.614 65.5703H336.497" stroke="#263238" stroke-linecap="round" stroke-linejoin="round"/>
<path d="M265.495 60.6719H261.378" stroke="#263238" stroke-linecap="round" stroke-linejoin="round"/>
<path d="M340.614 60.6719H336.497" stroke="#263238" stroke-linecap="round" stroke-linejoin="round"/>
<path d="M265.495 55.7812H261.378" stroke="#263238" stroke-linecap="round" stroke-linejoin="round"/>
<path d="M340.614 55.7812H336.497" stroke="#263238" stroke-linecap="round" stroke-linejoin="round"/>
<path d="M265.495 50.8828H261.378" stroke="#263238" stroke-linecap="round" stroke-linejoin="round"/>
<path d="M340.614 50.8828H336.497" stroke="#263238" stroke-linecap="round" stroke-linejoin="round"/>
<path d="M271.329 63.9793L285.934 47.9843L300.54 60.3233L313.776 42.5003L323.188 36.3125" stroke="#263238" stroke-width="2" stroke-linecap="round" stroke-linejoin="round"/>
<path d="M324.849 41.7609L329.751 31.9902L318.852 32.6209L324.849 41.7609Z" fill="#263238"/>
<path d="M13.6929 418.127H627.133" stroke="#263238" stroke-linecap="round" stroke-linejoin="round"/>
</svg>
