<svg width="248" height="248" viewBox="0 0 248 248" fill="none" xmlns="http://www.w3.org/2000/svg">
<g opacity="0.2">
<path d="M57.0946 17.4551H79.1616V46.6447H51.5294" stroke="black" stroke-linecap="round" stroke-linejoin="round"/>
<path d="M48.6427 46.6447H41.9219V17.4551H54.2078" stroke="black" stroke-linecap="round" stroke-linejoin="round"/>
<path d="M48.8213 25.9277H44.7342V30.0148H48.8213V25.9277Z" stroke="black" stroke-linecap="round" stroke-linejoin="round"/>
<path d="M54.3269 25.9277H50.2398V30.0148H54.3269V25.9277Z" stroke="black" stroke-linecap="round" stroke-linejoin="round"/>
<path d="M59.8325 25.9277H55.7454V30.0148H59.8325V25.9277Z" stroke="black" stroke-linecap="round" stroke-linejoin="round"/>
<path d="M65.3381 25.9277H61.251V30.0148H65.3381V25.9277Z" stroke="black" stroke-linecap="round" stroke-linejoin="round"/>
<path d="M70.8486 25.9277H66.7616V30.0148H70.8486V25.9277Z" stroke="black" stroke-linecap="round" stroke-linejoin="round"/>
<path d="M76.3542 25.9277H72.2672V30.0148H76.3542V25.9277Z" stroke="black" stroke-linecap="round" stroke-linejoin="round"/>
<path d="M48.8213 31.6113H44.7342V35.6984H48.8213V31.6113Z" stroke="black" stroke-linecap="round" stroke-linejoin="round"/>
<path d="M54.3269 31.6113H50.2398V35.6984H54.3269V31.6113Z" stroke="black" stroke-linecap="round" stroke-linejoin="round"/>
<path d="M59.8325 31.6113H55.7454V35.6984H59.8325V31.6113Z" stroke="black" stroke-linecap="round" stroke-linejoin="round"/>
<path d="M65.3381 31.6113H61.251V35.6984H65.3381V31.6113Z" stroke="black" stroke-linecap="round" stroke-linejoin="round"/>
<path d="M70.8486 31.6113H66.7616V35.6984H70.8486V31.6113Z" stroke="black" stroke-linecap="round" stroke-linejoin="round"/>
<path d="M76.3542 31.6113H72.2672V35.6984H76.3542V31.6113Z" stroke="black" stroke-linecap="round" stroke-linejoin="round"/>
<path d="M48.8213 37.2949H44.7342V41.382H48.8213V37.2949Z" stroke="black" stroke-linecap="round" stroke-linejoin="round"/>
<path d="M54.3269 37.2949H50.2398V41.382H54.3269V37.2949Z" stroke="black" stroke-linecap="round" stroke-linejoin="round"/>
<path d="M59.8325 37.2949H55.7454V41.382H59.8325V37.2949Z" stroke="black" stroke-linecap="round" stroke-linejoin="round"/>
<path d="M65.3381 37.2949H61.251V41.382H65.3381V37.2949Z" stroke="black" stroke-linecap="round" stroke-linejoin="round"/>
<path d="M70.8486 37.2949H66.7616V41.382H70.8486V37.2949Z" stroke="black" stroke-linecap="round" stroke-linejoin="round"/>
<path d="M76.3542 37.2949H72.2672V41.382H76.3542V37.2949Z" stroke="black" stroke-linecap="round" stroke-linejoin="round"/>
<path d="M76.508 21.4824H44.888V22.901H76.508V21.4824Z" stroke="black" stroke-linecap="round" stroke-linejoin="round"/>
</g>
<g opacity="0.2">
<path d="M219.336 50.8164H233.259V80.011H229.643" stroke="black" stroke-linecap="round" stroke-linejoin="round"/>
<path d="M227.168 80.011H196.014V50.8164H216.038" stroke="black" stroke-linecap="round" stroke-linejoin="round"/>
<path d="M202.914 59.2891H198.827V63.3761H202.914V59.2891Z" stroke="black" stroke-linecap="round" stroke-linejoin="round"/>
<path d="M208.424 59.2891H204.337V63.3761H208.424V59.2891Z" stroke="black" stroke-linecap="round" stroke-linejoin="round"/>
<path d="M213.93 59.2891H209.843V63.3761H213.93V59.2891Z" stroke="black" stroke-linecap="round" stroke-linejoin="round"/>
<path d="M219.435 59.2891H215.348V63.3761H219.435V59.2891Z" stroke="black" stroke-linecap="round" stroke-linejoin="round"/>
<path d="M224.941 59.2891H220.854V63.3761H224.941V59.2891Z" stroke="black" stroke-linecap="round" stroke-linejoin="round"/>
<path d="M230.447 59.2891H226.36V63.3761H230.447V59.2891Z" stroke="black" stroke-linecap="round" stroke-linejoin="round"/>
<path d="M202.914 64.9727H198.827V69.0597H202.914V64.9727Z" stroke="black" stroke-linecap="round" stroke-linejoin="round"/>
<path d="M208.424 64.9727H204.337V69.0597H208.424V64.9727Z" stroke="black" stroke-linecap="round" stroke-linejoin="round"/>
<path d="M213.93 64.9727H209.843V69.0597H213.93V64.9727Z" stroke="black" stroke-linecap="round" stroke-linejoin="round"/>
<path d="M219.435 64.9727H215.348V69.0597H219.435V64.9727Z" stroke="black" stroke-linecap="round" stroke-linejoin="round"/>
<path d="M224.941 64.9727H220.854V69.0597H224.941V64.9727Z" stroke="black" stroke-linecap="round" stroke-linejoin="round"/>
<path d="M230.447 64.9727H226.36V69.0597H230.447V64.9727Z" stroke="black" stroke-linecap="round" stroke-linejoin="round"/>
<path d="M202.914 70.6562H198.827V74.7433H202.914V70.6562Z" stroke="black" stroke-linecap="round" stroke-linejoin="round"/>
<path d="M208.424 70.6562H204.337V74.7433H208.424V70.6562Z" stroke="black" stroke-linecap="round" stroke-linejoin="round"/>
<path d="M213.93 70.6562H209.843V74.7433H213.93V70.6562Z" stroke="black" stroke-linecap="round" stroke-linejoin="round"/>
<path d="M219.435 70.6562H215.348V74.7433H219.435V70.6562Z" stroke="black" stroke-linecap="round" stroke-linejoin="round"/>
<path d="M224.941 70.6562H220.854V74.7433H224.941V70.6562Z" stroke="black" stroke-linecap="round" stroke-linejoin="round"/>
<path d="M230.447 70.6562H226.36V74.7433H230.447V70.6562Z" stroke="black" stroke-linecap="round" stroke-linejoin="round"/>
<path d="M230.605 54.8496H198.985V56.2731H230.605V54.8496Z" stroke="black" stroke-linecap="round" stroke-linejoin="round"/>
</g>
<g opacity="0.2">
<path d="M23.5104 97.5002V82.2681C23.5078 82.0176 23.5549 81.7691 23.6489 81.5369C23.7429 81.3047 23.8821 81.0935 24.0583 80.9155C24.2345 80.7374 24.4443 80.5961 24.6754 80.4996C24.9066 80.4032 25.1546 80.3535 25.4051 80.3535H49.2131C49.717 80.3535 50.2001 80.5537 50.5564 80.9099C50.9127 81.2662 51.1128 81.7494 51.1128 82.2532V104.162H23.5104V100.799" stroke="black" stroke-linecap="round" stroke-linejoin="round"/>
<path d="M23.8526 85.541H50.7507" stroke="black" stroke-linecap="round" stroke-linejoin="round"/>
<path d="M30.2957 90.0254H26.2682V93.1254H48.3352V90.0254H34.4174" stroke="black" stroke-linecap="round" stroke-linejoin="round"/>
<path d="M48.3352 96.5781H26.2682V99.6831H48.3352V96.5781Z" stroke="black" stroke-linecap="round" stroke-linejoin="round"/>
</g>
<g opacity="0.2">
<path d="M137.501 208.32H161.309C161.812 208.32 162.294 208.52 162.649 208.875C163.004 209.231 163.204 209.713 163.204 210.215V232.128H135.606V210.235C135.604 209.984 135.651 209.736 135.745 209.504C135.839 209.272 135.978 209.06 136.154 208.882C136.33 208.704 136.54 208.563 136.771 208.466C137.003 208.37 137.251 208.32 137.501 208.32V208.32Z" stroke="black" stroke-linecap="round" stroke-linejoin="round"/>
<path d="M135.949 213.508H162.847" stroke="black" stroke-linecap="round" stroke-linejoin="round"/>
<path d="M160.431 217.992H138.364V221.097H160.431V217.992Z" stroke="black" stroke-linecap="round" stroke-linejoin="round"/>
<path d="M160.431 224.545H138.364V227.65H160.431V224.545Z" stroke="black" stroke-linecap="round" stroke-linejoin="round"/>
</g>
<g opacity="0.2">
<path d="M142.848 22.6723C139.888 19.8546 135.93 18.328 131.845 18.4285C127.76 18.5289 123.881 20.2482 121.064 23.208C118.246 26.1678 116.719 30.1258 116.82 34.2111C116.92 38.2965 118.64 42.1746 121.599 44.9923" stroke="black" stroke-linecap="round" stroke-linejoin="round"/>
<path d="M123.335 46.4908C126.393 48.7535 130.18 49.805 133.966 49.4429C137.753 49.0808 141.271 47.3307 143.845 44.5295C146.418 41.7283 147.864 38.0741 147.904 34.2705C147.945 30.4669 146.577 26.7829 144.063 23.9277" stroke="black" stroke-linecap="round" stroke-linejoin="round"/>
<path d="M139.555 34.1094H132.506V46.0779" stroke="black" stroke-linecap="round" stroke-linejoin="round"/>
</g>
<g opacity="0.2">
<path d="M23.4658 44.7695C22.3967 44.9385 21.3749 45.3296 20.4662 45.9176C19.5575 46.5056 18.7821 47.2775 18.1899 48.1835C17.5978 49.0895 17.2021 50.1096 17.0283 51.1779C16.8544 52.2462 16.9064 53.339 17.1808 54.386C17.4551 55.433 17.9458 56.4109 18.6212 57.2567C19.2967 58.1024 20.1418 58.7973 21.1022 59.2965C22.0625 59.7956 23.1168 60.088 24.1971 60.1548C25.2774 60.2216 26.3597 60.0613 27.3742 59.6843" stroke="black" stroke-linecap="round" stroke-linejoin="round"/>
<path d="M29.8939 58.1361C30.9804 57.1345 31.758 55.8431 32.135 54.4142C32.512 52.9853 32.4728 51.4785 32.0219 50.0711C31.571 48.6638 30.7273 47.4147 29.5902 46.4709C28.453 45.5271 27.0698 44.928 25.6035 44.7441" stroke="black" stroke-linecap="round" stroke-linejoin="round"/>
<path d="M24.6562 48.4785V56.3699" stroke="black" stroke-miterlimit="10"/>
<path d="M28.6043 52.4277H20.708" stroke="black" stroke-miterlimit="10"/>
</g>
<g opacity="0.2">
<path d="M233.135 120.544C237.414 120.544 240.882 117.075 240.882 112.796C240.882 108.518 237.414 105.049 233.135 105.049C228.856 105.049 225.387 108.518 225.387 112.796C225.387 117.075 228.856 120.544 233.135 120.544Z" stroke="black" stroke-linecap="round" stroke-linejoin="round"/>
<path d="M233.135 108.848V116.744" stroke="black" stroke-miterlimit="10"/>
<path d="M237.078 112.797H229.187" stroke="black" stroke-miterlimit="10"/>
</g>
<path d="M218.736 216.257H40.672L40.8803 69.6736C40.8803 68.2621 41.441 66.9085 42.4391 65.9104C43.4372 64.9123 44.7909 64.3516 46.2024 64.3516H213.622C214.321 64.3509 215.014 64.4881 215.66 64.7554C216.306 65.0226 216.893 65.4146 217.387 65.9089C217.881 66.4032 218.273 66.9902 218.541 67.6362C218.808 68.2822 218.945 68.9746 218.944 69.6736L218.736 216.257Z" fill="white" stroke="#263238" stroke-linecap="round" stroke-linejoin="round"/>
<path d="M89.6371 77.377H64.356V82.58H89.6371V77.377Z" stroke="#263238" stroke-linecap="round" stroke-linejoin="round"/>
<path d="M166.279 84.4648H212.382" stroke="#263238" stroke-linecap="round" stroke-linejoin="round"/>
<path d="M50.7656 84.4648H163.591" stroke="#263238" stroke-linecap="round" stroke-linejoin="round"/>
<path d="M213.622 64.3516H46.2024C44.7909 64.3516 43.4372 64.9123 42.4391 65.9104C41.441 66.9085 40.8803 68.2621 40.8803 69.6736V73.726H218.944V69.6736C218.945 68.9746 218.808 68.2822 218.541 67.6362C218.273 66.9902 217.881 66.4032 217.387 65.9089C216.893 65.4146 216.306 65.0226 215.66 64.7554C215.014 64.4881 214.321 64.3509 213.622 64.3516Z" fill="#263238" stroke="#263238" stroke-linecap="round" stroke-linejoin="round"/>
<path d="M50.592 69.5543C50.592 69.2365 50.4977 68.9258 50.3212 68.6615C50.1446 68.3972 49.8936 68.1912 49.5999 68.0696C49.3063 67.948 48.9832 67.9161 48.6714 67.9781C48.3597 68.0402 48.0734 68.1932 47.8486 68.418C47.6239 68.6427 47.4708 68.929 47.4088 69.2408C47.3468 69.5525 47.3786 69.8756 47.5002 70.1693C47.6219 70.4629 47.8279 70.7139 48.0921 70.8905C48.3564 71.0671 48.6671 71.1613 48.985 71.1613C49.4112 71.1613 49.8199 70.992 50.1213 70.6907C50.4227 70.3893 50.592 69.9805 50.592 69.5543Z" fill="white" stroke="#263238" stroke-linecap="round" stroke-linejoin="round"/>
<path d="M57.0053 69.5543C57.0053 69.2365 56.911 68.9258 56.7344 68.6615C56.5579 68.3972 56.3069 68.1912 56.0132 68.0696C55.7196 67.948 55.3965 67.9161 55.0847 67.9781C54.773 68.0402 54.4866 68.1932 54.2619 68.418C54.0371 68.6427 53.8841 68.929 53.8221 69.2408C53.7601 69.5525 53.7919 69.8756 53.9135 70.1693C54.0352 70.4629 54.2411 70.7139 54.5054 70.8905C54.7697 71.0671 55.0804 71.1613 55.3982 71.1613C55.8245 71.1613 56.2332 70.992 56.5346 70.6907C56.836 70.3893 57.0053 69.9805 57.0053 69.5543Z" fill="white" stroke="#263238" stroke-linecap="round" stroke-linejoin="round"/>
<path d="M61.8214 71.1613C62.709 71.1613 63.4285 70.4418 63.4285 69.5543C63.4285 68.6668 62.709 67.9473 61.8214 67.9473C60.9339 67.9473 60.2144 68.6668 60.2144 69.5543C60.2144 70.4418 60.9339 71.1613 61.8214 71.1613Z" fill="white" stroke="#263238" stroke-linecap="round" stroke-linejoin="round"/>
<path d="M51.1574 77.6836H58.776" stroke="#263238" stroke-linecap="round" stroke-linejoin="round"/>
<path d="M51.1574 79.7324H58.776" stroke="#263238" stroke-linecap="round" stroke-linejoin="round"/>
<path d="M51.1574 81.7773H58.776" stroke="#263238" stroke-linecap="round" stroke-linejoin="round"/>
<path d="M52.576 95.7592V89.1922H51.2318V88.4531H54.7386V89.1922H53.3894V95.7592H52.576Z" fill="#263238"/>
<path d="M55.7206 94.2849L55.4379 95.7729H54.684L56.0827 88.4668H57.2632L58.6619 95.7729H57.8485L57.5658 94.2849H55.7206ZM55.8248 93.5855H57.4517L56.6283 89.3695L55.8248 93.5855Z" fill="#263238"/>
<path d="M62.4613 90.2042V90.4026H61.6875V90.1645C61.6875 89.5048 61.4395 89.1179 60.8542 89.1179C60.269 89.1179 60.021 89.5048 60.021 90.1546C60.021 91.7914 62.4712 91.9501 62.4712 94.0036C62.4712 95.1096 61.9405 95.8288 60.8245 95.8288C59.7085 95.8288 59.1827 95.1096 59.1827 94.0036V93.5869H59.9466V94.0482C59.9466 94.7029 60.2194 95.0898 60.8046 95.0898C61.3899 95.0898 61.6578 94.7029 61.6578 94.0482C61.6578 92.4164 59.2174 92.2626 59.2174 90.2042C59.2174 89.0783 59.7134 88.3789 60.8344 88.3789C61.9554 88.3789 62.4613 89.0981 62.4613 90.2042Z" fill="#263238"/>
<path d="M64.4254 92.5848L63.9939 93.304V95.7592H63.1805V88.4531H63.984V91.9797L65.9283 88.4531H66.7517L64.9165 91.7614L66.8261 95.7294H65.968L64.4254 92.5848Z" fill="#263238"/>
<path d="M70.561 90.2042V90.4026H69.7872V90.1645C69.7872 89.5048 69.5392 89.1179 68.9539 89.1179C68.3686 89.1179 68.1206 89.5048 68.1206 90.1546C68.1206 91.7914 70.5709 91.9501 70.5709 94.0036C70.5709 95.1096 70.0402 95.8288 68.9242 95.8288C67.8082 95.8288 67.2824 95.1096 67.2824 94.0036V93.5869H68.0462V94.0482C68.0462 94.7029 68.319 95.0898 68.9043 95.0898C69.4896 95.0898 69.7574 94.7029 69.7574 94.0482C69.7574 92.4164 67.3171 92.2626 67.3171 90.2042C67.3171 89.0783 67.8379 88.3789 68.9341 88.3789C70.0302 88.3789 70.561 89.0981 70.561 90.2042Z" fill="#263238"/>
<path d="M162.941 136.773H50.8896V166.712H162.941V136.773Z" fill="white" stroke="#263238" stroke-linecap="round" stroke-linejoin="round"/>
<path d="M137.233 144.584C137.729 144.584 137.933 144.872 137.933 145.343V145.72C137.933 146.216 137.7 146.474 137.208 146.474H136.896V147.709H136.549V144.584H137.233ZM137.208 146.161C137.466 146.161 137.59 146.042 137.59 145.745V145.328C137.59 145.04 137.486 144.896 137.233 144.896H136.896V146.161H137.208Z" fill="#263238"/>
<path d="M138.88 144.584C139.376 144.584 139.579 144.832 139.579 145.298V145.551C139.6 145.687 139.573 145.825 139.502 145.943C139.431 146.061 139.322 146.15 139.192 146.196C139.475 146.28 139.584 146.508 139.584 146.846V147.342C139.575 147.47 139.595 147.599 139.644 147.719H139.292C139.245 147.597 139.226 147.467 139.237 147.337V146.841C139.237 146.489 139.068 146.38 138.781 146.38H138.533V147.714H138.186V144.589L138.88 144.584ZM138.796 146.072C139.068 146.072 139.237 145.983 139.237 145.64V145.328C139.237 145.045 139.133 144.896 138.875 144.896H138.533V146.057L138.796 146.072Z" fill="#263238"/>
<path d="M139.936 145.33C139.936 144.834 140.175 144.541 140.651 144.541C141.127 144.541 141.37 144.849 141.37 145.33V146.947C141.378 147.046 141.366 147.146 141.333 147.24C141.301 147.334 141.25 147.42 141.182 147.493C141.115 147.566 141.033 147.625 140.942 147.665C140.851 147.705 140.753 147.725 140.653 147.725C140.554 147.725 140.455 147.705 140.364 147.665C140.273 147.625 140.191 147.566 140.124 147.493C140.057 147.42 140.005 147.334 139.973 147.24C139.941 147.146 139.928 147.046 139.936 146.947V145.33ZM140.284 146.961C140.284 147.249 140.403 147.413 140.651 147.413C140.899 147.413 141.023 147.249 141.023 146.961V145.33C141.023 145.047 140.909 144.878 140.651 144.878C140.393 144.878 140.284 145.047 140.284 145.33V146.961Z" fill="#263238"/>
<path d="M143.081 145.33V145.597H142.749V145.33C142.749 145.047 142.64 144.878 142.382 144.878C142.124 144.878 142.02 145.047 142.02 145.33V146.981C142.02 147.264 142.134 147.433 142.382 147.433C142.63 147.433 142.749 147.264 142.749 146.981V146.356H142.426V146.044H143.081V146.966C143.081 147.462 142.858 147.75 142.377 147.75C141.896 147.75 141.672 147.438 141.672 146.966V145.33C141.672 144.834 141.896 144.541 142.377 144.541C142.858 144.541 143.081 144.863 143.081 145.33Z" fill="#263238"/>
<path d="M144.108 144.584C144.604 144.584 144.802 144.832 144.802 145.298V145.551C144.823 145.687 144.795 145.825 144.725 145.943C144.654 146.061 144.545 146.15 144.415 146.196C144.703 146.28 144.807 146.508 144.807 146.846V147.342C144.797 147.471 144.819 147.6 144.872 147.719H144.52C144.47 147.598 144.45 147.467 144.46 147.337V146.841C144.46 146.489 144.296 146.38 144.004 146.38H143.761V147.714H143.408V144.589L144.108 144.584ZM144.019 146.072C144.296 146.072 144.46 145.983 144.46 145.64V145.328C144.46 145.045 144.356 144.896 144.098 144.896H143.761V146.057L144.019 146.072Z" fill="#263238"/>
<path d="M146.28 145.968V146.28H145.516V147.391H146.454V147.709H145.169V144.584H146.454V144.896H145.516V145.968H146.28Z" fill="#263238"/>
<path d="M148.13 145.328V145.413H147.808V145.328C147.808 145.046 147.704 144.882 147.451 144.882C147.198 144.882 147.094 145.046 147.094 145.323C147.094 146.028 148.145 146.092 148.145 146.97C148.145 147.466 147.917 147.754 147.436 147.754C146.955 147.754 146.737 147.446 146.737 146.97V146.792H147.064V146.99C147.064 147.273 147.178 147.436 147.431 147.436C147.684 147.436 147.793 147.273 147.793 146.99C147.793 146.296 146.752 146.226 146.752 145.348C146.752 144.852 146.975 144.564 147.441 144.564C147.907 144.564 148.13 144.857 148.13 145.328Z" fill="#263238"/>
<path d="M149.792 145.328V145.413H149.46V145.328C149.46 145.046 149.351 144.882 149.103 144.882C148.855 144.882 148.745 145.046 148.745 145.323C148.745 146.028 149.792 146.092 149.792 146.97C149.792 147.466 149.569 147.754 149.088 147.754C148.607 147.754 148.388 147.446 148.388 146.97V146.792H148.716V146.99C148.716 147.273 148.83 147.436 149.078 147.436C149.326 147.436 149.445 147.273 149.445 146.99C149.445 146.296 148.403 146.226 148.403 145.348C148.403 144.852 148.626 144.564 149.093 144.564C149.559 144.564 149.792 144.857 149.792 145.328Z" fill="#263238"/>
<path d="M114.839 144.584C115.335 144.584 115.548 144.877 115.548 145.358V146.935C115.548 147.431 115.325 147.709 114.839 147.709H114.105V144.584H114.839ZM114.839 147.391C115.087 147.391 115.211 147.233 115.211 146.95V145.328C115.211 145.04 115.087 144.882 114.834 144.882H114.457V147.362L114.839 147.391Z" fill="#263238"/>
<path d="M116.987 145.968V146.28H116.223V147.391H117.16V147.709H115.876V144.584H117.16V144.896H116.223V145.968H116.987Z" fill="#263238"/>
<path d="M117.835 147.079L117.711 147.709H117.393L117.988 144.584H118.484L119.085 147.709H118.732L118.613 147.079H117.835ZM117.879 146.776H118.574L118.222 144.976L117.879 146.776Z" fill="#263238"/>
<path d="M120.096 144.584C120.592 144.584 120.806 144.877 120.806 145.358V146.935C120.806 147.431 120.583 147.709 120.096 147.709H119.362V144.584H120.096ZM120.096 147.391C120.349 147.391 120.468 147.233 120.468 146.95V145.328C120.468 145.04 120.349 144.882 120.092 144.882H119.72V147.362L120.096 147.391Z" fill="#263238"/>
<path d="M121.133 147.709V144.584H121.48V147.391H122.373V147.709H121.133Z" fill="#263238"/>
<path d="M123.008 144.584V147.709H122.661V144.584H123.008Z" fill="#263238"/>
<path d="M123.648 147.709H123.335V144.584H123.777L124.501 146.841V144.584H124.808V147.709H124.451L123.648 145.179V147.709Z" fill="#263238"/>
<path d="M126.282 145.968V146.28H125.518V147.391H126.48V147.709H125.19V144.584H126.48V144.896H125.543V145.968H126.282Z" fill="#263238"/>
<path d="M94.2946 148.156H100.822" stroke="#263238" stroke-linecap="round" stroke-linejoin="round"/>
<path d="M74.7224 148.156H91.9485" stroke="#263238" stroke-linecap="round" stroke-linejoin="round"/>
<path d="M56.4398 148.156H72.1134" stroke="#263238" stroke-linecap="round" stroke-linejoin="round"/>
<path d="M84.6424 155.576H89.6272" stroke="#263238" stroke-linecap="round" stroke-linejoin="round"/>
<path d="M71.8506 155.576H80.4661" stroke="#263238" stroke-linecap="round" stroke-linejoin="round"/>
<path d="M65.591 155.576H69.2416" stroke="#263238" stroke-linecap="round" stroke-linejoin="round"/>
<path d="M56.4398 155.576H63.5029" stroke="#263238" stroke-linecap="round" stroke-linejoin="round"/>
<path d="M158.789 154.192C158.788 154.812 158.541 155.407 158.102 155.846C157.664 156.285 157.069 156.532 156.448 156.533H131.872C131.25 156.533 130.654 156.286 130.214 155.848C129.775 155.409 129.527 154.813 129.525 154.192C129.528 153.57 129.776 152.975 130.215 152.536C130.655 152.096 131.25 151.848 131.872 151.846H156.448C156.756 151.846 157.061 151.906 157.345 152.024C157.63 152.142 157.888 152.315 158.105 152.533C158.323 152.751 158.495 153.01 158.613 153.294C158.73 153.579 158.79 153.884 158.789 154.192Z" fill="white" stroke="#263238" stroke-linecap="round" stroke-linejoin="round"/>
<path d="M151.464 151.846V156.533H131.872C131.25 156.533 130.654 156.286 130.214 155.848C129.775 155.409 129.527 154.813 129.525 154.192C129.528 153.57 129.776 152.975 130.215 152.536C130.655 152.096 131.25 151.848 131.872 151.846H151.464Z" fill="#651FFF" stroke="#263238" stroke-linecap="round" stroke-linejoin="round"/>
<path d="M124.873 151.846H115.171C113.878 151.846 112.83 152.894 112.83 154.187V154.192C112.83 155.485 113.878 156.533 115.171 156.533H124.873C126.166 156.533 127.214 155.485 127.214 154.192V154.187C127.214 152.894 126.166 151.846 124.873 151.846Z" fill="white" stroke="#263238" stroke-linecap="round" stroke-linejoin="round"/>
<path d="M162.941 174.971H50.8896V204.909H162.941V174.971Z" fill="white" stroke="#263238" stroke-linecap="round" stroke-linejoin="round"/>
<path d="M137.233 183.412C137.729 183.412 137.933 183.7 137.933 184.176V184.548C137.933 185.044 137.7 185.307 137.208 185.307H136.896V186.537H136.549V183.412H137.233ZM137.208 184.994C137.466 184.994 137.59 184.87 137.59 184.573V184.156C137.59 183.873 137.486 183.73 137.233 183.73H136.896V185.009L137.208 184.994Z" fill="#263238"/>
<path d="M138.88 183.412C139.376 183.412 139.579 183.66 139.579 184.126V184.379C139.579 184.727 139.46 184.94 139.192 185.024C139.475 185.108 139.584 185.342 139.584 185.674V186.17C139.575 186.298 139.595 186.428 139.644 186.547H139.292C139.244 186.427 139.226 186.298 139.237 186.17V185.674C139.237 185.317 139.068 185.208 138.781 185.208H138.533V186.542H138.186V183.417L138.88 183.412ZM138.796 184.9C139.068 184.9 139.237 184.811 139.237 184.474V184.171C139.237 183.893 139.133 183.744 138.875 183.744H138.533V184.9H138.796Z" fill="#263238"/>
<path d="M139.936 184.166C139.936 183.67 140.175 183.383 140.651 183.383C141.127 183.383 141.37 183.69 141.37 184.166V185.783C141.378 185.883 141.366 185.982 141.333 186.076C141.301 186.171 141.25 186.257 141.182 186.33C141.115 186.403 141.033 186.462 140.942 186.502C140.851 186.542 140.753 186.562 140.653 186.562C140.554 186.562 140.455 186.542 140.364 186.502C140.273 186.462 140.191 186.403 140.124 186.33C140.057 186.257 140.005 186.171 139.973 186.076C139.941 185.982 139.928 185.883 139.936 185.783V184.166ZM140.284 185.803C140.284 186.086 140.403 186.25 140.651 186.25C140.899 186.25 141.023 186.086 141.023 185.803V184.147C141.023 183.869 140.909 183.7 140.651 183.7C140.393 183.7 140.284 183.869 140.284 184.147V185.803Z" fill="#263238"/>
<path d="M143.081 184.166V184.434H142.749V184.147C142.749 183.869 142.64 183.7 142.382 183.7C142.124 183.7 142.02 183.869 142.02 184.147V185.803C142.02 186.081 142.134 186.25 142.382 186.25C142.63 186.25 142.749 186.081 142.749 185.803V185.178H142.426V184.866H143.081V185.783C143.081 186.255 142.858 186.567 142.377 186.567C141.896 186.567 141.672 186.255 141.672 185.783V184.166C141.672 183.695 141.896 183.383 142.377 183.383C142.858 183.383 143.081 183.695 143.081 184.166Z" fill="#263238"/>
<path d="M144.108 183.412C144.604 183.412 144.802 183.66 144.802 184.126V184.379C144.802 184.727 144.683 184.94 144.415 185.024C144.703 185.108 144.807 185.342 144.807 185.674V186.17C144.796 186.299 144.819 186.429 144.872 186.547H144.52C144.47 186.428 144.45 186.298 144.46 186.17V185.674C144.46 185.317 144.296 185.208 144.004 185.208H143.761V186.542H143.408V183.417L144.108 183.412ZM144.019 184.9C144.296 184.9 144.46 184.811 144.46 184.474V184.171C144.46 183.893 144.356 183.744 144.098 183.744H143.761V184.9H144.019Z" fill="#263238"/>
<path d="M146.28 184.796V185.108H145.516V186.219H146.454V186.537H145.169V183.412H146.454V183.73H145.516V184.796H146.28Z" fill="#263238"/>
<path d="M148.13 184.162V184.246H147.808V184.147C147.808 183.864 147.704 183.7 147.451 183.7C147.198 183.7 147.094 183.864 147.094 184.142C147.094 184.841 148.145 184.906 148.145 185.788C148.145 186.26 147.917 186.567 147.436 186.567C146.955 186.567 146.737 186.26 146.737 185.788V185.61H147.064V185.803C147.064 186.086 147.178 186.25 147.431 186.25C147.684 186.25 147.793 186.086 147.793 185.803C147.793 185.109 146.752 185.039 146.752 184.162C146.752 183.666 146.975 183.383 147.441 183.383C147.907 183.383 148.13 183.69 148.13 184.162Z" fill="#263238"/>
<path d="M149.792 184.162V184.246H149.46V184.147C149.46 183.864 149.351 183.7 149.103 183.7C148.855 183.7 148.745 183.864 148.745 184.142C148.745 184.841 149.792 184.906 149.792 185.788C149.792 186.26 149.569 186.567 149.088 186.567C148.607 186.567 148.388 186.26 148.388 185.788V185.61H148.716V185.803C148.716 186.086 148.83 186.25 149.078 186.25C149.326 186.25 149.445 186.086 149.445 185.803C149.445 185.109 148.403 185.039 148.403 184.162C148.403 183.666 148.626 183.383 149.093 183.383C149.559 183.383 149.792 183.69 149.792 184.162Z" fill="#263238"/>
<path d="M114.839 183.412C115.335 183.412 115.548 183.705 115.548 184.191V185.763C115.548 186.259 115.325 186.537 114.839 186.537H114.105V183.412H114.839ZM114.839 186.219C115.087 186.219 115.211 186.066 115.211 185.778V184.171C115.211 183.883 115.087 183.73 114.834 183.73H114.457V186.21L114.839 186.219Z" fill="#263238"/>
<path d="M116.987 184.796V185.108H116.223V186.219H117.16V186.537H115.876V183.412H117.16V183.73H116.223V184.796H116.987Z" fill="#263238"/>
<path d="M117.835 185.907L117.711 186.537H117.393L117.988 183.412H118.484L119.085 186.537H118.732L118.613 185.907H117.835ZM117.879 185.609H118.574L118.222 183.804L117.879 185.609Z" fill="#263238"/>
<path d="M120.096 183.412C120.592 183.412 120.806 183.705 120.806 184.191V185.763C120.806 186.259 120.583 186.537 120.096 186.537H119.362V183.412H120.096ZM120.096 186.219C120.349 186.219 120.468 186.066 120.468 185.778V184.171C120.468 183.883 120.349 183.73 120.092 183.73H119.72V186.21L120.096 186.219Z" fill="#263238"/>
<path d="M121.133 186.537V183.412H121.48V186.219H122.373V186.537H121.133Z" fill="#263238"/>
<path d="M123.008 183.412V186.537H122.661V183.412H123.008Z" fill="#263238"/>
<path d="M123.648 186.537H123.335V183.412H123.777L124.501 185.669V183.412H124.808V186.537H124.451L123.648 184.017V186.537Z" fill="#263238"/>
<path d="M126.282 184.796V185.108H125.518V186.219H126.48V186.537H125.19V183.412H126.48V183.73H125.543V184.796H126.282Z" fill="#263238"/>
<path d="M94.2946 186.982H100.822" stroke="#263238" stroke-linecap="round" stroke-linejoin="round"/>
<path d="M74.7224 186.982H91.9485" stroke="#263238" stroke-linecap="round" stroke-linejoin="round"/>
<path d="M56.4398 186.982H72.1134" stroke="#263238" stroke-linecap="round" stroke-linejoin="round"/>
<path d="M84.6424 194.408H89.6272" stroke="#263238" stroke-linecap="round" stroke-linejoin="round"/>
<path d="M71.8506 194.408H80.4661" stroke="#263238" stroke-linecap="round" stroke-linejoin="round"/>
<path d="M65.591 194.408H69.2416" stroke="#263238" stroke-linecap="round" stroke-linejoin="round"/>
<path d="M56.4398 194.408H63.5029" stroke="#263238" stroke-linecap="round" stroke-linejoin="round"/>
<path d="M158.789 193.019C158.79 193.326 158.73 193.631 158.613 193.916C158.495 194.2 158.323 194.458 158.105 194.676C157.888 194.893 157.629 195.066 157.345 195.183C157.061 195.301 156.756 195.361 156.448 195.36H131.872C131.564 195.361 131.259 195.301 130.974 195.183C130.689 195.066 130.431 194.893 130.213 194.676C129.995 194.459 129.822 194.2 129.704 193.916C129.586 193.632 129.525 193.327 129.525 193.019C129.527 192.397 129.775 191.802 130.214 191.363C130.654 190.924 131.25 190.678 131.872 190.678H156.448C156.756 190.678 157.06 190.738 157.344 190.856C157.628 190.974 157.886 191.146 158.104 191.363C158.321 191.581 158.494 191.839 158.611 192.123C158.729 192.407 158.789 192.711 158.789 193.019Z" fill="white" stroke="#263238" stroke-linecap="round" stroke-linejoin="round"/>
<path d="M134.208 190.678V195.36H131.872C131.564 195.361 131.259 195.301 130.974 195.183C130.689 195.066 130.431 194.893 130.213 194.676C129.995 194.459 129.822 194.2 129.704 193.916C129.586 193.632 129.525 193.327 129.525 193.019C129.527 192.397 129.775 191.802 130.214 191.363C130.654 190.924 131.25 190.678 131.872 190.678H134.208Z" fill="#651FFF" stroke="#263238" stroke-linecap="round" stroke-linejoin="round"/>
<path d="M124.868 195.36H115.171C114.55 195.36 113.955 195.113 113.516 194.674C113.077 194.235 112.83 193.64 112.83 193.019C112.83 192.711 112.891 192.407 113.008 192.123C113.126 191.839 113.298 191.581 113.516 191.363C113.733 191.146 113.991 190.974 114.275 190.856C114.559 190.738 114.864 190.678 115.171 190.678H124.868C125.176 190.677 125.481 190.737 125.765 190.855C126.05 190.972 126.309 191.144 126.527 191.362C126.745 191.579 126.917 191.837 127.035 192.122C127.153 192.406 127.214 192.711 127.214 193.019C127.214 193.327 127.153 193.632 127.035 193.916C126.917 194.2 126.745 194.459 126.527 194.676C126.309 194.894 126.05 195.066 125.765 195.183C125.481 195.301 125.176 195.361 124.868 195.36Z" fill="white" stroke="#263238" stroke-linecap="round" stroke-linejoin="round"/>
<path d="M211.504 98.5859H172.305C171.012 98.5859 169.964 99.6341 169.964 100.927V112.008C169.964 113.301 171.012 114.349 172.305 114.349H211.504C212.797 114.349 213.845 113.301 213.845 112.008V100.927C213.845 99.6341 212.797 98.5859 211.504 98.5859Z" fill="#651FFF" stroke="#263238" stroke-linecap="round" stroke-linejoin="round"/>
<path d="M178.376 109.001L178.094 110.489H177.34L178.739 103.168H179.919L181.318 110.474H180.504L180.222 108.986L178.376 109.001ZM178.481 108.302H180.108L179.284 104.086L178.481 108.302Z" fill="white"/>
<path d="M183.664 103.168C184.805 103.168 185.325 103.857 185.325 104.983V108.669C185.325 109.785 184.805 110.474 183.664 110.474H181.953V103.168H183.664ZM183.664 109.735C184.249 109.735 184.532 109.368 184.532 108.698V104.944C184.532 104.274 184.249 103.912 183.654 103.912H182.776V109.735H183.664Z" fill="white"/>
<path d="M187.8 103.168C188.936 103.168 189.457 103.857 189.457 104.983V108.669C189.457 109.785 188.936 110.474 187.8 110.474H186.089V103.168H187.8ZM187.8 109.735C188.381 109.735 188.664 109.368 188.664 108.698V104.944C188.664 104.274 188.381 103.912 187.786 103.912H186.913V109.735H187.8Z" fill="white"/>
<path d="M192.904 110.474V103.912H191.555V103.168H195.062V103.912H193.718V110.474H192.904Z" fill="white"/>
<path d="M196.054 109.001L195.771 110.489H195.022L196.416 103.168H197.596L198.995 110.474H198.177L197.899 108.986L196.054 109.001ZM196.158 108.302H197.785L196.962 104.086L196.158 108.302Z" fill="white"/>
<path d="M202.8 104.924V105.122H202.026V104.879C202.026 104.225 201.773 103.838 201.192 103.838C200.612 103.838 200.354 104.225 200.354 104.869C200.354 106.511 202.809 106.665 202.809 108.723C202.809 109.829 202.274 110.549 201.158 110.549C200.042 110.549 199.521 109.829 199.521 108.723V108.302H200.28V108.763C200.28 109.423 200.553 109.805 201.138 109.805C201.723 109.805 201.996 109.423 201.996 108.763C201.996 107.136 199.551 106.977 199.551 104.924C199.551 103.793 200.072 103.094 201.168 103.094C202.264 103.094 202.8 103.818 202.8 104.924Z" fill="white"/>
<path d="M204.759 107.305L204.332 108.024V110.474H203.519V103.168H204.352V106.695L206.291 103.168H207.12L205.27 106.496L207.179 110.464H206.336L204.759 107.305Z" fill="white"/>
<path d="M176.234 35.7715C176.234 35.7715 170.47 38.311 167.469 39.1146C164.469 39.9181 161.245 41.1928 160.436 43.7274C159.628 46.2619 156.027 56.0133 155.794 58.1114C155.56 60.2094 159.266 63.9294 159.266 63.9294H207.239C207.239 63.9294 208.132 51.7923 206.167 47.6408C204.203 43.4893 198.231 39.9429 196.515 39.2534C194.799 38.564 190.305 36.3469 188.48 36.0046C186.655 35.6624 178.312 34.963 176.234 35.7715Z" fill="white" stroke="#263238" stroke-linecap="round" stroke-linejoin="round"/>
<path d="M160.332 52.5761C161.256 52.3066 162.23 52.256 163.177 52.4281C164.124 52.6003 165.018 52.9906 165.788 53.5681" fill="white"/>
<path d="M160.332 52.5761C161.256 52.3066 162.23 52.256 163.177 52.4281C164.124 52.6003 165.018 52.9906 165.788 53.5681" stroke="#263238" stroke-linecap="round" stroke-linejoin="round"/>
<path d="M164.176 53.5684C165.281 53.6291 166.331 54.0668 167.152 54.8084L164.176 53.5684Z" fill="white"/>
<path d="M164.176 53.5684C165.281 53.6291 166.331 54.0668 167.152 54.8084" stroke="#263238" stroke-linecap="round" stroke-linejoin="round"/>
<path d="M169.076 48.0332C169.528 48.806 169.723 49.7021 169.632 50.5926C169.487 52.299 169.077 53.9723 168.417 55.5526" stroke="#263238" stroke-linecap="round" stroke-linejoin="round"/>
<path d="M167.4 46.3516C167.855 46.6256 168.262 46.9725 168.605 47.3783" stroke="#263238" stroke-linecap="round" stroke-linejoin="round"/>
<path d="M170.341 47.8906C170.341 47.8906 171.269 50.6831 170.748 52.9399" stroke="#263238" stroke-linecap="round" stroke-linejoin="round"/>
<path d="M195.26 49.6016C195.26 49.6016 194.11 53.639 194.224 54.9088" stroke="#263238" stroke-linecap="round" stroke-linejoin="round"/>
<path d="M176.918 45.6681L179.036 49.4774L180.837 55.3004L183.376 50.0081L185.812 45.7772L181.045 45.0332L176.918 45.6681Z" fill="#651FFF" stroke="#263238" stroke-linecap="round" stroke-linejoin="round"/>
<path d="M179.036 49.4824L183.376 50.0082" stroke="#263238" stroke-linecap="round" stroke-linejoin="round"/>
<path d="M176.695 38.8869C176.151 39.6246 175.723 40.4408 175.425 41.3074C174.964 42.6912 174.16 47.4181 174.16 47.4181C174.16 47.4181 178.654 47.1899 179.81 47.1899C180.966 47.1899 182.786 47.304 183.153 47.304C183.52 47.304 188.688 50.4189 188.688 50.4189C188.688 50.4189 189.611 45.1117 188.574 42.1159C187.538 39.12 180.499 35.5439 176.695 38.8869Z" fill="white" stroke="#263238" stroke-linecap="round" stroke-linejoin="round"/>
<path d="M179.116 45.4292L180.941 49.2683L184.651 45.082C184.651 45.082 181.194 46.1286 179.116 45.4292Z" fill="white" stroke="#263238" stroke-linecap="round" stroke-linejoin="round"/>
<path d="M194.581 88.7207L192.8 92.0092C192.8 92.0092 190.598 92.4705 190.37 92.9317C189.805 93.9847 189.14 94.9812 188.386 95.9077C187.81 96.4831 186.66 97.2916 187.696 97.7529C188.733 98.2141 190.578 96.1409 190.578 96.1409L191.615 95.5605C191.689 96.4814 191.576 97.4076 191.282 98.2836C190.603 100.233 189.819 102.604 189.918 102.852C190.414 104.092 191.233 103.219 191.233 103.219L192.78 99.6029L193.053 99.4293C193.053 99.4293 192.741 103.561 192.741 103.576C192.681 104.335 193.351 105.223 193.936 104.444L195.32 100.064V104.002C195.316 104.146 195.345 104.288 195.404 104.419C195.463 104.55 195.551 104.665 195.661 104.757C195.772 104.849 195.901 104.914 196.041 104.948C196.18 104.983 196.325 104.985 196.466 104.955L196.59 104.905C197.051 104.677 197.21 99.8658 197.21 99.8658L198.172 103.338C198.194 103.429 198.235 103.514 198.292 103.587C198.35 103.661 198.422 103.722 198.504 103.767C198.586 103.811 198.677 103.838 198.77 103.845C198.863 103.852 198.957 103.84 199.045 103.809C199.089 103.796 199.13 103.772 199.163 103.74C199.197 103.708 199.222 103.669 199.238 103.626C199.357 103.283 199.01 97.7479 199.01 97.7479L198.777 91.9794L199.124 90.0202L194.581 88.7207Z" fill="white" stroke="#263238" stroke-linecap="round" stroke-linejoin="round"/>
<path d="M196.763 50.096C196.763 50.096 194.918 54.0194 195.146 55.4032C195.374 56.7871 200.751 70.0154 200.751 70.0154L194.07 89.2651L199.377 90.5349C199.377 90.5349 208.439 77.0635 209.401 74.1669C209.929 72.5296 210.163 70.8116 210.091 69.0928C210.091 68.3984 207.948 52.6355 206.678 49.8679C205.94 48.2371 204.969 46.7218 203.796 45.3691" fill="white"/>
<path d="M196.763 50.096C196.763 50.096 194.918 54.0194 195.146 55.4032C195.374 56.7871 200.751 70.0154 200.751 70.0154L194.07 89.2651L199.377 90.5349C199.377 90.5349 208.439 77.0635 209.401 74.1669C209.929 72.5296 210.163 70.8116 210.091 69.0928C210.091 68.3984 207.948 52.6355 206.678 49.8679C205.94 48.2371 204.969 46.7218 203.796 45.3691" stroke="#263238" stroke-linecap="round" stroke-linejoin="round"/>
<path d="M201.56 69.5307C201.56 69.5307 203.633 66.6439 204.903 64.7988" stroke="#263238" stroke-linecap="round" stroke-linejoin="round"/>
<path d="M204.555 63.7617L202.021 66.9907" stroke="#263238" stroke-linecap="round" stroke-linejoin="round"/>
<path d="M194.531 87.3965L200.181 88.7803" stroke="#263238" stroke-linecap="round" stroke-linejoin="round"/>
<path d="M157.594 54.8131C157.053 55.2838 156.574 55.8223 156.171 56.4151C155.129 57.9031 155.709 61.142 156.399 62.1787C157.088 63.2153 159.871 63.9097 159.871 63.9097H182.26L182.712 60.1252H181.893C181.893 60.1252 177.861 58.8555 174.974 58.047C172.087 57.2385 166.418 54.8428 164.712 54.4758C163.408 54.1963 162.065 54.1443 160.744 54.322" fill="white"/>
<path d="M157.594 54.8131C157.053 55.2838 156.574 55.8223 156.171 56.4151C155.129 57.9031 155.709 61.142 156.399 62.1787C157.088 63.2153 159.871 63.9097 159.871 63.9097H182.26L182.712 60.1252H181.893C181.893 60.1252 177.861 58.8555 174.974 58.047C172.087 57.2385 166.418 54.8428 164.712 54.4758C163.408 54.1963 162.065 54.1443 160.744 54.322" stroke="#263238" stroke-linecap="round" stroke-linejoin="round"/>
<path d="M186.03 63.9112L185.916 63.7674C185.916 63.7674 188.242 63.5541 188.559 63.4499C188.978 63.3532 189.402 63.282 189.829 63.2366L193.192 63.9112H196.53L196.183 63.3358L193.207 61.4907L190.633 60.2061C187.959 58.8669 184.75 60.5186 181.903 60.1069L182.444 60.1763L181.992 63.9112H186.03Z" fill="white" stroke="#263238" stroke-linecap="round" stroke-linejoin="round"/>
<path d="M190.677 61.332L195.97 63.6632" stroke="#263238" stroke-linecap="round" stroke-linejoin="round"/>
<path d="M180.41 59.957L180.271 63.7961" stroke="#263238" stroke-linecap="round" stroke-linejoin="round"/>
<path d="M176.006 32.3153C175.08 31.0268 174.521 29.5115 174.389 27.9306C174.275 25.5101 175.425 25.0489 175.425 25.0489C175.425 25.0489 173.699 22.2812 177.504 20.6642C181.308 19.0472 187.076 18.1297 190.305 19.8607C193.534 21.5917 194.685 25.6242 194.571 28.3919C194.457 31.1596 192.84 34.3885 192.84 34.3885L190.305 37.5034C190.305 37.5034 188.688 38.0788 188.321 37.3893C187.954 36.6999 186.035 34.6217 185.008 34.6217C183.981 34.6217 181.318 34.6216 179.934 34.0413C178.55 33.461 176.006 32.3153 176.006 32.3153Z" fill="#263238" stroke="#263238" stroke-linecap="round" stroke-linejoin="round"/>
<path d="M175.772 28.8535C175.772 28.8535 175.658 35.8868 175.658 37.3897C175.658 38.8926 175.658 40.3657 176.348 41.8834C177.037 43.4012 177.618 47.4188 180.732 47.6519C183.847 47.885 188.341 44.6759 189.164 42.925C189.988 41.1742 190.419 38.1932 190.419 38.1932C190.419 38.1932 193.187 36.3481 193.648 34.1607C194.11 31.9734 193.187 30.9318 192.612 31.9684C192.036 33.005 191.228 35.6586 190.881 35.8868C190.533 36.115 190.072 34.503 190.072 34.503C190.072 34.503 188.341 35.1974 188.113 34.503C187.885 33.8086 189.036 30.4705 189.036 30.4705C189.036 30.4705 185.231 31.5071 184.423 31.5071C183.558 31.4077 182.706 31.2148 181.883 30.9318L185.231 33.005C183.77 33.6111 182.154 33.7327 180.618 33.3522C178.312 32.6578 176.581 28.8535 176.581 28.8535H175.772Z" fill="white" stroke="#263238" stroke-linecap="round" stroke-linejoin="round"/>
<path d="M179.235 36.2344V37.6182C179.235 37.6182 177.747 41.5416 177.965 42.231C178.183 42.9205 180.271 42.5782 180.732 42.3451" fill="white"/>
<path d="M179.235 36.2344V37.6182C179.235 37.6182 177.747 41.5416 177.965 42.231C178.183 42.9205 180.271 42.5782 180.732 42.3451" stroke="#263238" stroke-linecap="round" stroke-linejoin="round"/>
<path d="M179.001 43.3867C179.681 43.782 180.45 43.9997 181.236 44.0197C182.022 44.0396 182.801 43.8612 183.5 43.5008" fill="white"/>
<path d="M179.001 43.3867C179.681 43.782 180.45 43.9997 181.236 44.0197C182.022 44.0396 182.801 43.8612 183.5 43.5008" stroke="#263238" stroke-linecap="round" stroke-linejoin="round"/>
<path d="M182.344 38.1934C182.923 38.6039 183.591 38.8707 184.293 38.9716C184.995 39.0725 185.711 39.0047 186.382 38.7737" fill="white"/>
<path d="M182.344 38.1934C182.923 38.6039 183.591 38.8707 184.293 38.9716C184.995 39.0725 185.711 39.0047 186.382 38.7737" stroke="#263238" stroke-linecap="round" stroke-linejoin="round"/>
<path d="M182.464 36.1188C182.464 36.1188 185.008 35.2161 186.615 36.9273L182.464 36.1188Z" fill="white"/>
<path d="M182.464 36.1188C182.464 36.1188 185.008 35.2161 186.615 36.9273" stroke="#263238" stroke-linecap="round" stroke-linejoin="round"/>
<path d="M176.576 36.3477C176.576 36.3477 177.037 37.3893 179.23 37.6174L176.576 36.3477Z" fill="white"/>
<path d="M176.576 36.3477C176.576 36.3477 177.037 37.3893 179.23 37.6174" stroke="#263238" stroke-linecap="round" stroke-linejoin="round"/>
<path d="M178.773 35.2159C178.773 35.2159 177.965 33.8321 176.789 34.2934L178.773 35.2159Z" fill="white"/>
<path d="M178.773 35.2159C178.773 35.2159 177.965 33.8321 176.789 34.2934" stroke="#263238" stroke-linecap="round" stroke-linejoin="round"/>
<path d="M180.837 55.3008L177.553 84.6193L181.789 90.5465L185.702 84.6193L180.837 55.3008Z" fill="#651FFF" stroke="#263238" stroke-linecap="round" stroke-linejoin="round"/>
<path d="M53.6126 126.719V131.545C53.6126 131.545 103.004 129.526 162.941 128.524L53.6126 126.719Z" fill="#263238" stroke="#263238" stroke-linecap="round" stroke-linejoin="round"/>
<path d="M162.941 98.5859H50.8896V128.524H162.941V98.5859Z" fill="white" stroke="#263238" stroke-linecap="round" stroke-linejoin="round"/>
<path d="M137.233 106.303C137.729 106.303 137.933 106.59 137.933 107.067V107.439C137.933 107.935 137.7 108.192 137.208 108.192H136.896V109.428H136.549V106.303H137.233ZM137.208 107.88C137.466 107.88 137.59 107.761 137.59 107.463V107.047C137.59 106.764 137.486 106.62 137.233 106.62H136.896V107.88H137.208Z" fill="#263238"/>
<path d="M138.88 106.303C139.376 106.303 139.579 106.551 139.579 107.017V107.27C139.579 107.612 139.46 107.83 139.192 107.915C139.475 107.999 139.584 108.232 139.584 108.564V109.06C139.575 109.189 139.595 109.318 139.644 109.437H139.292C139.244 109.316 139.225 109.185 139.237 109.056V108.56C139.237 108.207 139.068 108.098 138.781 108.098H138.533V109.432H138.186V106.308L138.88 106.303ZM138.796 107.791C139.068 107.791 139.237 107.701 139.237 107.359V107.062C139.237 106.779 139.133 106.635 138.875 106.635H138.533V107.791H138.796Z" fill="#263238"/>
<path d="M139.936 107.058C139.936 106.562 140.175 106.27 140.651 106.27C141.127 106.27 141.37 106.582 141.37 107.058V108.675C141.378 108.774 141.366 108.874 141.333 108.968C141.301 109.062 141.25 109.149 141.182 109.222C141.115 109.295 141.033 109.353 140.942 109.393C140.851 109.433 140.753 109.454 140.653 109.454C140.554 109.454 140.455 109.433 140.364 109.393C140.273 109.353 140.191 109.295 140.124 109.222C140.057 109.149 140.005 109.062 139.973 108.968C139.941 108.874 139.928 108.774 139.936 108.675V107.058ZM140.284 108.69C140.284 108.978 140.403 109.141 140.651 109.141C140.899 109.141 141.023 108.978 141.023 108.69V107.038C141.023 106.761 140.909 106.587 140.651 106.587C140.393 106.587 140.284 106.761 140.284 107.038V108.69Z" fill="#263238"/>
<path d="M143.081 107.058V107.326H142.749V107.038C142.749 106.761 142.64 106.587 142.382 106.587C142.124 106.587 142.02 106.761 142.02 107.038V108.69C142.02 108.973 142.134 109.141 142.382 109.141C142.63 109.141 142.749 108.973 142.749 108.69V108.065H142.426V107.753H143.081V108.675C143.081 109.171 142.858 109.459 142.377 109.459C141.896 109.459 141.672 109.146 141.672 108.675V107.058C141.672 106.562 141.896 106.27 142.377 106.27C142.858 106.27 143.081 106.582 143.081 107.058Z" fill="#263238"/>
<path d="M144.108 106.303C144.604 106.303 144.802 106.551 144.802 107.017V107.27C144.802 107.612 144.683 107.83 144.415 107.915C144.703 107.999 144.807 108.232 144.807 108.564V109.06C144.797 109.19 144.819 109.319 144.872 109.437H144.52C144.47 109.317 144.449 109.186 144.46 109.056V108.56C144.46 108.207 144.296 108.098 144.004 108.098H143.761V109.432H143.408V106.308L144.108 106.303ZM144.019 107.791C144.296 107.791 144.46 107.701 144.46 107.359V107.062C144.46 106.779 144.356 106.635 144.098 106.635H143.761V107.791H144.019Z" fill="#263238"/>
<path d="M146.28 107.688V108.001H145.516V109.122H146.454V109.439H145.169V106.314H146.454V106.642H145.516V107.708L146.28 107.688Z" fill="#263238"/>
<path d="M148.13 107.053V107.138H147.808V107.033C147.808 106.756 147.704 106.587 147.451 106.587C147.198 106.587 147.094 106.756 147.094 107.033C147.094 107.733 148.145 107.797 148.145 108.68C148.145 109.151 147.917 109.459 147.436 109.459C146.955 109.459 146.737 109.151 146.737 108.68V108.502H147.064V108.695C147.064 108.978 147.178 109.141 147.431 109.141C147.684 109.141 147.793 108.978 147.793 108.695C147.793 108.001 146.752 107.931 146.752 107.053C146.752 106.557 146.975 106.27 147.441 106.27C147.907 106.27 148.13 106.582 148.13 107.053Z" fill="#263238"/>
<path d="M149.792 107.053V107.138H149.46V107.033C149.46 106.756 149.351 106.587 149.103 106.587C148.855 106.587 148.745 106.756 148.745 107.033C148.745 107.733 149.792 107.797 149.792 108.68C149.792 109.151 149.569 109.459 149.088 109.459C148.607 109.459 148.388 109.151 148.388 108.68V108.502H148.716V108.695C148.716 108.978 148.83 109.141 149.078 109.141C149.326 109.141 149.445 108.978 149.445 108.695C149.445 108.001 148.403 107.931 148.403 107.053C148.403 106.557 148.626 106.27 149.093 106.27C149.559 106.27 149.792 106.582 149.792 107.053Z" fill="#263238"/>
<path d="M114.839 106.303C115.335 106.303 115.548 106.595 115.548 107.076V108.654C115.548 109.15 115.325 109.428 114.839 109.428H114.105V106.303H114.839ZM114.839 109.11C115.087 109.11 115.211 108.956 115.211 108.669V107.062C115.211 106.774 115.087 106.62 114.834 106.62H114.457V109.1L114.839 109.11Z" fill="#263238"/>
<path d="M116.987 107.688V108.001H116.223V109.122H117.16V109.439H115.876V106.314H117.16V106.642H116.223V107.708L116.987 107.688Z" fill="#263238"/>
<path d="M117.835 108.798L117.711 109.428H117.393L117.988 106.303H118.484L119.085 109.428H118.732L118.613 108.798H117.835ZM117.879 108.5H118.574L118.222 106.695L117.879 108.5Z" fill="#263238"/>
<path d="M120.096 106.303C120.592 106.303 120.806 106.595 120.806 107.076V108.654C120.806 109.15 120.583 109.428 120.096 109.428H119.362V106.303H120.096ZM120.096 109.11C120.349 109.11 120.468 108.956 120.468 108.669V107.062C120.468 106.774 120.349 106.62 120.092 106.62H119.72V109.1L120.096 109.11Z" fill="#263238"/>
<path d="M121.133 109.428V106.303H121.48V109.12H122.373V109.437L121.133 109.428Z" fill="#263238"/>
<path d="M123.008 106.303V109.428H122.661V106.303H123.008Z" fill="#263238"/>
<path d="M123.648 109.428H123.335V106.303H123.777L124.501 108.56V106.303H124.808V109.428H124.451L123.648 106.898V109.428Z" fill="#263238"/>
<path d="M126.282 107.688V108.001H125.518V109.122H126.48V109.439H125.19V106.314H126.48V106.642H125.543V107.708L126.282 107.688Z" fill="#263238"/>
<path d="M94.2946 109.875H100.822" stroke="#263238" stroke-linecap="round" stroke-linejoin="round"/>
<path d="M74.7224 109.875H91.9485" stroke="#263238" stroke-linecap="round" stroke-linejoin="round"/>
<path d="M56.4398 109.875H72.1134" stroke="#263238" stroke-linecap="round" stroke-linejoin="round"/>
<path d="M84.6424 117.301H89.6272" stroke="#263238" stroke-linecap="round" stroke-linejoin="round"/>
<path d="M71.8506 117.301H80.4661" stroke="#263238" stroke-linecap="round" stroke-linejoin="round"/>
<path d="M65.591 117.301H69.2416" stroke="#263238" stroke-linecap="round" stroke-linejoin="round"/>
<path d="M56.4398 117.301H63.5029" stroke="#263238" stroke-linecap="round" stroke-linejoin="round"/>
<path d="M158.789 115.911C158.79 116.218 158.73 116.523 158.613 116.807C158.495 117.092 158.323 117.35 158.105 117.567C157.888 117.785 157.629 117.957 157.345 118.075C157.061 118.192 156.756 118.252 156.448 118.252H131.872C131.564 118.252 131.259 118.192 130.974 118.075C130.689 117.958 130.431 117.785 130.213 117.568C129.995 117.35 129.822 117.092 129.704 116.808C129.586 116.523 129.525 116.218 129.525 115.911C129.528 115.289 129.776 114.694 130.215 114.254C130.655 113.815 131.25 113.567 131.872 113.564H156.448C156.756 113.564 157.061 113.625 157.345 113.743C157.63 113.861 157.888 114.034 158.105 114.252C158.323 114.47 158.495 114.728 158.613 115.013C158.73 115.298 158.79 115.603 158.789 115.911Z" fill="white" stroke="#263238" stroke-linecap="round" stroke-linejoin="round"/>
<path d="M124.868 118.253H115.171C114.55 118.253 113.955 118.007 113.516 117.568C113.077 117.129 112.83 116.533 112.83 115.912C112.834 115.294 113.082 114.702 113.521 114.266C113.96 113.831 114.553 113.586 115.171 113.586H124.868C125.176 113.586 125.481 113.647 125.766 113.765C126.05 113.882 126.309 114.055 126.527 114.273C126.745 114.491 126.918 114.75 127.036 115.034C127.153 115.319 127.214 115.624 127.214 115.932C127.209 116.55 126.959 117.141 126.52 117.576C126.08 118.011 125.486 118.255 124.868 118.253Z" fill="white" stroke="#263238" stroke-linecap="round" stroke-linejoin="round"/>
<path d="M60.7699 133.424C60.7699 133.424 62.4266 129.114 62.7539 128.673C63.0813 128.231 63.6368 127.125 64.6338 127.125C65.6307 127.125 67.3965 127.234 68.1703 126.902C68.944 126.57 69.936 126.57 69.7178 127.234C69.4995 127.899 68.1703 128.117 68.1703 128.117L73.9139 128.563C73.9139 128.563 72.2573 130.106 71.4835 130.438C70.6909 130.719 69.8785 130.942 69.0531 131.103C68.3664 131.565 67.6229 131.937 66.841 132.209C66.1129 132.366 65.3757 132.477 64.6338 132.541L63.4186 134.749L60.7699 133.424Z" fill="white" stroke="#263238" stroke-linecap="round" stroke-linejoin="round"/>
<path d="M68.1752 128.113L65.6307 128.778" stroke="#263238" stroke-linecap="round" stroke-linejoin="round"/>
<path d="M47.0654 114.299L45.1856 117.508L46.2917 120.047L49.3867 117.726L50.9342 116.62V109.988L47.0654 114.299Z" fill="white" stroke="#263238" stroke-linecap="round" stroke-linejoin="round"/>
<path d="M46.624 116.066C46.624 116.066 47.5069 111.532 47.9483 110.982C48.3898 110.431 50.1605 109.102 50.711 108.998C51.2616 108.894 52.0403 109.216 51.5989 109.881C51.0471 110.512 50.4152 111.069 49.719 111.537C49.719 111.537 50.4928 113.749 49.9373 114.965C49.5549 115.73 48.9356 116.351 48.1715 116.735" fill="white"/>
<path d="M46.624 116.066C46.624 116.066 47.5069 111.532 47.9483 110.982C48.3898 110.431 50.1605 109.102 50.711 108.998C51.2616 108.894 52.0403 109.216 51.5989 109.881C51.0471 110.512 50.4152 111.069 49.719 111.537C49.719 111.537 50.4928 113.749 49.9373 114.965C49.5549 115.73 48.9356 116.351 48.1715 116.735" stroke="#263238" stroke-linecap="round" stroke-linejoin="round"/>
<path d="M45.2997 116.621L47.1746 121.373L37.5621 128.669L35.464 121.155L45.2997 116.621Z" fill="#651FFF" stroke="#263238" stroke-linecap="round" stroke-linejoin="round"/>
<path d="M40.92 196.333L41.292 201.045C41.292 201.045 38.812 206.253 39.06 210.841C39.308 215.429 39.804 228.697 39.804 229.441C39.804 230.185 38.564 231.053 39.432 234.153C39.675 235.016 41.788 234.401 43.896 235.765C46.004 237.129 48.608 237.997 50.22 237.997C51.832 237.997 52.7 237.997 52.7 237.253C52.7 236.509 50.344 235.517 49.352 234.525C47.7941 232.754 46.3448 230.891 45.012 228.945C44.764 228.449 45.88 221.133 46.624 218.281C47.368 215.429 49.476 208.609 50.344 203.773C51.212 198.937 51.584 194.969 51.584 194.969L40.92 196.333Z" fill="white" stroke="#263238" stroke-linecap="round" stroke-linejoin="round"/>
<path d="M39.432 234.153L39.68 237.501H41.416L42.16 234.773C42.16 234.773 40.052 234.029 39.432 234.153Z" fill="#263238" stroke="#263238" stroke-linecap="round" stroke-linejoin="round"/>
<path d="M50.22 237.997C51.8221 237.839 52.7 237.997 52.7 237.253C52.7 236.509 50.344 235.517 49.352 234.525C48.0035 232.996 46.7337 231.398 45.5477 229.739C45.0362 230.139 44.4189 230.38 43.772 230.433C41.912 230.557 39.804 229.441 39.804 229.441C39.804 230.185 38.564 231.053 39.432 234.153C39.675 235.016 41.8574 234.863 43.5587 236.906C45.1658 238.836 49.977 238.022 50.22 237.997Z" fill="#263238" stroke="#263238" stroke-linecap="round" stroke-linejoin="round"/>
<path d="M26.412 192.736L26.66 199.68C26.66 199.68 23.436 204.02 22.816 208.236C22.196 212.452 20.088 228.944 20.088 230.556C20.088 232.168 19.096 237.376 19.592 237.748C20.088 238.12 25.792 237.748 25.792 237.748C25.9933 237.193 26.0777 236.602 26.04 236.012C26.04 234.772 25.048 230.68 25.296 229.688C25.544 228.696 26.412 225.596 26.412 225.596C26.412 225.596 30.256 215.552 31.868 212.452C33.48 209.352 34.844 204.888 35.712 202.16C36.58 199.432 37.324 195.588 37.324 195.588L26.412 192.736Z" fill="white" stroke="#263238" stroke-linecap="round" stroke-linejoin="round"/>
<path d="M25.2662 229.877C23.5451 227.457 20.7378 228.935 20.1872 229.257C20.1227 229.897 20.088 230.354 20.088 230.557C20.088 232.169 19.096 237.377 19.592 237.749C20.088 238.121 25.792 237.749 25.792 237.749C25.9933 237.193 26.0777 236.602 26.04 236.013C26.04 234.842 25.1522 231.137 25.2662 229.877Z" fill="#263238" stroke="#263238" stroke-linecap="round" stroke-linejoin="round"/>
<path d="M25.792 237.749C25.544 237.005 23.808 234.029 23.808 234.029L20.584 234.153C19.468 235.393 19.592 237.749 19.592 237.749C20.088 238.121 25.792 237.749 25.792 237.749Z" fill="#8C8C8C" stroke="#263238" stroke-linecap="round" stroke-linejoin="round"/>
<path d="M23.808 234.028C23.808 234.028 22.692 233.036 21.824 233.408C21.3709 233.582 20.9514 233.834 20.584 234.152L20.708 237.872H22.94L23.808 234.028Z" fill="#263238" stroke="#263238" stroke-linecap="round" stroke-linejoin="round"/>
<path d="M23.684 168.061C23.0208 169.893 22.6444 171.817 22.568 173.765C22.444 176.989 23.312 192.861 23.312 192.861C23.312 192.861 29.512 197.077 39.928 197.449C50.344 197.821 55.18 194.969 55.18 194.969C55.18 194.969 54.932 175.873 53.692 171.285C52.452 166.697 50.22 164.837 50.22 164.837C50.22 164.837 45.26 166.325 37.696 166.201C33.3973 166.169 29.1149 165.67 24.924 164.713L23.684 168.061Z" fill="#263238" stroke="#263238" stroke-linecap="round" stroke-linejoin="round"/>
<path d="M26.9526 129.884C26.9526 129.884 23.8576 135.628 23.4162 139.829C22.9747 144.03 27.0618 156.847 27.0618 157.288C27.0618 157.73 22.7565 168.781 22.7565 168.781C26.1398 170.231 29.6455 171.378 33.232 172.208C38.7574 173.423 44.392 172.649 45.4981 172.317L46.9365 168.012L47.487 171.657C47.487 171.657 47.487 171.767 49.2578 171.325C51.0285 170.884 53.2258 169.004 53.2258 169.004C53.2258 169.004 50.3539 162.263 48.9155 160.383C47.4771 158.503 45.7114 154.198 45.7114 154.198L46.371 148.673C46.371 148.673 51.331 152.76 51.7874 152.869C52.2437 152.978 59.0835 144.933 60.517 142.592C61.9504 140.251 64.2766 134.304 64.2766 134.304L61.008 132.647L59.6837 133.971L51.837 142.483C51.837 142.483 47.0853 137.066 44.764 136.183C42.4427 135.301 38.0234 133.971 38.0234 133.971L29.0706 131.873L29.7352 129.993C29.7352 129.993 29.264 128.669 26.9526 129.884Z" fill="#651FFF" stroke="#263238" stroke-linecap="round" stroke-linejoin="round"/>
<path d="M46.4058 148.672L41.416 145.74L45.9594 151.231L46.4058 148.672Z" fill="#263238" stroke="#263238" stroke-linecap="round" stroke-linejoin="round"/>
<path d="M35.9253 155.512C36.3898 156.058 36.8992 156.564 37.448 157.025" stroke="#263238" stroke-linecap="round" stroke-linejoin="round"/>
<path d="M29.8443 144.715C29.8443 144.715 31.9771 150.211 34.9134 154.228" stroke="#263238" stroke-linecap="round" stroke-linejoin="round"/>
<path d="M32.2003 153.041C33.3923 154.993 34.7872 156.813 36.3618 158.472" stroke="#263238" stroke-linecap="round" stroke-linejoin="round"/>
<path d="M41.3218 112.534C41.7606 113.412 42.0936 114.339 42.3138 115.296C42.7552 117.062 44.2978 117.95 44.8582 117.836C45.4187 117.722 45.4088 119.051 45.0765 119.716C44.8405 120.16 44.5433 120.569 44.1936 120.931C44.1258 122.485 43.9785 124.034 43.7522 125.573C43.4198 127.557 43.3107 129.11 42.537 129.11H38.569C38.569 129.11 38.2366 130.876 38.1226 132.314C38.0085 133.752 38.0134 133.971 38.0134 133.971L29.0606 131.873L30.0526 128.778C30.0526 128.778 24.4181 126.238 27.1808 121.595C29.9435 116.953 36.456 111.105 41.3218 112.534Z" fill="white" stroke="#263238" stroke-linecap="round" stroke-linejoin="round"/>
<path d="M38.559 129.11L36.7238 128.961L38.1722 131.495L38.559 129.11Z" fill="#263238" stroke="#263238" stroke-linecap="round" stroke-linejoin="round"/>
<path d="M43.9704 123.361C43.642 123.565 43.2674 123.682 42.8815 123.702C42.4956 123.722 42.1109 123.644 41.7632 123.475" stroke="#263238" stroke-linecap="round" stroke-linejoin="round"/>
<path d="M40.548 116.512C40.548 116.512 40.7662 114.414 41.8723 114.528" stroke="#263238" stroke-linecap="round" stroke-linejoin="round"/>
<path d="M42.2939 117.39C42.4824 117.971 42.4675 118.491 42.2642 118.561C42.0608 118.63 41.7682 118.204 41.5598 117.623C41.3515 117.043 41.3862 116.522 41.5896 116.453C41.793 116.383 42.1104 116.805 42.2939 117.39Z" fill="#263238"/>
<path d="M41.3218 109.216L41.3614 109.266C42.532 110.788 42.3534 112.485 41.4309 114.082C39.5907 117.331 33.9909 120.351 33.9909 123.035C33.9909 125.718 36.8181 125.579 36.8181 125.579C36.8181 125.579 37.949 127.985 35.1218 130.103C32.2946 132.221 26.4914 132.786 22.816 128.962C21.8054 127.875 21.0691 126.562 20.6683 125.133C19.5523 121.413 19.3936 117.276 21.0354 113.903C22.4142 111.076 24.0114 108.785 26.8832 107.361C29.145 106.25 32.7162 105.972 35.2408 106.121C36.4736 106.168 37.6846 106.461 38.8021 106.984C39.7834 107.551 40.6404 108.31 41.3218 109.216Z" fill="#263238" stroke="#263238" stroke-linecap="round" stroke-linejoin="round"/>
<path d="M33.5941 127.86C34.1397 127.771 34.6738 127.622 35.1862 127.414" stroke="#757575" stroke-linecap="round" stroke-linejoin="round"/>
<path d="M38.4202 115.459C37.6508 116.576 36.6883 117.547 35.5781 118.326C31.6795 121.054 27.3941 123.911 29.3434 126.505C29.6789 126.949 30.1107 127.312 30.6064 127.565C31.1021 127.818 31.6487 127.956 32.2053 127.968" stroke="#757575" stroke-linecap="round" stroke-linejoin="round"/>
<path d="M40.1214 111.57C39.9648 112.339 39.7132 113.086 39.3725 113.792" stroke="#757575" stroke-linecap="round" stroke-linejoin="round"/>
<path d="M30.8264 119.215C30.1915 120.093 29.393 121.124 28.4357 122.221C25.7077 125.34 26.0946 131.699 32.2003 131.183" stroke="#757575" stroke-linecap="round" stroke-linejoin="round"/>
<path d="M32.5872 116.506C32.5872 116.506 32.2995 117.056 31.744 117.89" stroke="#757575" stroke-linecap="round" stroke-linejoin="round"/>
<path d="M192.215 178.29C193.514 178.856 196.679 178.786 196.679 178.786C196.679 178.786 195.994 176.703 195.935 176.579C195.236 175.121 193.033 172.715 191.243 172.958C190.946 173.006 190.662 173.116 190.41 173.281C190.158 173.446 189.944 173.662 189.782 173.915C189.619 174.168 189.512 174.453 189.467 174.751C189.423 175.048 189.441 175.352 189.522 175.642C189.834 176.882 191.109 177.804 192.215 178.29Z" fill="#263238"/>
<path d="M233.824 167.479C232.024 167.285 229.886 169.75 229.231 171.228C229.172 171.352 228.512 173.45 228.547 173.45H228.587C228.244 173.837 227.882 174.254 227.5 174.72C226.796 175.583 226.012 176.57 225.224 177.696C224.364 178.902 223.576 180.158 222.863 181.456C222.057 182.905 221.383 184.424 220.849 185.994C220.849 185.994 220.849 186.034 220.849 186.049C220.849 185.518 220.849 184.035 220.824 183.926C220.616 182.324 219.272 179.348 217.491 179.016C217.193 178.969 216.888 178.985 216.597 179.063C216.306 179.142 216.034 179.281 215.8 179.471C215.566 179.662 215.375 179.899 215.239 180.169C215.103 180.438 215.025 180.733 215.011 181.034C214.907 182.304 215.829 183.579 216.732 184.382C217.724 185.29 220.566 186.168 220.789 186.237C220.281 187.847 219.883 189.489 219.599 191.153C219.425 192.12 219.282 193.102 219.148 194.089C219.148 193.628 219.148 193.221 219.148 193.161C218.939 191.559 217.595 188.583 215.815 188.256C215.517 188.208 215.212 188.224 214.921 188.302C214.63 188.38 214.358 188.518 214.124 188.708C213.89 188.898 213.699 189.136 213.563 189.405C213.427 189.674 213.349 189.969 213.335 190.27C213.23 191.544 214.153 192.819 215.056 193.623C215.958 194.426 218.354 195.235 218.989 195.438C218.944 195.815 218.89 196.192 218.845 196.569C218.632 198.389 218.424 200.2 218.161 201.97C218.071 202.595 217.957 203.21 217.848 203.82C217.848 203.414 217.848 203.072 217.848 203.017C217.64 201.415 216.296 198.444 214.515 198.112C214.217 198.065 213.913 198.081 213.622 198.159C213.331 198.237 213.06 198.376 212.826 198.566C212.592 198.756 212.401 198.993 212.265 199.261C212.128 199.53 212.05 199.824 212.035 200.125C211.931 201.4 212.853 202.675 213.756 203.478C214.659 204.282 216.821 205.011 217.575 205.259C217.446 205.879 217.312 206.504 217.159 207.104C217.04 207.511 216.955 207.908 216.816 208.309C216.678 208.711 216.564 209.108 216.435 209.5C216.162 210.249 215.889 211.022 215.606 211.742C215.413 212.238 215.214 212.734 215.021 213.23C215.12 212.61 215.289 211.389 215.289 211.285C215.269 209.865 214.884 208.473 214.173 207.243C214.179 207.077 214.169 206.911 214.143 206.747C214.106 206.448 214.006 206.161 213.851 205.904C213.695 205.647 213.487 205.425 213.239 205.254C212.992 205.082 212.712 204.965 212.416 204.91C212.121 204.854 211.817 204.862 211.524 204.932C209.778 205.398 208.667 208.468 208.588 210.08C208.588 210.174 208.642 211.211 208.692 211.866C208.603 211.489 208.523 211.117 208.429 210.725C208.246 209.951 208.037 209.187 207.819 208.364L207.457 207.164C207.348 206.762 207.179 206.355 207.035 205.943C206.688 204.996 206.296 204.054 205.875 203.116C206.549 202.952 208.945 202.342 209.907 201.603C210.869 200.864 211.891 199.669 211.891 198.389C211.899 198.089 211.844 197.79 211.729 197.513C211.614 197.235 211.442 196.985 211.224 196.778C211.006 196.572 210.747 196.413 210.464 196.313C210.18 196.213 209.879 196.173 209.58 196.197C207.779 196.39 206.217 199.257 205.89 200.84C205.89 200.939 205.766 202.099 205.721 202.739C205.463 202.179 205.225 201.613 204.927 201.053C204.124 199.436 203.261 197.819 202.408 196.207L201.629 194.719C201.872 194.659 204.734 194 205.81 193.171C206.768 192.437 207.794 191.232 207.794 189.957C207.803 189.657 207.748 189.358 207.633 189.08C207.519 188.802 207.347 188.551 207.129 188.345C206.91 188.138 206.651 187.979 206.368 187.879C206.084 187.779 205.783 187.74 205.483 187.765C203.682 187.958 202.125 190.825 201.798 192.408C201.798 192.527 201.619 194.198 201.604 194.625C201.039 193.533 200.483 192.442 199.977 191.346C199.291 189.864 198.702 188.34 198.212 186.783C198.326 186.758 201.316 186.079 202.418 185.23C203.38 184.496 204.402 183.296 204.402 182.016C204.409 181.716 204.354 181.417 204.239 181.14C204.124 180.862 203.952 180.612 203.734 180.405C203.516 180.199 203.257 180.04 202.974 179.94C202.691 179.84 202.39 179.8 202.09 179.824C200.29 180.017 198.732 182.884 198.405 184.467C198.38 184.591 198.216 186.391 198.212 186.718C198.182 186.629 198.142 186.54 198.117 186.451C197.671 184.873 197.364 183.26 197.2 181.629C197.1 180.732 197.056 179.869 197.031 179.025C197.596 178.956 200.2 178.609 201.277 177.959C202.353 177.309 203.454 176.248 203.583 174.983C203.624 174.685 203.602 174.382 203.519 174.094C203.435 173.805 203.291 173.537 203.097 173.308C202.903 173.079 202.662 172.893 202.391 172.763C202.121 172.633 201.825 172.561 201.525 172.553C199.714 172.553 197.849 175.226 197.348 176.764C197.324 176.843 197.14 177.726 197.021 178.371C197.021 177.989 197.021 177.597 197.021 177.23C197.021 175.861 197.11 174.611 197.195 173.5C197.249 172.87 197.309 172.3 197.373 171.769C197.899 171.412 199.992 169.934 200.632 168.877C201.272 167.821 201.778 166.358 201.307 165.172C201.206 164.889 201.047 164.63 200.84 164.412C200.633 164.194 200.382 164.023 200.104 163.908C199.826 163.793 199.528 163.738 199.227 163.747C198.927 163.755 198.631 163.827 198.36 163.957C196.753 164.79 196.327 168.024 196.595 169.621C196.619 169.76 197.224 171.873 197.254 171.853H197.284C197.215 172.349 197.145 172.91 197.081 173.51C196.967 174.621 196.852 175.871 196.823 177.245C196.773 178.725 196.808 180.207 196.927 181.684C197.056 183.337 197.332 184.975 197.75 186.58C197.75 186.58 197.75 186.619 197.75 186.639C197.463 186.193 196.624 184.968 196.55 184.878C195.493 183.658 192.731 181.902 191.094 182.626C190.821 182.751 190.577 182.932 190.378 183.158C190.179 183.383 190.03 183.648 189.94 183.934C189.851 184.221 189.822 184.524 189.857 184.822C189.891 185.121 189.988 185.408 190.142 185.667C190.757 186.788 192.23 187.343 193.425 187.517C194.774 187.71 197.606 186.887 197.835 186.823C198.299 188.445 198.872 190.034 199.551 191.579C199.943 192.482 200.364 193.38 200.796 194.272C200.538 193.896 200.3 193.558 200.265 193.514C199.208 192.293 196.446 190.538 194.779 191.262C194.506 191.387 194.263 191.569 194.065 191.794C193.867 192.02 193.718 192.284 193.629 192.571C193.539 192.858 193.511 193.16 193.546 193.458C193.581 193.756 193.679 194.044 193.832 194.302C194.447 195.423 195.92 195.979 197.115 196.152C198.311 196.326 200.756 195.656 201.401 195.493C201.569 195.835 201.733 196.177 201.897 196.519C202.715 198.151 203.544 199.778 204.302 201.4C204.575 201.97 204.798 202.546 205.061 203.116C204.833 202.779 204.635 202.501 204.6 202.461C203.544 201.236 200.781 199.485 199.119 200.205C198.846 200.33 198.602 200.511 198.403 200.736C198.205 200.961 198.056 201.226 197.966 201.513C197.876 201.799 197.847 202.102 197.882 202.4C197.917 202.699 198.014 202.987 198.167 203.245C198.782 204.366 200.255 204.922 201.45 205.095C202.646 205.269 204.858 204.679 205.617 204.47C205.855 205.06 206.113 205.656 206.286 206.241C206.415 206.643 206.569 207.025 206.673 207.436C206.777 207.848 206.896 208.24 207.011 208.637C207.194 209.41 207.392 210.209 207.551 210.968C207.67 211.494 207.769 212 207.874 212.505C207.611 211.935 207.08 210.824 207.025 210.74C206.162 209.371 203.697 207.233 201.946 207.679C201.657 207.761 201.388 207.903 201.158 208.096C200.927 208.288 200.739 208.528 200.607 208.798C200.475 209.068 200.402 209.363 200.392 209.663C200.381 209.964 200.434 210.263 200.548 210.541C200.984 211.742 202.358 212.525 203.524 212.868C204.798 213.254 207.611 212.897 207.988 212.868C208.156 213.711 208.31 214.529 208.444 215.303C208.652 216.468 208.821 217.55 208.965 218.532H207.179V238.079H214.966V218.487H213.935C214.242 217.783 214.56 217.034 214.892 216.23C215.224 215.427 215.562 214.559 215.884 213.666C216.221 213.736 219.009 214.301 220.308 214.008C221.484 213.74 222.912 213.076 223.438 211.91C223.575 211.64 223.652 211.344 223.666 211.041C223.679 210.738 223.628 210.436 223.516 210.155C223.404 209.874 223.233 209.619 223.016 209.409C222.798 209.198 222.538 209.037 222.253 208.934C220.541 208.359 217.923 210.303 216.96 211.603C216.906 211.682 216.385 212.595 216.063 213.155C216.201 212.793 216.335 212.436 216.474 212.059C216.747 211.31 217 210.571 217.273 209.753L217.63 208.552C217.759 208.156 217.843 207.719 217.952 207.297C218.185 206.305 218.374 205.313 218.543 204.321C219.197 204.56 221.519 205.373 222.739 205.284C223.959 205.194 225.457 204.758 226.151 203.687C226.324 203.441 226.444 203.161 226.501 202.866C226.559 202.57 226.554 202.266 226.486 201.973C226.418 201.68 226.289 201.405 226.108 201.165C225.926 200.925 225.696 200.726 225.432 200.582C223.825 199.753 220.938 201.281 219.797 202.422C219.723 202.496 218.994 203.414 218.602 203.91C218.696 203.3 218.796 202.69 218.875 202.07C219.098 200.274 219.267 198.454 219.445 196.614C219.5 196.058 219.559 195.503 219.619 194.947C219.847 195.036 222.595 196.063 223.959 195.964C225.159 195.88 226.672 195.438 227.366 194.367C227.54 194.121 227.659 193.841 227.717 193.546C227.774 193.251 227.769 192.946 227.701 192.653C227.633 192.36 227.504 192.085 227.323 191.845C227.141 191.605 226.911 191.406 226.647 191.262C225.04 190.433 222.158 191.961 221.013 193.102C220.928 193.191 219.877 194.501 219.629 194.848C219.758 193.623 219.897 192.408 220.085 191.212C220.327 189.599 220.675 188.003 221.127 186.436C221.236 186.475 224.103 187.557 225.492 187.462C226.697 187.378 228.205 186.932 228.904 185.865C229.076 185.619 229.194 185.339 229.251 185.044C229.307 184.749 229.302 184.446 229.234 184.153C229.166 183.86 229.038 183.585 228.857 183.345C228.676 183.106 228.447 182.906 228.185 182.76C226.573 181.927 223.691 183.46 222.545 184.6C222.456 184.69 221.33 186.088 221.142 186.371C221.171 186.277 221.186 186.183 221.216 186.093C221.71 184.532 222.344 183.018 223.111 181.57C223.522 180.766 223.959 180.017 224.4 179.298C224.896 179.556 227.277 180.702 228.537 180.756C229.797 180.811 231.305 180.543 232.128 179.551C232.327 179.326 232.477 179.061 232.566 178.774C232.656 178.487 232.685 178.184 232.649 177.886C232.614 177.587 232.517 177.299 232.363 177.041C232.209 176.783 232.002 176.56 231.756 176.387C230.268 175.395 227.213 176.59 225.953 177.597C225.883 177.652 225.244 178.286 224.787 178.753C224.996 178.43 225.199 178.098 225.402 177.795C226.156 176.655 226.92 175.658 227.604 174.78C227.996 174.284 228.363 173.842 228.706 173.436C229.345 173.436 231.905 173.346 233.026 172.82C234.147 172.295 235.367 171.332 235.63 170.097C235.699 169.806 235.706 169.503 235.651 169.208C235.596 168.913 235.479 168.634 235.309 168.387C235.139 168.14 234.919 167.932 234.663 167.775C234.407 167.619 234.122 167.518 233.824 167.479ZM213.9 215.819C213.483 216.786 213.077 217.674 212.695 218.492H209.977C209.808 217.456 209.605 216.31 209.357 215.065C209.188 214.212 208.99 213.304 208.781 212.372C209.63 212.032 210.458 211.642 211.261 211.206C212.189 212.198 214.56 213.383 214.867 213.532C214.54 214.326 214.217 215.095 213.9 215.819Z" fill="#263238"/>
<path d="M224.341 178.992C224.371 178.992 224.921 176.879 224.941 176.74C225.164 175.138 224.653 171.914 223.021 171.13C222.747 171.007 222.451 170.942 222.15 170.941C221.85 170.94 221.552 171.003 221.278 171.125C221.003 171.246 220.757 171.424 220.556 171.648C220.355 171.871 220.203 172.134 220.11 172.42C219.673 173.62 220.224 175.093 220.884 176.105C221.652 177.295 224.341 178.987 224.341 178.992Z" fill="#263238"/>
<path d="M234.945 237.941H241.235" stroke="#263238" stroke-linecap="round" stroke-linejoin="round"/>
<path d="M229.574 237.941H232.054" stroke="#263238" stroke-linecap="round" stroke-linejoin="round"/>
<path d="M10.5946 237.941H227.783" stroke="#263238" stroke-linecap="round" stroke-linejoin="round"/>
</svg>
