<svg width="269" height="269" viewBox="0 0 269 269" fill="none" xmlns="http://www.w3.org/2000/svg">
<path d="M21.1542 243.832H247.846" stroke="#263238" stroke-linecap="round" stroke-linejoin="round"/>
<path d="M66.7443 182.441V243.521" stroke="#263238" stroke-linecap="round" stroke-linejoin="round"/>
<path d="M66.7443 174.779V179.799" stroke="#263238" stroke-linecap="round" stroke-linejoin="round"/>
<path d="M207.27 243.656V162.369H66.7443V171.946" stroke="#263238" stroke-linecap="round" stroke-linejoin="round"/>
<path d="M192.911 167.135H201.465V239.657" stroke="#263238" stroke-linecap="round" stroke-linejoin="round"/>
<path d="M72.5547 243.52V167.135H187.945" stroke="#263238" stroke-linecap="round" stroke-linejoin="round"/>
<path d="M76.6489 157.85H79.3658" stroke="#263238" stroke-linecap="round" stroke-linejoin="round"/>
<path d="M83.2663 157.85H209.723V162.337H64.2964V157.85H74.9165" stroke="#263238" stroke-linecap="round" stroke-linejoin="round"/>
<path d="M231.851 155.633L230.517 164.289" stroke="#263238" stroke-linecap="round" stroke-linejoin="round"/>
<path d="M223.668 120.098H230.124C231.015 120.098 231.895 120.291 232.704 120.663C233.513 121.036 234.232 121.578 234.812 122.254C235.392 122.93 235.819 123.723 236.063 124.58C236.308 125.436 236.365 126.335 236.23 127.215L232.583 150.887" stroke="#263238" stroke-linecap="round" stroke-linejoin="round"/>
<path d="M217.104 120.098H221.823" stroke="#263238" stroke-linecap="round" stroke-linejoin="round"/>
<path d="M189.462 155.589L194.127 125.354C194.35 123.896 195.089 122.567 196.208 121.607C197.327 120.647 198.753 120.119 200.227 120.119H213.742" stroke="#263238" stroke-linecap="round" stroke-linejoin="round"/>
<path d="M185.25 182.926L187.348 169.293" stroke="#263238" stroke-linecap="round" stroke-linejoin="round"/>
<path d="M209.131 200.324H215.555C218.617 200.325 221.559 199.139 223.765 197.016" stroke="#263238" stroke-linecap="round" stroke-linejoin="round"/>
<path d="M173.726 200.324H196.112" stroke="#263238" stroke-linecap="round" stroke-linejoin="round"/>
<path d="M164.472 198.301C166.426 199.621 168.731 200.326 171.089 200.324" stroke="#263238" stroke-linecap="round" stroke-linejoin="round"/>
<path d="M199.598 182.92H163.67C162.5 182.92 161.378 183.385 160.551 184.212C159.724 185.039 159.259 186.161 159.259 187.332V188.483C159.252 191.151 160.151 193.742 161.809 195.832" stroke="#263238" stroke-linecap="round" stroke-linejoin="round"/>
<path d="M227.068 185.675C226.736 184.863 226.17 184.168 225.442 183.678C224.714 183.189 223.857 182.927 222.979 182.926H216.577" stroke="#263238" stroke-linecap="round" stroke-linejoin="round"/>
<path d="M199.663 203.574H184.292L181.064 200.324" stroke="#263238" stroke-linecap="round" stroke-linejoin="round"/>
<path d="M188.709 203.574H197.936V214.388C197.936 214.648 197.832 214.897 197.649 215.08C197.465 215.264 197.216 215.367 196.956 215.367H189.688C189.428 215.367 189.179 215.264 188.996 215.08C188.812 214.897 188.709 214.648 188.709 214.388V203.574Z" stroke="#263238" stroke-linecap="round" stroke-linejoin="round"/>
<path d="M196.209 215.367H190.436V228.65H196.209V215.367Z" stroke="#263238" stroke-linecap="round" stroke-linejoin="round"/>
<path d="M166.882 236.828C176.491 230.426 190.452 228.65 190.452 228.65" stroke="#263238" stroke-linecap="round" stroke-linejoin="round"/>
<path d="M199.641 234.918C189.914 233.493 180.23 235.645 171.084 238.001" stroke="#263238" stroke-linecap="round" stroke-linejoin="round"/>
<path d="M215.544 238.001C213.328 237.43 211.09 236.925 208.846 236.473" stroke="#263238" stroke-linecap="round" stroke-linejoin="round"/>
<path d="M209.131 231.775C212.879 232.996 216.454 234.694 219.768 236.827" stroke="#263238" stroke-linecap="round" stroke-linejoin="round"/>
<path d="M196.209 228.65C197.424 228.817 198.63 229.032 199.835 229.28" stroke="#263238" stroke-linecap="round" stroke-linejoin="round"/>
<path d="M168.012 244.07C170.012 244.07 171.633 242.449 171.633 240.449C171.633 238.449 170.012 236.828 168.012 236.828C166.012 236.828 164.391 238.449 164.391 240.449C164.391 242.449 166.012 244.07 168.012 244.07Z" stroke="#263238" stroke-linecap="round" stroke-linejoin="round"/>
<path d="M219.122 244.07C221.122 244.07 222.743 242.449 222.743 240.449C222.743 238.449 221.122 236.828 219.122 236.828C217.122 236.828 215.501 238.449 215.501 240.449C215.501 242.449 217.122 244.07 219.122 244.07Z" stroke="#263238" stroke-linecap="round" stroke-linejoin="round"/>
<path d="M214.732 192.943L217.573 173.715C217.704 172.818 218.124 171.989 218.768 171.351C219.413 170.714 220.247 170.303 221.145 170.181L234.342 168.394C234.832 168.327 235.28 168.084 235.605 167.711C235.929 167.338 236.107 166.86 236.107 166.366V166.366C236.107 165.823 235.891 165.303 235.508 164.919C235.125 164.534 234.605 164.318 234.062 164.316H232.416L219.343 166.334C217.784 166.574 216.345 167.313 215.242 168.44C214.139 169.568 213.432 171.022 213.226 172.585L210.493 193.438C210.469 193.62 210.484 193.805 210.537 193.98C210.59 194.155 210.68 194.317 210.801 194.455C210.922 194.593 211.07 194.704 211.237 194.78C211.403 194.856 211.584 194.896 211.768 194.896V194.896" stroke="#263238" stroke-linecap="round" stroke-linejoin="round"/>
<path d="M234.342 168.395L230.91 186.654C231.365 186.654 231.801 186.835 232.123 187.157C232.445 187.479 232.626 187.915 232.626 188.37V191.857C232.626 193.012 232.167 194.121 231.349 194.938C230.532 195.755 229.424 196.215 228.268 196.215H212.225" stroke="#263238" stroke-linecap="round" stroke-linejoin="round"/>
<path d="M232.066 168.68L228.494 186.24H219.122" stroke="#263238" stroke-linecap="round" stroke-linejoin="round"/>
<path d="M163.713 172.559L162.756 179.886" stroke="#263238" stroke-linecap="round" stroke-linejoin="round"/>
<path d="M167.06 180.618L168.077 173.715C168.208 172.819 168.628 171.989 169.272 171.351C169.917 170.714 170.751 170.303 171.649 170.181L184.846 168.395" stroke="#263238" stroke-linecap="round" stroke-linejoin="round"/>
<path d="M144.023 52.4219H35.8416V243.832H144.023V52.4219Z" fill="white" stroke="#263238" stroke-linecap="round" stroke-linejoin="round"/>
<path d="M137.846 168.055H41.9694" stroke="#263238" stroke-miterlimit="10"/>
<path d="M41.9694 128.441H137.846" stroke="#263238" stroke-miterlimit="10"/>
<path d="M73.1841 76.3633H41.9694V122.395H73.1841V76.3633Z" fill="#651FFF" stroke="#263238" stroke-linecap="round" stroke-linejoin="round"/>
<path d="M70.5963 122.4V107.514C66.3239 105.877 61.7803 105.065 57.2055 105.12C51.5727 105.179 46.5854 106.196 43.8846 107.385V122.4H70.5963Z" fill="#651FFF" stroke="#263238" stroke-linecap="round" stroke-linejoin="round"/>
<path d="M55.5862 122.4H59.18L58.3084 111.328L59.5942 108.562C59.5942 108.562 57.5122 107.82 55.9036 108.562L56.7267 111.328L55.5862 122.4Z" fill="#263238"/>
<path d="M61.488 103.354L63.8821 105.113L60.9124 112.284L57.5768 108.561L53.8915 112.284L50.5881 105.113L52.9822 103.354H61.488Z" fill="#651FFF" stroke="#263238" stroke-linecap="round" stroke-linejoin="round"/>
<path d="M62.1874 104.226C62.1874 104.226 59.6104 107.992 57.5767 108.056C56.1403 108.094 52.4442 104.522 52.4442 104.522C53.4449 103.623 53.5202 101.966 53.3588 100.659C53.2874 100.016 53.1614 99.381 52.9822 98.7598H61.488C61.0553 99.9662 60.9514 101.266 61.1867 102.526C61.3028 103.195 61.6585 103.799 62.1874 104.226Z" fill="white" stroke="#263238" stroke-linecap="round" stroke-linejoin="round"/>
<path d="M61.1867 102.531C55.0428 104.145 53.8269 100.632 53.8269 100.632H53.3588C53.2874 99.989 53.1614 99.3536 52.9822 98.7324H61.488C61.0496 99.9488 60.9455 101.26 61.1867 102.531Z" fill="#263238"/>
<path d="M63.8552 92.6807C63.8552 92.6807 67.9333 79.6396 52.9822 83.1796C52.9822 83.1796 51.761 82.5448 51.0132 82.8353C50.2653 83.1258 49.5444 88.3928 50.8141 93.2617L63.8552 92.6807Z" fill="#263238"/>
<path d="M63.3387 92.7927C63.3387 92.7927 64.022 92.0449 64.3609 92.2924C64.5845 92.4809 64.7527 92.7267 64.8475 93.0034C64.9422 93.2801 64.96 93.5773 64.8989 93.8634C64.716 94.4928 63.9198 95.5957 63.8606 96.2359C63.8014 96.8762 63.3872 97.6078 62.9352 97.1828C62.4833 96.7578 63.3387 92.7927 63.3387 92.7927Z" fill="white" stroke="#263238" stroke-linecap="round" stroke-linejoin="round"/>
<path d="M51.11 92.7927C51.11 92.7927 50.4267 92.0449 50.0932 92.2924C49.8696 92.4809 49.7014 92.7267 49.6067 93.0034C49.5119 93.2801 49.4941 93.5773 49.5552 93.8634C49.7381 94.4928 50.5343 95.5957 50.5989 96.2359C50.6635 96.8762 51.0723 97.6078 51.5189 97.1828C51.9654 96.7578 51.11 92.7927 51.11 92.7927Z" fill="white" stroke="#263238" stroke-linecap="round" stroke-linejoin="round"/>
<path d="M57.0925 84.1914C65.7005 84.1914 63.6561 95.6616 62.069 99.3469C61.531 100.638 58.6312 102.333 57.227 102.333C55.9305 102.333 52.9607 100.305 52.4335 99.1048C50.841 95.3926 48.8827 84.1914 57.0925 84.1914Z" fill="white" stroke="#263238" stroke-linecap="round" stroke-linejoin="round"/>
<path d="M58.5505 91.2711C58.5505 91.2711 60.794 90.5825 61.488 91.9651" stroke="#263238" stroke-linecap="round" stroke-linejoin="round"/>
<path d="M60.2129 93.1585C60.2129 93.4221 60.0784 93.6373 59.9117 93.6373C59.7449 93.6373 59.6104 93.4221 59.6104 93.1585C59.6104 92.8949 59.7449 92.6797 59.9117 92.6797C60.0784 92.6797 60.2129 92.8949 60.2129 93.1585Z" fill="#263238"/>
<path d="M55.9197 91.2711C55.9197 91.2711 53.6763 90.5825 52.9822 91.9651" stroke="#263238" stroke-linecap="round" stroke-linejoin="round"/>
<path d="M54.2627 93.1585C54.2627 93.4221 54.3918 93.6373 54.5586 93.6373C54.7253 93.6373 54.8598 93.4221 54.8598 93.1585C54.8598 92.8949 54.7253 92.6797 54.5586 92.6797C54.3918 92.6797 54.2627 92.8949 54.2627 93.1585Z" fill="#263238"/>
<path d="M52.3958 87.6398C51.9385 88.2262 52.3958 90.0285 52.5195 90.7656C52.6433 91.5026 51.5135 91.9976 51.648 93.8645L51.2122 94.5047C51.2122 94.5047 49.9963 91.5188 50.303 88.9471C50.6096 86.3755 52.229 85.3802 52.229 85.3802C52.229 85.3802 52.9661 83.1636 57.3024 83.1798C61.9722 83.1798 62.4456 85.7245 62.4456 85.7245C62.4456 85.7245 65.6091 87.8389 63.2688 94.7199L62.7577 93.8645C62.8795 92.9519 62.6695 92.0259 62.1659 91.2552C61.7624 90.658 62.4134 88.8664 62.2627 87.9518C62.1121 87.0372 52.8585 87.0588 52.3958 87.6398Z" fill="#263238"/>
<path d="M57.7489 92.6797C57.7489 92.6797 57.878 95.3266 58.2546 96.0745C58.6312 96.8223 57.3078 96.9406 56.7429 96.4995" stroke="#263238" stroke-linecap="round" stroke-linejoin="round"/>
<path d="M55.3494 97.916C55.4089 98.1316 55.5103 98.3333 55.6479 98.5097C55.7854 98.686 55.9564 98.8335 56.151 98.9436C57.0382 99.1556 57.9651 99.1333 58.841 98.879C59.0933 98.635 59.269 98.3228 59.3468 97.9806" fill="white"/>
<path d="M55.3494 97.916C55.4089 98.1316 55.5103 98.3333 55.6479 98.5097C55.7854 98.686 55.9564 98.8335 56.151 98.9436C57.0382 99.1556 57.9651 99.1333 58.841 98.879C59.0933 98.635 59.269 98.3228 59.3468 97.9806" stroke="#263238" stroke-linecap="round" stroke-linejoin="round"/>
<path d="M55.1611 97.873C56.6274 98.1893 58.1442 98.1893 59.6104 97.873" stroke="#263238" stroke-linecap="round" stroke-linejoin="round"/>
<path d="M48.5222 106.006L41.9694 107.819V122.393H56.8558L48.5222 106.006Z" fill="#999999" stroke="#263238" stroke-linecap="round" stroke-linejoin="round"/>
<path d="M73.1841 108.235L64.9527 105.631L58.0771 122.395H73.1841V108.235Z" fill="#999999" stroke="#263238" stroke-linecap="round" stroke-linejoin="round"/>
<path d="M60.9608 122.399L65.8081 116.756L62.8115 113.883L67.406 111.327L65.8243 106.044L63.8821 105.113L57.9856 122.399H60.9608Z" fill="#BFBFBF" stroke="#263238" stroke-linecap="round" stroke-linejoin="round"/>
<path d="M48.9957 117.337L53.8215 122.399H57.0388L50.5881 105.113L48.5222 106.006L46.9728 110.913L51.6588 114.631L48.9957 117.337Z" fill="#BFBFBF" stroke="#263238" stroke-linecap="round" stroke-linejoin="round"/>
<path d="M72.2426 59.5123V60.4753C72.2426 61.6643 71.667 62.3099 70.5049 62.3099H69.9669V65.0968H68.8048V57.6777H70.521C71.667 57.6777 72.2426 58.3233 72.2426 59.5123ZM69.94 58.7376V61.2501H70.478C70.8492 61.2501 71.0483 61.0779 71.0483 60.5507V59.437C71.0483 58.899 70.8492 58.7376 70.478 58.7376H69.94Z" fill="#263238"/>
<path d="M75.2178 65.0968C75.1195 64.8044 75.0829 64.4948 75.1102 64.1875V63.0201C75.1102 62.3314 74.8788 62.0786 74.3516 62.0786H73.9481V65.0968H72.7806V57.6777H74.5399C75.745 57.6777 76.2669 58.2426 76.2669 59.3832V59.9696C76.3081 60.2664 76.2569 60.5687 76.1202 60.8354C75.9835 61.102 75.768 61.3201 75.5029 61.4599C76.084 61.702 76.2776 62.2561 76.2776 63.0255V64.1714C76.2515 64.4847 76.2918 64.8001 76.396 65.0968H75.2178ZM73.9481 58.743V61.0187H74.4C74.8358 61.0187 75.0994 60.8304 75.0994 60.2386V59.5016C75.0994 58.9636 74.9219 58.7376 74.5076 58.7376L73.9481 58.743Z" fill="#263238"/>
<path d="M76.934 59.4591C76.934 58.2755 77.5581 57.5977 78.704 57.5977C79.8499 57.5977 80.4687 58.2755 80.4687 59.4591V63.3166C80.4687 64.5002 79.8446 65.1781 78.704 65.1781C77.5634 65.1781 76.934 64.5002 76.934 63.3166V59.4591ZM78.1014 63.3865C78.1014 63.9245 78.3328 64.1182 78.704 64.1182C79.0752 64.1182 79.3066 63.9192 79.3066 63.3865V59.3838C79.3066 58.8458 79.0752 58.6521 78.704 58.6521C78.3328 58.6521 78.1014 58.8566 78.1014 59.3838V63.3865Z" fill="#263238"/>
<path d="M82.4001 60.9757H83.928V62.0517H82.427V65.0968H81.238V57.6777H84.3207V58.7537H82.4054L82.4001 60.9757Z" fill="#263238"/>
<path d="M84.8802 57.6777H86.0423V65.0968H84.8802V57.6777Z" fill="#263238"/>
<path d="M86.8924 57.6777H88.0544V64.0208H89.9751V65.0968H86.8924V57.6777Z" fill="#263238"/>
<path d="M91.6483 60.7928H93.2623V61.8688H91.6483V64.0208H93.6604V65.0968H90.4808V57.6777H93.6604V58.7537H91.6483V60.7928Z" fill="#263238"/>
<path d="M96.0222 57.6777H97.8676C99.0296 57.6777 99.5999 58.3233 99.5999 59.5123V63.2783C99.5999 64.4619 99.0296 65.1075 97.8676 65.1075H96.0222V57.6777ZM97.1897 58.7537V64.0208H97.846C98.2173 64.0208 98.4378 63.8325 98.4378 63.3052V59.4478C98.4378 58.9098 98.2173 58.7268 97.846 58.7268L97.1897 58.7537Z" fill="#263238"/>
<path d="M104.103 65.0972H102.93L102.726 63.7522H101.3L101.096 65.0972H100.02L101.209 57.6836H102.914L104.103 65.0972ZM101.445 62.7462H102.57L102.032 58.9802L101.445 62.7462Z" fill="#263238"/>
<path d="M103.904 57.6777H107.503V58.7537H106.287V65.0968H105.12V58.7376H103.904V57.6777Z" fill="#263238"/>
<path d="M111.366 65.0972H110.188L109.989 63.7522H108.558L108.359 65.0972H107.283L108.466 57.6836H110.172L111.366 65.0972ZM108.708 62.7462H109.827L109.289 58.9802L108.708 62.7462Z" fill="#263238"/>
<path d="M41.9963 70.8535H137.868" stroke="#263238" stroke-linecap="round" stroke-linejoin="round"/>
<path d="M79.4895 78.7251H102.925C103.058 78.735 103.191 78.7174 103.317 78.6734C103.443 78.6294 103.558 78.5599 103.656 78.4692C103.753 78.3786 103.831 78.2687 103.885 78.1466C103.938 78.0245 103.965 77.8927 103.965 77.7594C103.965 77.6262 103.938 77.4943 103.885 77.3722C103.831 77.2501 103.753 77.1402 103.656 77.0496C103.558 76.959 103.443 76.8894 103.317 76.8454C103.191 76.8014 103.058 76.7838 102.925 76.7937H79.4895C79.2458 76.8119 79.018 76.9215 78.8518 77.1006C78.6856 77.2797 78.5932 77.5151 78.5932 77.7594C78.5932 78.0038 78.6856 78.2391 78.8518 78.4182C79.018 78.5973 79.2458 78.7069 79.4895 78.7251Z" fill="#263238"/>
<path d="M111.786 83.4316H79.5056C79.262 83.4498 79.0342 83.5595 78.868 83.7386C78.7017 83.9177 78.6094 84.153 78.6094 84.3973C78.6094 84.6417 78.7017 84.877 78.868 85.0561C79.0342 85.2352 79.262 85.3449 79.5056 85.3631H111.786C112.029 85.3449 112.257 85.2352 112.423 85.0561C112.59 84.877 112.682 84.6417 112.682 84.3973C112.682 84.153 112.59 83.9177 112.423 83.7386C112.257 83.5595 112.029 83.4498 111.786 83.4316Z" fill="#263238"/>
<path d="M94.0693 90.0769H79.4895C79.2458 90.0951 79.018 90.2048 78.8518 90.3839C78.6856 90.563 78.5932 90.7983 78.5932 91.0426C78.5932 91.287 78.6856 91.5223 78.8518 91.7014C79.018 91.8805 79.2458 91.9901 79.4895 92.0083H94.0693C94.2022 92.0183 94.3357 92.0006 94.4614 91.9566C94.5872 91.9126 94.7025 91.8431 94.8002 91.7524C94.8979 91.6618 94.9758 91.552 95.0291 91.4298C95.0823 91.3077 95.1098 91.1759 95.1098 91.0426C95.1098 90.9094 95.0823 90.7776 95.0291 90.6554C94.9758 90.5333 94.8979 90.4235 94.8002 90.3328C94.7025 90.2422 94.5872 90.1727 94.4614 90.1286C94.3357 90.0846 94.2022 90.067 94.0693 90.0769Z" fill="#263238"/>
<path d="M111.786 96.7207H79.5056C79.262 96.7389 79.0342 96.8485 78.868 97.0276C78.7017 97.2067 78.6094 97.4421 78.6094 97.6864C78.6094 97.9308 78.7017 98.1661 78.868 98.3452C79.0342 98.5243 79.262 98.6339 79.5056 98.6521H111.786C112.029 98.6339 112.257 98.5243 112.423 98.3452C112.59 98.1661 112.682 97.9308 112.682 97.6864C112.682 97.4421 112.59 97.2067 112.423 97.0276C112.257 96.8485 112.029 96.7389 111.786 96.7207Z" fill="#263238"/>
<path d="M98.497 103.36H79.4895C79.2458 103.378 79.018 103.488 78.8518 103.667C78.6856 103.846 78.5932 104.081 78.5932 104.326C78.5932 104.57 78.6856 104.805 78.8518 104.985C79.018 105.164 79.2458 105.273 79.4895 105.292H98.497C98.6299 105.301 98.7634 105.284 98.8892 105.24C99.0149 105.196 99.1303 105.126 99.2279 105.036C99.3256 104.945 99.4035 104.835 99.4568 104.713C99.5101 104.591 99.5376 104.459 99.5376 104.326C99.5376 104.193 99.5101 104.061 99.4568 103.939C99.4035 103.816 99.3256 103.707 99.2279 103.616C99.1303 103.525 99.0149 103.456 98.8892 103.412C98.7634 103.368 98.6299 103.35 98.497 103.36Z" fill="#263238"/>
<path d="M88.9959 110.973H78.5265V121.442H88.9959V110.973Z" fill="#BFBFBF" stroke="#263238" stroke-linecap="round" stroke-linejoin="round"/>
<path d="M105.136 110.973H94.6665V121.442H105.136V110.973Z" fill="#BFBFBF" stroke="#263238" stroke-linecap="round" stroke-linejoin="round"/>
<path d="M121.276 110.973H110.806V121.442H121.276V110.973Z" fill="#BFBFBF" stroke="#263238" stroke-linecap="round" stroke-linejoin="round"/>
<path d="M58.0609 154.222C63.2191 154.222 67.4006 150.041 67.4006 144.883C67.4006 139.724 63.2191 135.543 58.0609 135.543C52.9028 135.543 48.7213 139.724 48.7213 144.883C48.7213 150.041 52.9028 154.222 58.0609 154.222Z" stroke="#263238" stroke-width="5" stroke-miterlimit="10"/>
<path d="M67.406 144.882C67.406 146.73 66.8579 148.537 65.8311 150.074C64.8042 151.611 63.3447 152.809 61.6371 153.516C59.9296 154.223 58.0506 154.408 56.2378 154.048C54.4251 153.687 52.7599 152.797 51.453 151.49C50.1461 150.183 49.256 148.518 48.8954 146.705C48.5349 144.893 48.7199 143.014 49.4272 141.306C50.1345 139.598 51.3323 138.139 52.8691 137.112C54.4059 136.085 56.2127 135.537 58.0609 135.537" stroke="#651FFF" stroke-width="5" stroke-linecap="round" stroke-linejoin="round"/>
<path d="M65.3509 159.501H50.7764C50.6435 159.491 50.5101 159.508 50.3843 159.552C50.2585 159.596 50.1432 159.666 50.0455 159.757C49.9479 159.847 49.87 159.957 49.8167 160.079C49.7634 160.201 49.7359 160.333 49.7359 160.466C49.7359 160.6 49.7634 160.732 49.8167 160.854C49.87 160.976 49.9479 161.086 50.0455 161.176C50.1432 161.267 50.2585 161.336 50.3843 161.38C50.5101 161.424 50.6435 161.442 50.7764 161.432H65.3509C65.4837 161.442 65.6172 161.424 65.743 161.38C65.8688 161.336 65.9841 161.267 66.0817 161.176C66.1794 161.086 66.2573 160.976 66.3106 160.854C66.3639 160.732 66.3914 160.6 66.3914 160.466C66.3914 160.333 66.3639 160.201 66.3106 160.079C66.2573 159.957 66.1794 159.847 66.0817 159.757C65.9841 159.666 65.8688 159.596 65.743 159.552C65.6172 159.508 65.4837 159.491 65.3509 159.501Z" fill="#263238"/>
<path d="M88.8668 154.222C94.025 154.222 98.2065 150.041 98.2065 144.883C98.2065 139.724 94.025 135.543 88.8668 135.543C83.7087 135.543 79.5272 139.724 79.5272 144.883C79.5272 150.041 83.7087 154.222 88.8668 154.222Z" stroke="#263238" stroke-width="5" stroke-miterlimit="10"/>
<path d="M95.4735 151.483C94.3873 152.569 93.0502 153.37 91.5806 153.815C90.1111 154.26 88.5544 154.337 87.0484 154.037C85.5424 153.737 84.1335 153.07 82.9465 152.096C81.7596 151.122 80.8311 149.87 80.2434 148.452C79.6556 147.033 79.4267 145.491 79.5769 143.963C79.7272 142.435 80.2519 140.967 81.1046 139.69C81.9573 138.413 83.1117 137.366 84.4657 136.642C85.8196 135.917 87.3313 135.538 88.8668 135.537" stroke="#651FFF" stroke-width="5" stroke-linecap="round" stroke-linejoin="round"/>
<path d="M96.1567 159.501H81.5769C81.3333 159.519 81.1055 159.629 80.9393 159.808C80.773 159.987 80.6807 160.222 80.6807 160.466C80.6807 160.711 80.773 160.946 80.9393 161.125C81.1055 161.304 81.3333 161.414 81.5769 161.432H96.1567C96.2896 161.442 96.4231 161.424 96.5489 161.38C96.6746 161.336 96.79 161.267 96.8876 161.176C96.9853 161.086 97.0632 160.976 97.1165 160.854C97.1698 160.732 97.1973 160.6 97.1973 160.466C97.1973 160.333 97.1698 160.201 97.1165 160.079C97.0632 159.957 96.9853 159.847 96.8876 159.757C96.79 159.666 96.6746 159.596 96.5489 159.552C96.4231 159.508 96.2896 159.491 96.1567 159.501Z" fill="#263238"/>
<path d="M119.673 154.222C124.831 154.222 129.012 150.041 129.012 144.883C129.012 139.724 124.831 135.543 119.673 135.543C114.515 135.543 110.333 139.724 110.333 144.883C110.333 150.041 114.515 154.222 119.673 154.222Z" stroke="#263238" stroke-width="5" stroke-miterlimit="10"/>
<path d="M119.673 154.222C117.234 154.163 114.914 153.153 113.21 151.408C111.506 149.662 110.552 147.319 110.552 144.879C110.552 142.44 111.506 140.097 113.21 138.351C114.914 136.606 117.234 135.596 119.673 135.537" stroke="#651FFF" stroke-width="5" stroke-linecap="round" stroke-linejoin="round"/>
<path d="M126.968 159.5H112.388C112.145 159.518 111.917 159.628 111.751 159.807C111.584 159.986 111.492 160.221 111.492 160.466C111.492 160.71 111.584 160.945 111.751 161.124C111.917 161.304 112.145 161.413 112.388 161.431H126.968C127.212 161.413 127.439 161.304 127.606 161.124C127.772 160.945 127.864 160.71 127.864 160.466C127.864 160.221 127.772 159.986 127.606 159.807C127.439 159.628 127.212 159.518 126.968 159.5Z" fill="#263238"/>
<path d="M60.0193 173.973H41.9963V191.996H60.0193V173.973Z" fill="#BFBFBF" stroke="#263238" stroke-linecap="round" stroke-linejoin="round"/>
<path d="M65.5015 175.924H121.217C121.35 175.934 121.483 175.917 121.609 175.873C121.735 175.829 121.85 175.759 121.948 175.668C122.045 175.578 122.123 175.468 122.177 175.346C122.23 175.224 122.257 175.092 122.257 174.959C122.257 174.825 122.23 174.694 122.177 174.571C122.123 174.449 122.045 174.339 121.948 174.249C121.85 174.158 121.735 174.089 121.609 174.045C121.483 174.001 121.35 173.983 121.217 173.993H65.5015C65.2578 174.011 65.03 174.121 64.8638 174.3C64.6976 174.479 64.6052 174.714 64.6052 174.959C64.6052 175.203 64.6976 175.438 64.8638 175.617C65.03 175.796 65.2578 175.906 65.5015 175.924Z" fill="#263238"/>
<path d="M130.078 180.617H65.5176C65.274 180.635 65.0462 180.745 64.88 180.924C64.7137 181.103 64.6214 181.339 64.6214 181.583C64.6214 181.827 64.7137 182.063 64.88 182.242C65.0462 182.421 65.274 182.53 65.5176 182.549H130.078C130.321 182.53 130.549 182.421 130.715 182.242C130.882 182.063 130.974 181.827 130.974 181.583C130.974 181.339 130.882 181.103 130.715 180.924C130.549 180.745 130.321 180.635 130.078 180.617Z" fill="#263238"/>
<path d="M128.501 187.255H65.5015C65.2578 187.273 65.03 187.382 64.8638 187.562C64.6976 187.741 64.6052 187.976 64.6052 188.22C64.6052 188.465 64.6976 188.7 64.8638 188.879C65.03 189.058 65.2578 189.168 65.5015 189.186H128.501C128.634 189.196 128.768 189.178 128.893 189.134C129.019 189.09 129.135 189.021 129.232 188.93C129.33 188.84 129.408 188.73 129.461 188.608C129.514 188.485 129.542 188.354 129.542 188.22C129.542 188.087 129.514 187.955 129.461 187.833C129.408 187.711 129.33 187.601 129.232 187.511C129.135 187.42 129.019 187.35 128.893 187.306C128.768 187.262 128.634 187.245 128.501 187.255Z" fill="#263238"/>
<path d="M130.078 193.9H65.5176C65.274 193.919 65.0462 194.028 64.88 194.207C64.7137 194.386 64.6214 194.622 64.6214 194.866C64.6214 195.11 64.7137 195.346 64.88 195.525C65.0462 195.704 65.274 195.814 65.5176 195.832H130.078C130.321 195.814 130.549 195.704 130.715 195.525C130.882 195.346 130.974 195.11 130.974 194.866C130.974 194.622 130.882 194.386 130.715 194.207C130.549 194.028 130.321 193.919 130.078 193.9Z" fill="#263238"/>
<path d="M79.129 200.544H65.5015C65.2578 200.562 65.03 200.672 64.8638 200.851C64.6976 201.03 64.6052 201.265 64.6052 201.509C64.6052 201.754 64.6976 201.989 64.8638 202.168C65.03 202.347 65.2578 202.457 65.5015 202.475H79.129C79.2619 202.485 79.3954 202.467 79.5212 202.423C79.6469 202.379 79.7623 202.31 79.8599 202.219C79.9576 202.129 80.0355 202.019 80.0888 201.897C80.1421 201.774 80.1696 201.643 80.1696 201.509C80.1696 201.376 80.1421 201.244 80.0888 201.122C80.0355 201 79.9576 200.89 79.8599 200.8C79.7623 200.709 79.6469 200.639 79.5212 200.595C79.3954 200.551 79.2619 200.534 79.129 200.544Z" fill="#263238"/>
<path d="M60.0193 208.941H41.9963V226.964H60.0193V208.941Z" fill="#BFBFBF" stroke="#263238" stroke-linecap="round" stroke-linejoin="round"/>
<path d="M65.5015 210.895H121.217C121.35 210.905 121.483 210.887 121.609 210.843C121.735 210.799 121.85 210.73 121.948 210.639C122.045 210.549 122.123 210.439 122.177 210.317C122.23 210.194 122.257 210.063 122.257 209.929C122.257 209.796 122.23 209.664 122.177 209.542C122.123 209.42 122.045 209.31 121.948 209.22C121.85 209.129 121.735 209.059 121.609 209.015C121.483 208.971 121.35 208.954 121.217 208.964H65.5015C65.2578 208.982 65.03 209.091 64.8638 209.271C64.6976 209.45 64.6052 209.685 64.6052 209.929C64.6052 210.174 64.6976 210.409 64.8638 210.588C65.03 210.767 65.2578 210.877 65.5015 210.895Z" fill="#263238"/>
<path d="M130.078 215.586H65.5176C65.274 215.604 65.0462 215.714 64.88 215.893C64.7137 216.072 64.6214 216.307 64.6214 216.552C64.6214 216.796 64.7137 217.031 64.88 217.21C65.0462 217.39 65.274 217.499 65.5176 217.517H130.078C130.321 217.499 130.549 217.39 130.715 217.21C130.882 217.031 130.974 216.796 130.974 216.552C130.974 216.307 130.882 216.072 130.715 215.893C130.549 215.714 130.321 215.604 130.078 215.586Z" fill="#263238"/>
<path d="M128.501 222.225H65.5015C65.2578 222.244 65.03 222.353 64.8638 222.532C64.6976 222.711 64.6052 222.947 64.6052 223.191C64.6052 223.435 64.6976 223.671 64.8638 223.85C65.03 224.029 65.2578 224.139 65.5015 224.157H128.501C128.634 224.167 128.768 224.149 128.893 224.105C129.019 224.061 129.135 223.992 129.232 223.901C129.33 223.81 129.408 223.7 129.461 223.578C129.514 223.456 129.542 223.324 129.542 223.191C129.542 223.058 129.514 222.926 129.461 222.804C129.408 222.682 129.33 222.572 129.232 222.481C129.135 222.391 129.019 222.321 128.893 222.277C128.768 222.233 128.634 222.215 128.501 222.225Z" fill="#263238"/>
<path d="M130.078 228.869H65.5176C65.274 228.887 65.0462 228.997 64.88 229.176C64.7137 229.355 64.6214 229.59 64.6214 229.835C64.6214 230.079 64.7137 230.315 64.88 230.494C65.0462 230.673 65.274 230.782 65.5176 230.801H130.078C130.321 230.782 130.549 230.673 130.715 230.494C130.882 230.315 130.974 230.079 130.974 229.835C130.974 229.59 130.882 229.355 130.715 229.176C130.549 228.997 130.321 228.887 130.078 228.869Z" fill="#263238"/>
<path d="M79.129 235.514H65.5015C65.2578 235.533 65.03 235.642 64.8638 235.821C64.6976 236 64.6052 236.236 64.6052 236.48C64.6052 236.724 64.6976 236.96 64.8638 237.139C65.03 237.318 65.2578 237.428 65.5015 237.446H79.129C79.2619 237.456 79.3954 237.438 79.5212 237.394C79.6469 237.35 79.7623 237.281 79.8599 237.19C79.9576 237.099 80.0355 236.989 80.0888 236.867C80.1421 236.745 80.1696 236.613 80.1696 236.48C80.1696 236.347 80.1421 236.215 80.0888 236.093C80.0355 235.971 79.9576 235.861 79.8599 235.77C79.7623 235.68 79.6469 235.61 79.5212 235.566C79.3954 235.522 79.2619 235.504 79.129 235.514Z" fill="#263238"/>
<path d="M151.033 53.4492L155.584 60.115L151.35 63.343L147.563 57.6994" fill="white"/>
<path d="M151.033 53.4492L155.584 60.115L151.35 63.343L147.563 57.6994" stroke="#263238" stroke-linecap="round" stroke-linejoin="round"/>
<path d="M156.838 60.3799L153.335 55.6348L148.208 59.4976L150.748 64.2159L156.838 60.3799Z" fill="#651FFF" stroke="#263238" stroke-linecap="round" stroke-linejoin="round"/>
<path d="M186.654 84.7926L186.535 100.54C186.535 100.54 184.625 99.593 181.892 98.1727C176.97 95.6064 169.384 91.5123 165.553 88.6878C164.747 88.1442 164.022 87.4884 163.401 86.7402C160.921 83.1948 148.698 62.2773 148.698 62.2773L155.245 57.5645L167.081 75.0279L169.986 79.3319L170.255 79.4234L186.654 84.7926Z" fill="#999999"/>
<path opacity="0.3" d="M183.996 91.0405L181.876 98.1744C176.954 95.6081 169.368 91.514 165.537 88.6895C173.058 90.1205 183.996 91.0405 183.996 91.0405Z" fill="black" fill-opacity="0.7"/>
<path opacity="0.3" d="M170.255 79.3974C167.931 80.0161 167.21 81.5494 167.21 81.5494C166.134 78.6926 166.463 76.5029 167.081 75.0234L169.986 79.3274L170.255 79.3974Z" fill="black" fill-opacity="0.7"/>
<path d="M186.654 84.7926L186.535 100.54C186.535 100.54 184.625 99.593 181.892 98.1727C176.97 95.6064 169.384 91.5123 165.553 88.6878C164.747 88.1442 164.022 87.4884 163.401 86.7402C160.921 83.1948 148.698 62.2773 148.698 62.2773L155.245 57.5645L167.081 75.0279L169.986 79.3319L170.255 79.4234L186.654 84.7926Z" stroke="#263238" stroke-linecap="round" stroke-linejoin="round"/>
<path d="M151.286 54.7194C151.475 54.3367 151.585 53.9193 151.608 53.4928C151.647 52.9211 151.593 52.3469 151.447 51.7927C151.303 51.2245 151.077 50.6807 150.774 50.1787C150.511 49.7232 150.286 49.2463 150.102 48.753C149.973 48.4194 149.86 48.0859 149.763 47.7684C149.563 47.1113 149.401 46.443 149.279 45.7671C149.279 45.7671 148.203 45.4066 148.084 46.4503C148.057 46.7376 148.07 47.0273 148.122 47.3111C148.208 47.7953 148.364 48.2957 148.456 48.6992C148.537 48.929 148.552 49.1769 148.499 49.4147C148.459 49.5034 148.409 49.5865 148.348 49.6622L148.284 49.7483C148.15 49.9083 147.981 50.0339 147.789 50.1141C147.705 50.1496 147.616 50.1696 147.525 50.1733C147.502 50.179 147.478 50.179 147.455 50.1733C147.389 50.1809 147.322 50.1809 147.256 50.1733C146.904 50.098 146.565 49.971 146.25 49.7967C145.779 49.551 145.328 49.2704 144.9 48.9574C144.738 48.8337 144.582 48.7153 144.431 48.5916C144.056 48.2875 143.697 47.9643 143.355 47.6232C143.113 47.3811 142.844 47.1175 142.565 46.87C142.285 46.6225 142.027 46.4019 141.768 46.2029C141.004 45.6272 140.305 45.3313 140.063 45.9231C139.821 46.5149 140.111 46.6924 140.725 47.2627C140.94 47.4618 141.198 47.7039 141.494 48.0052C142.005 48.5425 142.475 49.118 142.898 49.7268L143.065 49.9635L142.839 50.2755C142.877 50.3347 142.742 50.2755 142.484 50.1679C141.812 49.8311 141.163 49.4501 140.542 49.0274C140.262 48.8444 139.966 48.6346 139.676 48.4248C139.385 48.215 139.138 48.0321 138.901 47.8276C137.658 46.8108 137.368 47.9783 137.572 48.4947C137.903 48.9487 138.322 49.3312 138.804 49.6192L139.67 50.2594L140.074 50.5768C140.612 51.0072 141.15 51.443 141.51 51.7443L141.661 51.8626L141.532 52.3522L141.3 52.293C140.628 52.1244 139.973 51.8957 139.342 51.6098C138.917 51.4161 138.589 51.2332 138.331 51.0718C137.846 50.8189 137.583 50.7328 137.255 51.0233C136.926 51.3139 137.255 51.8572 137.793 52.3199C138.223 52.6799 138.705 52.972 139.224 53.1861C139.317 53.2215 139.412 53.2521 139.509 53.2776C139.994 53.4354 140.457 53.6561 140.886 53.9339L141.15 54.0899L141.241 54.4881L140.811 54.445C140.358 54.3892 139.909 54.3065 139.466 54.1975C139.111 54.0997 138.752 54.0207 138.39 53.9608C138.279 53.9311 138.161 53.9358 138.052 53.9742C137.944 54.0126 137.85 54.083 137.782 54.176C137.572 54.4881 137.9 54.8324 138.4 55.1175C138.705 55.2831 139.026 55.4165 139.358 55.5156C139.602 55.596 139.855 55.6448 140.111 55.6609C140.59 55.722 141.059 55.8394 141.51 56.0106L142.048 56.2097C142.715 56.4518 143.329 56.7046 143.538 56.7907L143.619 56.823C144.06 57.1135 144.448 57.361 144.792 57.5385C145.598 58.0212 146.503 58.3155 147.439 58.3993C147.872 58.3928 148.288 58.2305 148.612 57.942" fill="white"/>
<path d="M151.286 54.7194C151.475 54.3367 151.585 53.9193 151.608 53.4928C151.647 52.9211 151.593 52.3469 151.447 51.7927C151.303 51.2245 151.077 50.6807 150.774 50.1787C150.511 49.7232 150.286 49.2463 150.102 48.753C149.973 48.4194 149.86 48.0859 149.763 47.7684C149.563 47.1113 149.401 46.443 149.279 45.7671C149.279 45.7671 148.203 45.4066 148.084 46.4503C148.057 46.7376 148.07 47.0273 148.122 47.3111C148.208 47.7953 148.364 48.2957 148.456 48.6992C148.537 48.929 148.552 49.1769 148.499 49.4147C148.459 49.5034 148.409 49.5865 148.348 49.6622L148.284 49.7483C148.15 49.9083 147.981 50.0339 147.789 50.1141C147.705 50.1496 147.616 50.1696 147.525 50.1733C147.502 50.179 147.478 50.179 147.455 50.1733C147.389 50.1809 147.322 50.1809 147.256 50.1733C146.904 50.098 146.565 49.971 146.25 49.7967V49.7967C145.779 49.551 145.328 49.2704 144.9 48.9574V48.9574C144.738 48.8337 144.582 48.7153 144.431 48.5916C144.056 48.2875 143.697 47.9643 143.355 47.6232C143.113 47.3811 142.844 47.1175 142.565 46.87C142.285 46.6225 142.027 46.4019 141.768 46.2029C141.004 45.6272 140.305 45.3313 140.063 45.9231C139.821 46.5149 140.111 46.6924 140.725 47.2627C140.94 47.4618 141.198 47.7039 141.494 48.0052C142.005 48.5425 142.475 49.118 142.898 49.7268V49.7268L143.065 49.9635L142.839 50.2755C142.877 50.3347 142.742 50.2755 142.484 50.1679C141.812 49.8311 141.163 49.4501 140.542 49.0274C140.262 48.8444 139.966 48.6346 139.676 48.4248C139.385 48.215 139.138 48.0321 138.901 47.8276C137.658 46.8108 137.368 47.9783 137.572 48.4947C137.903 48.9487 138.322 49.3312 138.804 49.6192L139.67 50.2594L140.074 50.5768C140.612 51.0072 141.15 51.443 141.51 51.7443L141.661 51.8626L141.532 52.3522L141.3 52.293C140.628 52.1244 139.973 51.8957 139.342 51.6098C138.917 51.4161 138.589 51.2332 138.331 51.0718C137.846 50.8189 137.583 50.7328 137.255 51.0233C136.926 51.3139 137.255 51.8572 137.793 52.3199C138.223 52.6799 138.705 52.972 139.224 53.1861V53.1861C139.317 53.2215 139.412 53.2521 139.509 53.2776C139.994 53.4354 140.457 53.6561 140.886 53.9339L141.15 54.0899L141.241 54.4881L140.811 54.445C140.358 54.3892 139.909 54.3065 139.466 54.1975V54.1975C139.111 54.0997 138.752 54.0207 138.39 53.9608C138.279 53.9311 138.161 53.9358 138.052 53.9742C137.944 54.0126 137.85 54.083 137.782 54.176C137.572 54.4881 137.9 54.8324 138.4 55.1175C138.705 55.2831 139.026 55.4165 139.358 55.5156C139.602 55.596 139.855 55.6448 140.111 55.6609C140.59 55.722 141.059 55.8394 141.51 56.0106L142.048 56.2097C142.715 56.4518 143.329 56.7046 143.538 56.7907L143.619 56.823C144.06 57.1135 144.448 57.361 144.792 57.5385C145.598 58.0212 146.503 58.3155 147.439 58.3993C147.872 58.3928 148.288 58.2305 148.612 57.942" stroke="#263238" stroke-linecap="round" stroke-linejoin="round"/>
<path d="M147.444 50.2051C147.444 50.2051 145.997 51.9805 147.191 53.6806" stroke="#263238" stroke-linecap="round" stroke-linejoin="round"/>
<path d="M174.258 90.4863C174.258 90.4863 176.093 93.8865 180.849 96.8724" stroke="#263238" stroke-linecap="round" stroke-linejoin="round"/>
<path d="M170.008 79.3066C170.008 79.3066 166.242 79.5864 167.426 83.2556" stroke="#263238" stroke-linecap="round" stroke-linejoin="round"/>
<path d="M233.723 228.041C233.723 228.041 223.378 236.87 217.981 238.301C212.585 239.732 214.124 243.799 214.124 243.799H226.713L232.093 242.637V243.831H235.434C235.434 243.831 238.404 242.309 237.667 234.685C237.64 234.217 233.723 228.041 233.723 228.041Z" fill="#263238"/>
<path d="M121.819 230.732C121.819 230.732 113.088 236.87 107.691 238.301C102.295 239.732 103.834 243.8 103.834 243.8H116.423L121.803 242.638V243.832H125.144C125.144 243.832 128.114 242.309 127.377 234.686C127.334 234.216 127.275 233.726 127.199 233.217C125.935 224.346 121.819 230.732 121.819 230.732Z" fill="#263238"/>
<path d="M226.256 234.998C226.256 234.998 193.825 208.781 191.975 205.375C190.124 201.97 186.449 170.787 186.449 170.787C185.976 171.121 155.579 192.7 154.169 194.793C154.072 194.938 153.873 195.25 153.583 195.713C149.559 202.088 128.334 236.601 128.334 236.601C126.577 236.656 124.829 236.328 123.211 235.638C121.593 234.949 120.145 233.915 118.968 232.609L140.832 185.486L172.876 154.152L173.354 153.679L176.41 141.493L203.902 138.131C203.902 138.131 206.269 146.852 207.533 153.69C207.589 154.122 207.616 154.556 207.614 154.992C207.754 162.664 205.559 197.09 206.7 199.979C207.926 203.105 234.089 227.654 234.089 227.654C234.369 233.212 226.256 234.998 226.256 234.998Z" fill="#757575"/>
<path opacity="0.3" d="M186.449 170.787C185.976 171.121 155.579 192.7 154.169 194.793C154.072 194.938 153.873 195.25 153.583 195.713C152.41 187.971 174.264 171.578 174.264 171.578L169.83 169.286L178.557 168C175.533 166.602 176.534 162.787 176.534 162.787L186.449 170.787Z" fill="black" fill-opacity="0.7"/>
<path opacity="0.3" d="M188.252 158.317L189.693 160.469C181.15 158.58 175.808 155.971 172.876 154.163L173.354 153.69L176.41 141.493L203.902 138.131C203.902 138.131 206.269 146.852 207.533 153.69C207.589 154.122 207.616 154.556 207.614 154.992C200.335 157.822 188.252 158.317 188.252 158.317Z" fill="black" fill-opacity="0.7"/>
<path d="M226.256 234.998C226.256 234.998 193.825 208.781 191.975 205.375C190.124 201.97 186.449 170.787 186.449 170.787C185.976 171.121 155.579 192.7 154.169 194.793C154.072 194.938 153.873 195.25 153.583 195.713C149.559 202.088 128.334 236.601 128.334 236.601C126.577 236.656 124.829 236.328 123.211 235.638C121.593 234.949 120.145 233.915 118.968 232.609L140.832 185.486L172.876 154.152L173.354 153.679L176.41 141.493L203.902 138.131C203.902 138.131 206.269 146.852 207.533 153.69C207.589 154.122 207.616 154.556 207.614 154.992C207.754 162.664 205.559 197.09 206.7 199.979C207.926 203.105 234.089 227.654 234.089 227.654C234.369 233.212 226.256 234.998 226.256 234.998Z" stroke="#263238" stroke-linecap="round" stroke-linejoin="round"/>
<path d="M210.573 114.168C209.035 122.825 202.858 133.386 202.858 133.386L204.311 137.91L208.206 150.01L187.003 156.326L183.146 149.079L179.59 155.799L172.37 152.904L172.962 149.859L174.328 142.811C174.296 142.413 174.269 141.994 174.237 141.563C173.349 128.468 173.44 101.595 185.669 84.5352C185.669 84.5352 203.821 87.0638 210.466 107.362C211.068 109.251 211.02 111.629 210.573 114.168Z" fill="#999999"/>
<path opacity="0.3" d="M202.858 133.385L204.311 137.91C200.696 141.251 196.338 145.291 195.923 145.797C195.385 146.448 180.526 148.729 172.945 149.859L174.312 142.811C174.28 142.413 174.253 141.993 174.221 141.563L204.978 116.207L210.573 114.168C209.035 122.824 202.858 133.385 202.858 133.385Z" fill="black" fill-opacity="0.7"/>
<path d="M210.573 114.168C209.035 122.825 202.858 133.386 202.858 133.386L204.311 137.91L208.206 150.01L187.003 156.326L183.146 149.079L179.59 155.799L172.37 152.904L172.962 149.859L174.328 142.811C174.296 142.413 174.269 141.994 174.237 141.563C173.349 128.468 173.44 101.595 185.669 84.5352C185.669 84.5352 203.821 87.0638 210.466 107.362C211.068 109.251 211.02 111.629 210.573 114.168Z" stroke="#263238" stroke-linecap="round" stroke-linejoin="round"/>
<path d="M181.677 119.167C181.677 119.167 211.439 95.0538 200.453 91.2663C190.56 87.85 177.917 95.5272 181.677 119.167Z" fill="#651FFF" stroke="#263238" stroke-linecap="round" stroke-linejoin="round"/>
<path d="M192.34 99.8795L188.252 101.649C186.141 106.97 184.797 112.564 184.26 118.263L181.107 122.249L180.23 118.263C180.23 118.263 181.769 106.196 186.993 101.267L188.257 96.4739L193.196 93.9453L192.34 99.8795Z" fill="#263238"/>
<path d="M181.989 117.639C181.989 117.639 205.473 101.209 200.055 90.2012C200.055 90.2012 206.484 90.0345 203.767 105.803L195.923 108.09L198.113 112.474C198.113 112.474 189.279 114.261 181.107 122.239L177.917 103.468L180.225 101.763L178.869 98.8792C178.869 98.8792 186.987 89.8462 194.756 90.6047C194.756 90.6047 185.502 94.4514 183.103 101.774C180.703 109.096 181.989 117.639 181.989 117.639Z" fill="#BFBFBF" stroke="#263238" stroke-linecap="round" stroke-linejoin="round"/>
<path d="M195.445 89.6467C195.445 89.6467 188.23 91.8256 185.007 98.9379L188.886 97.5015L189.279 98.7012L191.221 99.5028V103.479C191.221 103.479 202.331 98.4483 202.353 94.3703C202.358 93.2136 199.598 87.7798 195.445 89.6467Z" fill="#651FFF" stroke="#263238" stroke-linecap="round" stroke-linejoin="round"/>
<path d="M202.514 83.5353C199.695 88.0599 201.562 93.5959 201.562 93.5959C201.562 93.5959 193.142 99.869 190.506 98.1259C190.592 96.3319 190.55 94.534 190.382 92.7459C190.251 91.2119 190.02 89.688 189.693 88.1836C189.693 88.1836 190.587 87.6456 191.905 86.9301C196.106 84.5683 204.666 80.0921 202.514 83.5353Z" fill="white" stroke="#263238" stroke-linecap="round" stroke-linejoin="round"/>
<path d="M148.068 158.709C148.34 158.493 148.587 158.248 148.805 157.977C148.97 157.78 149.109 157.563 149.22 157.332C149.46 156.914 149.747 156.524 150.075 156.17L150.473 155.729C150.952 155.191 151.415 154.733 151.576 154.572L151.635 154.507C152.071 154.206 152.432 153.942 152.711 153.695C153.467 153.132 154.085 152.406 154.519 151.57C155.1 150.494 153.443 147.691 152.545 146.62C152.26 146.302 151.914 146.044 151.528 145.862C151.021 145.607 150.476 145.438 149.914 145.361C149.334 145.278 148.745 145.278 148.165 145.361C147.645 145.434 147.119 145.463 146.594 145.447C146.239 145.447 145.884 145.415 145.556 145.383C144.871 145.318 144.19 145.216 143.517 145.076C143.421 145.169 143.349 145.284 143.305 145.41C143.262 145.536 143.248 145.67 143.266 145.803C143.284 145.935 143.332 146.061 143.408 146.171C143.483 146.282 143.583 146.373 143.7 146.437C143.954 146.571 144.226 146.669 144.507 146.728C144.991 146.835 145.513 146.884 145.916 146.948C146.162 146.958 146.399 147.039 146.6 147.18C146.665 147.251 146.723 147.328 146.772 147.411L146.826 147.503C146.921 147.687 146.972 147.892 146.976 148.1C146.976 148.189 146.961 148.278 146.933 148.363C146.938 148.386 146.938 148.41 146.933 148.433C146.905 148.495 146.873 148.554 146.836 148.611C146.633 148.908 146.386 149.172 146.105 149.396C145.693 149.734 145.256 150.04 144.797 150.311L144.259 150.601C143.835 150.837 143.399 151.051 142.952 151.242C142.635 151.376 142.29 151.527 141.957 151.688C141.641 151.832 141.334 151.994 141.037 152.172C140.208 152.662 139.676 153.195 140.127 153.641C140.579 154.088 140.859 153.894 141.623 153.539C141.887 153.415 142.204 153.27 142.597 153.109C143.289 152.84 143.999 152.623 144.722 152.458L145.002 152.393L145.206 152.716C145.276 152.716 145.206 152.818 144.975 153.006C144.418 153.508 143.83 153.976 143.216 154.405C142.936 154.593 142.629 154.792 142.323 154.975C142.016 155.158 141.785 155.314 141.478 155.465C140.068 156.234 141.037 156.944 141.591 156.95C142.141 156.821 142.659 156.581 143.113 156.245L144.039 155.68L144.485 155.433C145.077 155.115 145.69 154.776 146.099 154.545L146.261 154.454L146.67 154.755L146.53 154.948C146.119 155.503 145.66 156.02 145.158 156.493C144.813 156.815 144.523 157.031 144.302 157.235C143.888 157.595 143.705 157.805 143.856 158.198C144.006 158.591 144.625 158.526 145.255 158.198C145.749 157.936 146.201 157.601 146.594 157.203C146.664 157.13 146.728 157.053 146.788 156.971C147.115 156.581 147.493 156.237 147.912 155.949L148.16 155.766L148.563 155.831C148.499 155.965 148.429 156.094 148.359 156.213C148.136 156.61 147.889 156.995 147.622 157.364C147.394 157.657 147.182 157.963 146.987 158.279C146.914 158.368 146.873 158.479 146.868 158.594C146.863 158.71 146.895 158.823 146.96 158.919C147.17 159.247 147.622 159.048 148.068 158.709Z" fill="white" stroke="#263238" stroke-linecap="round" stroke-linejoin="round"/>
<path d="M151.264 146.55L158.909 143.951L160.884 148.89L154.433 151.031" fill="white"/>
<path d="M151.264 146.55L158.909 143.951L160.884 148.89L154.433 151.031" stroke="#263238" stroke-linecap="round" stroke-linejoin="round"/>
<path d="M159.495 142.811L153.986 144.914L156.337 150.891L161.561 149.708L159.495 142.811Z" fill="#651FFF" stroke="#263238" stroke-linecap="round" stroke-linejoin="round"/>
<path d="M209.766 108.099C209.766 108.099 206.135 106.631 201.492 109.24C198.651 110.854 184.486 132.96 185.007 131.949L155.955 143.295L158.931 151.618C158.931 151.618 189.451 143.887 191.921 142.01C194.39 140.132 207.345 126.408 210.261 114.9" fill="#999999"/>
<path d="M209.766 108.099C209.766 108.099 206.135 106.631 201.492 109.24C198.651 110.854 184.486 132.96 185.007 131.949L155.955 143.295L158.931 151.618C158.931 151.618 189.451 143.887 191.921 142.01C194.39 140.132 207.345 126.408 210.261 114.9" stroke="#263238" stroke-linecap="round" stroke-linejoin="round"/>
<path d="M178.551 164.289C178.551 164.289 187.315 169.131 191.942 173.516" stroke="#263238" stroke-linecap="round" stroke-linejoin="round"/>
<path d="M202.885 152.254C202.815 152.372 202.53 157.096 205.371 159.07" stroke="#263238" stroke-linecap="round" stroke-linejoin="round"/>
<path d="M205.371 151.031C205.371 151.031 206.931 151.946 205.909 165.848C204.887 179.75 204.44 199.338 204.44 199.338C204.784 200.554 205.411 201.671 206.269 202.599C207.646 204.019 229.78 225.62 229.78 225.62" stroke="#263238" stroke-linecap="round" stroke-linejoin="round"/>
<path d="M185.25 168.932C185.25 168.932 178.078 170.277 172.338 169.427" stroke="#263238" stroke-linecap="round" stroke-linejoin="round"/>
<path d="M183.13 169.68C183.13 169.68 154.858 193.093 149.182 195.079" stroke="#263238" stroke-linecap="round" stroke-linejoin="round"/>
<path d="M151.264 194.029L132.294 226.299" stroke="#263238" stroke-linecap="round" stroke-linejoin="round"/>
<path d="M185.072 152.738C185.072 152.738 183.872 159.609 183.124 160.744C182.377 161.879 184.098 165.849 184.098 165.849" stroke="#263238" stroke-linecap="round" stroke-linejoin="round"/>
<path d="M183.13 152.738C183.13 152.738 182.242 156.913 181.957 157.908C181.672 158.904 183.13 159.297 183.13 159.297" stroke="#263238" stroke-linecap="round" stroke-linejoin="round"/>
<path d="M180.23 123.852C180.23 123.852 179.267 129.813 179.552 132.648L180.23 123.852Z" fill="#BFBFBF"/>
<path d="M180.23 123.852C180.23 123.852 179.267 129.813 179.552 132.648" stroke="#263238" stroke-linecap="round" stroke-linejoin="round"/>
<path d="M205.371 121.441C205.371 121.441 200.383 125.127 195.923 124.987" stroke="#263238" stroke-linecap="round" stroke-linejoin="round"/>
<path d="M185.007 131.949C185.007 131.949 187.03 133.499 188.235 132.649" stroke="#263238" stroke-linecap="round" stroke-linejoin="round"/>
<path d="M202.858 133.387C202.858 133.387 200.12 134.92 199.55 136.48" stroke="#263238" stroke-linecap="round" stroke-linejoin="round"/>
<path d="M198.113 87.9192C198.113 87.9192 194.681 91.5399 190.382 92.7181C190.251 91.1842 190.02 89.6603 189.693 88.1559C189.693 88.1559 190.587 87.6179 191.905 86.9023L198.113 87.9192Z" fill="#263238"/>
<path d="M199.221 88.7263C195.751 90.6523 191.819 91.3302 188.198 89.6462C186.912 89.0544 186.288 81.3341 188.198 74.5177C191.27 63.5048 200.174 63.139 207.345 69.6757C211.138 73.1404 208.809 80.0268 204.058 84.9495" fill="white"/>
<path d="M199.221 88.7263C195.751 90.6523 191.819 91.3302 188.198 89.6462C186.912 89.0544 186.288 81.3341 188.198 74.5177C191.27 63.5048 200.174 63.139 207.345 69.6757C211.138 73.1404 208.809 80.0268 204.058 84.9495" stroke="#263238" stroke-linecap="round" stroke-linejoin="round"/>
<path d="M193.734 75.2015C194.668 75.1261 195.6 75.3574 196.391 75.8604C197.181 76.3633 197.786 77.1105 198.113 77.9883" stroke="#263238" stroke-linecap="round" stroke-linejoin="round"/>
<path d="M190.506 73.8123C190.506 73.8123 190.043 72.4781 188.892 72.4512" stroke="#263238" stroke-linecap="round" stroke-linejoin="round"/>
<path d="M188.747 81.55C188.747 81.55 187.375 80.1243 187.805 79.3173C188.235 78.5103 188.671 78.9891 189.693 78.2736C190.003 78.0603 190.265 77.7844 190.461 77.4638C190.657 77.1431 190.785 76.7849 190.834 76.4121" fill="white"/>
<path d="M188.747 81.55C188.747 81.55 187.375 80.1243 187.805 79.3173C188.235 78.5103 188.671 78.9891 189.693 78.2736C190.003 78.0603 190.265 77.7844 190.461 77.4638C190.657 77.1431 190.785 76.7849 190.834 76.4121" stroke="#263238" stroke-linecap="round" stroke-linejoin="round"/>
<path d="M195.138 79.2357C194.998 79.5908 194.724 79.8167 194.525 79.7414C194.326 79.6661 194.272 79.311 194.412 78.9506C194.552 78.5901 194.826 78.3695 195.025 78.4502C195.224 78.5309 195.294 78.8806 195.138 79.2357Z" fill="#263238"/>
<path d="M190.059 76.7238C189.919 77.0842 189.645 77.3102 189.446 77.2295C189.247 77.1488 189.193 76.7991 189.333 76.444C189.473 76.0889 189.747 75.863 189.946 75.9383C190.145 76.0136 190.199 76.3956 190.059 76.7238Z" fill="#263238"/>
<path d="M188.252 83.25C188.252 83.25 191.081 84.552 193.19 84.5789C193.19 84.5789 192.114 86.86 190.274 86.6555C188.435 86.4511 188.838 83.9279 188.838 83.9279" stroke="#263238" stroke-linecap="round" stroke-linejoin="round"/>
<path d="M201.357 71.5527C201.357 71.5527 198.323 69.1156 191.673 67.9966C191.673 67.9966 191.706 63.9293 193.207 62.4605C194.708 60.9918 195.94 64.0207 195.94 64.0207C195.94 64.0207 199.706 62.977 206.393 67.5662C213.08 72.1553 209.874 82.7754 201.422 87.2892L201.373 85.4923C201.373 85.4923 201.459 81.7694 200.071 81.0753C200.071 81.0753 201.11 78.3853 199.985 76.4001C198.861 74.4149 201.357 71.5527 201.357 71.5527Z" fill="#263238"/>
<path d="M200.055 82.3842C200.055 82.3842 202.482 79.4414 204.472 80.4797C206.463 81.518 202.046 87.8342 200.055 86.6721" fill="white"/>
<path d="M200.055 82.3842C200.055 82.3842 202.482 79.4414 204.472 80.4797C206.463 81.518 202.046 87.8342 200.055 86.6721" stroke="#263238" stroke-linecap="round" stroke-linejoin="round"/>
</svg>
